<?xml version="1.0" encoding="utf-8"?>
<!-- Generator: Adobe Illustrator 16.0.0, SVG Export Plug-In . SVG Version: 6.00 Build 0)  -->
<!DOCTYPE svg PUBLIC "-//W3C//DTD SVG 1.1//EN" "http://www.w3.org/Graphics/SVG/1.1/DTD/svg11.dtd">
<svg version="1.1" id="Ebene_1" xmlns="http://www.w3.org/2000/svg" xmlns:xlink="http://www.w3.org/1999/xlink" x="0px" y="0px"
	 width="64px" height="64px" viewBox="0 0 64 64" enable-background="new 0 0 64 64" xml:space="preserve">
<g>
	<linearGradient id="SVGID_1_" gradientUnits="userSpaceOnUse" x1="24.71" y1="12.998" x2="24.71" y2="63.9697">
		<stop  offset="0" style="stop-color:#FFFFFF"/>
		<stop  offset="1" style="stop-color:#E9E9E9"/>
	</linearGradient>
	<rect x="3.542" y="12.998" fill="url(#SVGID_1_)" width="42.336" height="50.972"/>
	<path fill="#706F74" d="M45.125,13.751v49.466H4.295V13.751H45.125 M45.878,12.998H3.542V63.97h42.336V12.998L45.878,12.998z"/>
</g>
<rect x="4.046" y="38.495" fill="#4E4D4C" width="41.287" height="0.753"/>
<g>
	<polygon fill-rule="evenodd" clip-rule="evenodd" fill="#D0D0D0" points="45.441,13.403 3.542,13.403 24.322,0.415 63.624,0.415 	
		"/>
	<path fill="#706F74" d="M45.441,13.779H3.542l-0.2-0.696L24.123,0.095l0.199-0.057h39.302l0.218,0.683L45.66,13.709L45.441,13.779z
		 M4.854,13.026h40.467L62.449,0.791H24.431L4.854,13.026z"/>
</g>
<g>
	<polygon fill-rule="evenodd" clip-rule="evenodd" fill="#E9E9E9" points="63.624,50.705 45.441,63.694 45.441,13.293 63.624,0.306 
			"/>
	<path fill="#706F74" d="M45.66,64l-0.595-0.306V13.293l0.157-0.306L63.405,0L64,0.306v50.399l-0.158,0.306L45.66,64z
		 M45.818,13.487v49.476l17.429-12.452V1.037L45.818,13.487z"/>
</g>
<g>
	<g>
		<linearGradient id="SVGID_2_" gradientUnits="userSpaceOnUse" x1="23.6768" y1="28.748" x2="23.6768" y2="24.0156">
			<stop  offset="0" style="stop-color:#A0A09F"/>
			<stop  offset="1" style="stop-color:#4E4D4C"/>
		</linearGradient>
		<rect x="16.105" y="24.016" fill="url(#SVGID_2_)" width="15.143" height="4.732"/>
		<path fill="#1D1D1B" d="M31.248,29.124H16.105l-0.376-0.376v-4.732l0.376-0.376h15.143l0.376,0.376v4.732L31.248,29.124z
			 M16.482,28.371h14.389v-3.979H16.482V28.371z"/>
	</g>
</g>
<g>
	<g>
		<linearGradient id="SVGID_3_" gradientUnits="userSpaceOnUse" x1="23.6768" y1="53.0332" x2="23.6768" y2="48.3008">
			<stop  offset="0" style="stop-color:#A0A09F"/>
			<stop  offset="1" style="stop-color:#4E4D4C"/>
		</linearGradient>
		<rect x="16.105" y="48.301" fill="url(#SVGID_3_)" width="15.143" height="4.732"/>
		<path fill="#1D1D1B" d="M31.248,53.409H16.105l-0.376-0.376v-4.732l0.376-0.376h15.143l0.376,0.376v4.732L31.248,53.409z
			 M16.482,52.657h14.389v-3.979H16.482V52.657z"/>
	</g>
</g>
</svg>
