<?xml version="1.0" encoding="utf-8"?>
<!-- Generator: Adobe Illustrator 16.0.0, SVG Export Plug-In . SVG Version: 6.00 Build 0)  -->
<!DOCTYPE svg PUBLIC "-//W3C//DTD SVG 1.1//EN" "http://www.w3.org/Graphics/SVG/1.1/DTD/svg11.dtd">
<svg version="1.1" id="Ebene_1" xmlns="http://www.w3.org/2000/svg" xmlns:xlink="http://www.w3.org/1999/xlink" x="0px" y="0px"
	 width="64px" height="64px" viewBox="0 0 64 64" enable-background="new 0 0 64 64" xml:space="preserve">
<g>
	<path fill="#FFFFFF" d="M6.367,35.873L40.398,1.681l13.032,8.808l8.743,13.068L28.157,57.751L1.751,62.393L6.367,35.873z
		 M14.066,53.678l7.57-1.203l-2.958-7.317l-7.215-2.941l-0.99,7.85L14.066,53.678z"/>
	<path fill="#06315B" d="M40.56,3.362l11.933,8.062L60.5,23.395L27.526,56.537L3.351,60.794L7.58,36.503L40.56,3.362 M13.612,55.067
		l9.844-1.566l-3.778-9.34l-9.292-3.791L9.104,50.532L13.612,55.067 M40.235,0l-1.519,1.526l-32.98,33.14l-0.579,0.583l-0.143,0.807
		L0.785,60.347L0.151,64l3.65-0.645l24.176-4.253l0.813-0.146l0.579-0.582l32.974-33.146l1.505-1.509l-1.187-1.772L54.654,9.977
		l-0.281-0.424L53.95,9.267L42.017,1.205L40.235,0L40.235,0z M11.847,49.598l0.697-5.538l5.135,2.095l2.139,5.294l-5.298,0.839
		L11.847,49.598L11.847,49.598z"/>
</g>
</svg>
