<?xml version="1.0" encoding="utf-8"?>
<!-- Generator: Adobe Illustrator 16.0.0, SVG Export Plug-In . SVG Version: 6.00 Build 0)  -->
<!DOCTYPE svg PUBLIC "-//W3C//DTD SVG 1.1//EN" "http://www.w3.org/Graphics/SVG/1.1/DTD/svg11.dtd">
<svg version="1.1" id="Ebene_1" xmlns="http://www.w3.org/2000/svg" xmlns:xlink="http://www.w3.org/1999/xlink" x="0px" y="0px"
	 width="64px" height="64px" viewBox="0 0 64 64" enable-background="new 0 0 64 64" xml:space="preserve">
<g>
	<g>
		<g>
			<linearGradient id="SVGID_1_" gradientUnits="userSpaceOnUse" x1="23.1445" y1="18.0811" x2="23.1445" y2="63.6309">
				<stop  offset="0" style="stop-color:#B9A483"/>
				<stop  offset="1" style="stop-color:#928269"/>
			</linearGradient>
			<rect x="0.369" y="18.081" fill-rule="evenodd" clip-rule="evenodd" fill="url(#SVGID_1_)" width="45.55" height="45.55"/>
			<path fill="#6C5A4F" d="M45.919,64H0.369L0,63.631v-45.55l0.369-0.368h45.55l0.368,0.368v45.55L45.919,64z M0.737,63.263H45.55
				V18.45H0.737V63.263z"/>
		</g>
		<g>
			<polygon fill-rule="evenodd" clip-rule="evenodd" fill="#928269" points="45.919,18.188 0.369,18.188 20.613,5.536 63.631,5.536 
							"/>
			<path fill="#6C5A4F" d="M45.919,18.558H0.369l-0.196-0.683L20.417,5.223l0.196-0.056h43.018l0.214,0.669L46.134,18.488
				L45.919,18.558z M1.655,17.819h44.146L62.479,5.905H20.719L1.655,17.819z"/>
		</g>
		<g>
			<polygon fill-rule="evenodd" clip-rule="evenodd" fill="#A89679" points="63.631,50.979 45.919,63.631 45.919,18.081 
				63.631,5.431 			"/>
			<path fill="#6C5A4F" d="M46.134,63.931l-0.584-0.3v-45.55l0.155-0.3l17.712-12.65L64,5.431v45.548l-0.155,0.301L46.134,63.931z
				 M46.287,18.271v44.643l16.976-12.126V6.147L46.287,18.271z"/>
		</g>
	</g>
	<g>
		<path fill="#FFD700" d="M31.772,33.591c0.243,3.815-1.032,7.449-3.368,10.241c0.425-1.033,0.661-2.16,0.661-3.345
			c0-4.856-3.938-8.795-8.795-8.795c-4.858,0-8.796,3.938-8.796,8.795c0,0.865,0.129,1.698,0.363,2.488
			c-1.886-1.909-3.346-4.245-4.206-6.871H5.308c2.064,8.349,8.081,13.918,16.761,13.918c7.639,0,16.991-8.084,17.815-16.432H31.772z
			 M20.271,34.082c3.537,0,6.405,2.869,6.405,6.405c0,3.539-2.868,6.406-6.405,6.406c-3.538,0-6.405-2.867-6.405-6.406
			C13.865,36.951,16.732,34.082,20.271,34.082z"/>
		<path fill="#6C5A4F" d="M20.271,31.692c4.856,0,8.795,3.938,8.795,8.795c0,1.185-0.236,2.312-0.661,3.345
			c2.336-2.792,3.611-6.426,3.368-10.241h8.111c-0.824,8.348-10.177,16.432-17.815,16.432c-8.68,0-14.696-5.569-16.761-13.918h2.324
			c0.86,2.626,2.32,4.962,4.206,6.871c-0.234-0.79-0.363-1.623-0.363-2.488C11.475,35.631,15.412,31.692,20.271,31.692
			 M20.271,46.894c3.537,0,6.405-2.867,6.405-6.406c0-3.536-2.868-6.405-6.405-6.405c-3.538,0-6.405,2.869-6.405,6.405
			C13.865,44.026,16.732,46.894,20.271,46.894 M20.271,30.709c-5.161,0-9.401,4.018-9.755,9.09c-0.829-1.244-1.487-2.593-1.948-4
			l-0.223-0.678H7.632H5.308H4.051l0.302,1.221c2.271,9.182,8.894,14.664,17.716,14.664c8.463,0,17.947-8.74,18.794-17.318
			l0.106-1.081h-1.085h-8.111h-1.05l0.067,1.047c0.123,1.917-0.162,3.811-0.821,5.572C29.348,34.428,25.235,30.709,20.271,30.709
			L20.271,30.709z M20.271,45.909c-2.989,0-5.422-2.433-5.422-5.422s2.433-5.422,5.422-5.422s5.422,2.433,5.422,5.422
			S23.26,45.909,20.271,45.909L20.271,45.909z"/>
	</g>
</g>
</svg>
