<?xml version="1.0" encoding="utf-8"?>
<!-- Generator: Adobe Illustrator 16.0.0, SVG Export Plug-In . SVG Version: 6.00 Build 0)  -->
<!DOCTYPE svg PUBLIC "-//W3C//DTD SVG 1.1//EN" "http://www.w3.org/Graphics/SVG/1.1/DTD/svg11.dtd">
<svg version="1.1" id="Ebene_1" xmlns="http://www.w3.org/2000/svg" xmlns:xlink="http://www.w3.org/1999/xlink" x="0px" y="0px"
	 width="64px" height="64px" viewBox="0 0 64 64" enable-background="new 0 0 64 64" xml:space="preserve">
<g>
	<g>
		<g>
			<linearGradient id="SVGID_1_" gradientUnits="userSpaceOnUse" x1="23.1436" y1="18.082" x2="23.1436" y2="63.6299">
				<stop  offset="0" style="stop-color:#B9A483"/>
				<stop  offset="1" style="stop-color:#928269"/>
			</linearGradient>
			<rect x="0.37" y="18.082" fill-rule="evenodd" clip-rule="evenodd" fill="url(#SVGID_1_)" width="45.547" height="45.548"/>
			<path fill="#6C5A4F" d="M45.917,64H0.37L0,63.63V18.082l0.37-0.369h45.547l0.369,0.369V63.63L45.917,64z M0.74,63.26h44.807
				V18.452H0.74V63.26z"/>
		</g>
		<g>
			<polygon fill-rule="evenodd" clip-rule="evenodd" fill="#928269" points="45.917,18.188 0.37,18.188 20.614,5.537 63.63,5.537 
							"/>
			<path fill="#6C5A4F" d="M45.917,18.559H0.37l-0.196-0.685l20.243-12.65l0.197-0.056H63.63l0.215,0.67L46.132,18.489
				L45.917,18.559z M1.659,17.818h44.139L62.477,5.907H20.72L1.659,17.818z"/>
		</g>
		<g>
			<polygon fill-rule="evenodd" clip-rule="evenodd" fill="#A89679" points="63.63,50.978 45.917,63.63 45.917,18.082 63.63,5.431 
							"/>
			<path fill="#6C5A4F" d="M46.132,63.931l-0.585-0.301V18.082l0.155-0.3L63.415,5.13L64,5.431v45.547l-0.155,0.3L46.132,63.931z
				 M46.286,18.273v44.638L63.26,50.786V6.149L46.286,18.273z"/>
		</g>
	</g>
	<g>
		<linearGradient id="SVGID_2_" gradientUnits="userSpaceOnUse" x1="8.2656" y1="40.8555" x2="35.6562" y2="40.8555">
			<stop  offset="0" style="stop-color:#469B41"/>
			<stop  offset="1" style="stop-color:#288342"/>
		</linearGradient>
		<path fill-rule="evenodd" clip-rule="evenodd" fill="url(#SVGID_2_)" d="M35.656,35.22v-1.475c0-4.597-2.06-6.894-6.18-6.894
			H17.059c-4.097,0-6.189,2.075-6.29,6.21h-0.01v0.721v2.207H8.266v3.375h2.493v3.061H8.266V45.8h2.493v2.539v0.312
			c0,4.14,1.9,6.209,5.698,6.209h0.602h8.367h4.051c4.12,0,6.18-2.298,6.18-6.895v-1.474h-4.619v2.283
			c0,0.786-0.381,1.179-1.141,1.179h-4.471h-8.907c-0.801,0-1.199-0.517-1.199-1.554V45.8h8.182v-3.375h-8.182v-3.061h8.182v-3.375
			h-8.182v-2.268v-0.908c0-0.704,0.32-1.057,0.96-1.057h13.617c0.76,0,1.141,0.395,1.141,1.181v2.282H35.656z"/>
		<path fill="#22612B" d="M29.477,55.354h-13.02c-4.051,0-6.191-2.317-6.191-6.702v-2.358H7.772v-4.361h2.493v-2.074H7.772v-4.361
			h2.493l0.031-2.928c0.263-4.065,2.592-6.21,6.762-6.21h12.418c4.428,0,6.673,2.485,6.673,7.387v1.968h-5.605v-2.775
			c0-0.577-0.228-0.688-0.647-0.688H16.279c-0.273,0-0.467,0.041-0.467,0.563v2.683h8.182v4.361h-8.182v2.074h8.182v4.361h-8.182
			V48.4c0,1.061,0.441,1.061,0.706,1.061h13.378c0.42,0,0.647-0.108,0.647-0.686v-2.776h5.605v1.967
			C36.149,52.868,33.904,55.354,29.477,55.354z M8.759,45.307h2.493v3.345c0,3.846,1.702,5.716,5.205,5.716h13.02
			c3.827,0,5.687-2.095,5.687-6.401v-0.98H31.53v1.79c0,1.062-0.596,1.672-1.634,1.672H16.519c-0.509,0-1.692-0.199-1.692-2.047
			v-3.094h8.182v-2.389h-8.182v-4.047h8.182v-2.389h-8.182v-3.669c0-0.971,0.543-1.55,1.453-1.55h13.617
			c1.038,0,1.634,0.61,1.634,1.674v1.789h3.633v-0.981c0-4.307-1.859-6.4-5.687-6.4H17.059c-3.808,0-5.703,1.873-5.797,5.729
			l-0.01,0.709v2.7H8.759v2.389h2.493v4.047H8.759V45.307z"/>
	</g>
</g>
</svg>
