<?xml version="1.0" encoding="utf-8"?>
<!-- Generator: Adobe Illustrator 16.0.0, SVG Export Plug-In . SVG Version: 6.00 Build 0)  -->
<!DOCTYPE svg PUBLIC "-//W3C//DTD SVG 1.1//EN" "http://www.w3.org/Graphics/SVG/1.1/DTD/svg11.dtd">
<svg version="1.1" id="Ebene_1" xmlns="http://www.w3.org/2000/svg" xmlns:xlink="http://www.w3.org/1999/xlink" x="0px" y="0px"
	 width="64px" height="64px" viewBox="0 0 64 64" enable-background="new 0 0 64 64" xml:space="preserve">
<g>
	<g>
		<g>
			<linearGradient id="SVGID_1_" gradientUnits="userSpaceOnUse" x1="23.1475" y1="18.0869" x2="23.1475" y2="63.6172">
				<stop  offset="0" style="stop-color:#B9A483"/>
				<stop  offset="1" style="stop-color:#928269"/>
			</linearGradient>
			<rect x="0.383" y="18.087" fill-rule="evenodd" clip-rule="evenodd" fill="url(#SVGID_1_)" width="45.528" height="45.53"/>
			<path fill="#6C5A4F" d="M45.911,64H0.383L0,63.617v-45.53l0.383-0.383h45.528l0.383,0.383v45.53L45.911,64z M0.766,63.234h44.762
				V18.471H0.766V63.234z"/>
		</g>
		<g>
			<polygon fill-rule="evenodd" clip-rule="evenodd" fill="#928269" points="45.911,18.194 0.383,18.194 20.619,5.548 63.617,5.548 
							"/>
			<path fill="#6C5A4F" d="M45.911,18.577H0.383L0.18,17.869L20.416,5.223l0.203-0.058h42.998l0.222,0.694L46.133,18.506
				L45.911,18.577z M1.718,17.812h44.07L62.423,5.931H20.729L1.718,17.812z"/>
		</g>
		<g>
			<polygon fill-rule="evenodd" clip-rule="evenodd" fill="#A89679" points="63.617,50.971 45.911,63.617 45.911,18.087 
				63.617,5.441 			"/>
			<path fill="#6C5A4F" d="M46.133,63.929l-0.605-0.312v-45.53l0.16-0.311L63.395,5.131L64,5.441v45.529l-0.161,0.312L46.133,63.929
				z M46.294,18.285v44.588l16.94-12.101V6.186L46.294,18.285z"/>
		</g>
	</g>
	<g>
		<linearGradient id="SVGID_2_" gradientUnits="userSpaceOnUse" x1="8.2734" y1="40.8535" x2="35.6543" y2="40.8535">
			<stop  offset="0" style="stop-color:#E20613"/>
			<stop  offset="1" style="stop-color:#BD1622"/>
		</linearGradient>
		<path fill-rule="evenodd" clip-rule="evenodd" fill="url(#SVGID_2_)" d="M35.654,35.221v-1.476c0-4.595-2.059-6.891-6.176-6.891
			H17.063c-4.094,0-6.187,2.073-6.287,6.208h-0.011v0.72v2.205H8.273v3.373h2.492v3.062H8.273v3.373h2.492v2.537v0.312
			c0,4.139,1.9,6.208,5.697,6.208h0.601h8.365h4.05c4.117,0,6.176-2.298,6.176-6.893v-1.473h-4.617v2.281
			c0,0.786-0.38,1.18-1.141,1.18h-4.468h-8.906c-0.798,0-1.198-0.518-1.198-1.553v-2.601h8.181v-3.373h-8.181V39.36h8.181v-3.373
			h-8.181v-2.266v-0.908c0-0.703,0.321-1.055,0.962-1.055h13.61c0.761,0,1.141,0.393,1.141,1.178v2.284H35.654z"/>
		<path fill="#8A1002" d="M29.479,55.363H16.463c-4.061,0-6.207-2.323-6.207-6.719v-2.339H7.764v-4.394h2.492v-2.041H7.764v-4.395
			h2.492l0.033-2.925c0.268-4.063,2.601-6.209,6.774-6.209h12.415c4.375,0,6.688,2.56,6.688,7.402v1.985h-5.641v-2.794
			c0-0.564-0.211-0.668-0.629-0.668h-13.61c-0.272,0-0.451,0.039-0.451,0.545v2.663h8.18v4.395h-8.18v2.041h8.18v4.394h-8.18v2.09
			c0,1.042,0.431,1.042,0.688,1.042h13.374c0.418,0,0.629-0.104,0.629-0.669v-2.792h5.641v1.983
			C36.166,52.804,33.854,55.363,29.479,55.363z M8.785,45.284h2.491v3.36c0,3.834,1.697,5.697,5.187,5.697h13.016
			c3.812,0,5.665-2.087,5.665-6.382v-0.963h-3.596v1.771c0,1.073-0.603,1.689-1.651,1.689H16.522c-0.513,0-1.709-0.201-1.709-2.062
			v-3.111h8.181v-2.352h-8.181v-4.082h8.181v-2.354h-8.181v-3.684c0-0.98,0.551-1.565,1.473-1.565h13.61
			c1.049,0,1.651,0.615,1.651,1.688v1.772h3.596v-0.964c0-4.293-1.853-6.38-5.665-6.38H17.063c-3.795,0-5.684,1.868-5.775,5.709
			l-0.012,0.708v2.715H8.785v2.354h2.491v4.082H8.785V45.284z"/>
	</g>
</g>
</svg>
