<?xml version="1.0" encoding="utf-8"?>
<!-- Generator: Adobe Illustrator 16.0.0, SVG Export Plug-In . SVG Version: 6.00 Build 0)  -->
<!DOCTYPE svg PUBLIC "-//W3C//DTD SVG 1.1//EN" "http://www.w3.org/Graphics/SVG/1.1/DTD/svg11.dtd">
<svg version="1.1" id="Ebene_1" xmlns="http://www.w3.org/2000/svg" xmlns:xlink="http://www.w3.org/1999/xlink" x="0px" y="0px"
	 width="64px" height="64px" viewBox="0 0 64 64" enable-background="new 0 0 64 64" xml:space="preserve">
<g>
	<g>
		<g>
			<linearGradient id="SVGID_1_" gradientUnits="userSpaceOnUse" x1="23.1465" y1="18.085" x2="23.1465" y2="63.6221">
				<stop  offset="0" style="stop-color:#B9A483"/>
				<stop  offset="1" style="stop-color:#928269"/>
			</linearGradient>
			<rect x="0.378" y="18.085" fill-rule="evenodd" clip-rule="evenodd" fill="url(#SVGID_1_)" width="45.537" height="45.537"/>
			<path fill="#6C5A4F" d="M45.915,64H0.378L0,63.622V18.085l0.378-0.378h45.537l0.378,0.378v45.537L45.915,64z M0.755,63.245
				h44.782V18.463H0.755V63.245z"/>
		</g>
		<g>
			<polygon fill-rule="evenodd" clip-rule="evenodd" fill="#928269" points="45.915,18.191 0.378,18.191 20.615,5.542 63.622,5.542 
							"/>
			<path fill="#6C5A4F" d="M45.915,18.568H0.378L0.177,17.87L20.415,5.222l0.2-0.058h43.007l0.22,0.685L46.135,18.498L45.915,18.568
				z M1.694,17.813h44.1L62.444,5.92H20.724L1.694,17.813z"/>
		</g>
		<g>
			<polygon fill-rule="evenodd" clip-rule="evenodd" fill="#A89679" points="63.622,50.973 45.915,63.622 45.915,18.085 
				63.622,5.435 			"/>
			<path fill="#6C5A4F" d="M46.135,63.929l-0.598-0.307V18.085l0.159-0.307l17.707-12.65L64,5.435v45.538l-0.158,0.307
				L46.135,63.929z M46.293,18.279v44.609l16.952-12.111V6.169L46.293,18.279z"/>
		</g>
	</g>
	<g>
		
			<linearGradient id="SVGID_2_" gradientUnits="userSpaceOnUse" x1="-1884.208" y1="-1637.4941" x2="-1872.1702" y2="-1604.4204" gradientTransform="matrix(0 1 -1 0 -1598.9961 1919.4424)">
			<stop  offset="0" style="stop-color:#E5332A"/>
			<stop  offset="1" style="stop-color:#BD1622"/>
		</linearGradient>
		<polygon fill="url(#SVGID_2_)" points="30.606,56.834 37.544,49.898 28.898,41.254 37.544,32.609 30.606,25.672 21.963,34.317 
			13.317,25.672 6.382,32.609 15.026,41.254 6.382,49.898 13.317,56.834 21.963,48.189 		"/>
		<path fill="#8A1002" d="M30.606,27.096l5.513,5.514l-7.933,7.933l-0.712,0.712l0.712,0.713l7.933,7.932l-5.513,5.512l-7.932-7.934
			l-0.712-0.712l-0.712,0.712l-7.934,7.934l-5.512-5.512l7.933-7.932l0.712-0.713l-0.712-0.712l-7.933-7.933l5.512-5.514
			l7.934,7.934l0.712,0.713l0.712-0.713L30.606,27.096 M30.606,25.672l-8.644,8.646l-8.646-8.646l-6.936,6.938l8.645,8.645
			l-8.645,8.645l6.936,6.936l8.646-8.645l8.644,8.645l6.938-6.936l-8.646-8.645l8.646-8.645L30.606,25.672L30.606,25.672z"/>
	</g>
</g>
</svg>
