<?xml version="1.0" encoding="utf-8"?>
<!-- Generator: Adobe Illustrator 16.0.0, SVG Export Plug-In . SVG Version: 6.00 Build 0)  -->
<!DOCTYPE svg PUBLIC "-//W3C//DTD SVG 1.1//EN" "http://www.w3.org/Graphics/SVG/1.1/DTD/svg11.dtd">
<svg version="1.1" id="Ebene_1" xmlns="http://www.w3.org/2000/svg" xmlns:xlink="http://www.w3.org/1999/xlink" x="0px" y="0px"
	 width="64px" height="64px" viewBox="0 0 64 64" enable-background="new 0 0 64 64" xml:space="preserve">
<g>
	<g>
		<linearGradient id="SVGID_1_" gradientUnits="userSpaceOnUse" x1="1.751" y1="19.9902" x2="62.498" y2="19.9902">
			<stop  offset="0" style="stop-color:#9D9D9C"/>
			<stop  offset="1" style="stop-color:#4E4D4C"/>
		</linearGradient>
		<polygon fill="url(#SVGID_1_)" points="62.498,32.97 1.751,34.324 11.358,5.657 53.342,5.657 		"/>
		<path fill="#6F6F6F" d="M1.408,34.577l0.111-0.33l9.663-28.834h42.335l0.057,0.168l9.263,27.627l-0.333,0.008L1.408,34.577z
			 M11.535,5.903l-9.44,28.168l60.065-1.339L53.165,5.903H11.535z"/>
	</g>
	<g>
		<g>
			<linearGradient id="SVGID_2_" gradientUnits="userSpaceOnUse" x1="31.7197" y1="24.1006" x2="31.7197" y2="31.3174">
				<stop  offset="0.2118" style="stop-color:#FFFFFF"/>
				<stop  offset="1" style="stop-color:#C6C6C6"/>
			</linearGradient>
			<polygon fill="url(#SVGID_2_)" points="54.104,24.101 53.051,31.317 10.39,31.317 9.335,24.101 			"/>
			<path fill="#9B9A9A" d="M53.368,31.685H10.072l-1.163-7.951H54.53L53.368,31.685z M10.708,30.95h42.024l0.947-6.481H9.76
				L10.708,30.95z"/>
		</g>
		<g>
			<linearGradient id="SVGID_3_" gradientUnits="userSpaceOnUse" x1="32.002" y1="4.2373" x2="32.0019" y2="63.5098">
				<stop  offset="0" style="stop-color:#009EE2"/>
				<stop  offset="1" style="stop-color:#00416E"/>
			</linearGradient>
			<path fill="url(#SVGID_3_)" d="M53.457,4.237H10.546L0.5,31.179L4.056,63.51h56.891l2.557-32.331L53.457,4.237z M12.316,6.877
				h39.37l9.02,24.44H3.297L12.316,6.877z"/>
			<path fill="#00416E" d="M61.399,64H3.616L0,31.116l0.04-0.109L10.206,3.748h43.591L64,31.108L61.399,64z M4.495,63.021h55.998
				l2.514-31.772L53.116,4.728H10.887L0.999,31.24L4.495,63.021z M61.409,31.807H2.594l9.38-25.419h40.056L61.409,31.807z M4,30.827
				h56.003l-8.658-23.46H12.657L4,30.827z"/>
		</g>
		<g>
			<linearGradient id="SVGID_4_" gradientUnits="userSpaceOnUse" x1="31.7207" y1="7.1074" x2="31.7207" y2="17.1709">
				<stop  offset="0" style="stop-color:#FFFFFF"/>
				<stop  offset="0.67" style="stop-color:#C6C6C6"/>
			</linearGradient>
			<polygon fill="url(#SVGID_4_)" points="52.591,7.107 51.531,17.171 11.906,17.171 10.85,7.107 			"/>
			<path fill="#9B9A9A" d="M51.862,17.538H11.575L10.442,6.74h42.557L51.862,17.538z M12.237,16.804h38.964l0.98-9.329H11.258
				L12.237,16.804z"/>
		</g>
		<g>
			<linearGradient id="SVGID_5_" gradientUnits="userSpaceOnUse" x1="31.7197" y1="12.2988" x2="31.7197" y2="18.5117">
				<stop  offset="0.1232" style="stop-color:#FFFFFF"/>
				<stop  offset="1" style="stop-color:#C6C6C6"/>
			</linearGradient>
			<polygon fill="url(#SVGID_5_)" points="53.267,12.299 52.678,18.512 10.675,18.512 10.173,12.299 			"/>
			<path fill="#9B9A9A" d="M53.013,18.88H10.336l-0.561-6.948h43.896L53.013,18.88z M11.014,18.145h41.33l0.519-5.479H10.571
				L11.014,18.145z"/>
		</g>
		<g>
			<linearGradient id="SVGID_6_" gradientUnits="userSpaceOnUse" x1="31.7207" y1="18.0615" x2="31.7207" y2="24.1006">
				<stop  offset="0.1527" style="stop-color:#FFFFFF"/>
				<stop  offset="1" style="stop-color:#C6C6C6"/>
			</linearGradient>
			<polygon fill="url(#SVGID_6_)" points="54.025,18.062 53.302,24.101 10.175,24.101 9.415,18.062 			"/>
			<path fill="#9B9A9A" d="M53.629,24.469H9.851l-0.852-6.775h45.44L53.629,24.469z M10.5,23.733h42.476l0.635-5.305H9.832
				L10.5,23.733z"/>
		</g>
	</g>
	<g>
		<path fill="#FFFFFF" d="M41.173,39.712l-4.543-3.056L24.079,49.211l-1.61,9.199l9.199-1.611l12.554-12.555L41.173,39.712z
			 M26.375,56.241l-1.719-1.716l0.488-3.851l3.54,1.438l1.435,3.538L26.375,56.241z"/>
		<path fill="#22612B" d="M36.63,36.656l4.543,3.056l3.049,4.532L31.668,56.799l-9.199,1.611l1.61-9.199L36.63,36.656
			 M26.375,56.241l3.744-0.591l-1.435-3.538l-3.54-1.438l-0.488,3.851L26.375,56.241 M36.537,35.708l-0.428,0.428L23.56,48.691
			l-0.164,0.164l-0.04,0.229l-1.611,9.199l-0.18,1.031l1.03-0.181l9.2-1.611l0.229-0.04l0.164-0.164l12.553-12.556l0.428-0.428
			l-0.337-0.502l-3.05-4.533l-0.08-0.119l-0.118-0.08l-4.544-3.056L36.537,35.708L36.537,35.708z M25.432,54.261l0.322-2.545
			l2.365,0.96l0.972,2.393l-2.461,0.389L25.432,54.261L25.432,54.261z"/>
	</g>
</g>
</svg>
