<?xml version="1.0" encoding="utf-8"?>
<!-- Generator: Adobe Illustrator 16.0.0, SVG Export Plug-In . SVG Version: 6.00 Build 0)  -->
<!DOCTYPE svg PUBLIC "-//W3C//DTD SVG 1.1//EN" "http://www.w3.org/Graphics/SVG/1.1/DTD/svg11.dtd">
<svg version="1.1" id="Ebene_1" xmlns="http://www.w3.org/2000/svg" xmlns:xlink="http://www.w3.org/1999/xlink" x="0px" y="0px"
	 width="64px" height="64px" viewBox="0 0 64 64" enable-background="new 0 0 64 64" xml:space="preserve">
<g>
	<g>
		<polygon fill="#7A7B7A" points="41.322,33.062 41.322,57.573 5.246,57.573 5.246,42.258 2.314,39.497 2.314,60.479 44.23,60.479 
			44.23,29.845 		"/>
		<path fill="#454544" d="M44.679,60.928H1.865V38.455l3.83,3.609v15.061h35.179V32.886l3.805-4.21V60.928z M2.762,60.021h41.01
			V31.018l-2.002,2.214v24.79H4.793v-15.57l-2.031-1.913V60.021z"/>
	</g>
	<g>
		<polygon fill="#7A7B7A" points="5.246,20.511 39.354,20.511 42.839,17.589 2.314,17.589 2.314,29.49 5.246,27.615 		"/>
		<path fill="#454544" d="M1.865,30.311V17.136H44.08l-4.569,3.827H5.695v6.899L1.865,30.311z M2.762,18.037v10.627l2.031-1.296
			v-7.307h34.394l2.421-2.024H2.762z"/>
	</g>
	<g>
		<polygon fill="#7A7B7A" points="10.754,27.023 0.726,33.455 20.059,51.8 63.668,3.417 20.757,39.408 		"/>
		<path fill="#454544" d="M20.085,52.441L0,33.384l10.851-6.956l9.969,12.343L63.376,3.072L64,3.72L20.085,52.441z M1.456,33.523
			l18.577,17.625L59.008,7.911L20.695,40.05L10.658,27.62L1.456,33.523z"/>
	</g>
</g>
</svg>
