<?xml version="1.0" encoding="utf-8"?>
<!-- Generator: Adobe Illustrator 15.1.0, SVG Export Plug-In . SVG Version: 6.00 Build 0)  -->
<!DOCTYPE svg PUBLIC "-//W3C//DTD SVG 1.1//EN" "http://www.w3.org/Graphics/SVG/1.1/DTD/svg11.dtd">
<svg version="1.1" id="Ebene_1" xmlns="http://www.w3.org/2000/svg" xmlns:xlink="http://www.w3.org/1999/xlink" x="0px" y="0px"
	 width="64px" height="64px" viewBox="0 0 64 64" enable-background="new 0 0 64 64" xml:space="preserve">
<g>
	<linearGradient id="SVGID_1_" gradientUnits="userSpaceOnUse" x1="32.0005" y1="63.499" x2="32.0005" y2="0.5015">
		<stop  offset="0" style="stop-color:#469B41"/>
		<stop  offset="1" style="stop-color:#288342"/>
	</linearGradient>
	<polygon fill="url(#SVGID_1_)" stroke="#22612B" stroke-miterlimit="10" points="63.499,41.016 63.499,22.983 41.016,22.983 
		41.016,0.501 22.983,0.501 22.983,22.983 0.501,22.983 0.501,41.016 22.983,41.016 22.983,63.499 41.016,63.499 41.016,41.016 	"/>
	<path fill="#22732B" d="M41.516,64H22.482V41.518H0V22.482h22.482V0h19.034v22.482H64v19.034H41.516V64z M23.484,62.998h17.03
		V40.516h22.483V23.485H40.514V1.002h-17.03v22.482H1.002v17.03h22.482V62.998L23.484,62.998z"/>
</g>
</svg>
