<?xml version="1.0" encoding="utf-8"?>
<!-- Generator: Adobe Illustrator 16.0.0, SVG Export Plug-In . SVG Version: 6.00 Build 0)  -->
<!DOCTYPE svg PUBLIC "-//W3C//DTD SVG 1.1//EN" "http://www.w3.org/Graphics/SVG/1.1/DTD/svg11.dtd">
<svg version="1.1" id="Ebene_1" xmlns="http://www.w3.org/2000/svg" xmlns:xlink="http://www.w3.org/1999/xlink" x="0px" y="0px"
	 width="16px" height="16px" viewBox="0 0 16 16" enable-background="new 0 0 16 16" xml:space="preserve">
<g>
	<g>
		
			<linearGradient id="SVGID_1_" gradientUnits="userSpaceOnUse" x1="273.499" y1="-99.1255" x2="273.499" y2="-114.8745" gradientTransform="matrix(1 0 0 -1 -265.5 -99)">
			<stop  offset="0" style="stop-color:#FFFFFF"/>
			<stop  offset="1" style="stop-color:#ECECEC"/>
		</linearGradient>
		<polygon fill="url(#SVGID_1_)" points="15.875,10.254 15.875,5.746 10.254,5.746 10.254,0.125 5.746,0.125 5.746,5.746 
			0.125,5.746 0.125,10.254 5.746,10.254 5.746,15.875 10.254,15.875 10.254,10.254 		"/>
		<path fill="#25632C" d="M10.379,16H5.621v-5.621H0V5.62h5.621V0h4.758v5.62H16v4.759h-5.621V16z M5.871,15.75h4.258v-5.621h5.62
			V5.871h-5.62V0.25H5.871v5.62h-5.62v4.258h5.62V15.75L5.871,15.75z"/>
	</g>
</g>
</svg>
