<?xml version="1.0" encoding="utf-8"?>
<!-- Generator: Adobe Illustrator 15.1.0, SVG Export Plug-In . SVG Version: 6.00 Build 0)  -->
<!DOCTYPE svg PUBLIC "-//W3C//DTD SVG 1.1//EN" "http://www.w3.org/Graphics/SVG/1.1/DTD/svg11.dtd">
<svg version="1.1" id="Ebene_1" xmlns="http://www.w3.org/2000/svg" xmlns:xlink="http://www.w3.org/1999/xlink" x="0px" y="0px"
	 width="64px" height="64px" viewBox="0 0 64 64" enable-background="new 0 0 64 64" xml:space="preserve">
<g>
	
		<linearGradient id="SVGID_1_" gradientUnits="userSpaceOnUse" x1="-1466.8101" y1="1548.8301" x2="-1529.4067" y2="1548.8301" gradientTransform="matrix(0 1 1 0 -1516.8301 1530.1084)">
		<stop  offset="0" style="stop-color:#E20613"/>
		<stop  offset="1" style="stop-color:#B41622"/>
	</linearGradient>
	<polygon fill="url(#SVGID_1_)" points="49.365,63.299 63.299,49.366 45.934,32.001 63.299,14.636 49.365,0.701 32,18.068 
		14.633,0.701 0.701,14.636 18.065,32.001 0.701,49.366 14.633,63.299 32,45.934 	"/>
	<path fill="#AA000D" d="M49.365,64L32,46.635L14.633,64L0,49.366l17.365-17.365L0,14.636L14.633,0L32,17.367L49.365,0L64,14.636
		L46.635,32.001L64,49.366L49.365,64z M32,45.232l17.365,17.365l13.232-13.231L45.232,32.001l17.365-17.365L49.365,1.402L32,18.769
		L14.633,1.402L1.402,14.636l17.365,17.365L1.402,49.366l13.231,13.231L32,45.232z"/>
</g>
</svg>
