<?xml version="1.0" encoding="utf-8"?>
<!-- Generator: Adobe Illustrator 16.0.0, SVG Export Plug-In . SVG Version: 6.00 Build 0)  -->
<!DOCTYPE svg PUBLIC "-//W3C//DTD SVG 1.1//EN" "http://www.w3.org/Graphics/SVG/1.1/DTD/svg11.dtd">
<svg version="1.1" id="Ebene_1" xmlns="http://www.w3.org/2000/svg" xmlns:xlink="http://www.w3.org/1999/xlink" x="0px" y="0px"
	 width="16px" height="16px" viewBox="0 0 16 16" enable-background="new 0 0 16 16" xml:space="preserve">
<g>
	<g>
		<polygon fill="#6F6F6E" points="5.164,7.369 5.164,9.96 1.352,9.96 1.352,8.341 1.041,8.049 1.041,10.267 5.471,10.267 
			5.471,7.029 		"/>
		<polygon fill="#6F6F6E" points="1.352,6.042 4.957,6.042 5.324,5.733 1.041,5.733 1.041,6.991 1.352,6.793 		"/>
		<g>
			<linearGradient id="SVGID_1_" gradientUnits="userSpaceOnUse" x1="0.873" y1="6.7925" x2="7.5254" y2="6.7925">
				<stop  offset="0" style="stop-color:#009EE2"/>
				<stop  offset="1" style="stop-color:#00416E"/>
			</linearGradient>
			<polygon fill="url(#SVGID_1_)" points="1.934,6.73 0.873,7.41 2.918,9.35 7.525,4.235 2.99,8.04 			"/>
			<path fill="#00416E" d="M2.926,9.575L0.619,7.386l1.348-0.864l1.045,1.294l4.412-3.701l0.219,0.228L2.926,9.575z M1.129,7.435
				l1.779,1.688l2.984-3.312L2.969,8.264L1.9,6.94L1.129,7.435z"/>
		</g>
	</g>
	<g>
		<path fill="#6F6F6E" d="M5.426,4.385H0.992V0h4.434V4.385z M1.391,3.985h3.635V0.399H1.391V3.985z"/>
	</g>
	<g>
		<path fill="#6F6F6E" d="M5.426,16H0.992v-4.385h4.434V16z M1.391,15.601h3.635v-3.586H1.391V15.601z"/>
	</g>
	<g>
		<path fill="#3C3C3B" d="M9.766,9.335H9.201V7.21h1.256v0.461H9.766v0.405h0.637v0.461H9.766V9.335z"/>
		<path fill="#3C3C3B" d="M11.742,9.335h-0.574V7.68h-0.52V7.21h1.611v0.47h-0.518V9.335z"/>
		<path fill="#3C3C3B" d="M14.857,9.335H14.18l-0.203-0.926c-0.012-0.038-0.025-0.116-0.047-0.231s-0.035-0.211-0.045-0.289
			c-0.008,0.063-0.021,0.142-0.039,0.235c-0.016,0.093-0.033,0.18-0.051,0.258s-0.088,0.396-0.211,0.953h-0.68L12.379,7.21h0.553
			l0.232,1.065c0.053,0.235,0.088,0.423,0.107,0.562c0.012-0.099,0.035-0.233,0.068-0.402c0.031-0.17,0.062-0.31,0.09-0.422
			l0.188-0.804h0.531l0.182,0.804c0.031,0.129,0.062,0.277,0.096,0.446c0.031,0.169,0.053,0.295,0.062,0.378
			c0.014-0.107,0.047-0.294,0.104-0.56l0.236-1.068h0.553L14.857,9.335z"/>
	</g>
	<g>
		<path fill="#3C3C3B" d="M11.496,3.44h-0.68l-0.203-0.926c-0.01-0.039-0.023-0.116-0.045-0.231s-0.037-0.211-0.047-0.289
			c-0.008,0.063-0.02,0.142-0.037,0.235s-0.035,0.179-0.051,0.258c-0.018,0.078-0.088,0.396-0.213,0.953H9.543L9.018,1.316H9.57
			l0.23,1.064c0.053,0.235,0.088,0.423,0.107,0.562C9.922,2.845,9.943,2.71,9.977,2.541c0.031-0.17,0.062-0.31,0.09-0.422
			l0.188-0.803h0.533l0.182,0.803c0.031,0.13,0.062,0.278,0.094,0.446c0.031,0.169,0.053,0.295,0.064,0.378
			c0.012-0.107,0.047-0.294,0.104-0.56l0.234-1.067h0.553L11.496,3.44z"/>
		<path fill="#3C3C3B" d="M13.23,3.44h-0.574V1.785h-0.52V1.316h1.611v0.469H13.23V3.44z"/>
		<path fill="#3C3C3B" d="M14.617,3.44h-0.564V1.316h1.254v0.46h-0.689v0.405h0.637v0.461h-0.637V3.44z"/>
	</g>
	<g>
		<path fill="#3C3C3B" d="M9.51,15.019v-2.124h0.576v1.66h0.816v0.464H9.51z"/>
		<path fill="#3C3C3B" d="M13.23,13.953c0,0.358-0.088,0.629-0.264,0.815c-0.174,0.187-0.432,0.279-0.77,0.279
			c-0.334,0-0.588-0.094-0.766-0.28c-0.18-0.188-0.268-0.459-0.268-0.816c0-0.354,0.088-0.624,0.266-0.811
			c0.176-0.187,0.434-0.279,0.77-0.279c0.34,0,0.596,0.092,0.77,0.277C13.143,13.323,13.23,13.595,13.23,13.953z M11.77,13.953
			c0,0.411,0.143,0.616,0.428,0.616c0.145,0,0.254-0.05,0.324-0.149s0.104-0.255,0.104-0.467s-0.035-0.368-0.105-0.47
			s-0.178-0.151-0.32-0.151C11.912,13.332,11.77,13.539,11.77,13.953z"/>
		<path fill="#3C3C3B" d="M13.613,15.019v-2.124h0.574v1.66h0.818v0.464H13.613z"/>
	</g>
</g>
</svg>
