<?xml version="1.0" encoding="utf-8"?>
<!-- Generator: Adobe Illustrator 16.0.0, SVG Export Plug-In . SVG Version: 6.00 Build 0)  -->
<!DOCTYPE svg PUBLIC "-//W3C//DTD SVG 1.1//EN" "http://www.w3.org/Graphics/SVG/1.1/DTD/svg11.dtd">
<svg version="1.1" id="Ebene_1" xmlns="http://www.w3.org/2000/svg" xmlns:xlink="http://www.w3.org/1999/xlink" x="0px" y="0px"
	 width="64px" height="64px" viewBox="0 0 64 64" enable-background="new 0 0 64 64" xml:space="preserve">
<g>
	<g>
		<path fill="#888888" d="M54.907,12.115H41.771V3.319H20.27v8.796H8.981l-0.075,4.317h46.141L54.907,12.115z M24.179,12.115V7.229
			h13.684v4.887H24.179z"/>
		<path fill="#666666" d="M55.479,17.236H8.349v-5.853l11.851,0.029V2.667h22.348v8.745h12.84L55.479,17.236z M9.342,16.265h44.174
			l-0.064-3.881H41.575V3.639H21.17v8.745l-11.814,0.14L9.342,16.265z M38.66,12.383H24.085V6.554H38.66V12.383z M25.057,11.412
			h12.632V7.526H25.057V11.412z"/>
	</g>
	<g>
		<path fill="#888888" d="M9.771,20.912l4.826,39.096h34.568l4.825-39.096H9.771z"/>
		<path fill="#666666" d="M52.218,21.701l-4.699,36.926H15.264l-4.699-36.926H52.218z M53.989,20.972H9.771l4.825,39.361h34.567
			L53.989,20.972L53.989,20.972z"/>
	</g>
</g>
</svg>
