<?xml version="1.0" encoding="utf-8"?>
<!-- Generator: Adobe Illustrator 16.0.0, SVG Export Plug-In . SVG Version: 6.00 Build 0)  -->
<!DOCTYPE svg PUBLIC "-//W3C//DTD SVG 1.1//EN" "http://www.w3.org/Graphics/SVG/1.1/DTD/svg11.dtd">
<svg version="1.1" id="Ebene_1" xmlns="http://www.w3.org/2000/svg" xmlns:xlink="http://www.w3.org/1999/xlink" x="0px" y="0px"
	 width="64px" height="64px" viewBox="0 0 64 64" enable-background="new 0 0 64 64" xml:space="preserve">
<g>
	<g>
		<g>
			<linearGradient id="SVGID_1_" gradientUnits="userSpaceOnUse" x1="5.5664" y1="32" x2="58.4336" y2="32">
				<stop  offset="0" style="stop-color:#FFFFFF"/>
				<stop  offset="1" style="stop-color:#F4F4F6"/>
			</linearGradient>
			<polygon fill="url(#SVGID_1_)" points="58.434,0.469 22.525,0.469 5.566,17.424 5.566,63.531 58.434,63.531 			"/>
			<path fill="#9D9D9C" d="M58.434,64H5.566l-0.469-0.469V17.424l0.139-0.33L22.195,0.138L22.525,0h35.908l0.469,0.469v63.062
				L58.434,64z M6.031,63.067h51.938V0.933h-35.25L6.031,17.617V63.067z"/>
		</g>
		<g>
			<linearGradient id="SVGID_2_" gradientUnits="userSpaceOnUse" x1="5.5664" y1="8.9463" x2="22.5254" y2="8.9463">
				<stop  offset="0" style="stop-color:#FFFFFF"/>
				<stop  offset="1" style="stop-color:#F4F4F6"/>
			</linearGradient>
			<polygon fill="url(#SVGID_2_)" points="22.525,0.469 5.566,17.424 22.525,17.424 			"/>
			<path fill="#9D9D9C" d="M22.525,17.892H5.566l-0.33-0.798L22.195,0.138l0.795,0.331v16.955L22.525,17.892z M6.691,16.959h15.367
				V1.594L6.691,16.959z"/>
		</g>
	</g>
	<g>
		<path fill="#69696D" d="M41.949,31.176c0.262,4.111-1.111,8.032-3.631,11.042c0.457-1.115,0.713-2.328,0.713-3.607
			c0-5.236-4.248-9.48-9.484-9.48s-9.48,4.244-9.48,9.48c0,0.933,0.139,1.832,0.391,2.684c-2.035-2.06-3.607-4.575-4.533-7.407
			h-2.508c2.227,9,8.713,15.005,18.07,15.005c8.234,0,18.318-8.716,19.209-17.716H41.949z M29.547,31.707
			c3.812,0,6.906,3.09,6.906,6.903c0,3.816-3.094,6.908-6.906,6.908c-3.816,0-6.904-3.092-6.904-6.908
			C22.643,34.797,25.73,31.707,29.547,31.707z"/>
		<path fill="#2A2827" d="M29.547,29.13c5.236,0,9.484,4.244,9.484,9.48c0,1.279-0.256,2.492-0.713,3.607
			c2.52-3.01,3.893-6.931,3.631-11.042h8.746c-0.891,9-10.975,17.716-19.209,17.716c-9.357,0-15.844-6.005-18.07-15.005h2.508
			c0.926,2.832,2.498,5.348,4.533,7.407c-0.252-0.852-0.391-1.751-0.391-2.684C20.066,33.374,24.311,29.13,29.547,29.13
			 M29.547,45.519c3.812,0,6.906-3.092,6.906-6.908c0-3.813-3.094-6.903-6.906-6.903c-3.816,0-6.904,3.09-6.904,6.903
			C22.643,42.427,25.73,45.519,29.547,45.519 M29.547,28.662c-5.484,0-9.949,4.465-9.949,9.948c0,0.369,0.021,0.738,0.062,1.108
			c-1.459-1.776-2.586-3.814-3.293-5.978l-0.105-0.322h-0.338h-2.508h-0.594l0.143,0.579c2.379,9.617,9.303,15.358,18.521,15.358
			c8.857,0,18.785-9.149,19.67-18.136l0.055-0.509h-0.516h-8.746h-0.498l0.031,0.495c0.193,3.05-0.529,6.043-2.064,8.643
			c0.051-0.408,0.078-0.82,0.078-1.239C39.496,33.127,35.031,28.662,29.547,28.662L29.547,28.662z M29.547,45.051
			c-3.551,0-6.441-2.891-6.441-6.44c0-3.549,2.891-6.439,6.441-6.439c3.549,0,6.439,2.891,6.439,6.439
			C35.986,42.16,33.096,45.051,29.547,45.051L29.547,45.051z"/>
	</g>
</g>
</svg>
