<?xml version="1.0" encoding="utf-8"?>
<!-- Generator: Adobe Illustrator 16.0.0, SVG Export Plug-In . SVG Version: 6.00 Build 0)  -->
<!DOCTYPE svg PUBLIC "-//W3C//DTD SVG 1.1//EN" "http://www.w3.org/Graphics/SVG/1.1/DTD/svg11.dtd">
<svg version="1.1" id="Ebene_1" xmlns="http://www.w3.org/2000/svg" xmlns:xlink="http://www.w3.org/1999/xlink" x="0px" y="0px"
	 width="64px" height="64px" viewBox="0 0 64 64" enable-background="new 0 0 64 64" xml:space="preserve">
<g>
	<g>
		<g>
			<linearGradient id="SVGID_1_" gradientUnits="userSpaceOnUse" x1="5.5654" y1="32.001" x2="58.4346" y2="32.001">
				<stop  offset="0" style="stop-color:#FFFFFF"/>
				<stop  offset="1" style="stop-color:#F4F4F6"/>
			</linearGradient>
			<polygon fill="url(#SVGID_1_)" points="58.435,0.469 22.525,0.469 5.565,17.425 5.565,63.533 58.435,63.533 			"/>
			<path fill="#9D9D9C" d="M58.435,64H5.565l-0.468-0.467V17.425l0.137-0.331L22.195,0.138L22.525,0h35.909l0.468,0.469v63.064
				L58.435,64z M6.031,63.068h51.938V0.934h-35.25L6.031,17.618V63.068z"/>
		</g>
		<g>
			<polygon fill="#FFFFFF" points="22.525,0.469 5.565,17.425 22.525,17.425 			"/>
			<path fill="#9D9D9C" d="M22.525,17.775H5.565l-0.248-0.599l16.96-16.958l0.597,0.25v16.956L22.525,17.775z M6.408,17.076h15.766
				V1.312L6.408,17.076z"/>
		</g>
	</g>
	<g>
		<path fill-rule="evenodd" clip-rule="evenodd" fill="#69696D" d="M47.624,32.583V30.9c0-5.244-2.348-7.869-7.05-7.869H26.406
			c-4.672,0-7.06,2.369-7.173,7.087h-0.013v0.824v2.518h-2.843v3.848h2.843v3.495h-2.843v3.85h2.843v2.897v0.356
			c0,4.723,2.171,7.085,6.5,7.085h0.686h9.548h4.62c4.702,0,7.05-2.624,7.05-7.866v-1.682h-5.271v2.603
			c0,0.898-0.435,1.348-1.301,1.348h-5.098H25.791c-0.912,0-1.368-0.592-1.368-1.773v-2.968h9.335v-3.85h-9.335v-3.495h9.335V33.46
			h-9.335v-2.59v-1.034c0-0.805,0.364-1.206,1.098-1.206h15.531c0.866,0,1.301,0.451,1.301,1.345v2.608H47.624z"/>
		<path fill="#2A2827" d="M40.574,55.224H25.721c-4.467,0-6.732-2.462-6.732-7.317v-3.021h-2.844V40.57h2.844v-3.03h-2.844v-4.316
			h2.844l0.021-3.338c0.188-4.702,2.677-7.087,7.396-7.087h14.168c4.832,0,7.282,2.728,7.282,8.102v1.915H42.12v-2.841
			c0-0.767-0.33-1.112-1.068-1.112H25.521c-0.599,0-0.864,0.299-0.864,0.974v3.388h9.334v4.316h-9.334v3.03h9.334v4.314h-9.334
			v2.735c0,1.38,0.648,1.539,1.135,1.539h15.261c0.738,0,1.068-0.343,1.068-1.113v-2.835h5.736v1.914
			C47.856,52.499,45.406,55.224,40.574,55.224z M16.609,44.418h2.847v3.488c0,4.61,2.05,6.852,6.265,6.852h14.854
			c4.586,0,6.817-2.496,6.817-7.633v-1.45h-4.803v2.371c0,1.02-0.548,1.58-1.537,1.58H25.791c-0.729,0-1.601-0.346-1.601-2.006
			v-3.202h9.336v-3.383H24.19v-3.959h9.336v-3.385H24.19v-3.855c0-0.93,0.471-1.438,1.33-1.438h15.531
			c0.989,0,1.537,0.561,1.537,1.576v2.373h4.803V30.9c0-5.137-2.231-7.633-6.817-7.633H26.406c-4.558,0-6.826,2.242-6.938,6.856
			l-0.013,0.818v2.749h-2.847v3.385h2.847v3.959h-2.847V44.418z"/>
	</g>
</g>
</svg>
