<?xml version="1.0" encoding="utf-8"?>
<!-- Generator: Adobe Illustrator 16.0.0, SVG Export Plug-In . SVG Version: 6.00 Build 0)  -->
<!DOCTYPE svg PUBLIC "-//W3C//DTD SVG 1.1//EN" "http://www.w3.org/Graphics/SVG/1.1/DTD/svg11.dtd">
<svg version="1.1" id="Ebene_1" xmlns="http://www.w3.org/2000/svg" xmlns:xlink="http://www.w3.org/1999/xlink" x="0px" y="0px"
	 width="64px" height="64px" viewBox="0 0 64 64" enable-background="new 0 0 64 64" xml:space="preserve">
<g>
	<path fill="#888888" d="M52.461,11.562L40.583,3.573L7.762,36.396L3.55,60.453l24.057-4.215l32.818-32.825L52.461,11.562z
		 M13.764,54.782l-4.488-4.489l1.274-10.064l9.25,3.751l3.755,9.256L13.764,54.782z"/>
	<path fill="#666666" d="M3.002,61l4.346-24.818l0.1-0.099L40.528,3l12.303,8.314l8.165,12.155L27.822,56.652L3.002,61z
		 M8.175,36.611L4.097,59.907l23.295-4.988l31.553-31.561l-6.805-11.476L40.64,4.146L8.175,36.611z M13.61,55.255l-4.802-4.801
		l1.374-10.856l9.96,4.038l4.036,9.949L13.61,55.255z M9.745,50.133l4.173,3.268l8.108-1.424l-2.566-7.657l-8.542-3.462
		L9.745,50.133z"/>
</g>
</svg>
