<?xml version="1.0" encoding="utf-8"?>
<!-- Generator: Adobe Illustrator 16.0.0, SVG Export Plug-In . SVG Version: 6.00 Build 0)  -->
<!DOCTYPE svg PUBLIC "-//W3C//DTD SVG 1.1//EN" "http://www.w3.org/Graphics/SVG/1.1/DTD/svg11.dtd">
<svg version="1.1" id="Ebene_1" xmlns="http://www.w3.org/2000/svg" xmlns:xlink="http://www.w3.org/1999/xlink" x="0px" y="0px"
	 width="64px" height="64px" viewBox="0 0 64 64" enable-background="new 0 0 64 64" xml:space="preserve">
<g>
	<g>
		<g>
			<linearGradient id="SVGID_1_" gradientUnits="userSpaceOnUse" x1="32.0005" y1="18.666" x2="32.0005" y2="9.9146">
				<stop  offset="0" style="stop-color:#2E2E2D"/>
				<stop  offset="0.2553" style="stop-color:#5C5C5C"/>
				<stop  offset="0.5763" style="stop-color:#8B8B8B"/>
			</linearGradient>
			<path fill="url(#SVGID_1_)" d="M19.899,15.342v-3.984c0-0.887-0.646-1.443-1.443-1.443H3.727c-0.795,0-1.521,0.273-1.521,1.443
				v4.348l-1.843,2.96h63.274l-1.843-3.324H19.899z"/>
			<path fill="#2E2E2D" d="M63.638,18.896H0.363c-0.084,0-0.161-0.045-0.202-0.119c-0.04-0.073-0.038-0.163,0.006-0.234l1.809-2.904
				v-4.282c0-0.763,0.304-1.674,1.751-1.674h14.729c0.971,0,1.674,0.704,1.674,1.674v3.754h41.665c0.083,0,0.161,0.045,0.201,0.119
				l1.844,3.323c0.038,0.071,0.037,0.158-0.003,0.229C63.796,18.853,63.72,18.896,63.638,18.896z M0.777,18.436h62.469l-1.587-2.863
				h-41.76c-0.127,0-0.23-0.103-0.23-0.231v-3.984c0-0.714-0.498-1.213-1.213-1.213H3.727c-0.904,0-1.29,0.362-1.29,1.213v4.348
				c0,0.043-0.013,0.085-0.035,0.123L0.777,18.436z"/>
		</g>
		<g>
			<linearGradient id="SVGID_2_" gradientUnits="userSpaceOnUse" x1="0.3633" y1="36.6592" x2="63.6377" y2="36.6592">
				<stop  offset="0.5" style="stop-color:#FFFFFF"/>
				<stop  offset="1" style="stop-color:#E6E6E6"/>
			</linearGradient>
			<polygon fill="url(#SVGID_2_)" points="61.795,55.106 2.206,55.106 0.363,18.211 63.638,18.211 			"/>
			<path fill="#8B8B8B" d="M62.123,55.452H1.877L0,17.866h64L62.123,55.452z M2.535,54.761h58.931l1.81-36.204H0.727L2.535,54.761z"
				/>
		</g>
	</g>
	<g>
		<linearGradient id="SVGID_3_" gradientUnits="userSpaceOnUse" x1="31.9995" y1="24.1167" x2="31.9995" y2="47.4644">
			<stop  offset="0" style="stop-color:#3A8C32"/>
			<stop  offset="1" style="stop-color:#227333"/>
		</linearGradient>
		<polygon fill="url(#SVGID_3_)" points="43.674,39.131 43.674,32.449 35.342,32.449 35.342,24.117 28.659,24.117 28.659,32.449 
			20.326,32.449 20.326,39.131 28.659,39.131 28.659,47.464 35.342,47.464 35.342,39.131 		"/>
		<path fill="#1C5020" d="M35.803,47.925h-7.604v-8.333h-8.333v-7.603h8.333v-8.333h7.604v8.333h8.333v7.603h-8.333V47.925z
			 M29.12,47.004h5.761v-8.333h8.333v-5.762h-8.333v-8.332H29.12v8.332h-8.333v5.762h8.333V47.004z"/>
	</g>
</g>
</svg>
