<?xml version="1.0" encoding="utf-8"?>
<!-- Generator: Adobe Illustrator 16.0.0, SVG Export Plug-In . SVG Version: 6.00 Build 0)  -->
<!DOCTYPE svg PUBLIC "-//W3C//DTD SVG 1.1//EN" "http://www.w3.org/Graphics/SVG/1.1/DTD/svg11.dtd">
<svg version="1.1" id="Ebene_1" xmlns="http://www.w3.org/2000/svg" xmlns:xlink="http://www.w3.org/1999/xlink" x="0px" y="0px"
	 width="64px" height="64px" viewBox="0 0 64 64" enable-background="new 0 0 64 64" xml:space="preserve">
<g>
	<g>
		<linearGradient id="SVGID_1_" gradientUnits="userSpaceOnUse" x1="48.8496" y1="42.0059" x2="48.8496" y2="21.9941">
			<stop  offset="0" style="stop-color:#014A79"/>
			<stop  offset="1" style="stop-color:#03A7E5"/>
		</linearGradient>
		<path fill-rule="evenodd" clip-rule="evenodd" fill="url(#SVGID_1_)" d="M53.22,21.994h-6.233h-0.738h-2.073
			c-5.51,0-9.977,4.527-9.977,10.036c0,5.51,4.77,9.976,10.279,9.976h6.231h0.74h2.073c5.511,0,9.978-4.529,9.978-10.036
			C63.5,26.46,58.729,21.994,53.22,21.994z M53.522,37.634l-2.813,0.038v0.003h-6.231c-3.13,0-5.97-2.517-5.97-5.645
			c0-3.129,2.537-5.666,5.667-5.666l2.812-0.037v-0.003h6.233c3.13,0,5.97,2.517,5.97,5.646S56.652,37.634,53.522,37.634z"/>
		<path fill="#014A79" d="M53.522,42.506h-9.045c-5.843,0-10.779-4.797-10.779-10.476c0-5.81,4.7-10.536,10.477-10.536h9.045
			c5.844,0,10.78,4.797,10.78,10.476C64,37.779,59.3,42.506,53.522,42.506z M44.175,22.494c-5.226,0-9.477,4.278-9.477,9.536
			c0,5.137,4.479,9.476,9.779,9.476h9.045c5.226,0,9.478-4.278,9.478-9.536c0-5.137-4.479-9.476-9.78-9.476H44.175z M50.709,38.175
			h-6.231c-3.507,0-6.47-2.813-6.47-6.145c0-3.4,2.767-6.166,6.167-6.166l2.812-0.04h6.233c3.507,0,6.47,2.814,6.47,6.146
			c0,3.398-2.767,6.164-6.167,6.164L50.709,38.175z M47.212,26.824l-3.03,0.04c-2.855,0-5.174,2.317-5.174,5.166
			c0,2.789,2.505,5.145,5.47,5.145l9.038-0.041c2.855,0,5.174-2.316,5.174-5.164c0-2.789-2.505-5.146-5.47-5.146H47.212z"/>
	</g>
	<g>
		<linearGradient id="SVGID_2_" gradientUnits="userSpaceOnUse" x1="15.1504" y1="42.0059" x2="15.1504" y2="21.9941">
			<stop  offset="0" style="stop-color:#014A79"/>
			<stop  offset="1" style="stop-color:#03A7E5"/>
		</linearGradient>
		<path fill-rule="evenodd" clip-rule="evenodd" fill="url(#SVGID_2_)" d="M19.521,21.994h-6.232H12.55h-2.073
			c-5.51,0-9.977,4.527-9.977,10.036c0,5.51,4.77,9.976,10.28,9.976h6.232h0.739h2.073c5.509,0,9.977-4.529,9.977-10.036
			C29.802,26.46,25.031,21.994,19.521,21.994z M19.825,37.634l-2.812,0.038v0.003H10.78c-3.13,0-5.971-2.517-5.971-5.645
			c0-3.129,2.538-5.666,5.667-5.666l2.812-0.037v-0.003h6.232c3.13,0,5.971,2.517,5.971,5.646S22.955,37.634,19.825,37.634z"/>
		<path fill="#014A79" d="M19.825,42.506H10.78C4.937,42.506,0,37.709,0,32.03c0-5.81,4.7-10.536,10.477-10.536h9.045
			c5.844,0,10.78,4.797,10.78,10.476C30.302,37.779,25.602,42.506,19.825,42.506z M10.477,22.494C5.251,22.494,1,26.772,1,32.03
			c0,5.137,4.479,9.476,9.78,9.476h9.045c5.226,0,9.477-4.278,9.477-9.536c0-5.137-4.479-9.476-9.78-9.476H10.477z M17.013,38.175
			H10.78c-3.508,0-6.471-2.813-6.471-6.145c0-3.4,2.767-6.166,6.167-6.166l2.812-0.04h6.232c3.508,0,6.471,2.814,6.471,6.146
			c0,3.398-2.767,6.164-6.167,6.164L17.013,38.175z M13.515,26.824l-3.031,0.04c-2.855,0-5.174,2.317-5.174,5.166
			c0,2.789,2.505,5.145,5.471,5.145l9.038-0.041c2.855,0,5.174-2.316,5.174-5.164c0-2.789-2.505-5.146-5.471-5.146H13.515z"/>
	</g>
	<g>
		<g>
			
				<linearGradient id="SVGID_3_" gradientUnits="userSpaceOnUse" x1="-1478.875" y1="417.7529" x2="-1504.7988" y2="417.7529" gradientTransform="matrix(-1 0 0 -1 -1459.8359 450.0039)">
				<stop  offset="0" style="stop-color:#014A79"/>
				<stop  offset="0.5337" style="stop-color:#03A7E5"/>
				<stop  offset="1" style="stop-color:#014A79"/>
			</linearGradient>
			<path fill-rule="evenodd" clip-rule="evenodd" fill="url(#SVGID_3_)" d="M44.962,33.001c0,0.779-0.638,1.417-1.417,1.417H20.454
				c-0.779,0-1.416-0.638-1.416-1.417l0.002-1.497c0-0.779,0.639-1.417,1.418-1.417h23.087c0.779,0,1.417,0.638,1.417,1.417V33.001z
				"/>
		</g>
		<path fill="#014A79" d="M43.545,34.918H20.454c-1.057,0-1.916-0.86-1.916-1.917l0.002-1.498c0-1.056,0.86-1.916,1.918-1.916
			h23.087c1.057,0,1.917,0.86,1.917,1.917v1.497C45.462,34.058,44.602,34.918,43.545,34.918z M20.458,30.587
			c-0.506,0-0.918,0.411-0.918,0.917l-0.002,1.498c0,0.505,0.411,0.916,0.916,0.916h23.091c0.506,0,0.917-0.411,0.917-0.917v-1.497
			c0-0.506-0.411-0.917-0.917-0.917H20.458z"/>
	</g>
</g>
</svg>
