<?xml version="1.0" encoding="utf-8"?>
<!-- Generator: Adobe Illustrator 16.0.0, SVG Export Plug-In . SVG Version: 6.00 Build 0)  -->
<!DOCTYPE svg PUBLIC "-//W3C//DTD SVG 1.1//EN" "http://www.w3.org/Graphics/SVG/1.1/DTD/svg11.dtd">
<svg version="1.1" id="Ebene_1" xmlns="http://www.w3.org/2000/svg" xmlns:xlink="http://www.w3.org/1999/xlink" x="0px" y="0px"
	 width="64px" height="64px" viewBox="0 0 64 64" enable-background="new 0 0 64 64" xml:space="preserve">
<g>
	<linearGradient id="SVGID_1_" gradientUnits="userSpaceOnUse" x1="9.9277" y1="45.5361" x2="54.0723" y2="45.5361">
		<stop  offset="0" style="stop-color:#FFFFFF"/>
		<stop  offset="1" style="stop-color:#ECECEC"/>
	</linearGradient>
	<path fill="url(#SVGID_1_)" d="M32.228,27.444c-5.021,0-18.747,0.891-22.3,1.127v33.55c3.489,0.314,17.053,1.506,22.071,1.506
		c4.826,0,18.558-1.193,22.073-1.508V28.571C50.559,28.333,37.104,27.446,32.228,27.444z M34.165,44.577l1.927,10.628h-8.187
		l1.93-10.628c-1.182-0.727-1.974-2.029-1.974-3.521c0-2.285,1.853-4.139,4.138-4.139c2.284,0,4.14,1.854,4.14,4.139
		C36.139,42.548,35.347,43.851,34.165,44.577z"/>
	<g>
		<linearGradient id="SVGID_2_" gradientUnits="userSpaceOnUse" x1="14.4775" y1="12.792" x2="49.5225" y2="12.792">
			<stop  offset="0" style="stop-color:#FFFFFF"/>
			<stop  offset="1" style="stop-color:#ECECEC"/>
		</linearGradient>
		<path fill="url(#SVGID_2_)" d="M14.478,17.745c0-9.577,7.861-17.372,17.521-17.372c9.662,0,17.523,7.795,17.523,17.372v7.461
			c-1.124-0.072-2.356-0.148-3.641-0.227v-7.234c0-7.569-6.228-13.729-13.883-13.729c-7.653,0-13.883,6.16-13.883,13.729v7.244
			c-1.284,0.076-2.515,0.15-3.639,0.223V17.745z"/>
		<path fill="#FFFFFF" d="M14.105,25.608v-7.863C14.105,7.961,22.132,0,31.999,0c9.868,0,17.896,7.961,17.896,17.745v7.857
			l-0.396-0.025c-1.124-0.072-2.355-0.148-3.64-0.225l-0.351-0.021v-7.586c0-7.364-6.061-13.356-13.51-13.356
			s-13.51,5.992-13.51,13.356v7.596l-0.351,0.02c-1.284,0.076-2.514,0.152-3.638,0.223L14.105,25.608z M31.999,0.746
			c-9.456,0-17.148,7.625-17.148,16.999v7.068c0.91-0.057,1.883-0.115,2.894-0.176v-6.893c0-7.776,6.395-14.103,14.255-14.103
			s14.255,6.326,14.255,14.103v6.883c1.012,0.062,1.985,0.123,2.896,0.18v-7.062C49.149,8.371,41.457,0.746,31.999,0.746z"/>
	</g>
</g>
<path fill="#FFFFFF" d="M54.151,28.2c-3.904-0.264-17.049-1.127-21.897-1.129c-4.942,0-18.352,0.863-22.339,1.129l-0.363,0.023
	v34.239l0.34,0.029C13.815,62.846,27.001,64,31.998,64c4.938,0,19.334-1.258,22.16-1.51l0.394-0.029V28.224L54.151,28.2z
	 M53.552,61.779c-3,0.307-16.768,1.475-21.501,1.475c-4.913,0-18.499-1.166-21.499-1.473V28.919c4-0.287,16.943-1.102,21.728-1.102
	c4.69,0.002,17.272,0.814,21.272,1.102V61.779z"/>
</svg>
