<?xml version="1.0" encoding="utf-8"?>
<!-- Generator: Adobe Illustrator 16.0.0, SVG Export Plug-In . SVG Version: 6.00 Build 0)  -->
<!DOCTYPE svg PUBLIC "-//W3C//DTD SVG 1.1//EN" "http://www.w3.org/Graphics/SVG/1.1/DTD/svg11.dtd">
<svg version="1.1" id="Ebene_1" xmlns="http://www.w3.org/2000/svg" xmlns:xlink="http://www.w3.org/1999/xlink" x="0px" y="0px"
	 width="64px" height="64px" viewBox="0 0 64 64" enable-background="new 0 0 64 64" xml:space="preserve">
<g>
	<linearGradient id="SVGID_1_" gradientUnits="userSpaceOnUse" x1="1.21" y1="32" x2="62.79" y2="32">
		<stop  offset="0" style="stop-color:#469B41"/>
		<stop  offset="1" style="stop-color:#288342"/>
	</linearGradient>
	<path fill-rule="evenodd" clip-rule="evenodd" fill="url(#SVGID_1_)" d="M62.79,19.331v-3.316c0-10.332-4.631-15.499-13.893-15.499
		H20.979c-9.213,0-13.913,4.665-14.142,13.963H6.817V16.1v4.959H1.21v7.585h5.607v6.884H1.21v7.587h5.607v5.708v0.7
		c0,9.309,4.271,13.962,12.813,13.962h1.349h18.809h9.109c9.262,0,13.893-5.168,13.893-15.499v-3.314H52.403v5.131
		c0,1.768-0.854,2.653-2.566,2.653H39.788H19.766c-1.803,0-2.695-1.163-2.695-3.493v-5.848h18.391v-7.587H17.07v-6.884h18.391
		v-7.585H17.07v-5.1v-2.036c0-1.586,0.718-2.377,2.155-2.377h30.611c1.712,0,2.566,0.885,2.566,2.651v5.134H62.79z"/>
	<path fill="#22612B" d="M48.897,64H19.631c-8.844,0-13.329-4.87-13.329-14.478V43.63H0.694v-8.618h5.607v-5.851H0.694v-8.618h5.607
		l0.037-6.582C6.733,4.696,11.657,0,20.979,0h27.918c9.56,0,14.408,5.388,14.408,16.015v3.835H51.888v-5.652
		c0-1.476-0.633-2.136-2.051-2.136H19.226c-1.149,0-1.64,0.558-1.64,1.861v6.62h18.393v8.618H17.586v5.851h18.393v8.618H17.586
		v5.332c0,2.64,1.165,2.978,2.18,2.978h30.071c1.418,0,2.051-0.661,2.051-2.138v-5.649h11.418v3.833
		C63.306,58.612,58.457,64,48.897,64z M1.728,42.599h5.605v6.924c0,9.047,4.023,13.444,12.298,13.444h29.267
		c8.999,0,13.375-4.9,13.375-14.981v-2.799h-9.352v4.615c0,2.045-1.096,3.171-3.084,3.171H19.766c-1.465,0-3.211-0.697-3.211-4.011
		v-6.363h18.391v-6.554H16.555v-7.917h18.391v-6.554H16.555v-7.651c0-1.866,0.948-2.895,2.671-2.895h30.611
		c1.988,0,3.084,1.125,3.084,3.169v4.618h9.352v-2.801c0-10.081-4.376-14.981-13.375-14.981H20.979
		c-8.945,0-13.403,4.402-13.624,13.458L7.333,16.1v5.475H1.728v6.554h5.605v7.917H1.728V42.599z"/>
</g>
</svg>
