<?xml version="1.0" encoding="utf-8"?>
<!-- Generator: Adobe Illustrator 16.0.0, SVG Export Plug-In . SVG Version: 6.00 Build 0)  -->
<!DOCTYPE svg PUBLIC "-//W3C//DTD SVG 1.1//EN" "http://www.w3.org/Graphics/SVG/1.1/DTD/svg11.dtd">
<svg version="1.1" id="Ebene_1" xmlns="http://www.w3.org/2000/svg" xmlns:xlink="http://www.w3.org/1999/xlink" x="0px" y="0px"
	 width="64px" height="64px" viewBox="0 0 64 64" enable-background="new 0 0 64 64" xml:space="preserve">
<g>
	<g>
		<path fill="#888888" d="M32,13.916C14.676,13.916,0.631,32,0.631,32S14.676,50.084,32,50.084C49.326,50.084,63.369,32,63.369,32
			S49.326,13.916,32,13.916z M31.877,45.917c-7.803,0-14.13-6.229-14.13-13.916c0-7.686,6.327-13.917,14.13-13.917
			s14.129,6.23,14.129,13.917C46.006,39.688,39.68,45.917,31.877,45.917z"/>
		<path fill="#666666" d="M32,50.582c-17.367,0-31.621-18.094-31.763-18.277L0,32l0.237-0.305C0.379,31.512,14.633,13.418,32,13.418
			c17.369,0,31.62,18.094,31.764,18.277L64,32l-0.236,0.305C63.62,32.488,49.369,50.582,32,50.582z M1.271,32
			C3.215,34.363,16.354,49.586,32,49.586c15.646,0,27.785-16.223,29.729-18.586C59.785,28.637,47.646,14.414,32,14.414
			C16.346,14.414,3.214,29.637,1.271,32z M31.877,46.415c-8.065,0-14.627-6.467-14.627-14.414c0-7.948,6.562-14.414,14.627-14.414
			c8.064,0,14.627,6.466,14.627,14.414C46.504,39.948,39.941,46.415,31.877,46.415z M31.877,18.583
			c-7.517,0-13.632,6.02-13.632,13.418c0,7.397,6.115,13.418,13.632,13.418c7.518,0,13.631-6.021,13.631-13.418
			C45.508,24.602,39.395,18.583,31.877,18.583z"/>
	</g>
	<g>
		<ellipse fill="#888888" cx="31.815" cy="31.938" rx="7.096" ry="6.989"/>
		<path fill="#666666" d="M31.815,39.425c-4.188,0-7.594-3.358-7.594-7.486c0-4.128,3.406-7.487,7.594-7.487
			c4.187,0,7.593,3.359,7.593,7.487C39.408,36.066,36.002,39.425,31.815,39.425z M31.565,25.447c-3.5,0-6.348,2.801-6.348,6.245
			c0,3.444,2.848,6.246,6.348,6.246c3.5,0,6.348-2.802,6.348-6.246C37.913,28.249,35.064,25.447,31.565,25.447z"/>
	</g>
</g>
</svg>
