<?xml version="1.0" encoding="utf-8"?>
<!-- Generator: Adobe Illustrator 16.0.0, SVG Export Plug-In . SVG Version: 6.00 Build 0)  -->
<!DOCTYPE svg PUBLIC "-//W3C//DTD SVG 1.1//EN" "http://www.w3.org/Graphics/SVG/1.1/DTD/svg11.dtd">
<svg version="1.1" id="Ebene_1" xmlns="http://www.w3.org/2000/svg" xmlns:xlink="http://www.w3.org/1999/xlink" x="0px" y="0px"
	 width="64px" height="64px" viewBox="0 0 64 64" enable-background="new 0 0 64 64" xml:space="preserve">
<g>
	<g>
		<g>
			<linearGradient id="SVGID_1_" gradientUnits="userSpaceOnUse" x1="20.7246" y1="1.0195" x2="45.2665" y2="68.448">
				<stop  offset="0.5" style="stop-color:#FFFFFF"/>
				<stop  offset="1" style="stop-color:#ECECEC"/>
			</linearGradient>
			<polygon fill="url(#SVGID_1_)" points="58.513,0.373 22.497,0.373 5.488,17.382 5.488,63.626 58.513,63.626 			"/>
			<path fill="#9D9D9C" d="M58.886,64H5.114V17.228l0.109-0.11L22.343,0h36.543V64z M5.861,63.252h52.277V0.747H22.651l-16.79,16.79
				V63.252z"/>
		</g>
		<g>
			<linearGradient id="SVGID_2_" gradientUnits="userSpaceOnUse" x1="12.2539" y1="4.1016" x2="17.7202" y2="19.1201">
				<stop  offset="0" style="stop-color:#FFFFFF"/>
				<stop  offset="1" style="stop-color:#EBEBEB"/>
			</linearGradient>
			<polygon fill="url(#SVGID_2_)" points="22.497,0.373 5.488,17.382 22.497,17.382 			"/>
			<path fill="#9D9D9C" d="M22.497,17.756H5.488c-0.151,0-0.287-0.092-0.346-0.23c-0.058-0.141-0.025-0.301,0.081-0.408
				L22.232,0.108c0.108-0.107,0.267-0.136,0.407-0.081c0.14,0.059,0.231,0.195,0.231,0.346v17.009
				C22.871,17.589,22.703,17.756,22.497,17.756z M6.391,17.009h15.732V1.275L6.391,17.009z"/>
		</g>
	</g>
	<g>
		
			<linearGradient id="SVGID_3_" gradientUnits="userSpaceOnUse" x1="-889.2764" y1="-1598.9775" x2="-866.3603" y2="-1576.0615" gradientTransform="matrix(0.7071 0.7071 -0.7071 0.7071 -468.5405 1778.9551)">
			<stop  offset="0" style="stop-color:#42A03F"/>
			<stop  offset="1" style="stop-color:#348342"/>
		</linearGradient>
		<polygon fill="url(#SVGID_3_)" points="49.494,40.354 49.494,31.075 37.927,31.075 37.927,19.511 28.65,19.511 28.65,31.075 
			17.083,31.075 17.083,40.354 28.65,40.354 28.65,51.919 37.927,51.919 37.927,40.354 		"/>
		<path fill="#25632C" d="M38.425,52.417H28.151V40.852H16.584V30.577h11.567V19.013h10.273v11.564h11.567v10.274H38.425V52.417z
			 M29.148,51.421h8.279V39.855h11.567v-8.282H37.428V20.009h-8.279v11.564H17.581v8.282h11.567V51.421z"/>
	</g>
</g>
</svg>
