<?xml version="1.0" encoding="utf-8"?>
<!-- Generator: Adobe Illustrator 16.0.0, SVG Export Plug-In . SVG Version: 6.00 Build 0)  -->
<!DOCTYPE svg PUBLIC "-//W3C//DTD SVG 1.1//EN" "http://www.w3.org/Graphics/SVG/1.1/DTD/svg11.dtd">
<svg version="1.1" id="Ebene_1" xmlns="http://www.w3.org/2000/svg" xmlns:xlink="http://www.w3.org/1999/xlink" x="0px" y="0px"
	 width="64px" height="64px" viewBox="0 0 64 64" enable-background="new 0 0 64 64" xml:space="preserve">
<g>
	<g>
		<g>
			<linearGradient id="SVGID_1_" gradientUnits="userSpaceOnUse" x1="20.7275" y1="1.0293" x2="45.2615" y2="68.4357">
				<stop  offset="0.5" style="stop-color:#FFFFFF"/>
				<stop  offset="1" style="stop-color:#ECECEC"/>
			</linearGradient>
			<polygon fill="url(#SVGID_1_)" points="58.505,0.384 22.498,0.384 5.495,17.387 5.495,63.615 58.505,63.615 			"/>
			<path fill="#9D9D9C" d="M58.889,64H5.111V17.228l0.112-0.113L22.34,0h36.549V64z M5.88,63.231h52.241V0.768H22.658L5.88,17.546
				V63.231z"/>
		</g>
		<g>
			<linearGradient id="SVGID_2_" gradientUnits="userSpaceOnUse" x1="12.2588" y1="4.1113" x2="17.7234" y2="19.1253">
				<stop  offset="0" style="stop-color:#FFFFFF"/>
				<stop  offset="1" style="stop-color:#EBEBEB"/>
			</linearGradient>
			<polygon fill="url(#SVGID_2_)" points="22.498,0.384 5.495,17.387 22.498,17.387 			"/>
			<path fill="#9D9D9C" d="M22.498,17.771H5.495c-0.154,0-0.295-0.094-0.355-0.236c-0.058-0.145-0.025-0.31,0.084-0.42L22.227,0.111
				c0.11-0.109,0.273-0.141,0.418-0.082s0.237,0.199,0.237,0.354v17.003C22.882,17.599,22.711,17.771,22.498,17.771z M6.423,17.002
				h15.691V1.312L6.423,17.002z"/>
		</g>
	</g>
	<g>
		<linearGradient id="SVGID_3_" gradientUnits="userSpaceOnUse" x1="39.3154" y1="27.1689" x2="39.3154" y2="64.2581">
			<stop  offset="0" style="stop-color:#42A03F"/>
			<stop  offset="1" style="stop-color:#348342"/>
		</linearGradient>
		<polygon fill-rule="evenodd" clip-rule="evenodd" fill="url(#SVGID_3_)" points="51.652,15.585 45.561,55.392 35.846,55.392 
			26.978,36.103 34.03,29.887 39.569,44.082 39.704,44.879 39.837,44.414 44.602,23.669 		"/>
		<path fill="#25632C" d="M46.001,55.903H35.517l-9.164-19.933l7.889-6.953l5.417,13.885l4.473-19.475l8.295-9.508L46.001,55.903z
			 M36.173,54.879h8.947l5.759-37.628l-5.808,6.658l-4.874,21.11L39.578,47.2l-0.506-2.981l-5.254-13.464l-6.217,5.479
			L36.173,54.879z"/>
	</g>
</g>
</svg>
