<?xml version="1.0" encoding="utf-8"?>
<!-- Generator: Adobe Illustrator 16.0.0, SVG Export Plug-In . SVG Version: 6.00 Build 0)  -->
<!DOCTYPE svg PUBLIC "-//W3C//DTD SVG 1.1//EN" "http://www.w3.org/Graphics/SVG/1.1/DTD/svg11.dtd">
<svg version="1.1" id="Ebene_1" xmlns="http://www.w3.org/2000/svg" xmlns:xlink="http://www.w3.org/1999/xlink" x="0px" y="0px"
	 width="64px" height="64px" viewBox="0 0 64 64" enable-background="new 0 0 64 64" xml:space="preserve">
<g>
	<path fill="#888888" d="M25.162,7.051c-7.283,7.284-8.517,18.324-3.708,26.887L0.663,54.729l8.607,8.61l20.792-20.793
		c8.562,4.808,19.6,3.575,26.886-3.708c8.776-8.779,8.776-23.01,0-31.787C48.17-1.727,33.939-1.727,25.162,7.051z M52.312,34.201
		c-6.22,6.216-16.297,6.216-22.516,0c-6.215-6.217-6.215-16.297,0-22.514c6.219-6.218,16.296-6.218,22.516,0
		C58.531,17.904,58.531,27.984,52.312,34.201z"/>
	<path fill="#666666" d="M9.27,64L0,54.729l20.874-20.873c-4.8-8.871-3.197-19.979,3.959-27.134C29.165,2.388,34.927,0,41.057,0
		c6.127,0,11.889,2.388,16.225,6.721C61.611,11.054,64,16.816,64,22.944c0,6.129-2.389,11.89-6.721,16.223
		c-4.331,4.331-10.09,6.717-16.215,6.717l0,0c-3.816,0-7.586-0.952-10.919-2.758L9.27,64z M1.325,54.729l6.945,6.946l20.71-19.709
		l1.311,0.173c3.271,1.836,6.997,2.81,10.773,2.81l0,0c5.875,0,11.398-2.289,15.553-6.441c4.156-4.157,6.445-9.684,6.445-15.562
		c0-5.878-2.289-11.405-6.445-15.562c-4.155-4.157-9.684-6.446-15.562-6.446S29.651,3.226,25.493,7.383
		c-6.944,6.943-8.437,17.769-3.633,26.325l0.173,0.31L1.325,54.729z M41.057,39.333c-4.377,0-8.494-1.705-11.588-4.801
		c-6.39-6.391-6.39-16.786,0-23.176c3.094-3.096,7.211-4.801,11.588-4.801s8.491,1.705,11.59,4.801
		c6.388,6.39,6.388,16.785,0,23.176C49.548,37.628,45.434,39.333,41.057,39.333z M41.057,7.491c-4.129,0-8.009,1.608-10.927,4.526
		c-6.026,6.025-6.026,15.828,0,21.853c2.918,2.917,6.798,4.526,10.927,4.526c4.127,0,8.008-1.609,10.926-4.526
		c2.92-2.918,4.526-6.798,4.526-10.926c0-4.127-1.606-8.008-4.526-10.927C49.062,9.1,45.184,7.491,41.057,7.491z"/>
</g>
</svg>
