<?xml version="1.0" encoding="utf-8"?>
<!-- Generator: Adobe Illustrator 16.0.0, SVG Export Plug-In . SVG Version: 6.00 Build 0)  -->
<!DOCTYPE svg PUBLIC "-//W3C//DTD SVG 1.1//EN" "http://www.w3.org/Graphics/SVG/1.1/DTD/svg11.dtd">
<svg version="1.1" id="Ebene_1" xmlns="http://www.w3.org/2000/svg" xmlns:xlink="http://www.w3.org/1999/xlink" x="0px" y="0px"
	 width="64px" height="64px" viewBox="0 0 64 64" enable-background="new 0 0 64 64" xml:space="preserve">
<g>
	<g id="Datei">
		<g>
			<path fill="#C6C6C6" d="M63.044,61.885H10.297c0,0,1.858-10.248,1.858-43.767c10.75,0,34.348,0,48.411,0
				C60.566,52.104,63.044,61.885,63.044,61.885z"/>
			<path fill="#9C9B9B" d="M63.044,62.143H9.989l0.055-0.305c0.019-0.101,1.855-10.627,1.855-43.72V17.86h48.926v0.258
				c0,33.537,2.444,43.605,2.47,43.703l0.081,0.321H63.044z M10.6,61.628h52.123c-0.405-1.944-2.403-13.067-2.414-43.253H12.414
				C12.405,48.285,10.893,59.698,10.6,61.628z"/>
		</g>
		<g>
			<path fill="#C6C6C6" d="M62.424,63.123H10.917c0,0,1.238-11.486,1.238-45.005c10.75,0,34.348,0,48.411,0
				C60.566,52.104,62.424,63.123,62.424,63.123z"/>
			<path fill="#9C9B9B" d="M62.424,63.381H10.63l0.03-0.285c0.013-0.114,1.238-11.865,1.238-44.978V17.86h48.926v0.258
				c0,33.561,1.836,44.853,1.854,44.963l0.05,0.3H62.424z M11.2,62.865h50.926c-0.285-1.981-1.809-14.035-1.817-44.49H12.414
				C12.408,48.532,11.384,60.898,11.2,62.865z"/>
		</g>
		<g>
			<polygon fill="#C6C6C6" points="61.806,63.742 11.536,63.742 12.774,20.595 60.566,20.595 			"/>
			<path fill="#9C9B9B" d="M62.07,64h-50.8l1.253-43.663h48.292L62.07,64z M11.801,63.483h49.74l-1.226-42.63h-47.29L11.801,63.483z
				"/>
		</g>
		<g>
			<path fill="#C6C6C6" d="M25.124,10.245l38.54-5.753c0,0-2.478,10.659-2.478,44.18c-10.75,0-34.349,0-48.412,0
				C12.774,14.687,25.124,10.245,25.124,10.245z"/>
			<path fill="#9C9B9B" d="M61.444,48.929H12.517v-0.257c0-33.779,12.009-38.485,12.52-38.67L64,4.182L63.914,4.55
				c-0.024,0.107-2.47,11.037-2.47,44.122V48.929z M13.032,48.414h47.896c0.013-29.664,1.995-41.471,2.41-43.613l-38.175,5.698
				C25.09,10.532,13.094,15.293,13.032,48.414z"/>
		</g>
		<g>
			<linearGradient id="SVGID_1_" gradientUnits="userSpaceOnUse" x1="11.5361" y1="25.9629" x2="62.4238" y2="25.9629">
				<stop  offset="0" style="stop-color:#FFFFFF"/>
				<stop  offset="1" style="stop-color:#F5F5F6"/>
			</linearGradient>
			<path fill="url(#SVGID_1_)" d="M24.504,12.723l37.919-9.469c0,0-1.237,11.897-1.237,45.418c-10.75,0-35.587,0-49.65,0
				C11.536,14.687,24.504,12.723,24.504,12.723z"/>
			<path fill="#9D9D9C" d="M61.444,48.929H11.278v-0.257c0-33.819,12.649-36.124,13.188-36.204l38.253-9.553L62.682,3.28
				c-0.013,0.12-1.237,12.276-1.237,45.392V48.929z M11.794,48.414h49.133c0.007-29.828,1.008-42.584,1.207-44.822l-37.567,9.38
				C24.417,12.997,11.858,15.349,11.794,48.414z"/>
		</g>
		<g>
			<g>
				<polygon fill="#C6C6C6" points="11.437,16.026 27.06,0.258 61.187,0.362 60.566,43.924 12.774,43.924 				"/>
				<path fill="#9C9B9B" d="M60.82,44.181H12.529l-1.355-28.255l0.08-0.082L26.953,0h0.108l34.388,0.106l-0.004,0.26L60.82,44.181z
					 M13.02,43.666h47.292l0.611-43.047L27.167,0.517L11.7,16.128L13.02,43.666z"/>
			</g>
			<g>
				<polygon fill="#C6C6C6" points="12.272,15.199 26.982,0.954 60.566,0.982 60.566,43.924 12.774,43.924 				"/>
				<path fill="#9C9B9B" d="M60.824,44.181H12.521l-0.509-29.089l0.08-0.077L26.877,0.696l33.947,0.029V44.181z M13.028,43.666
					h47.281V1.24L27.086,1.213L12.532,15.308L13.028,43.666z"/>
			</g>
			<g>
				<polygon fill="#C6C6C6" points="12.774,14.812 25.976,1.602 61.187,1.602 60.566,45.163 13.394,45.163 				"/>
				<path fill="#9C9B9B" d="M60.82,45.421H13.142l-0.626-30.712L25.869,1.344h35.579l-0.004,0.262L60.82,45.421z M13.647,44.905
					h46.666l0.611-43.046H26.083L13.034,14.918L13.647,44.905z"/>
			</g>
		</g>
		<g>
			<g>
				<polygon fill="#C6C6C6" points="61.288,63.123 12.258,63.123 12.877,26.169 60.67,26.169 				"/>
				<path fill="#9C9B9B" d="M61.551,63.381H11.996l0.628-37.469h48.299l0.004,0.253L61.551,63.381z M12.521,62.865h48.507
					l-0.61-36.438H13.131L12.521,62.865z"/>
			</g>
			<g>
				<polygon fill="#C6C6C6" points="61.288,62.503 12.877,62.503 12.877,26.169 60.67,26.169 				"/>
				<path fill="#9C9B9B" d="M61.551,62.761H12.62V25.912h48.303l0.004,0.253L61.551,62.761z M13.135,62.245h47.892l-0.61-35.818
					H13.135V62.245z"/>
			</g>
			<g>
				<polygon fill="#C6C6C6" points="60.67,61.885 12.258,61.885 12.877,24.931 60.67,24.931 				"/>
				<path fill="#9C9B9B" d="M60.927,62.143H11.996l0.628-37.47h48.303V62.143z M12.521,61.628h47.893V25.188H13.131L12.521,61.628z"
					/>
			</g>
		</g>
		<g>
			<g>
				<linearGradient id="SVGID_2_" gradientUnits="userSpaceOnUse" x1="25.9966" y1="2.9844" x2="48.7857" y2="65.5969">
					<stop  offset="0" style="stop-color:#FFFFFF"/>
					<stop  offset="1" style="stop-color:#F5F5F6"/>
				</linearGradient>
				<polygon fill="url(#SVGID_2_)" points="61.086,2.385 27.643,2.385 11.85,18.179 11.85,61.119 61.086,61.119 				"/>
				<path fill="#9D9D9C" d="M61.603,61.635H11.334v-43.67L27.429,1.869h34.174V61.635z M12.365,60.603h48.207V2.9H27.856
					L12.365,18.392V60.603z"/>
			</g>
		</g>
		<text transform="matrix(1 0 0 1 18.9297 19.8223)" fill="#3C3C3B" font-family="'OpenSans-Extrabold'" font-size="4.9425">VERSTANDENE</text>
		<text transform="matrix(1 0 0 1 18.9297 27.2559)" fill="#3C3C3B" font-family="'OpenSans-Extrabold'" font-size="4.9425">BOTSCHAFTEN</text>
		<text transform="matrix(1 0 0 1 18.9297 34.8936)" fill="#3C3C3B" font-family="'OpenSans-Extrabold'" font-size="4.9425">KÖNNEN WEL</text>
		<text transform="matrix(1 0 0 1 18.9297 42.5332)" fill="#3C3C3B" font-family="'OpenSans-Extrabold'" font-size="4.9425">TEN VERÄNDE</text>
		<text transform="matrix(1 0 0 1 18.9297 50.377)" fill="#3C3C3B" font-family="'OpenSans-Extrabold'" font-size="4.9425">RN — B.T.</text>
	</g>
	<g>
		<polygon fill="#C6C6C6" points="27.344,2.349 12.057,18.167 26.364,19.407 		"/>
		<path fill="#9C9B9B" d="M26.364,19.664c-0.007,0-0.015,0-0.022-0.001l-14.307-1.239c-0.1-0.009-0.185-0.073-0.22-0.165
			c-0.035-0.095-0.012-0.199,0.057-0.271L27.159,2.17c0.073-0.078,0.188-0.104,0.288-0.057c0.099,0.042,0.16,0.144,0.153,0.251
			l-0.979,17.058c-0.004,0.069-0.036,0.134-0.089,0.18C26.486,19.642,26.426,19.664,26.364,19.664z M12.618,17.957l13.503,1.169
			l0.925-16.099L12.618,17.957z"/>
	</g>
	<g>
		<polygon fill="#C6C6C6" points="27.137,0.954 12.376,16.49 25.537,17.729 		"/>
		<path fill="#9C9B9B" d="M25.538,17.987c-0.008,0-0.017,0-0.025-0.001l-13.161-1.239c-0.098-0.009-0.183-0.073-0.217-0.167
			c-0.035-0.092-0.014-0.196,0.054-0.268L26.95,0.777c0.076-0.08,0.194-0.101,0.293-0.057c0.101,0.045,0.16,0.15,0.15,0.258
			l-1.599,16.774C25.78,17.888,25.668,17.987,25.538,17.987z M12.928,16.282l12.376,1.166L26.81,1.673L12.928,16.282z"/>
	</g>
	<g>
		<linearGradient id="SVGID_3_" gradientUnits="userSpaceOnUse" x1="17.6294" y1="3.9316" x2="22.6107" y2="17.6178">
			<stop  offset="0" style="stop-color:#FFFFFF"/>
			<stop  offset="1" style="stop-color:#EBEBEB"/>
		</linearGradient>
		<polygon fill="url(#SVGID_3_)" points="26.983,0.527 11.437,16.026 26.983,16.026 		"/>
		<path fill="#9D9D9C" d="M26.983,16.413H11.437c-0.156,0-0.297-0.096-0.357-0.239c-0.06-0.145-0.026-0.311,0.084-0.421l15.546-15.5
			c0.111-0.11,0.277-0.142,0.421-0.084c0.144,0.061,0.238,0.201,0.238,0.358v15.499C27.37,16.239,27.197,16.413,26.983,16.413z
			 M12.372,15.639h14.226V1.458L12.372,15.639z"/>
	</g>
</g>
</svg>
