<?xml version="1.0" encoding="utf-8"?>
<!-- Generator: Adobe Illustrator 16.0.0, SVG Export Plug-In . SVG Version: 6.00 Build 0)  -->
<!DOCTYPE svg PUBLIC "-//W3C//DTD SVG 1.1//EN" "http://www.w3.org/Graphics/SVG/1.1/DTD/svg11.dtd">
<svg version="1.1" id="Ebene_1" xmlns="http://www.w3.org/2000/svg" xmlns:xlink="http://www.w3.org/1999/xlink" x="0px" y="0px"
	 width="16px" height="16px" viewBox="0 0 16 16" enable-background="new 0 0 16 16" xml:space="preserve">
<g>
	<g>
		<path fill="#3C3C3B" d="M7.666,12.302H6.487V9.062H3.175v3.239H2V5.116h1.175v2.939h3.312V5.116h1.179V12.302z"/>
		<path fill="#3C3C3B" d="M13.652,6.768c0,0.455-0.132,0.834-0.397,1.138c-0.266,0.303-0.637,0.507-1.12,0.611v0.04
			c0.576,0.072,1.009,0.252,1.297,0.539s0.432,0.667,0.432,1.143c0,0.692-0.243,1.225-0.729,1.6
			c-0.49,0.375-1.185,0.562-2.084,0.562c-0.798,0-1.47-0.129-2.018-0.388v-1.027c0.305,0.151,0.628,0.267,0.971,0.349
			c0.339,0.083,0.669,0.124,0.982,0.124c0.558,0,0.974-0.104,1.249-0.31c0.274-0.207,0.412-0.525,0.412-0.958
			c0-0.383-0.153-0.665-0.457-0.845c-0.305-0.18-0.784-0.271-1.435-0.271h-0.624V8.133h0.634c1.146,0,1.719-0.396,1.719-1.189
			c0-0.308-0.099-0.546-0.301-0.712c-0.198-0.167-0.493-0.251-0.884-0.251c-0.271,0-0.534,0.04-0.787,0.116
			c-0.25,0.077-0.551,0.227-0.894,0.45L9.052,5.74c0.659-0.484,1.425-0.727,2.296-0.727c0.727,0,1.29,0.155,1.696,0.466
			C13.45,5.791,13.652,6.22,13.652,6.768z"/>
	</g>
</g>
</svg>
