<?xml version="1.0" encoding="utf-8"?>
<!-- Generator: Adobe Illustrator 16.0.0, SVG Export Plug-In . SVG Version: 6.00 Build 0)  -->
<!DOCTYPE svg PUBLIC "-//W3C//DTD SVG 1.1//EN" "http://www.w3.org/Graphics/SVG/1.1/DTD/svg11.dtd">
<svg version="1.1" id="Ebene_1" xmlns="http://www.w3.org/2000/svg" xmlns:xlink="http://www.w3.org/1999/xlink" x="0px" y="0px"
	 width="16px" height="16px" viewBox="0 0 16 16" enable-background="new 0 0 16 16" xml:space="preserve">
<g>
	<g>
		<path fill="#3C3C3B" d="M7.857,12.4h-1.77V8.788H2.773V12.4H1V4.032h1.773v3.28h3.314v-3.28h1.77V12.4z"/>
		<path fill="#3C3C3B" d="M15.236,12.4H9.386v-1.231l2.1-2.123c0.623-0.637,1.029-1.079,1.22-1.325s0.328-0.474,0.412-0.684
			c0.084-0.21,0.126-0.428,0.126-0.653c0-0.335-0.093-0.585-0.277-0.75c-0.186-0.164-0.432-0.246-0.74-0.246
			c-0.325,0-0.641,0.075-0.944,0.224c-0.307,0.149-0.625,0.36-0.958,0.635l-0.962-1.14c0.413-0.351,0.754-0.599,1.026-0.744
			c0.271-0.145,0.566-0.256,0.887-0.334c0.32-0.079,0.679-0.118,1.075-0.118c0.523,0,0.986,0.096,1.387,0.286
			c0.4,0.191,0.711,0.458,0.933,0.802c0.222,0.343,0.332,0.736,0.332,1.179c0,0.385-0.067,0.747-0.203,1.084
			c-0.137,0.338-0.346,0.684-0.63,1.039c-0.284,0.354-0.785,0.861-1.503,1.517l-1.075,1.013v0.081h3.646V12.4z"/>
	</g>
</g>
</svg>
