<svg xmlns="http://www.w3.org/2000/svg" xmlns:xlink="http://www.w3.org/1999/xlink" viewBox="0 0 268 120"><defs><path id="a" d="M42.9 40.5L31.4 90.1l-.3 1.1-.3-1.9-13.4-33.9L1 69.8v1.6l20.8 46.7h23.4L63.6 22z"/></defs><linearGradient id="b" gradientUnits="userSpaceOnUse" x1="32.306" y1="120" x2="32.306" y2="-3.065"><stop offset="0" stop-color="#e70512"/><stop offset="1" stop-color="#c51725"/></linearGradient><use xlink:href="#a" overflow="visible" fill="url(#b)"/><use xlink:href="#a" overflow="visible" fill="none" stroke="#ae2926" stroke-width=".5" stroke-linejoin="round"/><linearGradient id="c" gradientUnits="userSpaceOnUse" x1="32.039" y1="120" x2="32.039" y2="-3.065"><stop offset="0" stop-color="#e70512"/><stop offset="1" stop-color="#c51725"/></linearGradient><path fill="url(#c)" stroke="#ae2926" stroke-width=".5" stroke-linejoin="round" d="M63.6 22l-18.4 96.1H21.8L.5 70.2l16.9-14.8 13.4 33.9.3 1.9.3-1.1 11.5-49.6z"/><defs><path id="d" d="M74.8 43.8v74.3h17V43.8h-17zm0-28.5v16.8l17-16.6V.4l-17 14.9z"/></defs><linearGradient id="e" gradientUnits="userSpaceOnUse" x1="83.234" y1="120" x2="83.234" y2="-3.065"><stop offset="0" stop-color="#e70512"/><stop offset="1" stop-color="#c51725"/></linearGradient><use xlink:href="#d" overflow="visible" fill="url(#e)"/><use xlink:href="#d" overflow="visible" fill="none" stroke="#ae2926" stroke-width=".5" stroke-linejoin="round"/><linearGradient id="f" gradientUnits="userSpaceOnUse" x1="83.234" y1="120" x2="83.234" y2="-3.065"><stop offset="0" stop-color="#e70512"/><stop offset="1" stop-color="#c51725"/></linearGradient><path d="M91.7 118.1h-17V43.8h17v74.3zm0-102.6l-17 16.6V15.3L91.7.4v15.1z" fill="url(#f)" stroke="#ae2926" stroke-width=".5" stroke-linejoin="round"/><defs><path id="g" d="M160.1 43.8v47.6c0 3.6-.8 6.4-2.3 8.2-1.6 1.8-5.3 3.1-8.5 3.1H132c-3.2 0-5.3-1.3-6.9-3.1-1.6-1.8-2.4-4.5-2.4-8.2V43.7h-17V91c0 9.5 2.1 16.6 6.2 21.3 3.3 3.8 7.8 6.2 13.7 7H157c5.9-.8 10.5-3.2 13.8-7 3.7-4.4 5.9-10.7 6.2-19V43.8h-16.9z"/></defs><linearGradient id="h" gradientUnits="userSpaceOnUse" x1="141.362" y1="120" x2="141.362" y2="-3.065"><stop offset="0" stop-color="#e70512"/><stop offset="1" stop-color="#c51725"/></linearGradient><use xlink:href="#g" overflow="visible" fill="url(#h)"/><use xlink:href="#g" overflow="visible" fill="none" stroke="#ae2926" stroke-width=".5" stroke-linejoin="round"/><linearGradient id="i" gradientUnits="userSpaceOnUse" x1="141.383" y1="120" x2="141.383" y2="-3.065"><stop offset="0" stop-color="#e70512"/><stop offset="1" stop-color="#c51725"/></linearGradient><path d="M130.1 119.6c-8.1 0-14.1-2.5-18.2-7.3-4-4.7-6.2-11.8-6.2-21.3V43.8h17v47.6c0 3.6.8 6.4 2.4 8.2 1.6 1.8 3.7 3.1 6.9 3.1h17.3c3.2 0 6.9-1.3 8.5-3.1 1.6-1.8 2.3-4.6 2.3-8.2V43.8h17v47.3c0 9.5-2.2 16.5-6.3 21.2-4 4.7-10.1 7.3-18.2 7.3h-22.5z" fill="url(#i)" stroke="#ae2926" stroke-width=".5" stroke-linejoin="round"/><defs><path id="j" d="M233.3 43.8h-42.4v74.3h17v-57h31c3.7 0 6.4.8 8.3 2.3 1.8 1.6 3.2 5.3 3.2 8.4v5.3c0 3.1-1.3 5.3-3.2 6.9-1.8 1.6-4.6 2.4-8.2 2.4h-19.1l.5 9.3 25.3 22.4H267v-.5l-16.7-15.8c3.9-1 7.1-2.6 9.6-4.7 4-3.4 6.5-8.2 7.2-14.5V65c-.7-6.3-3.1-11.1-7.2-14.5-4.8-4-11.8-6.7-21.4-6.7h-5.2z"/></defs><linearGradient id="k" gradientUnits="userSpaceOnUse" x1="228.93" y1="120" x2="228.93" y2="-3.065"><stop offset="0" stop-color="#e70512"/><stop offset="1" stop-color="#c51725"/></linearGradient><use xlink:href="#j" overflow="visible" fill="url(#k)"/><use xlink:href="#j" overflow="visible" fill="none" stroke="#ae2926" stroke-width=".5" stroke-linejoin="round"/><linearGradient id="l" gradientUnits="userSpaceOnUse" x1="229.196" y1="120" x2="229.196" y2="-3.065"><stop offset="0" stop-color="#e70512"/><stop offset="1" stop-color="#c51725"/></linearGradient><path d="M250.3 101.8c3.9-1 7.1-2.6 9.6-4.7 4.8-4 7.3-10 7.3-18V68.6c0-8-2.6-14.1-7.3-18.1-4.8-4-11.8-6.7-21.4-6.7h-47.6v74.3h17v-57h31c3.7 0 6.4.8 8.3 2.3 1.8 1.6 3.2 5.3 3.2 8.4v5.3c0 3.1-1.3 5.3-3.2 6.9-1.8 1.6-4.6 2.4-8.2 2.4h-19.1l.5 9.3 25.3 22.4h21.9l-17.3-16.3z" fill="url(#l)" stroke="#ae2926" stroke-width=".5" stroke-linejoin="round"/></svg>