<?xml version="1.0" encoding="utf-8"?>
<!-- Generator: Adobe Illustrator 16.0.0, SVG Export Plug-In . SVG Version: 6.00 Build 0)  -->
<!DOCTYPE svg PUBLIC "-//W3C//DTD SVG 1.1//EN" "http://www.w3.org/Graphics/SVG/1.1/DTD/svg11.dtd">
<svg version="1.1" id="Ebene_1" xmlns="http://www.w3.org/2000/svg" xmlns:xlink="http://www.w3.org/1999/xlink" x="0px" y="0px"
	 width="64px" height="64px" viewBox="0 0 64 64" enable-background="new 0 0 64 64" xml:space="preserve">
<g id="Stammdaten">
	<g>
		<path fill="#C6C6C6" d="M62.773,51.328L1.093,50.621c0,0,2.83-13.975,2.83-36.822c12.282,0,39.951,0,56.021,0
			C59.943,38.768,62.773,51.328,62.773,51.328z"/>
		<path fill="#9C9B9B" d="M62.995,51.507l-0.224-0.002L0.877,50.794l0.042-0.209c0.028-0.141,2.827-14.223,2.827-36.787v-0.177
			H60.12v0.177c0,24.665,2.798,37.365,2.826,37.49L62.995,51.507z M1.306,50.447l61.249,0.701
			c-0.367-1.775-2.776-14.338-2.789-37.173H4.1C4.086,34.981,1.652,48.617,1.306,50.447z"/>
	</g>
	<g>
		<path fill="#C6C6C6" d="M62.065,52.599H1.8c0,0,2.123-4.436,2.123-38.801c12.282,0,39.951,0,56.021,0
			C59.943,48.642,62.065,52.599,62.065,52.599z"/>
		<path fill="#9C9B9B" d="M62.065,52.775H1.52l0.121-0.254c0.021-0.043,2.105-4.936,2.105-38.723v-0.177H60.12v0.177
			c0,34.213,2.017,38.549,2.103,38.717l0.131,0.258L62.065,52.775z M2.054,52.421h59.753c-0.432-1.283-2.034-8.096-2.041-38.446H4.1
			C4.094,44.126,2.471,51.123,2.054,52.421z"/>
	</g>
	<g>
		<g>
			<linearGradient id="SVGID_1_" gradientUnits="userSpaceOnUse" x1="50.251" y1="56.5815" x2="50.251" y2="49.0894">
				<stop  offset="0" style="stop-color:#9D9D9C"/>
				<stop  offset="1" style="stop-color:#3C3C3B"/>
			</linearGradient>
			<path fill="url(#SVGID_1_)" d="M58.565,55.218c0,0.752-0.61,1.363-1.362,1.363H43.299c-0.752,0-1.362-0.611-1.362-1.363v-4.766
				c0-0.754,0.61-1.363,1.362-1.363h13.904c0.752,0,1.362,0.609,1.362,1.363V55.218z"/>
			<path fill="#6F6F6F" d="M57.203,56.757H43.299c-0.849,0-1.539-0.689-1.539-1.539v-4.766c0-0.85,0.69-1.541,1.539-1.541h13.904
				c0.849,0,1.539,0.691,1.539,1.541v4.766C58.742,56.068,58.052,56.757,57.203,56.757z M43.299,49.265
				c-0.654,0-1.186,0.533-1.186,1.188v4.766c0,0.654,0.531,1.186,1.186,1.186h13.904c0.654,0,1.186-0.531,1.186-1.186v-4.766
				c0-0.654-0.531-1.188-1.186-1.188H43.299z"/>
		</g>
		<g>
			<path fill="#C6C6C6" d="M59.98,15.331H3.726L3.018,53.189h20.875v2.736c0,0.752,0.61,1.363,1.362,1.363h13.904
				c0.752,0,1.362-0.611,1.362-1.363v-2.736h20.167L59.98,15.331z"/>
			<path fill="#9C9B9B" d="M39.159,57.466H25.255c-0.849,0-1.539-0.691-1.539-1.541v-2.561H2.838l0.714-38.211h56.603l0.004,0.174
				l0.711,38.037H40.698v2.561C40.698,56.775,40.008,57.466,39.159,57.466z M3.198,53.011h20.871v2.914
				c0,0.654,0.531,1.188,1.186,1.188h13.904c0.654,0,1.186-0.533,1.186-1.188v-2.914h20.163l-0.7-37.503H3.898L3.198,53.011z"/>
		</g>
		<g>
			<linearGradient id="SVGID_2_" gradientUnits="userSpaceOnUse" x1="22.3652" y1="7.1304" x2="41.3403" y2="59.264">
				<stop  offset="0" style="stop-color:#FFFFFF"/>
				<stop  offset="1" style="stop-color:#F5F5F5"/>
			</linearGradient>
			<path fill="url(#SVGID_2_)" d="M59.98,13.916H3.726V52.48h1.769v2.738c0,0.752,0.61,1.363,1.362,1.363h13.905
				c0.752,0,1.361-0.611,1.361-1.363V52.48H59.98V13.916z"/>
			<path fill="#9D9D9C" d="M20.762,56.847H6.856c-0.897,0-1.627-0.73-1.627-1.629v-2.473H3.46V13.65h56.786v39.095H22.389v2.473
				C22.389,56.117,21.659,56.847,20.762,56.847z M3.99,52.216h1.77v3.002c0,0.605,0.492,1.098,1.097,1.098h13.905
				c0.604,0,1.097-0.492,1.097-1.098v-3.002h37.857V14.181H3.99V52.216z"/>
		</g>
		<g>
			<path fill="#9D9D9C" d="M52.116,14.93c0,3.396-1.162,4.732-1.725,4.732c-0.562,0-1.018-1.336-1.018-4.732
				c0-0.346,0.005-0.686,0.014-1.017c0.871,0,1.844-0.003,2.715-0.003C52.112,14.242,52.116,14.583,52.116,14.93z"/>
			<path fill="#9D9D9C" d="M50.392,19.839c-0.793,0-1.194-1.652-1.194-4.909c0-0.348,0.005-0.688,0.014-1.021l0.005-0.172
				l3.059-0.003l0.005,0.171c0.01,0.333,0.014,0.677,0.014,1.025C52.293,18.279,51.158,19.839,50.392,19.839z M49.561,14.09
				c-0.006,0.274-0.01,0.555-0.01,0.84c0,3.596,0.528,4.555,0.841,4.555c0.455,0,1.548-1.311,1.548-4.555
				c0-0.286-0.003-0.567-0.009-0.843L49.561,14.09z"/>
		</g>
		<g>
			<path fill="#9D9D9C" d="M17.443,14.93c0,3.396-1.162,4.732-1.725,4.732c-0.562,0-1.018-1.336-1.018-4.732
				c0-0.346,0.005-0.686,0.014-1.017c0.871,0,1.844-0.003,2.715-0.003C17.438,14.242,17.443,14.583,17.443,14.93z"/>
			<path fill="#9D9D9C" d="M15.719,19.839c-0.793,0-1.194-1.652-1.194-4.909c0-0.348,0.005-0.688,0.014-1.021l0.005-0.172
				l3.059-0.003l0.005,0.171c0.01,0.333,0.014,0.677,0.014,1.025C17.62,18.279,16.485,19.839,15.719,19.839z M14.888,14.09
				c-0.006,0.274-0.01,0.555-0.01,0.84c0,3.596,0.528,4.555,0.841,4.555c0.455,0,1.548-1.311,1.548-4.555
				c0-0.286-0.003-0.567-0.01-0.843L14.888,14.09z"/>
		</g>
		<g>
			<rect x="8.502" y="26.653" fill="#C6C6C6" width="11.676" height="16.274"/>
			<path fill="#6F6F6F" d="M20.354,43.105H8.325V26.476h12.029V43.105z M8.679,42.751h11.322V26.83H8.679V42.751z"/>
		</g>
		<g>
			<rect x="47.753" y="20.016" fill="#3C3C3B" width="3.185" height="1.651"/>
			<path fill="#1D1D1B" d="M51.114,21.845h-3.538v-2.005h3.538V21.845z M47.93,21.491h2.831v-1.298H47.93V21.491z"/>
		</g>
		<g>
			<linearGradient id="SVGID_3_" gradientUnits="userSpaceOnUse" x1="49.3662" y1="20.9917" x2="49.3662" y2="8.9624">
				<stop  offset="0" style="stop-color:#6F6F6F"/>
				<stop  offset="0.3793" style="stop-color:#C6C6C5"/>
				<stop  offset="1" style="stop-color:#3C3C3B"/>
			</linearGradient>
			<rect x="48.305" y="8.962" fill="url(#SVGID_3_)" width="2.123" height="12.029"/>
			<path fill="#6F6F6F" d="M50.604,21.169h-2.477V8.786h2.477V21.169z M48.482,20.815h1.769V9.139h-1.769V20.815z"/>
		</g>
		<g>
			<rect x="12.991" y="20.016" fill="#3C3C3B" width="3.185" height="1.651"/>
			<path fill="#1D1D1B" d="M16.353,21.845h-3.538v-2.005h3.538V21.845z M13.168,21.491h2.831v-1.298h-2.831V21.491z"/>
		</g>
		<g>
			<linearGradient id="SVGID_4_" gradientUnits="userSpaceOnUse" x1="14.6934" y1="20.9917" x2="14.6934" y2="8.9624">
				<stop  offset="0" style="stop-color:#6F6F6F"/>
				<stop  offset="0.3793" style="stop-color:#C6C6C5"/>
				<stop  offset="1" style="stop-color:#3C3C3B"/>
			</linearGradient>
			<rect x="13.632" y="8.962" fill="url(#SVGID_4_)" width="2.123" height="12.029"/>
			<path fill="#6F6F6F" d="M15.932,21.169h-2.477V8.786h2.477V21.169z M13.809,20.815h1.77V9.139h-1.77V20.815z"/>
		</g>
	</g>
</g>
<g>
	<path fill="#E30613" d="M8.503,42.927l-0.001-3.341c0,0,0.569-0.49,0.705-0.561c0.135-0.066,0.318-0.146,0.547-0.241
		c0.031-0.011,0.058-0.021,0.078-0.031c0.781-0.312,1.317-0.631,1.61-0.952c0.291-0.323,0.437-0.766,0.437-1.33
		c0-0.197-0.096-0.416-0.289-0.656c-0.192-0.239-0.325-0.583-0.398-1.031c-0.021-0.104-0.061-0.183-0.117-0.234
		c-0.057-0.053-0.117-0.089-0.18-0.109c-0.062-0.02-0.12-0.099-0.172-0.233c-0.052-0.137-0.089-0.339-0.109-0.611
		c0-0.134,0.019-0.251,0.055-0.351c0.037-0.099,0.075-0.165,0.117-0.195l0.062-0.032c-0.007-0.036-0.013-0.07-0.018-0.108
		c-0.073-0.423-0.125-0.8-0.154-1.126c-0.021-0.199,0.003-0.417,0.07-0.657s0.183-0.495,0.344-0.766s0.425-0.498,0.789-0.68
		c0.267-0.132,0.569-0.217,0.907-0.253c0.126-0.012,0.255-0.021,0.391-0.021c0.5,0,0.93,0.091,1.289,0.273
		c0.359,0.183,0.619,0.409,0.782,0.68c0.16,0.271,0.275,0.526,0.343,0.766c0.068,0.239,0.092,0.458,0.07,0.657l-0.155,1.234
		c0.145,0.073,0.218,0.267,0.218,0.578c-0.021,0.272-0.06,0.475-0.116,0.611c-0.058,0.135-0.116,0.214-0.173,0.233
		c-0.058,0.021-0.114,0.057-0.172,0.109c-0.058,0.052-0.096,0.13-0.116,0.234c-0.073,0.448-0.203,0.792-0.392,1.031
		c-0.187,0.24-0.28,0.459-0.28,0.656c0,0.564,0.145,1.007,0.437,1.33c0.292,0.321,0.822,0.64,1.594,0.952
		c0.737,0.297,1.335,0.569,1.799,0.813c0.012,0.007,0.022,0.013,0.034,0.02c0.107,0.057,0.531,0.436,0.623,0.489
		c0.494,0.29,1.155,2.852,1.155,2.852H8.503z"/>
	<path fill="#BE1622" d="M20.344,43.105H8.325v-3.6l0.062-0.053c0.097-0.084,0.592-0.508,0.739-0.584
		c0.141-0.069,0.327-0.151,0.561-0.247c0.029-0.011,0.048-0.017,0.062-0.024c0.769-0.309,1.288-0.614,1.562-0.915
		c0.264-0.292,0.392-0.688,0.392-1.211c0-0.156-0.085-0.34-0.25-0.545c-0.211-0.262-0.357-0.637-0.436-1.113
		c-0.012-0.061-0.033-0.107-0.062-0.134c-0.036-0.034-0.075-0.059-0.115-0.071c-0.114-0.036-0.208-0.147-0.281-0.339
		c-0.061-0.158-0.1-0.374-0.12-0.661c-0.001-0.168,0.021-0.307,0.064-0.425c0.044-0.119,0.092-0.2,0.151-0.254
		c-0.073-0.422-0.125-0.804-0.153-1.13c-0.023-0.217,0.002-0.46,0.076-0.72c0.07-0.25,0.191-0.522,0.361-0.808
		c0.179-0.299,0.469-0.551,0.862-0.748c0.284-0.142,0.609-0.232,0.968-0.271c0.133-0.013,0.268-0.021,0.409-0.021
		c0.525,0,0.986,0.098,1.369,0.292c0.388,0.197,0.674,0.448,0.854,0.747c0.169,0.284,0.29,0.556,0.361,0.808
		c0.074,0.26,0.1,0.503,0.077,0.723l-0.144,1.134c0.138,0.129,0.206,0.35,0.206,0.659c-0.022,0.306-0.065,0.523-0.13,0.68
		c-0.081,0.189-0.169,0.295-0.278,0.332c-0.033,0.012-0.07,0.036-0.109,0.072c-0.029,0.026-0.05,0.073-0.063,0.139
		c-0.076,0.472-0.221,0.846-0.426,1.106c-0.16,0.207-0.242,0.392-0.242,0.547c0,0.523,0.128,0.919,0.391,1.211
		c0.273,0.302,0.788,0.607,1.529,0.907c0.724,0.292,1.334,0.568,1.815,0.821l0.041,0.023c0.062,0.033,0.184,0.133,0.376,0.292
		c0.107,0.089,0.207,0.174,0.247,0.197c0.53,0.312,1.123,2.522,1.236,2.961L20.344,43.105z M8.68,42.751h11.206
		c-0.277-1.02-0.738-2.361-1.015-2.523c-0.052-0.031-0.141-0.104-0.293-0.231c-0.104-0.086-0.279-0.231-0.323-0.255l-0.045-0.025
		c-0.459-0.241-1.059-0.513-1.771-0.8c-0.803-0.325-1.346-0.651-1.659-0.998c-0.32-0.354-0.482-0.842-0.482-1.448
		c0-0.239,0.104-0.489,0.317-0.765c0.168-0.214,0.288-0.534,0.356-0.951c0.028-0.147,0.086-0.259,0.172-0.337
		c0.074-0.068,0.149-0.115,0.229-0.145c-0.004,0,0.026-0.032,0.071-0.137c0.05-0.118,0.084-0.305,0.104-0.555
		c-0.001-0.215-0.045-0.368-0.122-0.407l-0.111-0.056l0.172-1.358c0.018-0.171-0.004-0.37-0.065-0.586
		c-0.063-0.224-0.173-0.467-0.325-0.724c-0.145-0.241-0.383-0.447-0.71-0.612c-0.332-0.169-0.739-0.255-1.209-0.255
		c-0.129,0-0.253,0.008-0.373,0.02c-0.314,0.033-0.6,0.113-0.846,0.235c-0.332,0.167-0.573,0.373-0.716,0.612
		c-0.154,0.259-0.264,0.502-0.326,0.723c-0.061,0.216-0.083,0.415-0.064,0.59c0.028,0.321,0.08,0.695,0.152,1.115l0.043,0.235
		l-0.172,0.088l0,0c0.007,0-0.014,0.028-0.041,0.103c-0.029,0.079-0.044,0.176-0.044,0.29c0.019,0.236,0.052,0.425,0.098,0.549
		c0.042,0.108,0.073,0.133,0.073,0.133c0.078,0.024,0.16,0.074,0.233,0.143c0.085,0.079,0.143,0.19,0.171,0.33
		c0.068,0.422,0.19,0.741,0.362,0.954c0.221,0.274,0.328,0.525,0.328,0.768c0,0.606-0.162,1.094-0.482,1.448
		c-0.314,0.347-0.863,0.673-1.676,0.998c-0.01,0.007-0.043,0.02-0.084,0.034c-0.217,0.089-0.396,0.167-0.528,0.232
		c-0.064,0.034-0.349,0.264-0.606,0.483L8.68,42.751z"/>
</g>
<g>
	<path fill="#E30613" d="M23.433,27.819h1.057c0.411,0,0.717,0.061,0.917,0.183c0.198,0.123,0.298,0.312,0.298,0.571
		c0,0.17-0.043,0.315-0.13,0.435s-0.201,0.197-0.344,0.232v0.021c0.188,0.05,0.324,0.132,0.408,0.248
		c0.084,0.116,0.127,0.267,0.127,0.452c0,0.275-0.104,0.491-0.311,0.65c-0.206,0.158-0.487,0.237-0.844,0.237h-1.179V27.819z
		 M24.25,28.981h0.248c0.116,0,0.207-0.024,0.272-0.072c0.063-0.049,0.096-0.121,0.096-0.216c0-0.169-0.129-0.255-0.385-0.255H24.25
		V28.981z M24.25,29.58v0.636h0.289c0.255,0,0.383-0.107,0.383-0.323c0-0.101-0.034-0.178-0.102-0.232
		c-0.069-0.054-0.168-0.081-0.299-0.081H24.25z"/>
	<path fill="#E30613" d="M29.125,29.33c0,0.509-0.126,0.897-0.375,1.162c-0.25,0.265-0.616,0.398-1.099,0.398
		c-0.475,0-0.839-0.133-1.092-0.4c-0.254-0.266-0.381-0.654-0.381-1.164c0-0.504,0.127-0.889,0.378-1.155
		c0.253-0.266,0.619-0.398,1.1-0.398c0.481,0,0.847,0.131,1.096,0.396C29.001,28.431,29.125,28.818,29.125,29.33z M27.041,29.33
		c0,0.585,0.203,0.878,0.61,0.878c0.208,0,0.361-0.071,0.462-0.213c0.1-0.142,0.149-0.364,0.149-0.665
		c0-0.302-0.051-0.526-0.152-0.67c-0.101-0.144-0.253-0.216-0.454-0.216C27.246,28.443,27.041,28.738,27.041,29.33z"/>
	<path fill="#E30613" d="M30.489,29.746v1.102h-0.818v-3.028h0.992c0.824,0,1.235,0.298,1.235,0.895
		c0,0.351-0.172,0.623-0.514,0.814l0.882,1.319h-0.928l-0.643-1.102H30.489z M30.489,29.13h0.153c0.286,0,0.429-0.126,0.429-0.379
		c0-0.208-0.14-0.313-0.421-0.313h-0.161V29.13z"/>
	<path fill="#E30613" d="M32.542,30.848v-3.028h0.822v3.028H32.542z"/>
	<path fill="#E30613" d="M35.999,29.928c0,0.188-0.048,0.354-0.143,0.5c-0.096,0.146-0.233,0.259-0.413,0.34
		c-0.18,0.081-0.39,0.121-0.631,0.121c-0.202,0-0.371-0.014-0.508-0.042s-0.279-0.078-0.427-0.148v-0.729
		c0.156,0.08,0.318,0.143,0.486,0.188c0.169,0.045,0.323,0.067,0.465,0.067c0.121,0,0.21-0.021,0.267-0.063s0.086-0.096,0.086-0.163
		c0-0.042-0.013-0.078-0.035-0.109c-0.022-0.031-0.06-0.062-0.109-0.094c-0.051-0.032-0.185-0.097-0.403-0.195
		c-0.197-0.09-0.346-0.176-0.443-0.261c-0.1-0.084-0.173-0.181-0.22-0.29c-0.049-0.109-0.072-0.238-0.072-0.388
		c0-0.279,0.102-0.496,0.305-0.652c0.203-0.156,0.481-0.234,0.837-0.234c0.313,0,0.633,0.073,0.959,0.217l-0.251,0.632
		c-0.282-0.13-0.527-0.195-0.732-0.195c-0.106,0-0.185,0.019-0.232,0.056c-0.049,0.038-0.072,0.083-0.072,0.139
		c0,0.059,0.03,0.112,0.092,0.159s0.229,0.133,0.5,0.257c0.262,0.117,0.442,0.243,0.545,0.378
		C35.948,29.554,35.999,29.724,35.999,29.928z"/>
	<path fill="#E30613" d="M38.905,30.848h-0.818v-2.359h-0.739v-0.669h2.295v0.669h-0.737V30.848z"/>
	<path fill="#E30613" d="M41.873,30.848h-1.798v-3.028h1.798v0.657h-0.979v0.477h0.907v0.656h-0.907v0.572h0.979V30.848z"/>
	<path fill="#E30613" d="M44.384,29.928c0,0.188-0.048,0.354-0.144,0.5c-0.095,0.146-0.231,0.259-0.411,0.34
		c-0.18,0.081-0.39,0.121-0.632,0.121c-0.202,0-0.371-0.014-0.508-0.042s-0.278-0.078-0.427-0.148v-0.729
		c0.156,0.08,0.318,0.143,0.486,0.188c0.169,0.045,0.323,0.067,0.465,0.067c0.121,0,0.21-0.021,0.267-0.063s0.085-0.096,0.085-0.163
		c0-0.042-0.012-0.078-0.034-0.109c-0.023-0.031-0.06-0.062-0.109-0.094c-0.051-0.032-0.185-0.097-0.403-0.195
		c-0.197-0.09-0.346-0.176-0.444-0.261s-0.172-0.181-0.22-0.29s-0.071-0.238-0.071-0.388c0-0.279,0.102-0.496,0.305-0.652
		c0.203-0.156,0.482-0.234,0.837-0.234c0.313,0,0.634,0.073,0.959,0.217l-0.251,0.632c-0.283-0.13-0.527-0.195-0.732-0.195
		c-0.106,0-0.184,0.019-0.232,0.056c-0.048,0.038-0.073,0.083-0.073,0.139c0,0.059,0.031,0.112,0.093,0.159s0.228,0.133,0.5,0.257
		c0.262,0.117,0.442,0.243,0.544,0.378S44.384,29.724,44.384,29.928z"/>
	<path fill="#E30613" d="M47.438,30.848h-0.923l-0.599-1.158l-0.243,0.145v1.013h-0.822v-3.028h0.822v1.315
		c0.041-0.082,0.126-0.21,0.251-0.388l0.636-0.928h0.895L46.5,29.176L47.438,30.848z"/>
	<path fill="#E30613" d="M50.6,29.33c0,0.509-0.125,0.897-0.375,1.162c-0.25,0.265-0.616,0.398-1.097,0.398
		c-0.476,0-0.84-0.133-1.094-0.4c-0.253-0.266-0.38-0.654-0.38-1.164c0-0.504,0.126-0.889,0.379-1.155
		c0.251-0.266,0.617-0.398,1.099-0.398c0.48,0,0.847,0.131,1.095,0.396C50.475,28.431,50.6,28.818,50.6,29.33z M48.516,29.33
		c0,0.585,0.204,0.878,0.612,0.878c0.206,0,0.36-0.071,0.46-0.213c0.1-0.142,0.15-0.364,0.15-0.665c0-0.302-0.051-0.526-0.152-0.67
		c-0.102-0.144-0.253-0.216-0.454-0.216C48.721,28.443,48.516,28.738,48.516,29.33z"/>
	<path fill="#E30613" d="M54.417,30.848h-0.968l-0.289-1.319c-0.015-0.055-0.036-0.165-0.066-0.33
		c-0.028-0.164-0.051-0.301-0.064-0.412c-0.012,0.09-0.029,0.202-0.054,0.334c-0.025,0.133-0.05,0.256-0.073,0.368
		c-0.024,0.112-0.125,0.565-0.302,1.359h-0.968l-0.749-3.028h0.789l0.329,1.519c0.075,0.335,0.126,0.603,0.153,0.801
		c0.019-0.141,0.05-0.332,0.096-0.574c0.047-0.242,0.09-0.442,0.13-0.601l0.267-1.146h0.759l0.259,1.146
		c0.044,0.184,0.09,0.396,0.136,0.636c0.045,0.241,0.075,0.42,0.09,0.539c0.019-0.153,0.067-0.419,0.147-0.797l0.336-1.522h0.789
		L54.417,30.848z"/>
	<path fill="#3C3C3B" d="M25.23,35.938h-1.798V32.91h1.798v0.656h-0.98v0.477h0.908v0.656H24.25v0.572h0.98V35.938z"/>
	<path fill="#3C3C3B" d="M27.461,32.91h0.916l-0.992,3.028h-0.963l-0.988-3.028h0.92l0.412,1.534
		c0.085,0.342,0.132,0.579,0.141,0.713c0.01-0.097,0.029-0.218,0.058-0.362c0.029-0.146,0.055-0.259,0.077-0.342L27.461,32.91z"/>
	<path fill="#3C3C3B" d="M30.562,35.938l-0.149-0.568h-0.984l-0.153,0.568h-0.898l0.988-3.041h1.092l0.999,3.041H30.562z
		 M30.243,34.699l-0.13-0.497c-0.03-0.11-0.068-0.253-0.111-0.429c-0.044-0.175-0.072-0.301-0.087-0.377
		c-0.012,0.07-0.036,0.187-0.073,0.348c-0.036,0.162-0.117,0.48-0.243,0.955H30.243z"/>
	<path fill="#3C3C3B" d="M34.667,35.938h-1.072l-1.106-2.134H32.47c0.026,0.336,0.039,0.592,0.039,0.769v1.365h-0.725V32.91h1.068
		l1.103,2.104h0.013c-0.02-0.306-0.029-0.551-0.029-0.735V32.91h0.729V35.938z"/>
	<path fill="#3C3C3B" d="M36.537,34.165h1.308v1.632c-0.354,0.122-0.745,0.183-1.17,0.183c-0.467,0-0.827-0.136-1.083-0.406
		c-0.255-0.271-0.382-0.656-0.382-1.157c0-0.489,0.14-0.87,0.418-1.142c0.279-0.272,0.67-0.408,1.173-0.408
		c0.19,0,0.37,0.018,0.539,0.054c0.17,0.036,0.316,0.081,0.442,0.136l-0.259,0.643c-0.218-0.108-0.457-0.162-0.719-0.162
		c-0.238,0-0.423,0.078-0.554,0.233s-0.196,0.378-0.196,0.666c0,0.283,0.06,0.499,0.178,0.647s0.288,0.223,0.511,0.223
		c0.121,0,0.233-0.012,0.336-0.035v-0.475h-0.542V34.165z"/>
	<path fill="#3C3C3B" d="M40.26,35.938h-1.798V32.91h1.798v0.656H39.28v0.477h0.906v0.656H39.28v0.572h0.979V35.938z"/>
	<path fill="#3C3C3B" d="M40.789,35.938V32.91h0.818v2.367h1.167v0.661H40.789z"/>
	<path fill="#3C3C3B" d="M43.26,35.938V32.91h0.822v3.028H43.26z"/>
	<path fill="#3C3C3B" d="M46.716,35.019c0,0.188-0.048,0.354-0.143,0.5s-0.233,0.259-0.412,0.34
		c-0.18,0.081-0.391,0.121-0.633,0.121c-0.201,0-0.37-0.014-0.507-0.042s-0.279-0.078-0.427-0.148V35.06
		c0.156,0.08,0.319,0.143,0.487,0.188s0.322,0.067,0.463,0.067c0.122,0,0.212-0.021,0.268-0.062
		c0.057-0.043,0.085-0.097,0.085-0.163c0-0.041-0.011-0.078-0.034-0.108c-0.022-0.031-0.06-0.062-0.109-0.095
		c-0.051-0.031-0.186-0.097-0.403-0.194c-0.197-0.09-0.346-0.177-0.444-0.261c-0.099-0.085-0.172-0.182-0.22-0.29
		c-0.047-0.109-0.071-0.239-0.071-0.388c0-0.279,0.103-0.497,0.306-0.652c0.202-0.156,0.48-0.234,0.836-0.234
		c0.313,0,0.633,0.072,0.959,0.217l-0.25,0.632c-0.283-0.13-0.528-0.195-0.734-0.195c-0.106,0-0.184,0.019-0.231,0.056
		c-0.049,0.038-0.072,0.084-0.072,0.139c0,0.059,0.03,0.112,0.092,0.159s0.229,0.133,0.5,0.257c0.261,0.117,0.442,0.243,0.544,0.378
		S46.716,34.814,46.716,35.019z"/>
	<path fill="#3C3C3B" d="M48.521,35.938h-0.818v-2.359h-0.739V32.91h2.295v0.669h-0.737V35.938z"/>
	<path fill="#3C3C3B" d="M23.433,38.001h1.057c0.411,0,0.717,0.061,0.917,0.183c0.198,0.122,0.298,0.312,0.298,0.571
		c0,0.169-0.043,0.314-0.13,0.435s-0.201,0.197-0.344,0.231v0.021c0.188,0.05,0.324,0.132,0.408,0.248s0.127,0.267,0.127,0.451
		c0,0.275-0.104,0.492-0.311,0.651c-0.206,0.156-0.487,0.236-0.844,0.236h-1.179V38.001z M24.25,39.162h0.248
		c0.116,0,0.207-0.023,0.272-0.072c0.063-0.048,0.096-0.12,0.096-0.216c0-0.169-0.129-0.254-0.385-0.254H24.25V39.162z
		 M24.25,39.761v0.637h0.289c0.255,0,0.383-0.108,0.383-0.324c0-0.101-0.034-0.178-0.102-0.231
		c-0.069-0.054-0.168-0.081-0.299-0.081H24.25z"/>
	<path fill="#3C3C3B" d="M29.125,39.511c0,0.51-0.126,0.896-0.375,1.163c-0.25,0.264-0.616,0.396-1.099,0.396
		c-0.475,0-0.839-0.133-1.092-0.4c-0.254-0.265-0.381-0.654-0.381-1.164c0-0.504,0.127-0.889,0.378-1.154
		c0.253-0.266,0.619-0.398,1.1-0.398c0.481,0,0.847,0.132,1.096,0.396S29.125,38.999,29.125,39.511z M27.041,39.511
		c0,0.585,0.203,0.878,0.61,0.878c0.208,0,0.361-0.071,0.462-0.214c0.1-0.142,0.149-0.363,0.149-0.664
		c0-0.303-0.051-0.526-0.152-0.671c-0.101-0.144-0.253-0.216-0.454-0.216C27.246,38.624,27.041,38.919,27.041,39.511z"/>
	<path fill="#3C3C3B" d="M30.489,39.927v1.102h-0.818v-3.028h0.992c0.824,0,1.235,0.298,1.235,0.895
		c0,0.351-0.172,0.622-0.514,0.813l0.882,1.32h-0.928l-0.643-1.102H30.489z M30.489,39.312h0.153c0.286,0,0.429-0.126,0.429-0.379
		c0-0.209-0.14-0.312-0.421-0.312h-0.161V39.312z"/>
	<path fill="#3C3C3B" d="M32.542,41.029v-3.028h0.822v3.028H32.542z"/>
	<path fill="#3C3C3B" d="M35.999,40.108c0,0.188-0.048,0.354-0.143,0.501c-0.096,0.146-0.233,0.259-0.413,0.339
		s-0.39,0.121-0.631,0.121c-0.202,0-0.371-0.014-0.508-0.043c-0.137-0.027-0.279-0.076-0.427-0.146v-0.73
		c0.156,0.08,0.318,0.143,0.486,0.188c0.169,0.045,0.323,0.067,0.465,0.067c0.121,0,0.21-0.021,0.267-0.063s0.086-0.096,0.086-0.162
		c0-0.042-0.013-0.078-0.035-0.109s-0.06-0.062-0.109-0.094c-0.051-0.032-0.185-0.097-0.403-0.195
		c-0.197-0.09-0.346-0.176-0.443-0.261c-0.1-0.084-0.173-0.181-0.22-0.29c-0.049-0.108-0.072-0.238-0.072-0.388
		c0-0.278,0.102-0.496,0.305-0.652c0.203-0.155,0.481-0.233,0.837-0.233c0.313,0,0.633,0.072,0.959,0.217l-0.251,0.633
		c-0.282-0.13-0.527-0.195-0.732-0.195c-0.106,0-0.185,0.019-0.232,0.056c-0.049,0.038-0.072,0.084-0.072,0.14
		c0,0.059,0.03,0.112,0.092,0.159s0.229,0.133,0.5,0.257c0.262,0.117,0.442,0.243,0.545,0.378
		C35.948,39.735,35.999,39.904,35.999,40.108z"/>
	<path fill="#3C3C3B" d="M39.775,39.463c0,0.194-0.033,0.376-0.102,0.545c-0.066,0.168-0.159,0.3-0.277,0.396
		c-0.119,0.095-0.254,0.143-0.406,0.143c-0.109,0-0.208-0.021-0.296-0.065c-0.089-0.043-0.157-0.104-0.207-0.181h-0.032
		c-0.147,0.164-0.327,0.246-0.537,0.246c-0.253,0-0.447-0.074-0.583-0.222s-0.202-0.354-0.202-0.619
		c0-0.194,0.042-0.367,0.128-0.517c0.085-0.15,0.209-0.266,0.371-0.347c0.161-0.08,0.348-0.12,0.561-0.12
		c0.112,0,0.235,0.011,0.37,0.034c0.135,0.022,0.258,0.053,0.369,0.092l-0.043,0.874l-0.004,0.194c0,0.119,0.033,0.179,0.102,0.179
		c0.071,0,0.13-0.061,0.175-0.181s0.066-0.271,0.066-0.455c0-0.33-0.093-0.585-0.279-0.765s-0.45-0.27-0.793-0.27
		c-0.263,0-0.49,0.055-0.685,0.164s-0.342,0.265-0.444,0.469s-0.153,0.442-0.153,0.716c0,0.352,0.099,0.624,0.296,0.815
		c0.196,0.192,0.474,0.288,0.833,0.288c0.16,0,0.333-0.018,0.519-0.053c0.187-0.035,0.368-0.084,0.546-0.146v0.473
		c-0.31,0.133-0.654,0.197-1.035,0.197c-0.536,0-0.957-0.139-1.263-0.42c-0.307-0.279-0.458-0.667-0.458-1.163
		c0-0.349,0.078-0.662,0.236-0.938c0.158-0.277,0.376-0.49,0.655-0.641c0.277-0.149,0.593-0.225,0.945-0.225
		c0.323,0,0.607,0.062,0.856,0.185c0.247,0.123,0.438,0.298,0.57,0.525C39.709,38.897,39.775,39.162,39.775,39.463z M37.715,39.701
		c0,0.138,0.024,0.238,0.075,0.3c0.05,0.062,0.116,0.094,0.199,0.094c0.106,0,0.185-0.043,0.234-0.129
		c0.05-0.085,0.082-0.237,0.098-0.455l0.021-0.323c-0.055-0.009-0.103-0.013-0.141-0.013c-0.149,0-0.269,0.047-0.355,0.139
		C37.758,39.406,37.715,39.535,37.715,39.701z"/>
	<path fill="#3C3C3B" d="M41.973,38.001h0.916l-0.992,3.028h-0.963l-0.988-3.028h0.92l0.412,1.534
		c0.085,0.341,0.132,0.578,0.141,0.713c0.01-0.097,0.028-0.218,0.058-0.362c0.029-0.146,0.055-0.259,0.077-0.342L41.973,38.001z"/>
	<path fill="#3C3C3B" d="M43.151,38.098c0-0.121,0.033-0.212,0.101-0.271c0.068-0.06,0.178-0.089,0.328-0.089
		s0.261,0.03,0.329,0.091c0.068,0.062,0.104,0.151,0.104,0.27c0,0.237-0.144,0.356-0.433,0.356
		C43.294,38.454,43.151,38.335,43.151,38.098z M43.982,41.029h-0.811v-2.347h0.811V41.029z"/>
	<path fill="#3C3C3B" d="M47.17,38.001v1.822c0,0.396-0.112,0.703-0.337,0.92c-0.225,0.217-0.548,0.326-0.97,0.326
		c-0.413,0-0.73-0.105-0.952-0.316c-0.222-0.211-0.333-0.515-0.333-0.912v-1.841H45.4v1.776c0,0.215,0.04,0.369,0.121,0.466
		c0.08,0.098,0.198,0.146,0.354,0.146c0.166,0,0.287-0.048,0.363-0.144c0.074-0.097,0.112-0.253,0.112-0.472v-1.772H47.17z"/>
	<path fill="#3C3C3B" d="M48.624,39.927v1.102h-0.818v-3.028h0.992c0.823,0,1.235,0.298,1.235,0.895
		c0,0.351-0.172,0.622-0.515,0.813l0.883,1.32h-0.929l-0.642-1.102H48.624z M48.624,39.312h0.153c0.285,0,0.429-0.126,0.429-0.379
		c0-0.209-0.141-0.312-0.421-0.312h-0.161V39.312z"/>
	<path fill="#3C3C3B" d="M50.527,40.685c0-0.127,0.037-0.225,0.112-0.294c0.076-0.069,0.185-0.104,0.329-0.104
		c0.137,0,0.241,0.034,0.314,0.104s0.109,0.167,0.109,0.294c0,0.125-0.037,0.221-0.112,0.291s-0.179,0.104-0.312,0.104
		c-0.137,0-0.245-0.033-0.324-0.104C50.566,40.908,50.527,40.81,50.527,40.685z"/>
	<path fill="#3C3C3B" d="M51.838,38.098c0-0.121,0.034-0.212,0.103-0.271c0.067-0.06,0.177-0.089,0.326-0.089
		c0.151,0,0.261,0.03,0.33,0.091c0.069,0.062,0.104,0.151,0.104,0.27c0,0.237-0.145,0.356-0.434,0.356
		C51.981,38.454,51.838,38.335,51.838,38.098z M52.668,41.029h-0.81v-2.347h0.81V41.029z"/>
	<path fill="#3C3C3B" d="M55.047,40.308c0,0.251-0.086,0.442-0.257,0.569c-0.172,0.129-0.418,0.193-0.737,0.193
		c-0.174,0-0.326-0.01-0.454-0.027c-0.128-0.02-0.259-0.053-0.394-0.104v-0.648c0.126,0.056,0.264,0.102,0.413,0.137
		c0.15,0.036,0.284,0.054,0.401,0.054c0.176,0,0.263-0.039,0.263-0.12c0-0.041-0.024-0.078-0.073-0.11
		c-0.05-0.032-0.191-0.096-0.428-0.189c-0.216-0.089-0.366-0.189-0.451-0.302c-0.086-0.112-0.129-0.255-0.129-0.428
		c0-0.218,0.084-0.388,0.253-0.509c0.168-0.122,0.407-0.183,0.715-0.183c0.154,0,0.3,0.017,0.436,0.051
		c0.136,0.033,0.277,0.083,0.424,0.147l-0.22,0.522c-0.107-0.049-0.222-0.09-0.342-0.123c-0.12-0.034-0.218-0.051-0.294-0.051
		c-0.133,0-0.199,0.032-0.199,0.097c0,0.04,0.022,0.074,0.07,0.103c0.045,0.028,0.18,0.086,0.4,0.174
		c0.164,0.067,0.287,0.134,0.367,0.198c0.081,0.065,0.14,0.142,0.179,0.229C55.027,40.075,55.047,40.182,55.047,40.308z"/>
</g>
</svg>
