<?xml version="1.0" encoding="utf-8"?>
<!-- Generator: Adobe Illustrator 16.0.0, SVG Export Plug-In . SVG Version: 6.00 Build 0)  -->
<!DOCTYPE svg PUBLIC "-//W3C//DTD SVG 1.1//EN" "http://www.w3.org/Graphics/SVG/1.1/DTD/svg11.dtd">
<svg version="1.1" id="Ebene_1" xmlns="http://www.w3.org/2000/svg" xmlns:xlink="http://www.w3.org/1999/xlink" x="0px" y="0px"
	 width="128px" height="128px" viewBox="0 0 128 128" enable-background="new 0 0 128 128" xml:space="preserve">
<g>
	<g>
		<polygon fill="#6F6F6E" points="117.098,23.5 117.098,26.091 113.285,26.091 113.285,24.472 112.975,24.18 112.975,26.398 
			117.404,26.398 117.404,23.16 		"/>
		<polygon fill="#6F6F6E" points="113.285,22.173 116.891,22.173 117.258,21.864 112.975,21.864 112.975,23.122 113.285,22.924 		
			"/>
		<g>
			<polygon fill="#FFFFFF" points="113.867,22.861 112.807,23.541 114.852,25.48 119.459,20.366 114.924,24.171 			"/>
			<path fill="#00416E" d="M114.859,25.706l-2.307-2.189l1.348-0.864l1.045,1.294l4.412-3.701l0.219,0.228L114.859,25.706z
				 M113.062,23.566l1.779,1.688l2.984-3.312l-2.924,2.453l-1.068-1.324L113.062,23.566z"/>
		</g>
	</g>
	<g>
		<path fill="#6F6F6E" d="M117.359,20.516h-4.434v-4.385h4.434V20.516z M113.324,20.116h3.635V16.53h-3.635V20.116z"/>
	</g>
	<g>
		<path fill="#6F6F6E" d="M117.359,32.131h-4.434v-4.385h4.434V32.131z M113.324,31.732h3.635v-3.586h-3.635V31.732z"/>
	</g>
	<g>
		<path fill="#FFFFFF" d="M121.699,25.466h-0.564v-2.125h1.256v0.461h-0.691v0.405h0.637v0.461h-0.637V25.466z"/>
		<path fill="#FFFFFF" d="M123.676,25.466h-0.574v-1.655h-0.52v-0.47h1.61v0.47h-0.518L123.676,25.466L123.676,25.466z"/>
		<path fill="#FFFFFF" d="M126.791,25.466h-0.678l-0.203-0.926c-0.012-0.038-0.024-0.116-0.047-0.231
			c-0.021-0.115-0.035-0.211-0.045-0.289c-0.008,0.063-0.021,0.142-0.039,0.235c-0.016,0.093-0.033,0.18-0.051,0.258
			c-0.018,0.078-0.088,0.396-0.211,0.953h-0.68l-0.525-2.125h0.553l0.232,1.065c0.053,0.235,0.088,0.423,0.107,0.562
			c0.012-0.099,0.035-0.233,0.067-0.402c0.031-0.17,0.062-0.31,0.091-0.422l0.188-0.804h0.531l0.182,0.804
			c0.031,0.129,0.062,0.277,0.096,0.446c0.031,0.169,0.053,0.295,0.062,0.378c0.014-0.106,0.047-0.294,0.104-0.56l0.236-1.068h0.553
			L126.791,25.466z"/>
	</g>
	<g>
		<path fill="#FFFFFF" d="M123.43,19.571h-0.68l-0.203-0.926c-0.01-0.039-0.023-0.116-0.045-0.231
			c-0.022-0.115-0.037-0.211-0.047-0.289c-0.008,0.063-0.021,0.142-0.037,0.235c-0.018,0.093-0.035,0.179-0.051,0.258
			c-0.019,0.078-0.088,0.396-0.213,0.953h-0.678l-0.525-2.124h0.553l0.229,1.064c0.054,0.235,0.089,0.423,0.107,0.562
			c0.015-0.097,0.036-0.232,0.069-0.401c0.031-0.17,0.062-0.31,0.09-0.422l0.188-0.803h0.533l0.183,0.803
			c0.03,0.13,0.062,0.278,0.094,0.446c0.031,0.169,0.053,0.295,0.063,0.378c0.013-0.107,0.047-0.294,0.104-0.56l0.233-1.067h0.554
			L123.43,19.571z"/>
		<path fill="#FFFFFF" d="M125.164,19.571h-0.574v-1.655h-0.52v-0.469h1.61v0.469h-0.517V19.571z"/>
		<path fill="#FFFFFF" d="M126.551,19.571h-0.564v-2.124h1.254v0.46h-0.688v0.405h0.637v0.461h-0.637L126.551,19.571L126.551,19.571
			z"/>
	</g>
	<g>
		<path fill="#FFFFFF" d="M121.443,31.15v-2.125h0.576v1.66h0.816v0.465H121.443z"/>
		<path fill="#FFFFFF" d="M125.164,30.084c0,0.357-0.088,0.629-0.265,0.814c-0.174,0.188-0.432,0.279-0.771,0.279
			c-0.334,0-0.588-0.094-0.766-0.279c-0.18-0.188-0.268-0.459-0.268-0.816c0-0.354,0.088-0.624,0.266-0.811
			c0.176-0.188,0.434-0.279,0.771-0.279c0.34,0,0.596,0.092,0.77,0.277C125.076,29.454,125.164,29.727,125.164,30.084z
			 M123.703,30.084c0,0.411,0.144,0.615,0.429,0.615c0.145,0,0.254-0.049,0.323-0.148c0.07-0.1,0.104-0.255,0.104-0.467
			s-0.035-0.368-0.104-0.471c-0.07-0.102-0.179-0.15-0.32-0.15C123.846,29.463,123.703,29.67,123.703,30.084z"/>
		<path fill="#FFFFFF" d="M125.547,31.15v-2.125h0.574v1.66h0.817v0.465H125.547z"/>
	</g>
</g>
<g>
	<polygon fill="#FFFFFF" points="12.341,15.825 15.825,12.342 11.483,8 15.825,3.659 12.341,0.175 8,4.517 3.658,0.175 0.175,3.659 
		4.516,8 0.175,12.342 3.658,15.825 8,11.483 	"/>
	<path fill="#AA000D" d="M12.341,16L8,11.659L3.658,16L0,12.342L4.341,8L0,3.659L3.658,0L8,4.342L12.341,0L16,3.659L11.659,8
		L16,12.342L12.341,16z M8,11.308l4.341,4.341l3.308-3.308L11.308,8l4.341-4.341l-3.308-3.309L8,4.692L3.658,0.351L0.351,3.659
		L4.692,8l-4.341,4.342l3.308,3.308L8,11.308z"/>
</g>
<g>
	<polygon fill="#FFFFFF" points="31.875,10.254 31.875,5.746 26.254,5.746 26.254,0.125 21.746,0.125 21.746,5.746 16.125,5.746 
		16.125,10.254 21.746,10.254 21.746,15.875 26.254,15.875 26.254,10.254 	"/>
	<path fill="#22732B" d="M26.379,16h-4.758v-5.621H16V5.621h5.621V0h4.758v5.621H32v4.758h-5.621V16z M21.871,15.75h4.258v-5.621
		h5.62V5.871h-5.62V0.25h-4.258v5.621H16.25v4.257h5.621V15.75L21.871,15.75z"/>
</g>
<g>
	<polygon fill="#FFFFFF" points="11.991,16.394 9.621,31.879 5.841,31.879 2.392,24.375 5.135,21.957 7.413,27.786 9.248,19.538 	
		"/>
	<path fill="#22732B" d="M9.725,32H5.764l-3.52-7.656l2.941-2.592l2.196,5.62l1.756-7.89L12.173,16L9.725,32z M5.918,31.758h3.599
		l2.291-14.971l-2.449,2.807L7.444,28.2l-2.359-6.038l-2.547,2.245L5.918,31.758z"/>
</g>
<g>
	<g id="Datei">
		<g>
			<path fill="#C6C6C6" d="M110.382,31.471H97.195c0,0,0.465-2.562,0.465-10.942c2.688,0,8.586,0,12.102,0
				C109.762,29.026,110.382,31.471,110.382,31.471z"/>
			<path fill="#9C9B9B" d="M110.382,31.536H97.118l0.014-0.076c0.005-0.025,0.464-2.657,0.464-10.93v-0.064h12.231v0.064
				c0,8.384,0.611,10.901,0.617,10.926l0.021,0.081H110.382L110.382,31.536z M97.271,31.407h13.03
				c-0.102-0.486-0.601-3.267-0.604-10.813H97.725C97.723,28.071,97.344,30.925,97.271,31.407z"/>
		</g>
		<g>
			<path fill="#C6C6C6" d="M110.227,31.781H97.35c0,0,0.311-2.872,0.311-11.251c2.688,0,8.586,0,12.102,0
				C109.762,29.026,110.227,31.781,110.227,31.781z"/>
			<path fill="#9C9B9B" d="M110.227,31.845H97.278l0.007-0.071c0.004-0.028,0.311-2.966,0.311-11.245v-0.064h12.23v0.064
				c0,8.391,0.46,11.213,0.464,11.241l0.013,0.075H110.227z M97.421,31.716h12.731c-0.071-0.496-0.453-3.509-0.455-11.123H97.725
				C97.723,28.133,97.467,31.225,97.421,31.716z"/>
		</g>
		<g>
			<polygon fill="#C6C6C6" points="110.072,31.936 97.505,31.936 97.814,21.149 109.762,21.149 			"/>
			<path fill="#9C9B9B" d="M110.139,32h-12.7l0.313-10.916h12.072L110.139,32z M97.57,31.871h12.436l-0.307-10.657H97.877
				L97.57,31.871z"/>
		</g>
		<g>
			<path fill="#C6C6C6" d="M100.902,18.562l9.635-1.438c0,0-0.62,2.665-0.62,11.045c-2.688,0-8.587,0-12.103,0
				C97.814,19.672,100.902,18.562,100.902,18.562z"/>
			<path fill="#9C9B9B" d="M109.981,28.232H97.75v-0.064c0-8.445,3.002-9.621,3.13-9.667l9.741-1.455l-0.021,0.092
				c-0.006,0.026-0.618,2.759-0.618,11.03V28.232z M97.879,28.104h11.974c0.003-7.416,0.499-10.368,0.603-10.903l-9.543,1.425
				C100.893,18.633,97.895,19.823,97.879,28.104z"/>
		</g>
		<g>
			
				<linearGradient id="SVGID_1_" gradientUnits="userSpaceOnUse" x1="331.0049" y1="-249.4907" x2="343.7266" y2="-249.4907" gradientTransform="matrix(1 0 0 -1 -233.5 -227)">
				<stop  offset="0" style="stop-color:#FFFFFF"/>
				<stop  offset="1" style="stop-color:#F5F5F6"/>
			</linearGradient>
			<path fill="url(#SVGID_1_)" d="M100.746,19.181l9.48-2.367c0,0-0.31,2.974-0.31,11.354c-2.688,0-8.896,0-12.412,0
				C97.505,19.672,100.746,19.181,100.746,19.181z"/>
			<path fill="#9D9D9C" d="M109.981,28.232H97.44v-0.064c0-8.455,3.162-9.031,3.297-9.051l9.563-2.389l-0.01,0.091
				c-0.003,0.03-0.309,3.069-0.309,11.348L109.981,28.232L109.981,28.232z M97.569,28.104h12.283
				c0.001-7.457,0.252-10.646,0.302-11.206l-9.392,2.345C100.725,19.249,97.586,19.837,97.569,28.104z"/>
		</g>
		<g>
			<g>
				<polygon fill="#C6C6C6" points="97.48,20.006 101.386,16.064 109.918,16.09 109.762,26.981 97.814,26.981 				"/>
				<path fill="#9C9B9B" d="M109.826,27.045H97.753l-0.339-7.064l0.02-0.021L101.359,16h0.027l8.597,0.026l-0.001,0.065
					L109.826,27.045z M97.876,26.917h11.823l0.152-10.762l-8.439-0.025l-3.866,3.903L97.876,26.917z"/>
			</g>
			<g>
				<polygon fill="#C6C6C6" points="97.689,19.8 101.366,16.238 109.762,16.246 109.762,26.981 97.814,26.981 				"/>
				<path fill="#9C9B9B" d="M109.826,27.045H97.751l-0.127-7.272l0.02-0.019l3.696-3.58l8.486,0.007V27.045z M97.878,26.917h11.819
					V16.31l-8.305-0.007l-3.639,3.524L97.878,26.917z"/>
			</g>
			<g>
				<polygon fill="#C6C6C6" points="97.814,19.703 101.115,16.4 109.918,16.4 109.762,27.291 97.969,27.291 				"/>
				<path fill="#9C9B9B" d="M109.826,27.355h-11.92l-0.156-7.678l3.338-3.341h8.895l-0.001,0.065L109.826,27.355z M98.033,27.226
					h11.666l0.152-10.761h-8.71l-3.263,3.265L98.033,27.226z"/>
			</g>
		</g>
		<g>
			<g>
				<polygon fill="#C6C6C6" points="109.942,31.781 97.686,31.781 97.84,22.542 109.788,22.542 				"/>
				<path fill="#9C9B9B" d="M110.009,31.845h-12.39l0.158-9.367h12.074l0.001,0.063L110.009,31.845z M97.751,31.716h12.127
					l-0.153-9.11H97.903L97.751,31.716z"/>
			</g>
			<g>
				<polygon fill="#C6C6C6" points="109.942,31.626 97.84,31.626 97.84,22.542 109.788,22.542 				"/>
				<path fill="#9C9B9B" d="M110.009,31.69H97.775v-9.212h12.076l0.001,0.063L110.009,31.69z M97.904,31.562h11.974l-0.153-8.955
					h-11.82V31.562z"/>
			</g>
			<g>
				<polygon fill="#C6C6C6" points="109.788,31.471 97.686,31.471 97.84,22.233 109.788,22.233 				"/>
				<path fill="#9C9B9B" d="M109.853,31.536H97.619l0.158-9.368h12.075V31.536z M97.751,31.407h11.974v-9.11H97.903L97.751,31.407z"
					/>
			</g>
		</g>
		<g>
			<g>
				
					<linearGradient id="SVGID_2_" gradientUnits="userSpaceOnUse" x1="334.6201" y1="-243.7451" x2="340.3176" y2="-259.3987" gradientTransform="matrix(1 0 0 -1 -233.5 -227)">
					<stop  offset="0" style="stop-color:#FFFFFF"/>
					<stop  offset="1" style="stop-color:#F5F5F6"/>
				</linearGradient>
				<polygon fill="url(#SVGID_2_)" points="109.893,16.596 101.531,16.596 97.584,20.545 97.584,31.28 109.893,31.28 				"/>
				<path fill="#9D9D9C" d="M110.021,31.409H97.454V20.491l4.024-4.024h8.543V31.409z M97.712,31.151h12.052V16.725h-8.179
					l-3.873,3.873V31.151z"/>
			</g>
		</g>
		<text transform="matrix(1 0 0 1 99.3535 20.9556)" fill="#3C3C3B" font-family="'OpenSans-Extrabold'" font-size="1.2356">VERSTANDENE</text>
		<text transform="matrix(1 0 0 1 99.3535 22.814)" fill="#3C3C3B" font-family="'OpenSans-Extrabold'" font-size="1.2356">BOTSCHAFTEN</text>
		<text transform="matrix(1 0 0 1 99.3535 24.7236)" fill="#3C3C3B" font-family="'OpenSans-Extrabold'" font-size="1.2356">KÖNNEN WEL</text>
		<text transform="matrix(1 0 0 1 99.3535 26.6333)" fill="#3C3C3B" font-family="'OpenSans-Extrabold'" font-size="1.2356">TEN VERÄNDE</text>
		<text transform="matrix(1 0 0 1 99.3535 28.5942)" fill="#3C3C3B" font-family="'OpenSans-Extrabold'" font-size="1.2356">RN — B.T.</text>
	</g>
	<g>
		<polygon fill="#C6C6C6" points="101.457,16.587 97.635,20.542 101.212,20.852 		"/>
		<path fill="#9C9B9B" d="M101.212,20.916c-0.002,0-0.004,0-0.006,0l-3.577-0.31c-0.024-0.002-0.045-0.018-0.055-0.042
			c-0.008-0.023-0.002-0.049,0.015-0.067l3.821-3.955c0.019-0.02,0.047-0.026,0.072-0.014c0.025,0.01,0.04,0.036,0.039,0.062
			l-0.246,4.265c0,0.018-0.008,0.034-0.021,0.045C101.242,20.911,101.227,20.916,101.212,20.916z M97.775,20.489l3.375,0.292
			l0.232-4.024L97.775,20.489z"/>
	</g>
	<g>
		<polygon fill="#C6C6C6" points="101.405,16.238 97.715,20.123 101.005,20.432 		"/>
		<path fill="#9C9B9B" d="M101.006,20.497c-0.002,0-0.005,0-0.007,0l-3.29-0.31c-0.025-0.002-0.046-0.018-0.055-0.042
			c-0.008-0.023-0.004-0.049,0.014-0.067l3.69-3.884c0.019-0.02,0.048-0.025,0.073-0.014s0.04,0.038,0.037,0.064l-0.399,4.193
			C101.066,20.472,101.037,20.497,101.006,20.497z M97.854,20.07l3.094,0.292l0.376-3.944L97.854,20.07z"/>
	</g>
	<g>
		
			<linearGradient id="SVGID_3_" gradientUnits="userSpaceOnUse" x1="332.5293" y1="-243.9824" x2="333.7744" y2="-247.4035" gradientTransform="matrix(1 0 0 -1 -233.5 -227)">
			<stop  offset="0" style="stop-color:#FFFFFF"/>
			<stop  offset="1" style="stop-color:#EBEBEB"/>
		</linearGradient>
		<polygon fill="url(#SVGID_3_)" points="101.367,16.132 97.48,20.006 101.367,20.006 		"/>
		<path fill="#9D9D9C" d="M101.367,20.104H97.48c-0.039,0-0.074-0.024-0.09-0.06c-0.015-0.036-0.006-0.078,0.021-0.105l3.887-3.875
			c0.027-0.028,0.068-0.036,0.104-0.021c0.036,0.016,0.06,0.051,0.06,0.09v3.875C101.463,20.06,101.42,20.104,101.367,20.104z
			 M97.714,19.91h3.557v-3.545L97.714,19.91z"/>
	</g>
</g>
<g>
	<g>
		<rect x="36.266" y="0.234" fill="#FFFFFF" width="9.375" height="11.25"/>
		<g>
			<path fill="#16527B" d="M45.641,0.234v11.25h-9.375V0.234H45.641 M45.875,0h-9.844v11.719h9.844V0L45.875,0z"/>
		</g>
	</g>
	<g>
		<polygon fill="#FFFFFF" points="32.984,15 32.984,3.047 35.094,3.047 35.094,12.656 42.828,12.656 42.828,15 		"/>
		<g>
			<path fill="#666666" d="M34.859,3.047v9.572v0.271h0.287h7.448v1.641h-9.609V3.047H34.859 M35.094,2.812H32.75V15h10.312v-2.344
				h-7.969V2.812L35.094,2.812z"/>
		</g>
	</g>
</g>
<g>
	<g>
		<path fill="#FFFFFF" d="M61.736,2.458h-3.417V0.169h-5.593v2.289H49.79l-0.02,1.123h12.001L61.736,2.458z M53.743,2.458V1.187
			h3.56v1.271H53.743L53.743,2.458z"/>
		<path fill="#666666" d="M61.885,3.79H49.625V2.267l3.083,0.008V0h5.812v2.275h3.34L61.885,3.79z M49.884,3.537h11.49l-0.017-1.01
			h-3.089V0.253H52.96v2.274l-3.072,0.037L49.884,3.537z M57.51,2.527h-3.791V1.011h3.791V2.527z M53.971,2.275h3.286V1.264h-3.286
			V2.275z"/>
	</g>
	<g>
		<path fill="#FFFFFF" d="M49.995,4.746l1.256,10.169h8.991l1.255-10.169H49.995z"/>
		<path fill="#666666" d="M61.037,4.951l-1.222,9.605h-8.39l-1.222-9.605H61.037z M61.498,4.762H49.995L51.25,15h8.991L61.498,4.762
			L61.498,4.762z"/>
	</g>
</g>
<g>
	<path fill="#FFFFFF" d="M77.366,2.141l-2.969-1.997l-8.206,8.206l-1.054,6.014l6.016-1.054l8.203-8.206L77.366,2.141z
		 M67.692,12.945l-1.123-1.122l0.318-2.516l2.312,0.938l0.939,2.314L67.692,12.945z"/>
	<path fill="#666666" d="M65.001,14.5l1.087-6.205l0.024-0.025L74.383,0l3.075,2.079L79.5,5.117l-8.294,8.296L65.001,14.5z
		 M66.294,8.403l-1.019,5.824l5.823-1.247l7.889-7.89l-1.701-2.869l-2.875-1.934L66.294,8.403z M67.653,13.063l-1.2-1.2l0.343-2.714
		l2.49,1.01l1.01,2.487L67.653,13.063z M66.687,11.783L67.73,12.6l2.026-0.356l-0.641-1.914L66.98,9.464L66.687,11.783z"/>
</g>
<g>
	<g>
		<g>
			
				<linearGradient id="SVGID_4_" gradientUnits="userSpaceOnUse" x1="273.5" y1="-264.7456" x2="273.5" y2="-262.5581" gradientTransform="matrix(1 0 0 -1 -233.5 -227)">
				<stop  offset="0" style="stop-color:#2E2E2D"/>
				<stop  offset="0.2553" style="stop-color:#5C5C5C"/>
				<stop  offset="0.5763" style="stop-color:#8B8B8B"/>
			</linearGradient>
			<path fill="url(#SVGID_4_)" d="M36.975,36.915v-0.996c0-0.222-0.161-0.36-0.36-0.36h-3.683c-0.199,0-0.38,0.068-0.38,0.36v1.087
				l-0.461,0.74h15.818l-0.461-0.831H36.975z"/>
			<path fill="#2E2E2D" d="M47.91,37.803H32.091c-0.021,0-0.04-0.011-0.051-0.03c-0.01-0.018-0.009-0.041,0.002-0.059l0.452-0.726
				v-1.07c0-0.191,0.076-0.418,0.438-0.418h3.683c0.242,0,0.418,0.176,0.418,0.418v0.938h10.417c0.021,0,0.041,0.011,0.05,0.03
				l0.461,0.831c0.01,0.018,0.009,0.04-0.001,0.058C47.949,37.792,47.93,37.803,47.91,37.803z M32.194,37.688h15.617l-0.396-0.715
				h-10.44c-0.032,0-0.058-0.026-0.058-0.058v-0.996c0-0.178-0.124-0.303-0.303-0.303h-3.683c-0.226,0-0.322,0.09-0.322,0.303v1.087
				c0,0.011-0.003,0.021-0.009,0.031L32.194,37.688z"/>
		</g>
		<g>
			
				<linearGradient id="SVGID_5_" gradientUnits="userSpaceOnUse" x1="265.5908" y1="-269.2437" x2="281.4102" y2="-269.2437" gradientTransform="matrix(1 0 0 -1 -233.5 -227)">
				<stop  offset="0.5" style="stop-color:#FFFFFF"/>
				<stop  offset="1" style="stop-color:#E6E6E6"/>
			</linearGradient>
			<polygon fill="url(#SVGID_5_)" points="47.449,46.855 32.552,46.855 32.091,37.632 47.91,37.632 			"/>
			<path fill="#8B8B8B" d="M47.531,46.942H32.469L32,37.546h16L47.531,46.942z M32.634,46.77h14.732l0.453-9.051H32.182
				L32.634,46.77z"/>
		</g>
	</g>
	<g>
		
			<linearGradient id="SVGID_6_" gradientUnits="userSpaceOnUse" x1="273.5" y1="-266.1084" x2="273.5" y2="-271.9453" gradientTransform="matrix(1 0 0 -1 -233.5 -227)">
			<stop  offset="0" style="stop-color:#3A8C32"/>
			<stop  offset="1" style="stop-color:#227333"/>
		</linearGradient>
		<polygon fill="url(#SVGID_6_)" points="42.918,42.862 42.918,41.191 40.835,41.191 40.835,39.108 39.165,39.108 39.165,41.191 
			37.082,41.191 37.082,42.862 39.165,42.862 39.165,44.945 40.835,44.945 40.835,42.862 		"/>
		<path fill="#1C5020" d="M40.951,45.061H39.05v-2.083h-2.083v-1.9h2.083v-2.083h1.901v2.083h2.083v1.9h-2.083V45.061z M39.28,44.83
			h1.44v-2.083h2.083v-1.44H40.72v-2.083h-1.44v2.083h-2.083v1.44h2.083V44.83z"/>
	</g>
</g>
<g>
	<g>
		<g>
			
				<linearGradient id="SVGID_7_" gradientUnits="userSpaceOnUse" x1="250.7207" y1="-283" x2="263.9375" y2="-283" gradientTransform="matrix(1 0 0 -1 -233.5 -227)">
				<stop  offset="0" style="stop-color:#FFFFFF"/>
				<stop  offset="1" style="stop-color:#F4F4F6"/>
			</linearGradient>
			<polygon fill="url(#SVGID_7_)" points="30.438,48.117 21.46,48.117 17.22,52.356 17.22,63.883 30.438,63.883 			"/>
			<path fill="#9D9D9C" d="M30.438,64H17.22l-0.117-0.117V52.356l0.035-0.083l4.24-4.239L21.46,48h8.978l0.117,0.117v15.766
				L30.438,64z M17.337,63.767h12.984V48.233h-8.812l-4.172,4.171V63.767z"/>
		</g>
		<g>
			<polygon fill="#FFFFFF" points="21.46,48.117 17.22,52.356 21.46,52.356 			"/>
			<path fill="#9D9D9C" d="M21.46,52.444h-4.24l-0.062-0.15l4.239-4.239l0.15,0.062v4.239L21.46,52.444z M17.431,52.269h3.941
				v-3.941L17.431,52.269z"/>
		</g>
	</g>
	<g>
		<path fill="#69696D" d="M27.736,56.146v-0.42c0-1.311-0.588-1.967-1.763-1.967h-3.542c-1.168,0-1.766,0.592-1.793,1.771h-0.004
			v0.206v0.63h-0.711v0.962h0.711v0.874h-0.711v0.962h0.711v0.725v0.089c0,1.181,0.543,1.771,1.625,1.771h0.172h2.387h1.155
			c1.175,0,1.763-0.656,1.763-1.967v-0.42h-1.318v0.651c0,0.224-0.108,0.337-0.325,0.337h-1.274h-2.541
			c-0.228,0-0.342-0.148-0.342-0.443v-0.742h2.334v-0.962h-2.334v-0.874h2.334v-0.962h-2.334v-0.647v-0.259
			c0-0.201,0.092-0.302,0.274-0.302h3.883c0.217,0,0.325,0.113,0.325,0.336v0.652H27.736z"/>
		<path fill="#2A2827" d="M25.973,61.806h-3.714c-1.116,0-1.683-0.616-1.683-1.83v-0.755h-0.711v-1.079h0.711v-0.758h-0.711v-1.079
			h0.711l0.005-0.834c0.047-1.176,0.67-1.772,1.85-1.772h3.542c1.208,0,1.82,0.682,1.82,2.025v0.479h-1.435v-0.71
			c0-0.192-0.082-0.278-0.267-0.278h-3.883c-0.149,0-0.216,0.075-0.216,0.243v0.847h2.334v1.079h-2.334v0.757h2.334v1.079h-2.334
			v0.684c0,0.345,0.162,0.385,0.283,0.385h3.816c0.184,0,0.267-0.086,0.267-0.278v-0.709h1.435v0.479
			C27.793,61.125,27.181,61.806,25.973,61.806z M19.982,59.104h0.711v0.872c0,1.152,0.514,1.713,1.566,1.713h3.714
			c1.146,0,1.704-0.624,1.704-1.908v-0.362h-1.201v0.593c0,0.255-0.137,0.395-0.384,0.395h-3.815c-0.182,0-0.4-0.086-0.4-0.501
			v-0.801h2.334v-0.846h-2.334v-0.99h2.334v-0.846h-2.334v-0.964c0-0.232,0.118-0.359,0.333-0.359h3.883
			c0.247,0,0.384,0.14,0.384,0.394v0.593h1.201v-0.362c0-1.284-0.558-1.908-1.704-1.908h-3.542c-1.14,0-1.707,0.56-1.734,1.714
			l-0.004,0.205v0.687h-0.711v0.846h0.711v0.99h-0.711V59.104L19.982,59.104z"/>
	</g>
</g>
<g>
	<g>
		<g>
			
				<linearGradient id="SVGID_8_" gradientUnits="userSpaceOnUse" x1="266.6172" y1="-283" x2="279.835" y2="-283" gradientTransform="matrix(1 0 0 -1 -233.5 -227)">
				<stop  offset="0" style="stop-color:#FFFFFF"/>
				<stop  offset="1" style="stop-color:#F4F4F6"/>
			</linearGradient>
			<polygon fill="url(#SVGID_8_)" points="46.335,48.117 37.357,48.117 33.117,52.356 33.117,63.883 46.335,63.883 			"/>
			<path fill="#9D9D9C" d="M46.335,64H33.117L33,63.883V52.356l0.035-0.083l4.24-4.239L37.357,48h8.978l0.117,0.117v15.766
				L46.335,64z M33.234,63.767h12.984V48.233h-8.812l-4.172,4.171V63.767z"/>
		</g>
		<g>
			
				<linearGradient id="SVGID_9_" gradientUnits="userSpaceOnUse" x1="266.6172" y1="-277.2363" x2="270.8574" y2="-277.2363" gradientTransform="matrix(1 0 0 -1 -233.5 -227)">
				<stop  offset="0" style="stop-color:#FFFFFF"/>
				<stop  offset="1" style="stop-color:#F4F4F6"/>
			</linearGradient>
			<polygon fill="url(#SVGID_9_)" points="37.357,48.117 33.117,52.356 37.357,52.356 			"/>
			<path fill="#9D9D9C" d="M37.357,52.473h-4.24l-0.082-0.2l4.24-4.239l0.199,0.083v4.239L37.357,52.473z M33.398,52.24h3.842
				v-3.841L33.398,52.24z"/>
		</g>
	</g>
	<g>
		<path fill="#69696D" d="M42.214,55.794c0.065,1.028-0.278,2.008-0.907,2.761c0.113-0.279,0.178-0.582,0.178-0.902
			c0-1.309-1.062-2.37-2.371-2.37s-2.37,1.061-2.37,2.37c0,0.233,0.034,0.458,0.098,0.671c-0.509-0.515-0.901-1.144-1.134-1.852
			H35.08c0.557,2.25,2.179,3.751,4.518,3.751c2.059,0,4.58-2.179,4.803-4.429H42.214L42.214,55.794z M39.113,55.927
			c0.953,0,1.727,0.772,1.727,1.726c0,0.954-0.773,1.727-1.727,1.727c-0.954,0-1.727-0.773-1.727-1.727
			C37.387,56.699,38.158,55.927,39.113,55.927z"/>
		<path fill="#2A2827" d="M39.113,55.282c1.309,0,2.371,1.062,2.371,2.37c0,0.32-0.064,0.623-0.178,0.902
			c0.629-0.752,0.973-1.733,0.907-2.76H44.4c-0.223,2.25-2.744,4.429-4.803,4.429c-2.339,0-3.961-1.501-4.518-3.751h0.627
			c0.232,0.708,0.625,1.337,1.134,1.852c-0.063-0.213-0.099-0.438-0.099-0.671C36.742,56.344,37.805,55.282,39.113,55.282
			 M39.113,59.38c0.953,0,1.727-0.773,1.727-1.727s-0.773-1.726-1.727-1.726c-0.954,0-1.727,0.772-1.727,1.726
			S38.158,59.38,39.113,59.38 M39.113,55.166c-1.371,0-2.487,1.116-2.487,2.487c0,0.092,0.005,0.185,0.016,0.277
			c-0.364-0.444-0.646-0.954-0.823-1.495l-0.026-0.081h-0.085H35.08h-0.148l0.036,0.145c0.595,2.404,2.325,3.84,4.63,3.84
			c2.215,0,4.697-2.287,4.918-4.534l0.014-0.127H44.4h-2.187H42.09l0.008,0.124c0.047,0.762-0.133,1.511-0.517,2.161
			c0.013-0.102,0.02-0.205,0.02-0.31C41.601,56.282,40.484,55.166,39.113,55.166L39.113,55.166z M39.113,59.263
			c-0.888,0-1.61-0.723-1.61-1.61s0.723-1.61,1.61-1.61c0.887,0,1.609,0.723,1.609,1.61S40,59.263,39.113,59.263L39.113,59.263z"/>
	</g>
</g>
<g>
	<path fill="#FFFFFF" d="M15.524,52.833v-0.829c0-2.583-1.158-3.875-3.473-3.875H5.071c-2.303,0-3.478,1.167-3.536,3.491H1.531
		v0.405v1.24H0.129v1.896h1.402v1.721H0.129v1.897h1.402v1.427v0.175c0,2.327,1.068,3.49,3.203,3.49h0.337h4.702h2.277
		c2.315,0,3.473-1.292,3.473-3.875v-0.829h-2.597v1.283c0,0.442-0.213,0.664-0.642,0.664H9.773H4.768
		c-0.451,0-0.674-0.291-0.674-0.874v-1.462h4.598v-1.897H4.094v-1.721h4.598v-1.896H4.094V51.99V51.48
		c0-0.396,0.179-0.594,0.539-0.594h7.653c0.428,0,0.642,0.221,0.642,0.663v1.284H15.524z"/>
	<path fill="#22612B" d="M12.051,64H4.734c-2.211,0-3.333-1.218-3.333-3.62v-1.473H0v-2.154h1.402V55.29H0v-2.154h1.402l0.009-1.646
		C1.51,49.174,2.741,48,5.071,48h6.979c2.39,0,3.602,1.347,3.602,4.004v0.958h-2.854V51.55c0-0.369-0.159-0.534-0.513-0.534H4.633
		c-0.288,0-0.41,0.14-0.41,0.465v1.655h4.598v2.154H4.223v1.463h4.598v2.154H4.223v1.333c0,0.66,0.291,0.745,0.545,0.745h7.518
		c0.354,0,0.513-0.165,0.513-0.535v-1.412h2.854v0.958C15.653,62.653,14.441,64,12.051,64z M0.258,58.65H1.66v1.731
		c0,2.262,1.006,3.361,3.075,3.361h7.317c2.25,0,3.344-1.225,3.344-3.745v-0.7h-2.338v1.153c0,0.512-0.274,0.793-0.771,0.793H4.768
		c-0.366,0-0.803-0.174-0.803-1.003v-1.59h4.598v-1.639H3.965v-1.979h4.598v-1.639H3.965V51.48c0-0.466,0.237-0.724,0.668-0.724
		h7.652c0.497,0,0.771,0.281,0.771,0.792v1.154h2.338v-0.7c0-2.52-1.094-3.745-3.344-3.745h-6.98c-2.236,0-3.351,1.101-3.406,3.365
		L1.66,52.025v1.369H0.258v1.639H1.66v1.979H0.258V58.65z"/>
</g>
<g>
	<g>
		<path fill="#FFFFFF" d="M104,3.542c-4.331,0-7.842,4.521-7.842,4.521s3.511,4.521,7.842,4.521c4.332,0,7.842-4.521,7.842-4.521
			S108.332,3.542,104,3.542z M103.969,11.543c-1.95,0-3.532-1.558-3.532-3.479c0-1.921,1.582-3.479,3.532-3.479
			c1.951,0,3.533,1.558,3.533,3.479C107.502,9.985,105.92,11.543,103.969,11.543z"/>
		<path fill="#666666" d="M104,12.709c-4.342,0-7.905-4.523-7.941-4.569L96,8.063l0.059-0.076c0.036-0.046,3.6-4.569,7.941-4.569
			s7.905,4.523,7.941,4.569L112,8.063l-0.059,0.076C111.905,8.186,108.342,12.709,104,12.709z M96.318,8.063
			c0.485,0.591,3.77,4.396,7.682,4.396s6.946-4.056,7.432-4.646c-0.485-0.591-3.52-4.146-7.432-4.146
			C100.086,3.667,96.804,7.473,96.318,8.063z M103.969,11.667c-2.016,0-3.656-1.616-3.656-3.604c0-1.987,1.641-3.604,3.656-3.604
			c2.017,0,3.657,1.617,3.657,3.604C107.626,10.051,105.985,11.667,103.969,11.667z M103.969,4.709
			c-1.879,0-3.407,1.505-3.407,3.354c0,1.85,1.528,3.354,3.407,3.354c1.88,0,3.408-1.505,3.408-3.354S105.849,4.709,103.969,4.709z"
			/>
	</g>
	<g>
		<ellipse fill="#FFFFFF" cx="103.953" cy="8.048" rx="1.774" ry="1.747"/>
		<path fill="#666666" d="M103.953,9.92c-1.047,0-1.898-0.84-1.898-1.872c0-1.032,0.852-1.872,1.898-1.872s1.898,0.839,1.898,1.872
			C105.852,9.08,105,9.92,103.953,9.92z M103.891,6.425c-0.875,0-1.586,0.7-1.586,1.561c0,0.861,0.711,1.562,1.586,1.562
			s1.588-0.7,1.588-1.562C105.479,7.126,104.766,6.425,103.891,6.425z"/>
	</g>
</g>
<g>
	<g>
		<g>
			
				<linearGradient id="SVGID_10_" gradientUnits="userSpaceOnUse" x1="254.5146" y1="-243.2568" x2="260.6483" y2="-260.1089" gradientTransform="matrix(1 0 0 -1 -233.5 -227)">
				<stop  offset="0.5" style="stop-color:#FFFFFF"/>
				<stop  offset="1" style="stop-color:#ECECEC"/>
			</linearGradient>
			<polygon fill="url(#SVGID_10_)" points="30.459,16.096 21.458,16.096 17.207,20.347 17.207,31.904 30.459,31.904 			"/>
			<path fill="#9D9D9C" d="M30.555,32H17.111V20.307l0.028-0.028L21.418,16h9.137V32z M17.303,31.808h13.06V16.192h-8.866
				l-4.194,4.194V31.808z"/>
		</g>
		<g>
			
				<linearGradient id="SVGID_11_" gradientUnits="userSpaceOnUse" x1="252.3984" y1="-244.0273" x2="253.7648" y2="-247.7815" gradientTransform="matrix(1 0 0 -1 -233.5 -227)">
				<stop  offset="0" style="stop-color:#FFFFFF"/>
				<stop  offset="1" style="stop-color:#EBEBEB"/>
			</linearGradient>
			<polygon fill="url(#SVGID_11_)" points="21.458,16.096 17.207,20.347 21.458,20.347 			"/>
			<path fill="#9D9D9C" d="M21.458,20.442h-4.25c-0.039,0-0.074-0.023-0.089-0.059c-0.015-0.037-0.006-0.078,0.021-0.105l4.25-4.251
				c0.028-0.027,0.068-0.035,0.104-0.021c0.037,0.015,0.06,0.05,0.06,0.089v4.25C21.554,20.399,21.511,20.442,21.458,20.442z
				 M17.439,20.25h3.922v-3.923L17.439,20.25z"/>
		</g>
	</g>
	<g>
		
			<linearGradient id="SVGID_12_" gradientUnits="userSpaceOnUse" x1="259.1621" y1="-249.7925" x2="259.1621" y2="-259.065" gradientTransform="matrix(1 0 0 -1 -233.5 -227)">
			<stop  offset="0" style="stop-color:#42A03F"/>
			<stop  offset="1" style="stop-color:#348342"/>
		</linearGradient>
		<polygon fill="url(#SVGID_12_)" points="28.746,19.896 27.223,29.848 24.794,29.848 22.578,25.026 24.34,23.472 25.725,27.021 
			25.759,27.22 25.792,27.104 26.983,21.917 		"/>
		<path fill="#25632C" d="M27.333,29.976h-2.621l-2.291-4.983l1.972-1.739l1.354,3.472l1.118-4.869l2.074-2.377L27.333,29.976z
			 M24.876,29.72h2.237l1.439-9.407l-1.452,1.665l-1.218,5.278L25.728,27.8l-0.126-0.745l-1.313-3.366l-1.554,1.37L24.876,29.72z"/>
	</g>
</g>
<g>
	<g>
		<g>
			
				<linearGradient id="SVGID_13_" gradientUnits="userSpaceOnUse" x1="270.4033" y1="-243.2544" x2="276.539" y2="-260.112" gradientTransform="matrix(1 0 0 -1 -233.5 -227)">
				<stop  offset="0.5" style="stop-color:#FFFFFF"/>
				<stop  offset="1" style="stop-color:#ECECEC"/>
			</linearGradient>
			<polygon fill="url(#SVGID_13_)" points="46.35,16.094 37.346,16.094 33.093,20.346 33.093,31.907 46.35,31.907 			"/>
			<path fill="#9D9D9C" d="M46.443,32H33V20.307l0.027-0.027L37.307,16h9.136V32z M33.187,31.813h13.07V16.187h-8.872l-4.198,4.198
				V31.813z"/>
		</g>
		<g>
			
				<linearGradient id="SVGID_14_" gradientUnits="userSpaceOnUse" x1="268.2852" y1="-244.0249" x2="269.6519" y2="-247.78" gradientTransform="matrix(1 0 0 -1 -233.5 -227)">
				<stop  offset="0" style="stop-color:#FFFFFF"/>
				<stop  offset="1" style="stop-color:#EBEBEB"/>
			</linearGradient>
			<polygon fill="url(#SVGID_14_)" points="37.346,16.094 33.093,20.346 37.346,20.346 			"/>
			<path fill="#9D9D9C" d="M37.346,20.439h-4.252c-0.038,0-0.071-0.023-0.086-0.058c-0.014-0.035-0.006-0.075,0.021-0.102
				l4.252-4.252c0.027-0.027,0.067-0.034,0.102-0.021c0.035,0.015,0.058,0.049,0.058,0.087v4.252
				C37.439,20.397,37.397,20.439,37.346,20.439z M33.319,20.252h3.933v-3.934L33.319,20.252z"/>
		</g>
	</g>
	<g>
		
			<linearGradient id="SVGID_15_" gradientUnits="userSpaceOnUse" x1="-466.397" y1="1644.459" x2="-460.6679" y2="1638.73" gradientTransform="matrix(0.7071 0.7071 0.7071 -0.7071 -792.9629 1513.4639)">
			<stop  offset="0" style="stop-color:#42A03F"/>
			<stop  offset="1" style="stop-color:#348342"/>
		</linearGradient>
		<polygon fill="url(#SVGID_15_)" points="44.095,26.089 44.095,23.769 41.203,23.769 41.203,20.878 38.884,20.878 38.884,23.769 
			35.992,23.769 35.992,26.089 38.884,26.089 38.884,28.98 41.203,28.98 41.203,26.089 		"/>
		<path fill="#25632C" d="M41.328,29.104h-2.568v-2.891h-2.892v-2.569h2.892v-2.891h2.568v2.891h2.892v2.569h-2.892V29.104z
			 M39.008,28.855h2.07v-2.891h2.892v-2.071h-2.892v-2.891h-2.07v2.891h-2.892v2.071h2.892V28.855z"/>
	</g>
</g>
<g>
	<path fill="#FFFFFF" d="M118.291,1.763c-1.821,1.821-2.13,4.581-0.928,6.722l-5.197,5.198l2.151,2.153l5.198-5.198
		c2.141,1.202,4.9,0.894,6.722-0.927c2.194-2.195,2.194-5.752,0-7.947S120.484-0.432,118.291,1.763z M125.078,8.55
		c-1.555,1.554-4.074,1.554-5.629,0c-1.554-1.554-1.554-4.074,0-5.628c1.555-1.555,4.074-1.555,5.629,0
		C126.633,4.476,126.633,6.996,125.078,8.55z"/>
	<path fill="#666666" d="M114.317,16L112,13.682l5.219-5.218c-1.2-2.218-0.8-4.995,0.989-6.783C119.291,0.597,120.731,0,122.264,0
		s2.973,0.597,4.057,1.68c1.082,1.083,1.68,2.524,1.68,4.056c0,1.533-0.598,2.973-1.68,4.056c-1.083,1.083-2.523,1.679-4.055,1.679
		l0,0c-0.953,0-1.896-0.238-2.729-0.689L114.317,16z M112.331,13.682l1.736,1.737l5.178-4.928l0.327,0.043
		c0.818,0.459,1.75,0.703,2.693,0.703l0,0c1.469,0,2.85-0.572,3.889-1.61c1.039-1.039,1.611-2.421,1.611-3.891
		c0-1.469-0.572-2.851-1.611-3.891c-1.039-1.039-2.421-1.611-3.891-1.611s-2.852,0.572-3.891,1.611
		c-1.736,1.736-2.109,4.442-0.908,6.581l0.043,0.078L112.331,13.682z M122.264,9.833c-1.094,0-2.123-0.426-2.896-1.2
		c-1.598-1.598-1.598-4.196,0-5.794c0.773-0.774,1.803-1.2,2.896-1.2c1.095,0,2.123,0.426,2.898,1.2
		c1.597,1.598,1.597,4.196,0,5.794C124.387,9.407,123.358,9.833,122.264,9.833z M122.264,1.873c-1.031,0-2.002,0.402-2.731,1.131
		c-1.507,1.506-1.507,3.957,0,5.463c0.729,0.729,1.7,1.131,2.731,1.131c1.032,0,2.002-0.402,2.732-1.131
		c0.729-0.729,1.131-1.7,1.131-2.732c0-1.032-0.401-2.002-1.131-2.731C124.266,2.275,123.296,1.873,122.264,1.873z"/>
</g>
<g>
	<path fill-rule="evenodd" clip-rule="evenodd" fill="#FFFFFF" d="M54.738,20.009h1.629l-3.084-3.497h4.356l4.781,4.856
		l-4.781,4.855h-4.356l3.161-3.584l-1.706,0.022c-1.899,0-3.438,1.539-3.438,3.438c0,1.898,1.723,3.425,3.622,3.425h8.799
		l-0.001,2.627h-8.798c-3.343,0-6.236-2.709-6.236-6.052C48.685,22.756,51.395,20.009,54.738,20.009z"/>
	<path fill="#073866" d="M63.899,32.332h-8.978c-3.478,0-6.416-2.854-6.416-6.232c0-3.457,2.795-6.27,6.232-6.27h1.231l-3.084-3.498
		h4.831l4.958,5.036l-4.958,5.035h-4.831l3.156-3.578l-1.301,0.017c-1.799,0-3.261,1.462-3.261,3.258
		c0,1.759,1.576,3.245,3.442,3.245H63.9L63.899,32.332z M54.738,20.188c-3.238,0-5.873,2.652-5.873,5.911
		c0,3.183,2.773,5.873,6.056,5.873h8.618l0.001-2.268h-8.619c-2.061,0-3.802-1.651-3.802-3.605c0-1.995,1.624-3.618,3.619-3.618
		l2.108-0.028l-3.165,3.589h3.883l4.604-4.675l-4.604-4.676h-3.883l3.084,3.497H54.738z"/>
</g>
<g>
	<path fill-rule="evenodd" clip-rule="evenodd" fill="#FFFFFF" d="M73.502,20.009h-1.63l3.083-3.498h-4.356l-4.78,4.856l4.78,4.855
		h4.356l-3.159-3.584l1.706,0.022c1.897,0,3.438,1.539,3.438,3.438c0,1.898-1.723,3.425-3.622,3.425h-8.799l0.001,2.628h8.798
		c3.343,0,6.236-2.71,6.236-6.053C79.554,22.756,76.844,20.009,73.502,20.009z"/>
	<path fill="#073866" d="M73.317,32.332H64.34l-0.001-2.987h8.979c1.865,0,3.442-1.486,3.442-3.245c0-1.796-1.462-3.258-3.258-3.258
		l-1.305-0.017l3.157,3.578h-4.831l-4.957-5.035l4.957-5.036h4.831l-3.085,3.498h1.232c3.435,0,6.231,2.813,6.231,6.27
		C79.733,29.478,76.797,32.332,73.317,32.332z M64.699,31.972h8.618c3.282,0,6.057-2.689,6.057-5.873c0-3.259-2.634-5.91-5.872-5.91
		h-2.029l3.085-3.498h-3.884l-4.603,4.676l4.603,4.675h3.884l-3.165-3.589l2.11,0.028c1.993,0,3.617,1.623,3.617,3.618
		c0,1.954-1.742,3.605-3.803,3.605h-8.619L64.699,31.972z"/>
</g>
<g>
	<g>
		<path fill-rule="evenodd" clip-rule="evenodd" fill="#FFFFFF" d="M83.322,20.034l2.084,0.011c1.574-1.575,4.508-1.197,6.085,0.378
			c1.573,1.576,1.791,4.65,0.216,6.226l2.255-0.201l-0.076,2.381c2.773-2.774,2.548-7.802-0.226-10.575
			c-2.774-2.774-7.681-3.184-10.453-0.41L83.322,20.034z"/>
		<path fill="#073866" d="M93.695,29.269l0.083-2.627l-2.54,0.227l0.344-0.344c1.452-1.454,1.345-4.414-0.217-5.976
			c-0.837-0.837-2.077-1.336-3.317-1.336c-1.006,0-1.899,0.339-2.517,0.957l-0.052,0.052l-2.325-0.012l-0.13-2.434l0.057-0.056
			c1.249-1.25,3.001-1.938,4.93-1.938c2.176,0,4.281,0.855,5.773,2.348c2.892,2.891,2.999,8.05,0.227,10.824L93.695,29.269z
			 M94.145,26.256l-0.067,2.108c2.313-2.708,2.104-7.338-0.543-9.984c-1.425-1.427-3.44-2.245-5.523-2.245
			c-1.808,0-3.446,0.632-4.625,1.78l0.104,1.944l1.845,0.01c0.682-0.651,1.642-1.008,2.713-1.008c1.332,0,2.666,0.538,3.568,1.439
			c1.572,1.575,1.772,4.472,0.51,6.136L94.145,26.256z"/>
	</g>
	<g>
		<path fill-rule="evenodd" clip-rule="evenodd" fill="#FFFFFF" d="M92.881,27.529l-2.083-0.011
			c-1.575,1.576-4.509,1.197-6.084-0.378c-1.576-1.576-1.791-4.651-0.217-6.226l-2.255,0.201l0.075-2.381
			c-2.774,2.773-2.547,7.802,0.227,10.575c2.774,2.774,7.681,3.184,10.455,0.41L92.881,27.529z"/>
		<path fill="#073866" d="M88.195,31.782L88.195,31.782c-2.179,0-4.283-0.856-5.776-2.349c-2.893-2.892-3-8.051-0.226-10.824
			l0.313-0.315l-0.082,2.628l2.541-0.227l-0.344,0.344c-0.705,0.704-1.076,1.791-1.021,2.979c0.054,1.172,0.504,2.265,1.236,2.997
			c0.838,0.836,2.077,1.336,3.318,1.335c1.007,0,1.9-0.34,2.519-0.958l0.051-0.052l2.324,0.012l0.129,2.435l-0.055,0.055
			C91.872,31.093,90.123,31.782,88.195,31.782z M82.127,19.2c-2.313,2.707-2.104,7.338,0.543,9.984
			c1.427,1.427,3.44,2.245,5.525,2.245c1.804,0,3.442-0.631,4.622-1.78l-0.104-1.945l-1.845-0.01
			c-0.682,0.652-1.642,1.009-2.714,1.009c-1.332,0-2.665-0.538-3.565-1.439c-0.795-0.793-1.284-1.971-1.342-3.229
			c-0.053-1.112,0.246-2.146,0.829-2.907l-2.018,0.18L82.127,19.2z"/>
	</g>
</g>
</svg>
