<?xml version="1.0" encoding="utf-8"?>
<!-- Generator: Adobe Illustrator 16.0.0, SVG Export Plug-In . SVG Version: 6.00 Build 0)  -->
<!DOCTYPE svg PUBLIC "-//W3C//DTD SVG 1.1//EN" "http://www.w3.org/Graphics/SVG/1.1/DTD/svg11.dtd">
<svg version="1.1" id="Ebene_1" xmlns="http://www.w3.org/2000/svg" xmlns:xlink="http://www.w3.org/1999/xlink" x="0px" y="0px"
	 width="160px" height="32px" viewBox="0 0 160 32" enable-background="new 0 0 160 32" xml:space="preserve">
<g>
	<rect y="36" fill="#E6E6E6" width="32" height="32"/>
	<rect x="64" y="36" fill="#E6E6E6" width="32" height="32"/>
	<rect x="128" y="36" fill="#E6E6E6" width="32" height="32"/>
</g>
<g>
	<g>
		<path fill="#66160E" d="M124.877,16.836c0-0.537-0.039-1.063-0.107-1.582c1.192-0.604,2.037-1.297,3.104-2.162
			c-0.464-0.435-0.332-0.725-0.957-1.337c-1.361,0.026-2.141-0.745-3.41-0.504c-0.513-0.98-1.154-1.88-1.905-2.678
			c0.582-1.146,0.785-1.971,1.146-3.266c-0.405-0.636-0.521-0.922-1.057-1.647c-1.016,0.735-2.602,1.512-3.458,2.396
			c-1.034-0.522-2.153-0.899-3.332-1.105c-0.228-1.181-1.047-3.542-1.047-3.542l-1.287-1.288l0.24,1.253
			c-0.349-0.002-0.698,0.007-1.047,0.035c-0.473,1.143-0.818,2.362-1.047,3.542c-1.178,0.207-2.297,0.583-3.332,1.104
			c-0.855-0.883-1.793-1.705-2.81-2.44c-0.69,0.383-1.312,0.863-1.937,1.335c0.361,1.293,0.797,2.479,1.379,3.623
			c-0.751,0.799-1.394,1.699-1.906,2.679c-1.269-0.241-4.627,0.53-5.988,0.504c0.455,0.733,0.817,1.096,1.301,1.458
			c1.064,0.865,2.231,1.438,3.423,2.041c-0.067,0.519-0.105,1.045-0.105,1.582s0.038,1.064,0.105,1.582
			c-1.191,0.604-2.915,2.259-3.98,3.123c0.597,0.732,0.76,0.893,1.288,1.289c1.361-0.027,2.688-0.168,3.958-0.408
			c0.512,0.979,1.154,1.879,1.904,2.677c-0.581,1.146-2.307,1.042-2.668,2.335c0.465,0.96,2.536,2.242,3.227,2.624
			c1.016-0.735,1.954-1.557,2.81-2.44c1.035,0.521,1.143,0.61,2.321,0.817c0.228,1.182,0.846,2.337,2.058,3.348
			c0.349,0.028,0.698,0.036,1.047,0.035h0.001c0.349,0.001,0.698-0.008,1.046-0.035c0.473-1.144,0.819-1.88,1.047-3.062
			c1.179-0.206,2.298-0.582,3.332-1.104c0.856,0.883,1.312,1.225,2.329,1.959c0.69-0.382,0.831-0.863,1.455-1.335
			c-0.361-1.293-0.553-1.659-1.135-2.804c0.75-0.798,2.11-2.037,2.624-3.016c1.27,0.24,2.113,0.382,3.477,0.408
			c0.28-0.723,0.568-1.445,0.741-2.201c-1.469-1.766-1.762-1.607-2.954-2.212C124.838,17.899,124.877,17.373,124.877,16.836z
			 M112.807,23.95c-3.928,0-7.113-3.187-7.113-7.114c0-3.929,3.186-7.114,7.113-7.114c3.929,0,7.114,3.186,7.114,7.114
			C119.921,20.764,116.735,23.95,112.807,23.95z"/>
		<path fill="#1D1D1B" d="M112.859,31.938h-0.104c-0.375,0-0.704-0.011-1.006-0.036c-0.024-0.002-0.049-0.011-0.067-0.026
			c-1.115-0.931-1.814-2.052-2.082-3.336c-1.03-0.185-1.236-0.289-2.04-0.696l-0.155-0.078c-0.862,0.885-1.792,1.688-2.763,2.391
			c-0.039,0.028-0.088,0.03-0.129,0.008c-0.027-0.015-2.712-1.509-3.275-2.678c-0.014-0.026-0.016-0.056-0.008-0.084
			c0.206-0.741,0.824-1.052,1.422-1.353c0.489-0.246,0.951-0.479,1.215-0.931c-0.716-0.771-1.328-1.633-1.823-2.561
			c-1.271,0.235-2.578,0.367-3.89,0.394c-0.025-0.003-0.053-0.009-0.074-0.023c-0.537-0.402-0.707-0.573-1.31-1.309
			c-0.021-0.024-0.03-0.057-0.026-0.089c0.003-0.031,0.019-0.061,0.043-0.081c0.287-0.232,0.624-0.524,0.98-0.835
			c0.975-0.845,2.074-1.8,2.946-2.264c-0.064-0.516-0.097-1.024-0.097-1.514c0-0.488,0.032-0.997,0.097-1.513l-0.103-0.053
			c-1.155-0.583-2.244-1.135-3.266-1.965c-0.465-0.348-0.85-0.72-1.328-1.487c-0.023-0.037-0.023-0.084-0.002-0.123
			s0.061-0.062,0.107-0.061h0.068c0.564,0,1.442-0.123,2.372-0.253c1.048-0.146,2.132-0.299,2.925-0.299
			c0.217,0,0.398,0.012,0.555,0.034c0.494-0.931,1.109-1.793,1.826-2.566c-0.541-1.079-0.972-2.216-1.351-3.569
			c-0.013-0.048,0.005-0.099,0.044-0.129l0.126-0.095c0.577-0.437,1.175-0.888,1.826-1.249c0.042-0.022,0.091-0.02,0.129,0.008
			c0.968,0.701,1.898,1.506,2.764,2.392c1.013-0.502,2.091-0.858,3.206-1.062c0.24-1.218,0.598-2.42,1.035-3.483
			c0.018-0.042,0.059-0.071,0.102-0.074c0.282-0.023,0.58-0.034,0.911-0.036l-0.212-1.109c-0.011-0.052,0.015-0.104,0.062-0.129
			c0.046-0.025,0.104-0.017,0.141,0.021l1.288,1.289c0.013,0.012,0.023,0.027,0.029,0.045c0.033,0.095,0.788,2.281,1.034,3.478
			c1.116,0.203,2.194,0.562,3.206,1.063c0.561-0.555,1.378-1.058,2.17-1.544c0.454-0.279,0.883-0.543,1.242-0.803
			c0.053-0.039,0.127-0.028,0.167,0.026c0.356,0.482,0.526,0.769,0.722,1.099c0.099,0.166,0.202,0.34,0.34,0.555
			c0.018,0.029,0.023,0.064,0.015,0.097l-0.091,0.32c-0.298,1.081-0.518,1.869-1.027,2.892c0.717,0.773,1.33,1.635,1.825,2.565
			c0.143-0.022,0.283-0.033,0.426-0.033c0.491,0,0.91,0.129,1.353,0.266c0.455,0.141,0.927,0.285,1.499,0.285h0.066
			c0.03,0.002,0.063,0.011,0.086,0.034c0.347,0.34,0.472,0.587,0.581,0.807c0.093,0.183,0.173,0.34,0.373,0.529
			c0.025,0.023,0.039,0.058,0.039,0.092c-0.003,0.034-0.019,0.067-0.046,0.089l-0.055,0.046c-1.032,0.837-1.851,1.502-2.992,2.092
			c0.063,0.516,0.096,1.024,0.096,1.513c0,0.489-0.032,0.997-0.096,1.512c0.21,0.105,0.392,0.186,0.558,0.26
			c0.731,0.324,1.172,0.521,2.357,1.945c0.024,0.029,0.033,0.066,0.025,0.104c-0.165,0.715-0.434,1.407-0.692,2.077l-0.055,0.141
			c-0.019,0.048-0.058,0.073-0.115,0.076c-1.354-0.026-2.205-0.166-3.41-0.394c-0.423,0.756-1.301,1.643-2.01,2.359
			c-0.193,0.194-0.374,0.377-0.531,0.543c0.56,1.101,0.749,1.474,1.104,2.75c0.013,0.047-0.004,0.099-0.043,0.128
			c-0.262,0.198-0.438,0.4-0.609,0.596c-0.232,0.27-0.453,0.522-0.861,0.749c-0.041,0.021-0.09,0.021-0.129-0.009
			c-1.002-0.725-1.455-1.063-2.283-1.909c-1.013,0.501-2.09,0.857-3.205,1.061c-0.2,1.001-0.494,1.705-0.865,2.589l-0.172,0.414
			c-0.018,0.041-0.056,0.07-0.101,0.073C113.562,31.926,113.234,31.938,112.859,31.938z M112.807,31.697h0.053
			c0.338,0,0.638-0.01,0.912-0.03l0.144-0.345c0.389-0.931,0.671-1.604,0.868-2.625c0.01-0.05,0.047-0.088,0.097-0.096
			c1.148-0.201,2.26-0.569,3.299-1.094c0.046-0.023,0.103-0.013,0.14,0.024c0.835,0.86,1.279,1.198,2.249,1.9
			c0.331-0.197,0.525-0.422,0.732-0.658c0.163-0.189,0.333-0.384,0.579-0.58c-0.337-1.192-0.526-1.565-1.067-2.631l-0.036-0.072
			c-0.023-0.046-0.016-0.101,0.019-0.138c0.171-0.183,0.374-0.387,0.593-0.607c0.724-0.731,1.624-1.642,2.012-2.381
			c0.024-0.048,0.078-0.072,0.129-0.062c1.213,0.229,2.055,0.374,3.372,0.405l0.024-0.063c0.249-0.643,0.508-1.307,0.67-1.985
			c-1.12-1.338-1.518-1.516-2.233-1.833c-0.188-0.083-0.397-0.177-0.645-0.302c-0.046-0.023-0.071-0.072-0.064-0.123
			c0.069-0.534,0.105-1.061,0.105-1.565c0-0.506-0.036-1.032-0.105-1.566c-0.007-0.051,0.019-0.101,0.064-0.123
			c1.142-0.579,1.957-1.236,2.978-2.065c-0.163-0.177-0.242-0.334-0.325-0.498c-0.103-0.204-0.209-0.415-0.5-0.709h-0.02
			c-0.608,0-1.098-0.15-1.57-0.296c-0.426-0.131-0.827-0.255-1.281-0.255c-0.157,0-0.311,0.015-0.469,0.045
			c-0.052,0.01-0.104-0.016-0.129-0.062c-0.506-0.966-1.141-1.857-1.887-2.651c-0.034-0.037-0.043-0.092-0.02-0.137
			c0.526-1.038,0.745-1.829,1.049-2.923l0.074-0.269c-0.125-0.197-0.222-0.36-0.313-0.517c-0.181-0.302-0.337-0.565-0.639-0.982
			c-0.346,0.242-0.742,0.486-1.159,0.742c-0.81,0.498-1.646,1.012-2.186,1.569c-0.037,0.037-0.095,0.047-0.141,0.023
			c-1.038-0.524-2.149-0.893-3.299-1.094c-0.05-0.009-0.087-0.047-0.097-0.096c-0.211-1.093-0.943-3.239-1.033-3.5l-0.991-0.992
			l0.165,0.868c0.009,0.035-0.002,0.071-0.024,0.1c-0.023,0.027-0.057,0.043-0.093,0.043h-0.001h-0.069
			c-0.326,0-0.62,0.01-0.895,0.03c-0.43,1.056-0.778,2.247-1.01,3.45c-0.011,0.049-0.049,0.087-0.098,0.096
			c-1.15,0.202-2.26,0.569-3.3,1.094c-0.046,0.024-0.103,0.014-0.14-0.023c-0.855-0.883-1.773-1.684-2.73-2.383
			c-0.612,0.347-1.182,0.777-1.731,1.193l-0.061,0.046c0.378,1.335,0.808,2.456,1.349,3.522c0.023,0.045,0.016,0.1-0.02,0.137
			c-0.746,0.795-1.381,1.687-1.887,2.651c-0.025,0.047-0.076,0.073-0.129,0.062c-0.156-0.029-0.356-0.044-0.598-0.044
			c-0.775,0-1.851,0.15-2.891,0.296c-0.862,0.121-1.681,0.234-2.259,0.253c0.405,0.616,0.737,0.93,1.155,1.242
			c1.005,0.817,2.084,1.362,3.225,1.94l0.18,0.091c0.046,0.022,0.072,0.072,0.065,0.123c-0.07,0.534-0.105,1.062-0.105,1.566
			s0.035,1.032,0.105,1.566c0.007,0.052-0.02,0.101-0.065,0.123c-0.855,0.435-2.029,1.452-2.973,2.271
			c-0.32,0.278-0.625,0.542-0.893,0.764c0.518,0.63,0.685,0.795,1.158,1.15c1.314-0.028,2.625-0.165,3.896-0.406
			c0.052-0.011,0.104,0.015,0.129,0.062c0.504,0.965,1.139,1.856,1.885,2.65c0.035,0.036,0.044,0.093,0.021,0.137
			c-0.29,0.57-0.834,0.845-1.36,1.11c-0.563,0.283-1.096,0.552-1.286,1.158c0.466,0.882,2.319,2.06,3.089,2.493
			c0.961-0.701,1.879-1.501,2.731-2.382c0.036-0.037,0.094-0.048,0.14-0.024l0.234,0.118c0.818,0.415,0.988,0.502,2.055,0.689
			c0.049,0.009,0.088,0.046,0.097,0.095c0.241,1.251,0.909,2.346,1.987,3.253c0.284,0.022,0.595,0.033,0.948,0.033L112.807,31.697
			L112.807,31.697z M112.807,24.07c-3.988,0-7.233-3.245-7.233-7.234s3.245-7.235,7.233-7.235c3.989,0,7.234,3.245,7.234,7.235
			C120.041,20.825,116.796,24.07,112.807,24.07z M112.807,9.841c-3.855,0-6.993,3.139-6.993,6.995s3.138,6.994,6.993,6.994
			c3.857,0,6.994-3.138,6.994-6.994S116.663,9.841,112.807,9.841z"/>
	</g>
	<g>
		
			<linearGradient id="SVGID_1_" gradientUnits="userSpaceOnUse" x1="453.1201" y1="-263.0479" x2="483.916" y2="-263.0479" gradientTransform="matrix(1 0 0 -1 -357 -247.5)">
			<stop  offset="0" style="stop-color:#E30613"/>
			<stop  offset="1" style="stop-color:#BE1622"/>
		</linearGradient>
		<path fill="url(#SVGID_1_)" d="M123.588,15.547c0-0.536-0.039-1.063-0.105-1.581c1.191-0.604,2.369-1.346,3.434-2.211
			c-0.173-0.756-0.462-1.479-0.742-2.201c-1.361,0.026-2.687,0.168-3.957,0.408c-0.512-0.979-1.153-1.879-1.904-2.677
			c0.581-1.146,1.018-2.331,1.378-3.625c-0.624-0.472-1.247-0.952-1.937-1.335c-1.016,0.735-1.953,1.559-2.81,2.442
			c-1.034-0.522-2.153-0.898-3.332-1.105c-0.228-1.181-0.574-2.399-1.046-3.542c-0.35-0.028-0.699-0.036-1.047-0.035h-0.002
			c-0.349-0.001-0.698,0.007-1.047,0.035c-0.471,1.143-0.818,2.361-1.045,3.542c-1.18,0.207-2.299,0.583-3.333,1.104
			c-0.856-0.883-1.794-1.705-2.81-2.44c-0.69,0.382-1.312,0.862-1.938,1.335c0.361,1.293,0.797,2.478,1.379,3.623
			c-0.75,0.799-1.393,1.699-1.906,2.679c-1.268-0.241-2.594-0.383-3.955-0.409c-0.281,0.723-0.569,1.445-0.743,2.201
			c1.064,0.865,2.243,1.607,3.436,2.211c-0.069,0.519-0.106,1.046-0.106,1.582s0.037,1.063,0.106,1.581
			c-1.192,0.604-2.371,1.347-3.436,2.211c0.175,0.756,0.462,1.479,0.743,2.201c1.361-0.026,2.687-0.168,3.956-0.408
			c0.513,0.979,1.155,1.88,1.905,2.678c-0.582,1.146-1.018,2.33-1.379,3.623c0.625,0.473,1.247,0.953,1.938,1.336
			c1.016-0.736,1.953-1.557,2.81-2.441c1.034,0.521,2.153,0.898,3.333,1.104c0.227,1.182,0.574,2.398,1.045,3.543
			c0.349,0.028,0.698,0.036,1.047,0.035h0.002c0.348,0.001,0.697-0.008,1.047-0.035c0.472-1.144,0.818-2.361,1.046-3.543
			c1.179-0.206,2.298-0.583,3.332-1.104c0.856,0.884,1.793,1.705,2.81,2.441c0.689-0.383,1.312-0.863,1.937-1.336
			c-0.36-1.293-0.797-2.478-1.378-3.623c0.749-0.798,1.393-1.698,1.904-2.678c1.27,0.24,2.596,0.382,3.957,0.408
			c0.281-0.723,0.569-1.445,0.742-2.201c-1.064-0.864-2.242-1.607-3.434-2.211C123.549,16.611,123.588,16.084,123.588,15.547z
			 M111.518,22.661c-3.928,0-7.113-3.185-7.113-7.114c0-3.929,3.186-7.114,7.113-7.114c3.93,0,7.114,3.186,7.114,7.114
			C118.632,19.477,115.447,22.661,111.518,22.661z"/>
		<path fill="#A42423" d="M111.57,31.131h-0.104c-0.376,0-0.705-0.013-1.005-0.037c-0.046-0.004-0.084-0.032-0.102-0.073
			c-0.44-1.064-0.797-2.268-1.037-3.483c-1.114-0.203-2.192-0.561-3.205-1.062c-0.864,0.885-1.792,1.688-2.764,2.392
			c-0.038,0.028-0.087,0.03-0.129,0.008c-0.655-0.363-1.257-0.818-1.837-1.258l-0.115-0.087c-0.039-0.03-0.057-0.081-0.043-0.129
			c0.371-1.331,0.813-2.501,1.35-3.569c-0.716-0.771-1.33-1.633-1.826-2.563c-1.268,0.236-2.576,0.368-3.889,0.395
			c-0.05-0.008-0.096-0.029-0.115-0.076l-0.052-0.136c-0.262-0.672-0.53-1.366-0.695-2.083c-0.011-0.045,0.006-0.091,0.042-0.119
			c1.008-0.821,2.145-1.556,3.38-2.188c-0.064-0.512-0.097-1.021-0.097-1.514c0-0.491,0.032-1,0.097-1.514
			c-1.236-0.632-2.374-1.366-3.38-2.186c-0.036-0.028-0.053-0.075-0.042-0.12c0.165-0.719,0.436-1.415,0.698-2.088l0.05-0.13
			c0.019-0.048,0.073-0.074,0.114-0.077c1.311,0.025,2.619,0.158,3.89,0.395c0.495-0.93,1.108-1.792,1.825-2.564
			c-0.535-1.068-0.979-2.237-1.35-3.57c-0.014-0.047,0.004-0.098,0.043-0.128l0.123-0.093c0.578-0.438,1.176-0.891,1.83-1.251
			c0.041-0.023,0.091-0.021,0.129,0.008c0.968,0.701,1.896,1.505,2.764,2.392c1.012-0.501,2.09-0.858,3.205-1.062
			c0.24-1.218,0.598-2.421,1.037-3.484c0.018-0.042,0.056-0.07,0.101-0.073c0.301-0.024,0.627-0.037,0.997-0.037h0.121
			c0.369,0,0.694,0.012,0.996,0.037c0.045,0.004,0.084,0.031,0.102,0.073c0.444,1.077,0.793,2.249,1.037,3.484
			c1.115,0.203,2.192,0.561,3.204,1.062c0.866-0.889,1.796-1.693,2.765-2.395c0.037-0.027,0.088-0.03,0.129-0.008
			c0.656,0.363,1.258,0.819,1.84,1.26l0.111,0.084c0.039,0.03,0.057,0.081,0.044,0.129c-0.371,1.329-0.812,2.498-1.351,3.57
			c0.718,0.772,1.331,1.635,1.826,2.564c1.271-0.237,2.579-0.369,3.889-0.395c0.041,0.002,0.096,0.029,0.115,0.076l0.05,0.13
			c0.262,0.673,0.532,1.369,0.697,2.088c0.011,0.045-0.006,0.092-0.041,0.12c-1.006,0.818-2.144,1.554-3.38,2.187
			c0.063,0.516,0.096,1.024,0.096,1.513c0,0.49-0.032,0.998-0.096,1.514c1.235,0.632,2.372,1.367,3.38,2.188
			c0.035,0.028,0.052,0.074,0.041,0.119c-0.164,0.718-0.434,1.412-0.694,2.083l-0.053,0.136c-0.019,0.047-0.062,0.068-0.115,0.076
			c-1.312-0.026-2.62-0.158-3.889-0.395c-0.494,0.928-1.107,1.789-1.825,2.563c0.544,1.081,0.973,2.218,1.35,3.569
			c0.013,0.048-0.004,0.099-0.043,0.129l-0.104,0.077c-0.585,0.444-1.188,0.901-1.849,1.268c-0.04,0.021-0.091,0.02-0.128-0.008
			c-0.968-0.7-1.897-1.504-2.765-2.393c-1.014,0.502-2.091,0.858-3.205,1.062c-0.243,1.235-0.593,2.406-1.036,3.483
			c-0.019,0.042-0.058,0.07-0.103,0.073C112.271,31.118,111.952,31.131,111.57,31.131z M111.518,30.89h0.053
			c0.344,0,0.637-0.01,0.912-0.03c0.429-1.054,0.778-2.245,1.012-3.45c0.009-0.049,0.048-0.087,0.097-0.095
			c1.149-0.201,2.26-0.569,3.299-1.094c0.046-0.023,0.104-0.015,0.14,0.024c0.856,0.883,1.775,1.683,2.731,2.381
			c0.619-0.351,1.195-0.787,1.753-1.21l0.038-0.029c-0.377-1.332-0.806-2.453-1.349-3.522c-0.023-0.046-0.016-0.1,0.02-0.137
			c0.748-0.795,1.382-1.687,1.887-2.65c0.024-0.047,0.077-0.073,0.129-0.062c1.256,0.238,2.552,0.375,3.854,0.405l0.021-0.057
			c0.249-0.64,0.506-1.302,0.667-1.977c-1.001-0.806-2.129-1.529-3.354-2.15c-0.046-0.023-0.072-0.072-0.065-0.123
			c0.07-0.533,0.105-1.06,0.105-1.566c0-0.505-0.035-1.031-0.105-1.566c-0.007-0.051,0.02-0.1,0.065-0.122
			c1.227-0.622,2.354-1.346,3.354-2.15c-0.162-0.677-0.42-1.34-0.669-1.981l-0.02-0.052c-1.3,0.03-2.595,0.166-3.854,0.405
			c-0.052,0.009-0.104-0.016-0.129-0.062c-0.505-0.966-1.14-1.857-1.886-2.651c-0.036-0.037-0.044-0.092-0.021-0.137
			c0.545-1.072,0.973-2.194,1.349-3.523l-0.046-0.035c-0.556-0.42-1.129-0.854-1.745-1.204c-0.958,0.699-1.876,1.501-2.731,2.383
			c-0.036,0.038-0.095,0.048-0.14,0.024c-1.039-0.524-2.149-0.893-3.299-1.094c-0.05-0.009-0.089-0.047-0.097-0.096
			c-0.233-1.206-0.583-2.397-1.012-3.451c-0.274-0.021-0.571-0.029-0.903-0.029h-0.122c-0.334,0-0.629,0.009-0.904,0.029
			c-0.43,1.057-0.779,2.247-1.012,3.451c-0.009,0.048-0.047,0.087-0.096,0.095c-1.15,0.202-2.262,0.57-3.299,1.094
			c-0.047,0.024-0.104,0.014-0.141-0.023c-0.855-0.882-1.774-1.684-2.731-2.383c-0.612,0.348-1.182,0.779-1.733,1.195l-0.058,0.044
			c0.377,1.333,0.806,2.454,1.349,3.522c0.023,0.046,0.015,0.101-0.02,0.137c-0.746,0.794-1.381,1.687-1.887,2.652
			c-0.025,0.047-0.078,0.072-0.129,0.062c-1.258-0.239-2.555-0.375-3.852-0.405l-0.021,0.052c-0.249,0.643-0.507,1.305-0.671,1.981
			c1.001,0.806,2.129,1.529,3.355,2.149c0.046,0.023,0.072,0.072,0.065,0.123c-0.071,0.531-0.105,1.059-0.105,1.566
			c0,0.51,0.034,1.036,0.105,1.566c0.007,0.051-0.02,0.101-0.065,0.124c-1.225,0.619-2.354,1.343-3.355,2.149
			c0.164,0.675,0.42,1.335,0.668,1.976l0.023,0.058c1.301-0.03,2.596-0.167,3.852-0.405c0.052-0.011,0.104,0.016,0.13,0.062
			c0.506,0.966,1.14,1.858,1.886,2.65c0.034,0.037,0.043,0.092,0.02,0.137c-0.543,1.07-0.973,2.19-1.349,3.522l0.05,0.037
			c0.554,0.42,1.127,0.854,1.742,1.202c0.96-0.7,1.879-1.501,2.73-2.381c0.036-0.039,0.094-0.048,0.141-0.024
			c1.039,0.524,2.15,0.893,3.299,1.094c0.05,0.009,0.088,0.046,0.097,0.096c0.232,1.202,0.581,2.394,1.013,3.449
			c0.273,0.021,0.572,0.03,0.911,0.03H111.518z M111.518,22.781c-3.988,0-7.233-3.245-7.233-7.234s3.245-7.235,7.233-7.235
			s7.235,3.246,7.235,7.235C118.753,19.537,115.506,22.781,111.518,22.781z M111.518,8.553c-3.856,0-6.993,3.138-6.993,6.994
			s3.137,6.994,6.993,6.994c3.857,0,6.995-3.138,6.995-6.994S115.375,8.553,111.518,8.553z"/>
	</g>
	<g>
		<path fill="#A42423" d="M127.879,13.087l-0.901-1.311l-0.725-2.201c0,0,0.887,1.074,1.208,1.638
			C127.719,11.665,127.879,13.087,127.879,13.087z"/>
		<path fill="#801D18" d="M127.879,13.207c-0.038,0-0.075-0.019-0.099-0.053l-0.902-1.31c-0.006-0.01-0.011-0.02-0.015-0.031
			l-0.725-2.201c-0.019-0.055,0.006-0.115,0.057-0.143c0.05-0.028,0.114-0.016,0.15,0.028s0.896,1.088,1.22,1.654
			c0.268,0.469,0.427,1.861,0.434,1.92c0.007,0.055-0.025,0.107-0.077,0.127C127.907,13.204,127.894,13.207,127.879,13.207z
			 M127.087,11.723l0.604,0.879c-0.068-0.446-0.186-1.068-0.335-1.329c-0.17-0.298-0.507-0.749-0.78-1.1L127.087,11.723z"/>
	</g>
	<g>
		<path fill="#A42423" d="M127.042,22.837l-0.807-1.289l0.742-2.2c0,0,0.653,0.999,0.734,1.321
			C127.793,20.99,127.042,22.837,127.042,22.837z"/>
		<path fill="#801D18" d="M127.042,22.957c-0.041,0-0.079-0.021-0.102-0.056l-0.807-1.288c-0.02-0.031-0.024-0.069-0.013-0.104
			l0.742-2.201c0.015-0.043,0.053-0.074,0.1-0.08c0.041-0.005,0.091,0.014,0.115,0.053c0.068,0.104,0.667,1.026,0.75,1.358
			c0.087,0.343-0.547,1.929-0.675,2.243c-0.017,0.042-0.056,0.071-0.101,0.074C127.049,22.957,127.046,22.957,127.042,22.957z
			 M126.367,21.533l0.651,1.038c0.328-0.831,0.617-1.71,0.577-1.873c-0.051-0.199-0.368-0.732-0.584-1.075L126.367,21.533z"/>
	</g>
	<g>
		<path fill="#A42423" d="M120.562,29.576l-0.808-0.807l1.937-1.336c0,0,0.246,0.486,0.326,0.808
			C122.098,28.562,120.562,29.576,120.562,29.576z"/>
		<path fill="#801D18" d="M120.562,29.696c-0.031,0-0.062-0.012-0.085-0.035l-0.809-0.808c-0.025-0.024-0.037-0.061-0.034-0.096
			s0.022-0.068,0.053-0.088l1.936-1.336c0.029-0.019,0.064-0.025,0.098-0.017c0.034,0.009,0.062,0.031,0.078,0.062
			c0.01,0.021,0.253,0.502,0.335,0.833c0.088,0.352-0.905,1.068-1.506,1.465C120.607,29.689,120.584,29.696,120.562,29.696z
			 M119.939,28.785l0.637,0.637c0.729-0.49,1.327-1.01,1.324-1.155c-0.053-0.206-0.181-0.493-0.257-0.655L119.939,28.785z"/>
	</g>
	<g>
		<path fill="#A42423" d="M111.783,31.886l-1.312-0.911l2.011,0.104c0,0,0.993,0.378,1.372,0.702
			C114.106,31.997,111.783,31.886,111.783,31.886z"/>
		<path fill="#801D18" d="M112.938,32.035c-0.554,0-1.155-0.028-1.16-0.028c-0.022-0.002-0.046-0.009-0.063-0.022l-1.312-0.911
			c-0.043-0.031-0.062-0.088-0.045-0.138c0.018-0.052,0.076-0.078,0.12-0.082l2.01,0.105c0.012,0.001,0.025,0.003,0.036,0.008
			c0.042,0.016,1.018,0.389,1.409,0.724c0.082,0.07,0.062,0.148,0.053,0.171C113.946,31.967,113.853,32.035,112.938,32.035z
			 M111.823,31.768c0.136,0.006,0.644,0.027,1.116,0.027c0.365,0,0.576-0.013,0.696-0.027c-0.388-0.258-1.063-0.524-1.18-0.569
			l-1.569-0.083L111.823,31.768z"/>
	</g>
</g>
<g>
	<g>
		
			<linearGradient id="SVGID_2_" gradientUnits="userSpaceOnUse" x1="436.0635" y1="-267.5264" x2="452.8662" y2="-267.5264" gradientTransform="matrix(1 0 0 -1 -357 -247.5)">
			<stop  offset="0" style="stop-color:#66160E"/>
			<stop  offset="0.2414" style="stop-color:#801D18"/>
			<stop  offset="0.5665" style="stop-color:#A42423"/>
		</linearGradient>
		<path fill="url(#SVGID_2_)" d="M94.55,22.435c-0.661-1.359-1.39-1.693-1.877-1.964c-0.488-0.267-0.753-0.626-1.779-1.047
			c-0.945-0.388-1.592-0.785-1.945-1.183c-0.354-0.396-0.53-0.933-0.53-1.605c0-0.236,0.113-0.505,0.341-0.798
			c0.227-0.293,0.382-0.712,0.468-1.25c0.016-0.136,0.063-0.232,0.138-0.292c0.076-0.058,0.148-0.101,0.215-0.125
			c0.067-0.024,0.139-0.122,0.216-0.29c0.075-0.168,0.122-0.413,0.138-0.733c0-0.37-0.085-0.606-0.254-0.708l0.179-1.49
			c0.017-0.234-0.014-0.5-0.089-0.795c-0.075-0.294-0.212-0.606-0.404-0.936c-0.194-0.327-0.509-0.601-0.946-0.82
			c-0.439-0.218-0.96-0.329-1.567-0.329c-0.605,0-1.127,0.111-1.565,0.329c-0.438,0.219-0.753,0.493-0.947,0.82
			c-0.192,0.33-0.328,0.642-0.403,0.936c-0.076,0.295-0.106,0.561-0.089,0.795l0.178,1.49c-0.169,0.101-0.253,0.337-0.253,0.708
			c0.015,0.321,0.062,0.564,0.138,0.733c0.076,0.168,0.148,0.266,0.216,0.29c0.066,0.025,0.138,0.067,0.214,0.125
			c0.075,0.06,0.123,0.156,0.139,0.292c0.085,0.538,0.24,0.956,0.468,1.25c0.228,0.293,0.34,0.56,0.34,0.796
			c0,0.674-0.176,1.207-0.53,1.603c-0.354,0.396-1,0.788-1.944,1.177c-1.027,0.42-2.157,0.767-2.646,1.032
			c-0.485,0.271-1.1,0.994-1.1,0.994v10.545h7.295h9.508C95.865,31.982,95.211,23.793,94.55,22.435z"/>
		<path fill="#66160E" d="M95.865,32H78.823c-0.067,0-0.123-0.056-0.123-0.123V21.438c0-0.032,0.014-0.064,0.036-0.087
			c0.031-0.031,0.752-0.738,1.25-1.015c0.276-0.151,0.771-0.32,1.344-0.516c0.456-0.157,0.973-0.335,1.436-0.523
			c1.189-0.489,1.491-0.688,1.898-1.145c0.331-0.37,0.499-0.881,0.499-1.521c0-0.209-0.105-0.451-0.314-0.72
			c-0.238-0.307-0.403-0.747-0.491-1.306c-0.013-0.104-0.043-0.175-0.094-0.215c-0.065-0.049-0.127-0.085-0.181-0.106
			c-0.101-0.036-0.192-0.148-0.284-0.355c-0.083-0.184-0.132-0.438-0.148-0.777c0-0.378,0.08-0.63,0.245-0.771l-0.17-1.418
			c-0.019-0.251,0.012-0.533,0.092-0.84c0.077-0.301,0.217-0.625,0.417-0.967c0.205-0.348,0.541-0.639,0.998-0.869
			c0.457-0.227,1.002-0.341,1.62-0.341c0.619,0,1.165,0.115,1.621,0.341c0.457,0.229,0.792,0.521,0.998,0.867
			c0.2,0.342,0.341,0.667,0.418,0.969c0.078,0.307,0.109,0.588,0.092,0.834l-0.17,1.424c0.164,0.141,0.245,0.396,0.245,0.764
			c-0.017,0.345-0.066,0.599-0.149,0.784c-0.092,0.206-0.183,0.319-0.285,0.355c-0.054,0.02-0.114,0.057-0.182,0.107
			c-0.048,0.039-0.079,0.109-0.09,0.208c-0.091,0.565-0.257,1.004-0.492,1.312c-0.209,0.269-0.315,0.51-0.315,0.72
			c0,0.639,0.168,1.15,0.498,1.52c0.339,0.381,0.979,0.766,1.899,1.145c0.694,0.284,1.042,0.532,1.35,0.75
			c0.152,0.109,0.284,0.203,0.442,0.289l0.118,0.065c0.5,0.27,1.185,0.639,1.811,1.927c0.663,1.364,1.301,9.205,1.328,9.539
			c0.002,0.034-0.009,0.068-0.032,0.094C95.933,31.985,95.9,32,95.865,32z M78.947,31.753h16.784
			c-0.089-1.061-0.696-8.089-1.292-9.317c-0.592-1.216-1.236-1.563-1.706-1.817l-0.12-0.066c-0.171-0.094-0.315-0.196-0.468-0.304
			c-0.296-0.211-0.632-0.449-1.3-0.723c-0.97-0.399-1.621-0.795-1.989-1.209c-0.372-0.417-0.562-0.983-0.562-1.685
			c0-0.265,0.123-0.558,0.366-0.871c0.211-0.274,0.361-0.675,0.443-1.193c0.018-0.161,0.08-0.288,0.184-0.37
			c0.087-0.066,0.17-0.115,0.247-0.145c0.002,0,0.056-0.025,0.146-0.225c0.07-0.154,0.113-0.386,0.129-0.689
			c0-0.215-0.034-0.499-0.194-0.595c-0.041-0.025-0.064-0.072-0.059-0.121l0.178-1.49c0.016-0.214-0.014-0.468-0.086-0.75
			c-0.071-0.278-0.202-0.583-0.391-0.904c-0.181-0.305-0.482-0.565-0.896-0.771c-0.421-0.209-0.931-0.316-1.511-0.316
			s-1.089,0.106-1.511,0.316c-0.413,0.208-0.714,0.467-0.896,0.772c-0.188,0.321-0.318,0.625-0.391,0.903
			c-0.072,0.282-0.101,0.536-0.085,0.756l0.178,1.484c0.006,0.048-0.018,0.096-0.06,0.121c-0.159,0.095-0.192,0.38-0.192,0.602
			c0.014,0.296,0.057,0.528,0.127,0.682c0.09,0.2,0.145,0.225,0.145,0.225c0.078,0.03,0.16,0.078,0.247,0.143
			c0.105,0.083,0.167,0.209,0.187,0.376c0.08,0.513,0.23,0.915,0.442,1.188c0.242,0.312,0.365,0.605,0.365,0.871
			c0,0.701-0.188,1.269-0.562,1.685c-0.368,0.414-1.02,0.81-1.989,1.208c-0.469,0.193-0.989,0.37-1.449,0.528
			c-0.562,0.192-1.046,0.358-1.304,0.5c-0.406,0.225-1.005,0.789-1.158,0.937L78.947,31.753L78.947,31.753z"/>
	</g>
	<g>
		
			<linearGradient id="SVGID_3_" gradientUnits="userSpaceOnUse" x1="444.4248" y1="-264.7549" x2="421.1221" y2="-264.7549" gradientTransform="matrix(1 0 0 -1 -357 -247.5)">
			<stop  offset="0.3103" style="stop-color:#E30613"/>
			<stop  offset="1" style="stop-color:#BE1622"/>
		</linearGradient>
		<path fill="url(#SVGID_3_)" d="M86.18,22.877c-0.108-0.163-1.334-1.291-1.881-1.619c-0.546-0.327-1.52-0.997-2.872-1.544
			c-1.418-0.573-2.394-1.165-2.93-1.758c-0.536-0.595-0.804-1.41-0.804-2.445c0-0.362,0.174-0.767,0.517-1.208
			c0.344-0.439,0.584-1.07,0.719-1.895c0.039-0.191,0.11-0.335,0.215-0.43c0.105-0.096,0.21-0.164,0.317-0.202
			c0.103-0.038,0.21-0.182,0.314-0.43c0.105-0.25,0.177-0.622,0.215-1.122c0-0.572-0.134-0.928-0.401-1.061l0.287-2.268
			c0.039-0.366-0.005-0.767-0.13-1.207C79.622,5.25,79.41,4.78,79.115,4.282c-0.299-0.499-0.774-0.914-1.436-1.25
			c-0.66-0.334-1.45-0.502-2.369-0.502c-0.249,0-0.486,0.016-0.717,0.04c-0.621,0.066-1.178,0.219-1.667,0.463
			c-0.669,0.336-1.153,0.751-1.45,1.25c-0.296,0.499-0.507,0.968-0.631,1.406c-0.125,0.44-0.167,0.841-0.129,1.207
			c0.053,0.6,0.148,1.292,0.283,2.071c0.011,0.066,0.021,0.13,0.034,0.198L70.918,9.22c-0.077,0.059-0.148,0.178-0.216,0.36
			c-0.067,0.183-0.1,0.397-0.1,0.645c0.037,0.5,0.105,0.872,0.201,1.122c0.096,0.248,0.201,0.393,0.315,0.43
			c0.115,0.038,0.226,0.105,0.331,0.202c0.105,0.095,0.177,0.238,0.215,0.429c0.135,0.825,0.377,1.456,0.733,1.895
			c0.354,0.441,0.53,0.844,0.53,1.206c0,1.036-0.268,1.849-0.803,2.442c-0.537,0.593-1.028,1.177-2.464,1.75
			c-0.038,0.021-0.085,0.04-0.144,0.058c-0.42,0.173-0.756,0.32-1.005,0.445c-0.249,0.126-0.769,0.259-2.414,2.067
			c-1.352,1.484-1.974,9.712-1.974,9.712h17.623h5.68C87.426,31.982,87.167,24.357,86.18,22.877z"/>
		<path fill="#66160E" d="M87.426,32H64.123c-0.034,0-0.067-0.015-0.091-0.04c-0.023-0.024-0.035-0.059-0.032-0.093
			c0.025-0.336,0.642-8.234,2.005-9.733c1.472-1.618,2.069-1.877,2.357-2c0.035-0.015,0.065-0.028,0.092-0.042
			c0.247-0.122,0.578-0.269,1.014-0.448c0.059-0.019,0.099-0.035,0.132-0.053c1.37-0.547,1.857-1.088,2.372-1.658l0.06-0.066
			c0.512-0.567,0.772-1.361,0.772-2.359c0-0.333-0.169-0.712-0.503-1.128c-0.371-0.458-0.619-1.097-0.759-1.952
			c-0.032-0.16-0.092-0.281-0.176-0.358c-0.092-0.084-0.188-0.144-0.286-0.176c-0.153-0.05-0.281-0.214-0.392-0.502
			c-0.103-0.265-0.17-0.644-0.209-1.157c0-0.272,0.035-0.503,0.107-0.697c0.076-0.207,0.161-0.342,0.257-0.416l0.053-0.026
			l-0.019-0.107c-0.137-0.792-0.232-1.492-0.284-2.082c-0.04-0.375,0.005-0.797,0.134-1.251c0.126-0.445,0.343-0.929,0.644-1.436
			c0.306-0.515,0.812-0.95,1.501-1.297c0.496-0.248,1.07-0.408,1.708-0.476c0.259-0.027,0.499-0.04,0.73-0.04
			c0.933,0,1.749,0.174,2.426,0.517c0.677,0.345,1.177,0.781,1.485,1.296c0.303,0.511,0.519,0.995,0.643,1.437
			C79.994,6.108,80.04,6.53,80,6.908l-0.277,2.19c0.261,0.18,0.393,0.558,0.393,1.126c-0.04,0.527-0.114,0.906-0.225,1.17
			c-0.12,0.284-0.247,0.447-0.387,0.498c-0.09,0.032-0.183,0.091-0.275,0.177c-0.085,0.077-0.145,0.199-0.178,0.363
			c-0.136,0.835-0.387,1.492-0.742,1.947c-0.325,0.418-0.491,0.799-0.491,1.129c0,0.998,0.261,1.792,0.771,2.359
			c0.523,0.578,1.494,1.156,2.885,1.719c1.148,0.465,2.022,1.005,2.601,1.364c0.106,0.065,0.203,0.125,0.289,0.177
			c0.546,0.327,1.797,1.445,1.92,1.63c0.996,1.492,1.256,8.806,1.267,9.116c0,0.034-0.012,0.065-0.035,0.09
			C87.49,31.986,87.459,32,87.426,32z M64.257,31.753h23.041c-0.041-0.999-0.333-7.529-1.22-8.86
			c-0.099-0.149-1.303-1.232-1.842-1.556c-0.087-0.052-0.185-0.112-0.293-0.179c-0.571-0.354-1.434-0.888-2.563-1.345
			c-1.425-0.574-2.426-1.174-2.975-1.78c-0.555-0.615-0.835-1.465-0.835-2.525c0-0.387,0.182-0.818,0.542-1.281
			c0.331-0.422,0.563-1.041,0.694-1.839c0.044-0.221,0.13-0.388,0.254-0.501c0.119-0.108,0.236-0.183,0.359-0.227
			c0.023-0.008,0.114-0.062,0.241-0.361c0.1-0.235,0.169-0.6,0.206-1.083c0-0.511-0.112-0.832-0.333-0.941
			C79.487,9.251,79.46,9.2,79.467,9.148l0.287-2.269c0.036-0.345-0.006-0.735-0.126-1.158c-0.119-0.421-0.327-0.884-0.618-1.377
			c-0.284-0.474-0.75-0.879-1.386-1.203c-0.641-0.324-1.419-0.489-2.313-0.489c-0.223,0-0.454,0.013-0.704,0.039
			c-0.608,0.065-1.155,0.217-1.625,0.451c-0.646,0.325-1.118,0.729-1.399,1.203c-0.29,0.488-0.498,0.951-0.619,1.376
			c-0.12,0.424-0.162,0.813-0.125,1.16c0.052,0.584,0.146,1.277,0.281,2.063l0.034,0.195c0.011,0.055-0.018,0.11-0.067,0.134
			L70.972,9.33c-0.019,0.018-0.081,0.095-0.154,0.292c-0.061,0.166-0.092,0.369-0.092,0.602c0.035,0.474,0.101,0.839,0.193,1.078
			c0.11,0.288,0.204,0.346,0.238,0.357c0.131,0.043,0.258,0.12,0.375,0.228c0.124,0.113,0.209,0.28,0.252,0.497
			c0.131,0.805,0.37,1.423,0.708,1.841c0.37,0.462,0.558,0.894,0.558,1.283c0,1.061-0.281,1.91-0.835,2.525l-0.06,0.064
			c-0.511,0.568-1.041,1.154-2.45,1.717c-0.031,0.018-0.086,0.041-0.153,0.062c-0.42,0.173-0.747,0.317-0.987,0.437
			c-0.03,0.017-0.065,0.031-0.105,0.048c-0.271,0.117-0.836,0.361-2.272,1.94C64.973,23.636,64.344,30.692,64.257,31.753z"/>
	</g>
</g>
<g>
	<g>
		
			<linearGradient id="SVGID_4_" gradientUnits="userSpaceOnUse" x1="394.9082" y1="-256.7441" x2="415.4837" y2="-281.265" gradientTransform="matrix(1 0 0 -1 -357 -247.5)">
			<stop  offset="0" style="stop-color:#1D1D1B"/>
			<stop  offset="1" style="stop-color:#801D18"/>
		</linearGradient>
		<polygon fill="url(#SVGID_4_)" points="61.439,31.285 35.835,31.122 33,13.363 63,14.799 		"/>
		<polygon fill="none" stroke="#66160E" stroke-width="0.5" stroke-linecap="square" stroke-linejoin="round" points="
			61.439,31.285 35.835,31.122 33,13.363 63,14.799 		"/>
	</g>
	
		<linearGradient id="SVGID_5_" gradientUnits="userSpaceOnUse" x1="402.4551" y1="-1189.458" x2="402.4551" y2="-1173.0659" gradientTransform="matrix(1 0 0 1 -355 1202.793)">
		<stop  offset="0" style="stop-color:#E30613"/>
		<stop  offset="1" style="stop-color:#BE1622"/>
	</linearGradient>
	<polygon fill="url(#SVGID_5_)" stroke="#A42423" stroke-width="0.5" stroke-linejoin="round" points="60.276,29.727 34.633,29.727 
		33.125,13.335 61.785,13.335 	"/>
	
		<linearGradient id="SVGID_6_" gradientUnits="userSpaceOnUse" x1="404.4551" y1="-260.8345" x2="404.4551" y2="-257.3179" gradientTransform="matrix(1 0 0 -1 -357 -247.5)">
		<stop  offset="0" style="stop-color:#66160E"/>
		<stop  offset="0.2414" style="stop-color:#801D18"/>
		<stop  offset="0.5665" style="stop-color:#A42423"/>
	</linearGradient>
	<path fill="url(#SVGID_6_)" stroke="#66160E" stroke-width="0.5" stroke-linejoin="round" d="M42.662,12.373v-1.876
		c0-0.417-0.304-0.679-0.679-0.679h-6.936c-0.375,0-0.716,0.128-0.716,0.679v2.042l-1.207,0.795h28.661l-1.509-0.962L42.662,12.373
		L42.662,12.373z"/>
	<polygon fill="#FFFFFF" stroke="#A2195B" stroke-width="0.75" stroke-miterlimit="10" points="50.643,15.471 48.872,27.042 
		46.047,27.042 43.47,21.437 45.521,19.629 47.13,23.756 47.17,23.987 47.208,23.852 48.593,17.82 	"/>
</g>
<linearGradient id="SVGID_7_" gradientUnits="userSpaceOnUse" x1="2.5" y1="6" x2="9.5" y2="6">
	<stop  offset="0" style="stop-color:#E30613"/>
	<stop  offset="1" style="stop-color:#BE1622"/>
</linearGradient>
<rect x="2.5" y="2.5" fill="url(#SVGID_7_)" stroke="#A42423" width="7" height="7"/>
<linearGradient id="SVGID_8_" gradientUnits="userSpaceOnUse" x1="12.5" y1="6" x2="19.5" y2="6">
	<stop  offset="0" style="stop-color:#E30613"/>
	<stop  offset="1" style="stop-color:#BE1622"/>
</linearGradient>
<rect x="12.5" y="2.5" fill="url(#SVGID_8_)" stroke="#A42423" width="7" height="7"/>
<linearGradient id="SVGID_9_" gradientUnits="userSpaceOnUse" x1="22.5" y1="6" x2="29.5" y2="6">
	<stop  offset="0" style="stop-color:#E30613"/>
	<stop  offset="1" style="stop-color:#BE1622"/>
</linearGradient>
<rect x="22.5" y="2.5" fill="url(#SVGID_9_)" stroke="#A42423" width="7" height="7"/>
<linearGradient id="SVGID_10_" gradientUnits="userSpaceOnUse" x1="2.5" y1="16" x2="9.5" y2="16">
	<stop  offset="0" style="stop-color:#E30613"/>
	<stop  offset="1" style="stop-color:#BE1622"/>
</linearGradient>
<rect x="2.5" y="12.5" fill="url(#SVGID_10_)" stroke="#A42423" width="7" height="7"/>
<linearGradient id="SVGID_11_" gradientUnits="userSpaceOnUse" x1="12.5" y1="16" x2="19.5" y2="16">
	<stop  offset="0" style="stop-color:#E30613"/>
	<stop  offset="1" style="stop-color:#BE1622"/>
</linearGradient>
<rect x="12.5" y="12.5" fill="url(#SVGID_11_)" stroke="#A42423" width="7" height="7"/>
<linearGradient id="SVGID_12_" gradientUnits="userSpaceOnUse" x1="22.5" y1="16" x2="29.5" y2="16">
	<stop  offset="0" style="stop-color:#E30613"/>
	<stop  offset="1" style="stop-color:#BE1622"/>
</linearGradient>
<rect x="22.5" y="12.5" fill="url(#SVGID_12_)" stroke="#A42423" width="7" height="7"/>
<linearGradient id="SVGID_13_" gradientUnits="userSpaceOnUse" x1="2.5" y1="26" x2="9.5" y2="26">
	<stop  offset="0" style="stop-color:#E30613"/>
	<stop  offset="1" style="stop-color:#BE1622"/>
</linearGradient>
<rect x="2.5" y="22.5" fill="url(#SVGID_13_)" stroke="#A42423" width="7" height="7"/>
<linearGradient id="SVGID_14_" gradientUnits="userSpaceOnUse" x1="12.5" y1="26" x2="19.5" y2="26">
	<stop  offset="0" style="stop-color:#E30613"/>
	<stop  offset="1" style="stop-color:#BE1622"/>
</linearGradient>
<rect x="12.5" y="22.5" fill="url(#SVGID_14_)" stroke="#A42423" width="7" height="7"/>
<linearGradient id="SVGID_15_" gradientUnits="userSpaceOnUse" x1="22.5" y1="26" x2="29.5" y2="26">
	<stop  offset="0" style="stop-color:#E30613"/>
	<stop  offset="1" style="stop-color:#BE1622"/>
</linearGradient>
<rect x="22.5" y="22.5" fill="url(#SVGID_15_)" stroke="#A42423" width="7" height="7"/>
<g>
	<polygon fill="#676767" points="131.887,3.117 131.887,28.262 152.902,28.262 152.902,22.544 150.665,24.816 150.21,25.278 
		149.562,25.278 142.258,25.278 138.827,25.278 141.097,22.705 147.37,15.592 141.097,8.478 138.827,5.904 142.258,5.904 
		149.562,5.904 150.21,5.904 150.665,6.367 152.902,8.64 152.902,3.117 	"/>
	<polygon fill="#353534" points="152.902,28.262 131.887,28.262 131.887,3.117 152.902,3.117 152.902,8.64 153.29,9.034 
		153.29,2.73 131.5,2.73 131.5,28.648 153.29,28.648 153.29,22.15 152.902,22.544 	"/>
	<polygon fill="#676767" points="142.688,7.647 149.694,15.592 142.688,23.536 149.479,23.536 152.902,20.06 152.902,11.124 
		149.479,7.647 	"/>
	<polygon fill="#353534" points="153.29,19.667 153.29,11.517 152.902,11.124 152.902,20.06 	"/>
	<polygon fill="#676767" points="153.29,11.517 152.902,11.124 149.479,7.647 142.688,7.647 149.694,15.592 142.688,23.536 
		149.479,23.536 152.902,20.06 153.29,19.667 157.303,15.592 	"/>
	<linearGradient id="SVGID_16_" gradientUnits="userSpaceOnUse" x1="141.8291" y1="15.5918" x2="157.8457" y2="15.5918">
		<stop  offset="0.3103" style="stop-color:#E30613"/>
		<stop  offset="1" style="stop-color:#BE1622"/>
	</linearGradient>
	<path fill="url(#SVGID_16_)" d="M149.643,23.924h-7.813l7.349-8.332l-7.349-8.333h7.813l8.203,8.333L149.643,23.924z"/>
	<linearGradient id="SVGID_17_" gradientUnits="userSpaceOnUse" x1="141.8291" y1="15.5918" x2="157.8457" y2="15.5918">
		<stop  offset="0" style="stop-color:#66160E"/>
		<stop  offset="0.2414" style="stop-color:#801D18"/>
		<stop  offset="0.5665" style="stop-color:#A42423"/>
	</linearGradient>
	<path fill="url(#SVGID_17_)" d="M141.829,7.259l7.349,8.333l-7.349,8.332h7.813l8.203-8.332l-8.203-8.333H141.829z M153.29,11.517
		l4.013,4.075l-4.013,4.075l-0.388,0.393l-3.423,3.477h-6.792l7.007-7.944l-7.007-7.945h6.792l3.423,3.477L153.29,11.517z"/>
</g>
</svg>
