<?xml version="1.0" encoding="utf-8"?>
<!-- Generator: Adobe Illustrator 16.0.0, SVG Export Plug-In . SVG Version: 6.00 Build 0)  -->
<!DOCTYPE svg PUBLIC "-//W3C//DTD SVG 1.1//EN" "http://www.w3.org/Graphics/SVG/1.1/DTD/svg11.dtd">
<svg version="1.1" id="Ebene_1" xmlns="http://www.w3.org/2000/svg" xmlns:xlink="http://www.w3.org/1999/xlink" x="0px" y="0px"
	 width="64px" height="64px" viewBox="0 0 64 64" enable-background="new 0 0 64 64" xml:space="preserve">
<g id="Kalender">
	<g>
		<path fill="#C6C6C6" d="M63.635,61.771H7.083c0,0,1.992-4.79,1.992-40.728c11.524,0,37.489,0,52.568,0
			C61.644,57.48,63.635,61.771,63.635,61.771z"/>
		<path fill="#9C9B9B" d="M63.635,62.009H6.724l0.139-0.331c0.019-0.048,1.974-5.326,1.974-40.635v-0.238h53.046v0.238
			c0,35.746,1.891,40.445,1.969,40.628L64,62.007L63.635,62.009z M7.406,61.531h55.896c-0.428-1.517-1.893-8.98-1.898-40.25H9.313
			C9.306,52.349,7.822,59.999,7.406,61.531z"/>
	</g>
	<g>
		<path fill="#C6C6C6" d="M62.97,63.096H7.747c0,0,1.328-6.115,1.328-42.053c11.524,0,37.489,0,52.568,0
			C61.644,57.48,62.97,63.096,62.97,63.096z"/>
		<path fill="#9C9B9B" d="M63.274,63.337H7.451l0.062-0.291c0.014-0.062,1.322-6.569,1.322-42.003v-0.238h53.046v0.238
			c0,35.993,1.309,41.942,1.322,41.998L63.274,63.337z M8.031,62.857h54.651c-0.257-1.516-1.275-9.562-1.278-41.576H9.313
			C9.308,53.017,8.281,61.314,8.031,62.857z"/>
	</g>
	<g>
		<polygon fill="#C6C6C6" points="62.307,63.762 8.41,63.762 9.738,23.7 60.978,23.7 		"/>
		<path fill="#9C9B9B" d="M62.554,64H8.163l0.009-0.246l1.336-40.293H61.21l0.008,0.231L62.554,64z M8.657,63.523H62.06
			l-1.312-39.585H9.969L8.657,63.523z"/>
	</g>
	<g>
		<g>
			<polygon fill="#C6C6C6" points="61.644,63.096 9.075,63.096 9.738,23.034 60.978,23.034 			"/>
			<path fill="#9C9B9B" d="M61.886,63.337H8.832l0.004-0.243l0.668-40.298h51.71L61.886,63.337z M9.317,62.857H61.4l-0.657-39.583
				H9.973L9.317,62.857z"/>
		</g>
		<g>
			<polygon fill="#C6C6C6" points="61.644,62.433 9.738,62.433 9.738,23.034 60.978,23.034 			"/>
			<path fill="#9C9B9B" d="M61.886,62.671H9.5V22.796h51.714l0.004,0.235L61.886,62.671z M9.977,62.194H61.4l-0.657-38.92H9.977
				V62.194z"/>
		</g>
		<g>
			<polygon fill="#C6C6C6" points="60.978,61.771 9.075,61.771 9.738,21.708 60.978,21.708 			"/>
			<path fill="#9C9B9B" d="M61.218,62.009H8.832l0.004-0.242l0.668-40.298h51.714V62.009z M9.317,61.531h51.422V21.947H9.973
				L9.317,61.531z"/>
		</g>
		<g>
			<linearGradient id="SVGID_1_" gradientUnits="userSpaceOnUse" x1="35.3594" y1="21.043" x2="35.3594" y2="61.1045">
				<stop  offset="0.4877" style="stop-color:#FFFFFF"/>
				<stop  offset="1" style="stop-color:#ECECEC"/>
			</linearGradient>
			<rect x="9.075" y="21.043" fill="url(#SVGID_1_)" width="52.568" height="40.062"/>
			<path fill="#9C9B9B" d="M62.001,61.464H8.717V20.686h53.284V61.464z M9.433,60.747h51.851V21.402H9.433V60.747z"/>
		</g>
		<g>
			<polygon fill="#A42423" points="61.713,22.674 9.035,22.674 8.467,21.486 62.251,21.486 			"/>
			<path fill="#801D18" d="M61.713,22.912H9.035c-0.09,0-0.175-0.052-0.214-0.134l-0.57-1.188c-0.035-0.075-0.032-0.162,0.013-0.231
				c0.044-0.07,0.121-0.111,0.203-0.111h53.784c0.082,0,0.155,0.04,0.201,0.108c0.043,0.068,0.05,0.155,0.017,0.229l-0.539,1.188
				C61.893,22.857,61.806,22.912,61.713,22.912z M9.187,22.436h52.372l0.322-0.711H8.845L9.187,22.436z"/>
		</g>
		<g>
			<linearGradient id="SVGID_2_" gradientUnits="userSpaceOnUse" x1="8.4668" y1="13.1865" x2="62.251" y2="13.1865">
				<stop  offset="0" style="stop-color:#E30613"/>
				<stop  offset="1" style="stop-color:#BE1622"/>
			</linearGradient>
			<rect x="8.467" y="4.887" fill="url(#SVGID_2_)" width="53.784" height="16.6"/>
			<path fill="#801D18" d="M62.251,21.725H8.467c-0.132,0-0.24-0.106-0.24-0.238v-16.6c0-0.132,0.108-0.238,0.24-0.238h53.784
				c0.132,0,0.238,0.106,0.238,0.238v16.6C62.489,21.618,62.383,21.725,62.251,21.725z M8.705,21.248h53.308V5.125H8.705V21.248z"/>
		</g>
		<g>
			<path fill="#801D18" d="M54.408,5.839c0,3.186-1.09,4.44-1.619,4.44c-0.525,0-0.952-1.255-0.952-4.44
				c0-0.325,0.005-0.645,0.011-0.954c0.816,0,1.731-0.004,2.549-0.004C54.406,5.191,54.408,5.513,54.408,5.839z"/>
			<path fill="#801D18" d="M52.789,10.519c-0.803,0-1.193-1.532-1.193-4.68c0-0.327,0.005-0.649,0.014-0.961l0.007-0.231
				l3.011-0.004l0.008,0.23c0.01,0.313,0.014,0.637,0.014,0.966C54.648,9.031,53.539,10.519,52.789,10.519z M52.083,5.123
				c-0.005,0.234-0.008,0.473-0.008,0.716c0,3.445,0.518,4.2,0.714,4.2c0.294,0,1.381-1.05,1.381-4.2
				c0-0.244-0.002-0.484-0.008-0.72L52.083,5.123z"/>
		</g>
		<g>
			<rect x="50.369" y="10.833" fill="#3C3C3B" width="2.987" height="1.549"/>
			<path fill="#1D1D1B" d="M53.596,12.62h-3.465v-2.026h3.465V12.62z M50.607,12.144h2.511v-1.072h-2.511V12.144z"/>
		</g>
		<g>
			<linearGradient id="SVGID_3_" gradientUnits="userSpaceOnUse" x1="51.8477" y1="11.5264" x2="51.8477" y2="0.2383">
				<stop  offset="0" style="stop-color:#6F6F6F"/>
				<stop  offset="0.3793" style="stop-color:#C6C6C5"/>
				<stop  offset="1" style="stop-color:#3C3C3B"/>
			</linearGradient>
			<rect x="50.852" y="0.238" fill="url(#SVGID_3_)" width="1.992" height="11.288"/>
			<path fill="#6F6F6F" d="M53.084,11.766h-2.471V0h2.471V11.766z M51.093,11.286h1.512V0.477h-1.512V11.286z"/>
		</g>
		<g>
			<path fill="#801D18" d="M21.872,5.839c0,3.186-1.091,4.44-1.618,4.44s-0.955-1.255-0.955-4.44c0-0.325,0.005-0.645,0.014-0.954
				c0.817,0,1.729-0.004,2.547-0.004C21.868,5.191,21.872,5.513,21.872,5.839z"/>
			<path fill="#801D18" d="M20.254,10.519c-0.804,0-1.193-1.532-1.193-4.68c0-0.327,0.004-0.649,0.013-0.961l0.007-0.231
				l3.013-0.004l0.005,0.231c0.009,0.312,0.013,0.637,0.013,0.965C22.11,9.031,21.003,10.519,20.254,10.519z M19.545,5.123
				c-0.005,0.234-0.008,0.473-0.008,0.716c0,3.445,0.518,4.2,0.717,4.2c0.291,0,1.38-1.05,1.38-4.2c0-0.244-0.002-0.484-0.007-0.72
				L19.545,5.123z"/>
		</g>
		<g>
			<rect x="17.779" y="10.833" fill="#3C3C3B" width="2.987" height="1.549"/>
			<path fill="#1D1D1B" d="M21.006,12.62h-3.467v-2.026h3.467V12.62z M18.018,12.144h2.511v-1.072h-2.511V12.144z"/>
		</g>
		<g>
			<linearGradient id="SVGID_4_" gradientUnits="userSpaceOnUse" x1="19.3125" y1="11.5264" x2="19.3125" y2="0.2383">
				<stop  offset="0" style="stop-color:#6F6F6F"/>
				<stop  offset="0.3793" style="stop-color:#C6C6C5"/>
				<stop  offset="1" style="stop-color:#3C3C3B"/>
			</linearGradient>
			<rect x="18.316" y="0.238" fill="url(#SVGID_4_)" width="1.992" height="11.288"/>
			<path fill="#6F6F6F" d="M20.547,11.766h-2.469V0h2.469V11.766z M18.556,11.286h1.514V0.477h-1.514V11.286z"/>
		</g>
	</g>
	<g>
		<polygon fill-rule="evenodd" clip-rule="evenodd" fill="#3C3C3B" points="48.121,52.061 44.131,52.061 44.131,32.105 
			40.141,32.105 40.141,28.113 48.121,28.113 		"/>
		<path fill="#1D1D1B" d="M48.359,52.299h-4.467V32.344h-3.99v-4.469h8.457V52.299z M44.37,51.822h3.513v-23.47h-7.504v3.515h3.991
			V51.822z"/>
	</g>
	<g>
		<path fill-rule="evenodd" clip-rule="evenodd" fill="#3C3C3B" d="M25.101,46.073c0,1.684,0.343,1.997,1.244,1.997h3.807
			c1.077,0,0.938-0.942,0.938-2.902v-0.188c0-1.908-0.086-2.862-1.618-2.862h-2.375v-4.023h2.263c1.607,0,1.73-1.051,1.73-3.209
			c0-1.809,0.241-2.672-0.639-2.672h-4.482c-0.626,0-0.868,0.205-0.868,1.887h-3.99c0-4.318,1.926-5.986,5.492-5.986h3.802
			c3.211,0,4.676,1.978,4.676,5.644v2.373c0,1.933-0.866,3.205-1.996,3.958c1.13,0.755,1.996,2.029,1.996,3.688v2.484
			c0,3.867-1.263,5.8-4.779,5.8H26.46c-3.565,0-5.35-1.668-5.35-5.987H25.101z"/>
		<path fill="#1D1D1B" d="M30.301,52.299H26.46c-3.866,0-5.588-1.919-5.588-6.226v-0.238h4.47v0.238c0,1.68,0.343,1.758,1.003,1.758
			h3.807c0.294,0,0.407-0.08,0.467-0.141c0.249-0.251,0.243-0.949,0.234-1.914l-0.003-0.797c0-1.982-0.106-2.623-1.378-2.623h-2.614
			v-4.504h2.502c1.296,0,1.49-0.668,1.49-2.968c0-0.359,0.01-0.683,0.019-0.969c0.021-0.68,0.036-1.217-0.125-1.383
			c-0.021-0.02-0.081-0.082-0.292-0.082h-4.482c-0.405,0-0.627,0-0.627,1.648v0.24h-4.47V34.1c0-4.247,1.821-6.225,5.73-6.225h3.802
			c3.26,0,4.915,1.979,4.915,5.882v2.373c0,2.061-0.937,3.272-1.826,3.958c1.163,0.895,1.826,2.222,1.826,3.688v2.484
			C35.319,50.438,33.771,52.299,30.301,52.299z M21.351,46.312c0.06,3.857,1.6,5.51,5.109,5.51h3.841
			c3.226,0,4.541-1.61,4.541-5.562v-2.484c0-1.416-0.689-2.688-1.891-3.491l-0.297-0.197l0.297-0.199
			c0.862-0.575,1.891-1.693,1.891-3.759v-2.373c0-3.637-1.452-5.404-4.438-5.404h-3.802c-3.56,0-5.188,1.701-5.252,5.509h3.514
			c0.019-1.329,0.205-1.889,1.104-1.889h4.482c0.277,0,0.485,0.075,0.635,0.229c0.302,0.311,0.286,0.845,0.259,1.729
			c-0.007,0.282-0.017,0.6-0.017,0.954c0,1.849,0,3.447-1.969,3.447h-2.022v3.547h2.135c1.856,0,1.856,1.368,1.856,3.101
			l0.003,0.793c0.011,1.161,0.015,1.863-0.372,2.254c-0.188,0.19-0.453,0.282-0.808,0.282h-3.807c-1.065,0-1.444-0.491-1.479-1.996
			H21.351z"/>
	</g>
</g>
</svg>
