<?xml version="1.0" encoding="utf-8"?>
<!-- Generator: Adobe Illustrator 16.0.0, SVG Export Plug-In . SVG Version: 6.00 Build 0)  -->
<!DOCTYPE svg PUBLIC "-//W3C//DTD SVG 1.1//EN" "http://www.w3.org/Graphics/SVG/1.1/DTD/svg11.dtd">
<svg version="1.1" id="Ebene_1" xmlns="http://www.w3.org/2000/svg" xmlns:xlink="http://www.w3.org/1999/xlink" x="0px" y="0px"
	 width="64px" height="64px" viewBox="0 0 64 64" enable-background="new 0 0 64 64" xml:space="preserve">
<g>
	<g>
		
			<linearGradient id="SVGID_1_" gradientUnits="userSpaceOnUse" x1="303.2344" y1="408.3145" x2="303.2344" y2="431.1191" gradientTransform="matrix(0.8692 -0.4945 0.4945 0.8692 -426.0587 -178.9084)">
			<stop  offset="0" style="stop-color:#B9A483"/>
			<stop  offset="1" style="stop-color:#928269"/>
		</linearGradient>
		<polygon fill-rule="evenodd" clip-rule="evenodd" fill="url(#SVGID_1_)" points="60.61,40.233 40.79,51.509 29.515,31.688 
			49.335,20.411 		"/>
		<path fill="#6C5A4F" d="M49.052,21.438l10.531,18.513L41.073,50.48L30.542,31.97L49.052,21.438 M49.335,20.411l-19.82,11.276
			L40.79,51.509l19.82-11.275L49.335,20.411L49.335,20.411z"/>
	</g>
</g>
<polygon fill="#6F6F6E" points="38.681,58.01 10.271,8.07 2.107,7.921 2.163,4.906 12.044,5.089 39.812,53.897 62.508,40.984 
	64,43.604 "/>
<rect x="28.007" y="38.845" fill="#6F6F6E" width="3.015" height="20.571"/>
<g>
	<linearGradient id="SVGID_2_" gradientUnits="userSpaceOnUse" x1="22.4575" y1="57.1436" x2="36.1709" y2="57.1436">
		<stop  offset="0" style="stop-color:#E20613"/>
		<stop  offset="1" style="stop-color:#BD1622"/>
	</linearGradient>
	<path fill="url(#SVGID_2_)" d="M35.271,53.752c1.874,3.294,0.723,7.481-2.566,9.351c-3.292,1.872-7.478,0.721-9.349-2.567
		c-1.873-3.292-0.724-7.477,2.567-9.351C29.214,49.312,33.399,50.463,35.271,53.752z"/>
	<path fill="#1D1D1B" d="M29.308,52.297L29.308,52.297c1.741,0,3.357,0.938,4.217,2.449c0.641,1.126,0.805,2.434,0.462,3.684
		c-0.343,1.248-1.151,2.287-2.274,2.927c-0.73,0.415-1.558,0.634-2.391,0.634c-1.742,0-3.358-0.938-4.218-2.449
		c-1.321-2.321-0.507-5.287,1.813-6.609C27.647,52.517,28.474,52.298,29.308,52.297 M29.307,50.286
		c-1.148,0.001-2.313,0.29-3.383,0.898c-3.291,1.874-4.44,6.059-2.567,9.351C24.62,62.755,26.936,64,29.321,64
		c1.148,0,2.313-0.288,3.384-0.897c3.289-1.869,4.44-6.057,2.566-9.351C34.008,51.532,31.691,50.286,29.307,50.286L29.307,50.286z"
		/>
</g>
<g>
	<g>
		<g>
			<g>
				<linearGradient id="SVGID_3_" gradientUnits="userSpaceOnUse" x1="0.377" y1="6.4141" x2="7.3608" y2="6.4141">
					<stop  offset="0" style="stop-color:#E20613"/>
					<stop  offset="1" style="stop-color:#BD1622"/>
				</linearGradient>
				<rect x="0.377" y="3.754" fill="url(#SVGID_3_)" width="6.984" height="5.319"/>
				<path fill="#8A1002" d="M7.738,9.45H0V3.377h7.738V9.45z M0.754,8.696h6.23V4.131h-6.23V8.696z"/>
			</g>
		</g>
	</g>
</g>
</svg>
