<?xml version="1.0" encoding="utf-8"?>
<!-- Generator: Adobe Illustrator 16.0.0, SVG Export Plug-In . SVG Version: 6.00 Build 0)  -->
<!DOCTYPE svg PUBLIC "-//W3C//DTD SVG 1.1//EN" "http://www.w3.org/Graphics/SVG/1.1/DTD/svg11.dtd">
<svg version="1.1" id="Ebene_1" xmlns="http://www.w3.org/2000/svg" xmlns:xlink="http://www.w3.org/1999/xlink" x="0px" y="0px"
	 width="64px" height="64px" viewBox="0 0 64 64" enable-background="new 0 0 64 64" xml:space="preserve">
<g>
	<linearGradient id="SVGID_1_" gradientUnits="userSpaceOnUse" x1="1.5801" y1="31.999" x2="63.8643" y2="31.999">
		<stop  offset="0" style="stop-color:#FFFFFF"/>
		<stop  offset="1" style="stop-color:#F4F4F6"/>
	</linearGradient>
	<circle fill="url(#SVGID_1_)" cx="32.722" cy="32" r="31.142"/>
	<g>
		<path fill="#605F61" d="M32-0.001C14.355-0.001,0,14.355,0,32c0,17.646,14.355,32,32,32s32-14.354,32-32
			C64,14.355,49.646-0.001,32-0.001z M53.566,52.625l-4.137-4.136l-0.944,0.943l4.138,4.137c-5.215,4.99-12.227,8.108-19.956,8.279
			v-5.866h-1.334v5.866c-7.73-0.171-14.741-3.289-19.956-8.279l4.14-4.139l-0.945-0.943l-4.138,4.138
			C5.445,47.412,2.325,40.4,2.153,32.672h5.87v-1.335h-5.87c0.17-7.73,3.289-14.745,8.278-19.96l4.141,4.14l0.945-0.942l-4.142-4.14
			c5.215-4.993,12.228-8.112,19.958-8.282v5.87h1.334v-5.87c7.73,0.17,14.744,3.289,19.958,8.282l-4.141,4.14l0.944,0.942
			l4.14-4.139c4.989,5.214,8.108,12.229,8.278,19.959h-5.866v1.335h5.866C61.677,40.4,58.557,47.412,53.566,52.625z"/>
		<g>
			<linearGradient id="SVGID_2_" gradientUnits="userSpaceOnUse" x1="20.6689" y1="19.9072" x2="44.7754" y2="19.9072">
				<stop  offset="0" style="stop-color:#E20613"/>
				<stop  offset="1" style="stop-color:#BD1622"/>
			</linearGradient>
			<path fill="url(#SVGID_2_)" d="M44.203,19.501L33.346,29.528c-0.264-0.145-0.547-0.253-0.854-0.304L21.724,4.988l-1.055,0.426
				l9.083,24.893c-0.355,0.476-0.575,1.057-0.575,1.693c0,1.562,1.263,2.827,2.824,2.827c1.562,0,2.825-1.265,2.825-2.827
				c0-0.339-0.069-0.661-0.18-0.96l10.13-10.967L44.203,19.501z"/>
			<path fill="#A2195B" d="M32,35.086c-1.7,0-3.084-1.384-3.084-3.086c0-0.617,0.188-1.212,0.544-1.733l-9.121-25l1.519-0.613
				l10.815,24.343c0.21,0.048,0.421,0.121,0.629,0.22L44.21,19.142l0.926,0.925L34.94,31.103c0.097,0.3,0.144,0.603,0.144,0.897
				C35.084,33.702,33.701,35.086,32,35.086z M20.999,5.561l9.044,24.791l-0.084,0.11c-0.342,0.457-0.523,0.988-0.523,1.538
				c0,1.416,1.151,2.567,2.565,2.567c1.414,0,2.565-1.151,2.565-2.567c0-0.287-0.054-0.572-0.163-0.872l-0.054-0.148L44.417,20.08
				l-0.222-0.219l-10.812,9.985l-0.163-0.09c-0.258-0.143-0.511-0.233-0.773-0.277l-0.136-0.024L21.589,5.322L20.999,5.561z"/>
		</g>
	</g>
</g>
</svg>
