<?xml version="1.0" encoding="utf-8"?>
<!-- Generator: Adobe Illustrator 16.0.0, SVG Export Plug-In . SVG Version: 6.00 Build 0)  -->
<!DOCTYPE svg PUBLIC "-//W3C//DTD SVG 1.1//EN" "http://www.w3.org/Graphics/SVG/1.1/DTD/svg11.dtd">
<svg version="1.1" id="Ebene_1" xmlns="http://www.w3.org/2000/svg" xmlns:xlink="http://www.w3.org/1999/xlink" x="0px" y="0px"
	 width="64px" height="64px" viewBox="0 0 64 64" enable-background="new 0 0 64 64" xml:space="preserve">
<g>
	<g>
		<g>
			<linearGradient id="SVGID_1_" gradientUnits="userSpaceOnUse" x1="0.4912" y1="29.5244" x2="63.5088" y2="29.5244">
				<stop  offset="0" style="stop-color:#FFFFFF"/>
				<stop  offset="1" style="stop-color:#F5F5F6"/>
			</linearGradient>
			<path fill="url(#SVGID_1_)" d="M17.016,44.846H0.491V0.492h63.018v44.354H37.526L17.016,58.558V44.846z"/>
			<path fill="#9D9D9C" d="M16.524,59.478v-14.14H0V0h64v45.338H37.675L16.524,59.478z M0.983,44.354h16.524v13.282l19.869-13.282
				h25.64V0.983H0.983V44.354z"/>
		</g>
	</g>
	<g>
		<linearGradient id="SVGID_2_" gradientUnits="userSpaceOnUse" x1="7.4951" y1="10.9404" x2="49.8252" y2="10.9404">
			<stop  offset="0" style="stop-color:#E20613"/>
			<stop  offset="1" style="stop-color:#BD1622"/>
		</linearGradient>
		<rect x="7.495" y="9.088" fill="url(#SVGID_2_)" width="42.33" height="3.704"/>
		<linearGradient id="SVGID_3_" gradientUnits="userSpaceOnUse" x1="7.4951" y1="18.5537" x2="47.1426" y2="18.5537">
			<stop  offset="0" style="stop-color:#E20613"/>
			<stop  offset="1" style="stop-color:#BD1622"/>
		</linearGradient>
		<rect x="7.495" y="16.7" fill="url(#SVGID_3_)" width="39.647" height="3.707"/>
		<linearGradient id="SVGID_4_" gradientUnits="userSpaceOnUse" x1="7.4951" y1="26.167" x2="52.5059" y2="26.167">
			<stop  offset="0" style="stop-color:#E20613"/>
			<stop  offset="1" style="stop-color:#BD1622"/>
		</linearGradient>
		<rect x="7.495" y="24.315" fill="url(#SVGID_4_)" width="45.011" height="3.702"/>
		<linearGradient id="SVGID_5_" gradientUnits="userSpaceOnUse" x1="7.4951" y1="33.7803" x2="49.5352" y2="33.7803">
			<stop  offset="0" style="stop-color:#E20613"/>
			<stop  offset="1" style="stop-color:#BD1622"/>
		</linearGradient>
		<rect x="7.495" y="31.928" fill="url(#SVGID_5_)" width="42.04" height="3.706"/>
	</g>
</g>
</svg>
