<?xml version="1.0" encoding="utf-8"?>
<!-- Generator: Adobe Illustrator 16.0.0, SVG Export Plug-In . SVG Version: 6.00 Build 0)  -->
<!DOCTYPE svg PUBLIC "-//W3C//DTD SVG 1.1//EN" "http://www.w3.org/Graphics/SVG/1.1/DTD/svg11.dtd">
<svg version="1.1" id="Ebene_1" xmlns="http://www.w3.org/2000/svg" xmlns:xlink="http://www.w3.org/1999/xlink" x="0px" y="0px"
	 width="64px" height="64px" viewBox="0 0 64 64" enable-background="new 0 0 64 64" xml:space="preserve">
<g>
	<g>
		<linearGradient id="SVGID_1_" gradientUnits="userSpaceOnUse" x1="0.3916" y1="39.3311" x2="38.9463" y2="39.3311">
			<stop  offset="0.3103" style="stop-color:#E30613"/>
			<stop  offset="1" style="stop-color:#BE1622"/>
		</linearGradient>
		<path fill="url(#SVGID_1_)" d="M3.657,47.627c2.72-2.993,3.581-3.125,3.993-3.333c0.413-0.207,0.969-0.45,1.663-0.736
			c0.096-0.03,0.175-0.062,0.239-0.097c2.373-0.947,3.188-1.911,4.077-2.896c0.885-0.982,1.327-2.326,1.327-4.04
			c0-0.599-0.29-1.265-0.877-1.994c-0.587-0.727-0.991-1.771-1.211-3.135c-0.063-0.318-0.184-0.555-0.357-0.712
			c-0.175-0.16-0.355-0.27-0.547-0.332c-0.188-0.062-0.362-0.301-0.521-0.711c-0.158-0.413-0.271-1.028-0.333-1.855
			c0-0.411,0.055-0.766,0.165-1.069c0.111-0.299,0.229-0.498,0.357-0.595l0.189-0.094c-0.021-0.109-0.035-0.217-0.057-0.326
			c-0.221-1.288-0.379-2.433-0.466-3.426c-0.063-0.604,0.007-1.268,0.213-1.998c0.206-0.724,0.555-1.502,1.046-2.325
			c0.491-0.824,1.292-1.512,2.397-2.066c0.81-0.404,1.731-0.656,2.757-0.768c0.384-0.04,0.777-0.065,1.188-0.065
			c1.521,0,2.828,0.278,3.92,0.833c1.093,0.555,1.882,1.242,2.375,2.066c0.49,0.823,0.841,1.602,1.045,2.325
			c0.207,0.73,0.277,1.395,0.213,1.998l-0.474,3.752c0.443,0.22,0.663,0.809,0.663,1.758c-0.063,0.827-0.181,1.442-0.354,1.855
			c-0.175,0.41-0.351,0.649-0.522,0.711c-0.179,0.062-0.349,0.172-0.524,0.332c-0.174,0.157-0.292,0.394-0.355,0.712
			c-0.222,1.364-0.619,2.408-1.188,3.135c-0.569,0.729-0.854,1.396-0.854,1.994c0,1.714,0.443,3.058,1.33,4.04
			c0.887,0.984,2.501,1.948,4.845,2.896c2.239,0.906,3.851,1.994,4.753,2.536c0.905,0.543,2.932,2.363,3.113,2.635
			c1.634,2.45,2.061,14.977,2.061,14.977H29.55H0.392C0.392,63.608,1.423,50.083,3.657,47.627z"/>
		<path fill="#801D18" d="M38.946,64H0.392c-0.109,0-0.213-0.047-0.287-0.125c-0.075-0.079-0.111-0.188-0.104-0.297
			c0.044-0.559,1.067-13.688,3.366-16.215c2.462-2.71,3.439-3.129,3.965-3.356l0.144-0.063c0.419-0.209,0.982-0.457,1.689-0.748
			c0.101-0.033,0.158-0.057,0.206-0.08c2.244-0.9,3.036-1.78,3.876-2.712l0.091-0.1c0.814-0.904,1.228-2.175,1.228-3.778
			c0-0.508-0.266-1.095-0.791-1.75c-0.627-0.774-1.062-1.891-1.292-3.315c-0.044-0.217-0.122-0.385-0.234-0.484
			c-0.134-0.124-0.267-0.207-0.404-0.25c-0.314-0.104-0.556-0.404-0.766-0.941c-0.176-0.457-0.291-1.101-0.358-1.97
			c-0.001-0.49,0.062-0.882,0.19-1.232c0.14-0.378,0.292-0.622,0.479-0.767l-0.007-0.045c-0.228-1.31-0.385-2.472-0.472-3.459
			c-0.069-0.646,0.009-1.368,0.228-2.139c0.215-0.756,0.578-1.57,1.086-2.42c0.524-0.883,1.386-1.629,2.558-2.216
			c0.839-0.42,1.811-0.69,2.893-0.807c0.396-0.042,0.804-0.068,1.228-0.068c1.573,0,2.952,0.294,4.099,0.875
			c1.15,0.586,2.004,1.331,2.534,2.216c0.507,0.854,0.87,1.667,1.084,2.42c0.218,0.771,0.296,1.495,0.225,2.146l-0.444,3.518
			c0.423,0.354,0.639,1.006,0.639,1.95c-0.07,0.904-0.196,1.552-0.388,2.009c-0.225,0.527-0.462,0.821-0.749,0.927
			c-0.126,0.043-0.254,0.127-0.395,0.254c-0.109,0.099-0.188,0.268-0.233,0.499c-0.229,1.405-0.655,2.521-1.265,3.298
			c-0.512,0.657-0.771,1.246-0.771,1.753c0,1.604,0.412,2.873,1.228,3.778c0.844,0.934,2.426,1.875,4.704,2.795
			c1.912,0.773,3.365,1.671,4.326,2.269l0.482,0.295c0.884,0.529,2.989,2.387,3.234,2.752c1.677,2.516,2.109,14.664,2.127,15.182
			c0.003,0.104-0.036,0.209-0.109,0.285C39.153,63.956,39.053,64,38.946,64z M0.816,63.216h37.725
			c-0.148-3.729-0.739-12.505-1.981-14.366c-0.161-0.221-2.099-1.983-2.987-2.518l-0.491-0.298c-0.938-0.583-2.355-1.462-4.207-2.21
			c-2.423-0.979-4.056-1.958-4.991-2.997c-0.948-1.052-1.431-2.498-1.431-4.302c0-0.686,0.315-1.438,0.938-2.234
			c0.529-0.674,0.902-1.669,1.111-2.958c0.081-0.411,0.242-0.723,0.479-0.938c0.22-0.199,0.436-0.334,0.658-0.411h-0.001
			c-0.003,0,0.114-0.081,0.293-0.495c0.153-0.369,0.265-0.952,0.323-1.733c-0.001-0.733-0.16-1.232-0.446-1.375
			c-0.15-0.073-0.236-0.235-0.217-0.399l0.476-3.752c0.059-0.545-0.01-1.167-0.2-1.843c-0.195-0.688-0.534-1.438-1.005-2.232
			c-0.451-0.754-1.197-1.399-2.217-1.917c-1.034-0.525-2.293-0.792-3.742-0.792c-0.396,0-0.777,0.027-1.146,0.064
			c-0.986,0.106-1.869,0.352-2.623,0.729c-1.036,0.52-1.789,1.164-2.237,1.916c-0.471,0.791-0.81,1.542-1.005,2.232
			c-0.19,0.675-0.259,1.298-0.2,1.851c0.085,0.971,0.241,2.114,0.462,3.399l0.056,0.318c0.034,0.174-0.054,0.35-0.212,0.427
			l-0.181,0.089c0.023-0.016-0.058,0.075-0.172,0.385c-0.093,0.257-0.142,0.569-0.142,0.932c0.059,0.751,0.163,1.338,0.308,1.715
			c0.163,0.418,0.279,0.48,0.28,0.481c0.238,0.076,0.471,0.215,0.687,0.412c0.236,0.217,0.397,0.528,0.477,0.926
			c0.211,1.303,0.592,2.296,1.133,2.966c0.639,0.796,0.964,1.549,0.964,2.239c0,1.804-0.481,3.251-1.429,4.302l-0.092,0.103
			c-0.863,0.956-1.756,1.946-4.132,2.896c-0.046,0.026-0.146,0.068-0.267,0.106c-0.652,0.271-1.198,0.511-1.605,0.712
			c-0.052,0.027-0.113,0.054-0.184,0.084c-0.438,0.188-1.347,0.58-3.695,3.162C2.251,49.755,1.146,59.204,0.816,63.216z"/>
	</g>
	<g>
		<g>
			<linearGradient id="SVGID_2_" gradientUnits="userSpaceOnUse" x1="34.1797" y1="14.0225" x2="63.4785" y2="14.0225">
				<stop  offset="0" style="stop-color:#FFFFFF"/>
				<stop  offset="1" style="stop-color:#F5F5F6"/>
			</linearGradient>
			<path fill="url(#SVGID_2_)" d="M41.862,21.146H34.18V0.524h29.299v20.622H51.397l-9.535,6.375V21.146z"/>
			<path fill="#9D9D9C" d="M41.338,28.498v-6.83h-7.68V0H64v21.668H51.556L41.338,28.498z M34.701,20.623h7.683v5.92l8.856-5.92
				h11.715V1.046H34.701V20.623z"/>
		</g>
	</g>
</g>
</svg>
