<?xml version="1.0" encoding="utf-8"?>
<!-- Generator: Adobe Illustrator 16.0.0, SVG Export Plug-In . SVG Version: 6.00 Build 0)  -->
<!DOCTYPE svg PUBLIC "-//W3C//DTD SVG 1.1//EN" "http://www.w3.org/Graphics/SVG/1.1/DTD/svg11.dtd">
<svg version="1.1" id="Ebene_1" xmlns="http://www.w3.org/2000/svg" xmlns:xlink="http://www.w3.org/1999/xlink" x="0px" y="0px"
	 width="64px" height="64px" viewBox="0 0 64 64" enable-background="new 0 0 64 64" xml:space="preserve">
<g>
	<g>
		
			<linearGradient id="SVGID_1_" gradientUnits="userSpaceOnUse" x1="-1699.7207" y1="16.126" x2="-1665.5234" y2="16.126" gradientTransform="matrix(-1 0 0 1 -1636.0908 0)">
			<stop  offset="0" style="stop-color:#FFFFFF"/>
			<stop  offset="1" style="stop-color:#ECECEC"/>
		</linearGradient>
		<path fill="url(#SVGID_1_)" d="M54.663,31.881l-11.131-7.44h-14.1V0.371H63.63V24.44h-8.967V31.881z"/>
		<path fill="#9D9D9C" d="M55.034,32.575l-11.615-7.764H29.062V0H64v24.812h-8.966V32.575z M29.804,24.07h13.841l0.093,0.062
			l10.556,7.055V24.07h8.966V0.741H29.804V24.07z"/>
	</g>
</g>
<g>
	<g>
		<g>
			<linearGradient id="SVGID_2_" gradientUnits="userSpaceOnUse" x1="0.3701" y1="26.4072" x2="41.1543" y2="26.4072">
				<stop  offset="0" style="stop-color:#FFFFFF"/>
				<stop  offset="1" style="stop-color:#ECECEC"/>
			</linearGradient>
			<path fill="url(#SVGID_2_)" d="M11.064,36.322H0.37V7.617h40.784v28.705H24.339l-13.274,8.875V36.322z"/>
			<path fill="#9D9D9C" d="M10.694,45.891v-9.197H0V7.246h41.524v29.447H24.452L10.694,45.891z M0.741,35.952h10.694v8.551
				l12.79-8.551h16.558V7.987H0.741V35.952z"/>
		</g>
	</g>
	<g>
		<linearGradient id="SVGID_3_" gradientUnits="userSpaceOnUse" x1="4.9033" y1="14.3779" x2="32.2988" y2="14.3779">
			<stop  offset="0" style="stop-color:#E20613"/>
			<stop  offset="1" style="stop-color:#BD1622"/>
		</linearGradient>
		<rect x="4.903" y="13.18" fill="url(#SVGID_3_)" width="27.396" height="2.397"/>
		<linearGradient id="SVGID_4_" gradientUnits="userSpaceOnUse" x1="4.9033" y1="19.3066" x2="30.5615" y2="19.3066">
			<stop  offset="0" style="stop-color:#E20613"/>
			<stop  offset="1" style="stop-color:#BD1622"/>
		</linearGradient>
		<rect x="4.903" y="18.107" fill="url(#SVGID_4_)" width="25.658" height="2.398"/>
		<linearGradient id="SVGID_5_" gradientUnits="userSpaceOnUse" x1="4.9033" y1="24.2334" x2="34.0332" y2="24.2334">
			<stop  offset="0" style="stop-color:#E20613"/>
			<stop  offset="1" style="stop-color:#BD1622"/>
		</linearGradient>
		<rect x="4.903" y="23.035" fill="url(#SVGID_5_)" width="29.13" height="2.396"/>
		<linearGradient id="SVGID_6_" gradientUnits="userSpaceOnUse" x1="4.9033" y1="29.1611" x2="32.1113" y2="29.1611">
			<stop  offset="0" style="stop-color:#E20613"/>
			<stop  offset="1" style="stop-color:#BD1622"/>
		</linearGradient>
		<rect x="4.903" y="27.962" fill="url(#SVGID_6_)" width="27.208" height="2.397"/>
	</g>
</g>
</svg>
