<?xml version="1.0" encoding="utf-8"?>
<!-- Generator: Adobe Illustrator 16.0.0, SVG Export Plug-In . SVG Version: 6.00 Build 0)  -->
<!DOCTYPE svg PUBLIC "-//W3C//DTD SVG 1.1//EN" "http://www.w3.org/Graphics/SVG/1.1/DTD/svg11.dtd">
<svg version="1.1" id="Ebene_1" xmlns="http://www.w3.org/2000/svg" xmlns:xlink="http://www.w3.org/1999/xlink" x="0px" y="0px"
	 width="64px" height="64px" viewBox="0 0 64 64" enable-background="new 0 0 64 64" xml:space="preserve">
<g>
	<g>
		<g>
			<linearGradient id="SVGID_1_" gradientUnits="userSpaceOnUse" x1="0" y1="27.3359" x2="9.1821" y2="27.3359">
				<stop  offset="0" style="stop-color:#C5C6C8"/>
				<stop  offset="1" style="stop-color:#9B9C9E"/>
			</linearGradient>
			<path fill="url(#SVGID_1_)" d="M5.713,23.168l3.469-1.877l-0.014-0.063c-1.497,0.035-2.95,0.235-4.282,0.696L2.78,22.967
				c-0.288,0.194-0.565,0.407-0.831,0.644c-3.99,4.44-0.62,9.834-0.62,9.834c-0.524-4.058,1.505-6.219,1.505-6.219l2.879,1.549
				V23.168z"/>
			<g>
				<linearGradient id="SVGID_2_" gradientUnits="userSpaceOnUse" x1="5.7134" y1="20.2227" x2="58.8623" y2="20.2227">
					<stop  offset="0" style="stop-color:#FFFFFF"/>
					<stop  offset="1" style="stop-color:#D8D9DA"/>
				</linearGradient>
				<polygon fill="url(#SVGID_2_)" points="9.646,23.168 58.862,23.168 46.294,17.277 23.386,17.277 9.182,21.291 5.713,23.168 				
					"/>
				<path fill="#9D9D9C" d="M58.862,23.683H5.713l-0.245-0.968l3.575-1.92l14.343-4.032h23.023l12.672,5.938L58.862,23.683z
					 M7.748,22.653H56.55l-10.37-4.861H23.457L9.378,21.771L7.748,22.653z"/>
			</g>
			<g>
				<linearGradient id="SVGID_3_" gradientUnits="userSpaceOnUse" x1="32.2876" y1="23.2979" x2="32.2876" y2="32.8535">
					<stop  offset="0" style="stop-color:#FFFFFF"/>
					<stop  offset="1" style="stop-color:#D8D9DA"/>
				</linearGradient>
				<polygon fill="url(#SVGID_3_)" points="5.713,23.298 5.713,28.774 5.713,32.854 58.862,32.854 58.862,23.298 9.677,23.298 				
					"/>
				<path fill="#9D9D9C" d="M59.377,33.369H5.199V22.783h54.178V33.369z M6.229,32.339h52.119v-8.524H6.229V32.339z"/>
			</g>
		</g>
		<polygon fill="#E1001A" points="37.425,23.429 27.87,23.429 28.395,21.661 36.904,21.661 		"/>
		<rect x="27.87" y="23.265" fill="#E1001A" width="9.555" height="9.622"/>
		<g>
			<linearGradient id="SVGID_4_" gradientUnits="userSpaceOnUse" x1="32.1577" y1="63.4854" x2="32.1577" y2="32.8535">
				<stop  offset="0" style="stop-color:#FFFFFF"/>
				<stop  offset="1" style="stop-color:#D8D9DA"/>
			</linearGradient>
			<rect x="6.499" y="32.854" fill="url(#SVGID_4_)" width="51.317" height="30.632"/>
			<path fill="#9D9D9C" d="M58.332,64H5.984V32.339h52.348V64z M7.014,62.971h50.287V33.369H7.014V62.971z"/>
		</g>
		<rect x="27.608" y="32.887" fill="#E1001A" width="9.556" height="30.499"/>
		<path fill="none" d="M22.302,6.164c0.012,0.713,0.436,1.759,0.614,2.167c0.836,0.656,1.499,1.406,1.954,2.138
			c0.075,0.123,0.164,0.256,0.261,0.397C24.686,8.03,23.543,6.712,22.302,6.164z"/>
		<path fill="none" d="M22.455,7.991c-1.678-1.404-3.791-1.561-4.313-1.578C19.821,6.574,21.283,7.184,22.455,7.991z"/>
		<path fill="none" d="M13.504,13.66c0.054,0.068,0.107,0.138,0.163,0.211c2.258,3.109,7.69,3.014,7.69,3.014l0.747,0.418
			c-1.507-1.219-3.148-2.472-4.609-2.951C16.15,13.911,14.88,13.659,13.504,13.66z"/>
		<linearGradient id="SVGID_5_" gradientUnits="userSpaceOnUse" x1="18.0405" y1="7.0781" x2="22.916" y2="7.0781">
			<stop  offset="0" style="stop-color:#C5C6C8"/>
			<stop  offset="1" style="stop-color:#9B9C9E"/>
		</linearGradient>
		<path fill="url(#SVGID_5_)" d="M18.041,6.399c0.034,0.004,0.067,0.012,0.101,0.014c0.522,0.018,2.635,0.174,4.313,1.578
			c0.159,0.11,0.312,0.225,0.461,0.34c-0.178-0.408-0.602-1.454-0.614-2.167C20.402,5.325,18.271,6.29,18.041,6.399z"/>
		<path fill="#A42423" d="M18.041,6.399c0.23-0.109,2.362-1.074,4.262-0.235c1.241,0.548,2.383,1.866,2.829,4.702
			c1.296,1.89,1.687,5.325,2.352,6.084h0.013c-0.337-0.577-0.967-1.877-0.967-3.601c0-2.357,1.701-4.581,1.701-7.465
			c0-2.878,0-4.71-2.226-4.71c-2.225,0-2.748,1.832-4.581,3.011c-1.822,1.169-3.253,1.564-3.4,2.212
			C18.028,6.397,18.034,6.398,18.041,6.399z"/>
		<path fill="#FFEC00" d="M10.471,14.046c0.168-0.268,0.319-0.583,0.453-0.927C10.614,13.546,10.471,14.046,10.471,14.046z"/>
		<linearGradient id="SVGID_6_" gradientUnits="userSpaceOnUse" x1="9.6011" y1="17.125" x2="27.2178" y2="17.125">
			<stop  offset="0" style="stop-color:#C5C6C8"/>
			<stop  offset="1" style="stop-color:#9B9C9E"/>
		</linearGradient>
		<path fill="url(#SVGID_6_)" d="M27.218,20.589c-0.99-0.391-2.026-0.882-2.783-1.436c-0.702-0.515-1.495-1.179-2.331-1.851
			l-0.747-0.418c0,0-5.432,0.096-7.69-3.014c-0.055-0.073-0.108-0.143-0.163-0.211c-0.942,0.002-1.933,0.12-3.033,0.386
			c-0.834,1.365-1.537,3.295,0.22,4.808c0.378-0.034,0.768-0.062,1.175-0.072C16.619,18.662,22.98,19.733,27.218,20.589z"/>
		<path fill="#FFEC00" d="M27.592,21.858c0.009,0,0.019,0,0.027-0.001h-0.022C27.594,21.858,27.594,21.858,27.592,21.858z"/>
		<path fill="#E1001A" d="M27.38,21.857v-0.328c-0.475-0.133,1.026-0.466-0.162-0.94c-4.237-0.855-10.599-1.927-15.352-1.808
			c-0.407,0.011-0.796,0.038-1.175,0.072c-6.89,0.658-9.362,5.36-9.362,5.36c0.198-0.217,0.406-0.415,0.62-0.604
			c0.266-0.236,0.543-0.449,0.831-0.644c0.654-0.44,1.361-0.786,2.105-1.043c1.332-0.461,2.785-0.661,4.282-0.696
			c3.346-0.083,6.903,0.642,9.768,1.021c4.062,0.541,6.242-0.023,8.656-0.39c0,0,0.002,0,0.004-0.001H27.38z"/>
		<linearGradient id="SVGID_7_" gradientUnits="userSpaceOnUse" x1="10.4712" y1="13.9805" x2="27.687" y2="13.9805">
			<stop  offset="0" style="stop-color:#E1001A"/>
			<stop  offset="1" style="stop-color:#BD0926"/>
		</linearGradient>
		<path fill="url(#SVGID_7_)" d="M17.495,14.352c1.461,0.479,3.102,1.732,4.609,2.951c0.836,0.672,1.629,1.336,2.331,1.851
			c0.757,0.554,1.793,1.045,2.783,1.436c1.188,0.475-0.312,0.808,0.162,0.94c0.151,0.044,0.239,0.065,0.239,0.065s0-3.491,0-4.492
			c0,0-0.049-0.058-0.136-0.152c-0.666-0.759-1.056-4.194-2.352-6.084c-0.097-0.142-0.186-0.274-0.261-0.397
			c-0.456-0.731-1.118-1.481-1.954-2.138c-0.149-0.115-0.303-0.229-0.461-0.34c-1.171-0.808-2.634-1.417-4.313-1.578
			c-0.034-0.002-0.067-0.01-0.101-0.014c-0.006-0.001-0.012-0.002-0.018-0.002c-0.216-0.018-0.435-0.03-0.658-0.03
			c-3.577-0.044-5.498,2.487-5.498,2.487s-0.245,2.484-0.942,4.265c-0.134,0.344-0.285,0.659-0.453,0.927
			c1.1-0.266,2.091-0.384,3.033-0.386C14.88,13.659,16.15,13.911,17.495,14.352z"/>
		<linearGradient id="SVGID_8_" gradientUnits="userSpaceOnUse" x1="45.1973" y1="7.0781" x2="50.0732" y2="7.0781">
			<stop  offset="0" style="stop-color:#C5C6C8"/>
			<stop  offset="1" style="stop-color:#9B9C9E"/>
		</linearGradient>
		<path fill="url(#SVGID_8_)" d="M50.073,6.399c-0.035,0.004-0.068,0.012-0.1,0.014c-0.523,0.018-2.637,0.174-4.314,1.578
			c-0.16,0.11-0.314,0.225-0.462,0.34c0.178-0.408,0.6-1.454,0.616-2.167C47.713,5.325,49.843,6.29,50.073,6.399z"/>
		<path fill="#A42423" d="M50.073,6.399c-0.23-0.109-2.36-1.074-4.26-0.235c-1.245,0.548-2.384,1.866-2.83,4.702
			c-1.298,1.89-4.303,5.325-4.971,6.084h-0.015c0.341-0.577,0.971-1.877,0.971-3.601c0-2.357-1.703-4.581-1.703-7.465
			c0-2.878,2.617-4.71,4.845-4.71c2.225,0,2.748,1.832,4.58,3.011c1.82,1.169,3.252,1.564,3.401,2.212
			C50.084,6.397,50.08,6.398,50.073,6.399z"/>
		<g>
			<path fill="none" d="M53.854,19.054c-0.721,0.166-1.454,0.391-2.215,0.643L53.854,19.054z"/>
			<path fill="none" d="M55.96,18.781c-0.249,0.002-0.499,0.021-0.75,0.044C55.435,18.804,55.684,18.79,55.96,18.781z"/>
			<path fill="#E1001A" d="M63.999,22.053c-1.956-2.295-4.523-3.038-6.552-3.224c-0.008,0.009-0.014,0.019-0.025,0.024
				c-0.378-0.034-0.768-0.062-1.175-0.072c-0.094-0.002-0.193,0-0.287,0c-0.276,0.009-0.525,0.022-0.75,0.044
				c-0.451,0.045-0.902,0.126-1.356,0.229l-2.215,0.643c-1.756,0.584-3.665,1.312-5.92,1.774c0.856,0.036,4.76,0.177,9.378,0.06
				c5.238-0.131,7.396,5.039,7.396,5.039l-0.849-4.712L63.999,22.053z"/>
			<linearGradient id="SVGID_9_" gradientUnits="userSpaceOnUse" x1="37.7549" y1="17.793" x2="58.5107" y2="17.793">
				<stop  offset="0" style="stop-color:#C5C6C8"/>
				<stop  offset="1" style="stop-color:#9B9C9E"/>
			</linearGradient>
			<path fill="url(#SVGID_9_)" d="M53.854,19.054c0.454-0.103,0.905-0.184,1.356-0.229c0.251-0.023,0.501-0.042,0.75-0.044
				c0.094,0,0.193-0.002,0.287,0c0.407,0.011,0.797,0.038,1.175,0.072c0.012-0.006,0.018-0.016,0.025-0.024
				c1.721-1.51,1.025-3.422,0.196-4.783c-1.101-0.266-2.093-0.384-3.036-0.386c-0.052,0.068-0.106,0.138-0.159,0.211
				c-2.261,3.109-7.693,3.014-7.693,3.014l-0.745,0.418c-0.834,0.672-1.629,1.336-2.331,1.851c-0.756,0.554-4.936,2.092-5.924,2.485
				c3.12,0.489,5.713,0.295,7.964-0.168c2.255-0.462,4.164-1.19,5.92-1.774C52.399,19.444,53.133,19.22,53.854,19.054z"/>
		</g>
		<path fill="#E1001A" d="M50.619,14.352c-1.46,0.479-3.103,1.732-4.609,2.951c-0.834,0.672-1.629,1.336-2.331,1.851
			c-0.756,0.554-1.794,1.045-2.782,1.436c-1.188,0.475-2.307,0.808-2.779,0.94c-0.152,0.044-0.241,0.065-0.241,0.065
			s0-3.491,0-4.492c0,0,0.05-0.058,0.137-0.152c0.668-0.759,3.673-4.194,4.971-6.084c0.098-0.142,0.183-0.274,0.259-0.397
			c0.457-0.731,1.119-1.481,1.955-2.138c0.147-0.115,0.302-0.229,0.462-0.34c1.17-0.808,2.635-1.417,4.314-1.578
			c0.031-0.002,0.064-0.01,0.1-0.014c0.007-0.001,0.011-0.002,0.019-0.002c0.215-0.018,0.435-0.03,0.655-0.03
			c3.58-0.044,5.5,2.487,5.5,2.487s0.243,2.484,0.943,4.265c0.134,0.344,0.284,0.659,0.453,0.927
			c-1.101-0.266-2.093-0.384-3.036-0.386C53.236,13.659,51.965,13.911,50.619,14.352z"/>
		<path fill="#A42423" d="M27.496,16.95h-0.013c0.086,0.095,0.136,0.152,0.136,0.152c0,1.001,0,4.492,0,4.492
			s-0.087-0.021-0.239-0.065v0.328h0.216h0.022h10.297V16.95H27.496z"/>
	</g>
</g>
</svg>
