<?xml version="1.0" encoding="utf-8"?>
<!-- Generator: Adobe Illustrator 16.0.0, SVG Export Plug-In . SVG Version: 6.00 Build 0)  -->
<!DOCTYPE svg PUBLIC "-//W3C//DTD SVG 1.1//EN" "http://www.w3.org/Graphics/SVG/1.1/DTD/svg11.dtd">
<svg version="1.1" id="Ebene_1" xmlns="http://www.w3.org/2000/svg" xmlns:xlink="http://www.w3.org/1999/xlink" x="0px" y="0px"
	 width="64px" height="64px" viewBox="0 0 64 64" enable-background="new 0 0 64 64" xml:space="preserve">
<g>
	<linearGradient id="SVGID_1_" gradientUnits="userSpaceOnUse" x1="0.2285" y1="35.9434" x2="63.7725" y2="35.9434">
		<stop  offset="0" style="stop-color:#E30613"/>
		<stop  offset="1" style="stop-color:#BE1622"/>
	</linearGradient>
	<path fill-rule="evenodd" clip-rule="evenodd" fill="url(#SVGID_1_)" d="M57.24,13.35l-0.262-0.26
		c-8.008-8.009-16.104-5.693-24.285,2.49L32,16.211l-0.693-0.631C23.125,7.396,15.029,5.081,7.02,13.09l-0.259,0.26
		c-8.411,8.412-8.7,16.536-0.864,24.372L31.93,63.756L32,63.68l0.07,0.076l26.033-26.034C65.939,29.886,65.652,21.762,57.24,13.35z"
		/>
	<path fill="#A42423" d="M32.07,63.998c-0.01,0.001-0.048-0.003-0.07-0.011c-0.023,0.008-0.039,0.016-0.07,0.011
		c-0.064,0-0.127-0.026-0.172-0.071L5.725,37.895c-7.912-7.914-7.621-16.23,0.865-24.718l0.258-0.259
		c3.338-3.337,6.867-5.03,10.486-5.03c4.457,0,9.084,2.461,14.143,7.521L32,15.883l0.531-0.481
		c5.049-5.053,9.678-7.514,14.135-7.514c3.619,0,7.148,1.693,10.486,5.03l0.258,0.259c8.486,8.487,8.777,16.804,0.865,24.718
		L32.242,63.927C32.197,63.972,32.135,63.998,32.07,63.998z M32,63.437c0.014,0,0.027,0.001,0.041,0.004l25.891-25.89
		c7.793-7.793,7.512-15.653-0.863-24.03l-0.26-0.26c-3.244-3.242-6.657-4.887-10.143-4.887c-4.322,0-8.836,2.413-13.801,7.378
		l-0.703,0.638c-0.092,0.086-0.232,0.086-0.326,0l-0.694-0.631c-4.97-4.972-9.483-7.385-13.808-7.385
		c-3.486,0-6.898,1.645-10.143,4.887l-0.26,0.26c-8.373,8.377-8.656,16.237-0.864,24.03l25.889,25.89
		c0.015-0.003,0.028-0.004,0.042-0.004H32z"/>
</g>
</svg>
