<?xml version="1.0" encoding="utf-8"?>
<!-- Generator: Adobe Illustrator 16.0.0, SVG Export Plug-In . SVG Version: 6.00 Build 0)  -->
<!DOCTYPE svg PUBLIC "-//W3C//DTD SVG 1.1//EN" "http://www.w3.org/Graphics/SVG/1.1/DTD/svg11.dtd">
<svg version="1.1" id="Ebene_1" xmlns="http://www.w3.org/2000/svg" xmlns:xlink="http://www.w3.org/1999/xlink" x="0px" y="0px"
	 width="64px" height="64px" viewBox="0 0 64 64" enable-background="new 0 0 64 64" xml:space="preserve">
<g>
	<g>
		
			<linearGradient id="SVGID_1_" gradientUnits="userSpaceOnUse" x1="146.8662" y1="988.2998" x2="179.3701" y2="988.2998" gradientTransform="matrix(0.7071 -0.7071 0.7071 0.7071 -787.999 -557.0594)">
			<stop  offset="0" style="stop-color:#E5332A"/>
			<stop  offset="1" style="stop-color:#BD1622"/>
		</linearGradient>
		<path fill="url(#SVGID_1_)" d="M0.256,0.391v23.104l40.47,40.145L63.637,40.91L23.543,1.143L0.256,0.391z M16.427,17.564
			c-2.111,2.093-5.533,2.093-7.644,0.001c-2.099-2.096-2.099-5.493,0.002-7.586c2.108-2.07,5.533-2.07,7.644,0
			C18.526,12.071,18.526,15.467,16.427,17.564z"/>
		<path fill="#8A1002" d="M40.726,64l-0.18-0.179L0,23.603V0.127l0.264,0.008L23.65,0.89l0.072,0.071L64,40.91l-0.184,0.182
			L40.726,64z M0.511,23.389l40.215,39.89L63.272,40.91L23.434,1.396L0.511,0.653V23.389z M12.604,19.389
			c-1.512,0-2.933-0.583-4.001-1.642c-1.065-1.063-1.651-2.477-1.651-3.979c0.001-1.5,0.588-2.91,1.652-3.97
			c1.069-1.051,2.491-1.628,4.002-1.628s2.933,0.577,4.001,1.626c1.064,1.062,1.649,2.471,1.65,3.97c0,1.502-0.585,2.915-1.65,3.979
			C15.537,18.806,14.115,19.389,12.604,19.389z M12.606,8.682c-1.376,0-2.67,0.525-3.644,1.48c-0.964,0.962-1.498,2.243-1.499,3.606
			c0,1.365,0.533,2.649,1.499,3.616c0.973,0.963,2.267,1.493,3.642,1.493s2.669-0.53,3.643-1.495
			c0.967-0.966,1.499-2.251,1.499-3.616c-0.001-1.362-0.532-2.644-1.498-3.606C15.276,9.207,13.983,8.682,12.606,8.682z"/>
	</g>
	<polygon fill="#FFFFFF" points="45.728,49.482 20.416,24.365 23.884,20.91 49.196,46.029 	"/>
	<polygon fill="#FFFFFF" points="36.203,51.476 14.639,30.095 18.12,26.638 39.673,48.022 	"/>
	<polygon fill="#FFFFFF" points="49.847,42.129 26.184,18.632 29.664,15.206 53.324,38.68 	"/>
</g>
</svg>
