<?xml version="1.0" encoding="utf-8"?>
<!-- Generator: Adobe Illustrator 16.0.0, SVG Export Plug-In . SVG Version: 6.00 Build 0)  -->
<!DOCTYPE svg PUBLIC "-//W3C//DTD SVG 1.1//EN" "http://www.w3.org/Graphics/SVG/1.1/DTD/svg11.dtd">
<svg version="1.1" id="Ebene_1" xmlns="http://www.w3.org/2000/svg" xmlns:xlink="http://www.w3.org/1999/xlink" x="0px" y="0px"
	 width="64px" height="64px" viewBox="0 0 64 64" enable-background="new 0 0 64 64" xml:space="preserve">
<g>
	<linearGradient id="SVGID_1_" gradientUnits="userSpaceOnUse" x1="58.4385" y1="53.4062" x2="58.4385" y2="53.4062">
		<stop  offset="0.3103" style="stop-color:#E30613"/>
		<stop  offset="1" style="stop-color:#BE1622"/>
	</linearGradient>
	<path fill="url(#SVGID_1_)" stroke="#801D18" stroke-width="0.75" stroke-linejoin="round" d="M58.438,53.406"/>
	<g>
		<linearGradient id="SVGID_2_" gradientUnits="userSpaceOnUse" x1="17.4395" y1="32" x2="63.6377" y2="32">
			<stop  offset="0.3103" style="stop-color:#E30613"/>
			<stop  offset="1" style="stop-color:#BE1622"/>
		</linearGradient>
		<path fill="url(#SVGID_2_)" d="M61.821,13.682c-1.168-2.609-2.857-4.961-4.951-6.935c-2.089-1.971-4.579-3.567-7.34-4.67
			c-2.766-1.104-5.806-1.715-8.992-1.715c-3.188,0-6.229,0.61-8.994,1.715c-2.763,1.103-5.251,2.699-7.34,4.67
			c-2.093,1.974-3.782,4.325-4.952,6.935c-1.165,2.608-1.812,5.476-1.812,8.492c0,3.01,0.647,5.878,1.812,8.487
			c1.17,2.613,18.354,30.204,21.286,32.977c2.836-2.676,20.115-30.363,21.283-32.977c1.169-2.609,1.816-5.478,1.816-8.487
			C63.638,19.157,62.99,16.29,61.821,13.682z M40.538,29.103c-4.803,0-8.694-3.673-8.694-8.208c0-4.533,3.892-8.213,8.694-8.213
			c4.801,0,8.691,3.68,8.691,8.213C49.229,25.43,45.339,29.103,40.538,29.103z"/>
		<path fill="#801D18" d="M40.538,64c-0.089,0-0.18-0.032-0.249-0.099c-3.071-2.906-20.318-30.745-21.368-33.091
			c-1.223-2.741-1.844-5.647-1.844-8.637c0-2.993,0.621-5.899,1.843-8.642c1.186-2.642,2.88-5.013,5.035-7.049
			c2.154-2.032,4.663-3.629,7.455-4.744C34.305,0.587,37.376,0,40.538,0c3.161,0,6.231,0.587,9.125,1.739
			c2.795,1.116,5.304,2.713,7.456,4.744c2.156,2.034,3.849,4.406,5.033,7.049C63.378,16.271,64,19.177,64,22.174
			c0,2.993-0.622,5.899-1.848,8.637C61.1,33.157,43.857,61.003,40.787,63.901C40.719,63.968,40.628,64,40.538,64z M40.538,0.724
			c-3.069,0-6.051,0.568-8.859,1.689c-2.708,1.081-5.139,2.627-7.227,4.598c-2.086,1.969-3.725,4.265-4.869,6.819
			c-1.182,2.645-1.781,5.452-1.781,8.344c0,2.887,0.6,5.693,1.782,8.341c1.34,2.992,17.539,28.819,20.954,32.602
			c3.516-3.878,19.976-30.418,20.952-32.602c1.185-2.645,1.786-5.45,1.786-8.341c0-2.893-0.602-5.702-1.786-8.344
			c-1.146-2.557-2.782-4.853-4.869-6.819c-2.088-1.97-4.519-3.516-7.225-4.598C46.587,1.292,43.605,0.724,40.538,0.724z
			 M40.538,29.467c-4.995,0-9.059-3.847-9.059-8.572c0-4.729,4.063-8.575,9.059-8.575c4.993,0,9.056,3.846,9.056,8.575
			C49.594,25.62,45.531,29.467,40.538,29.467z M40.538,13.043c-4.594,0-8.332,3.522-8.332,7.852c0,4.325,3.738,7.847,8.332,7.847
			c4.593,0,8.33-3.521,8.33-7.847C48.868,16.565,45.131,13.043,40.538,13.043z"/>
	</g>
</g>
</svg>
