<?xml version="1.0" encoding="utf-8"?>
<!-- Generator: Adobe Illustrator 16.0.0, SVG Export Plug-In . SVG Version: 6.00 Build 0)  -->
<!DOCTYPE svg PUBLIC "-//W3C//DTD SVG 1.1//EN" "http://www.w3.org/Graphics/SVG/1.1/DTD/svg11.dtd">
<svg version="1.1" id="Ebene_1" xmlns="http://www.w3.org/2000/svg" xmlns:xlink="http://www.w3.org/1999/xlink" x="0px" y="0px"
	 width="64px" height="64px" viewBox="0 0 64 64" enable-background="new 0 0 64 64" xml:space="preserve">
<g>
	<g>
		<path fill-rule="evenodd" clip-rule="evenodd" fill="#FFD700" d="M0.488,38.937c0,8.568,6.94,15.608,15.503,15.608h31.822
			l-7.901,8.967h11.157l12.246-12.446L51.069,38.621H39.912l8.095,9.184l-32.016-0.057c-4.863,0-8.809-3.945-8.809-8.812v-5.249
			c0-4.867,4.415-8.778,9.278-8.778h22.537l-0.004-6.735H16.461c-8.562,0-15.973,6.944-15.973,15.514V38.937z"/>
		<path fill="#F8B133" d="M51.274,64H38.831l7.901-8.966H15.991C7.173,55.034,0,47.812,0,38.937v-5.249
			c0-8.674,7.538-16.001,16.461-16.001h23.021l0.004,7.711H16.461c-4.765,0-8.79,3.796-8.79,8.29v5.249
			c0,4.59,3.732,8.323,8.32,8.323l30.933,0.056l-8.093-9.182h12.442L64,51.065L51.274,64z M40.993,63.024h9.871l11.767-11.959
			L50.865,39.109h-9.872l8.098,9.186L15.99,48.236c-5.126,0-9.296-4.172-9.296-9.3v-5.249c0-5.023,4.473-9.267,9.767-9.267H38.51
			l-0.004-5.758H16.461c-8.394,0-15.485,6.88-15.485,15.024v5.249c0,8.338,6.736,15.121,15.016,15.121h32.904L40.993,63.024z"/>
	</g>
	<g id="Datei_7_">
		<g>
			<linearGradient id="SVGID_1_" gradientUnits="userSpaceOnUse" x1="30.5625" y1="6.1953" x2="41.6357" y2="36.6188">
				<stop  offset="0" style="stop-color:#FFFFFF"/>
				<stop  offset="1" style="stop-color:#D7D9DA"/>
			</linearGradient>
			<rect x="18.383" y="10.627" fill="url(#SVGID_1_)" width="35.432" height="21.558"/>
			<path fill="#9D9D9C" d="M53.814,32.673H18.383l-0.487-0.488V10.627l0.487-0.488h35.432l0.487,0.488v21.558L53.814,32.673z
				 M18.871,31.697h34.455V11.114H18.871V31.697z"/>
		</g>
		<g>
			<linearGradient id="SVGID_2_" gradientUnits="userSpaceOnUse" x1="30.5625" y1="6.1953" x2="41.6357" y2="36.6188">
				<stop  offset="0" style="stop-color:#FFFFFF"/>
				<stop  offset="1" style="stop-color:#F4F4F6"/>
			</linearGradient>
			<polygon fill="url(#SVGID_2_)" points="53.814,10.627 35.743,21.333 18.383,10.627 18.383,32.185 53.814,32.185 			"/>
			<path fill="#9D9D9C" d="M53.814,32.673H18.383l-0.487-0.488V10.627l0.744-0.416l17.108,10.552l17.817-10.556l0.736,0.42v21.558
				L53.814,32.673z M18.871,31.697h34.455V11.482l-17.335,10.27l-0.505-0.004L18.871,11.501V31.697z"/>
		</g>
	</g>
</g>
</svg>
