<?xml version="1.0" encoding="utf-8"?>
<!-- Generator: Adobe Illustrator 16.0.0, SVG Export Plug-In . SVG Version: 6.00 Build 0)  -->
<!DOCTYPE svg PUBLIC "-//W3C//DTD SVG 1.1//EN" "http://www.w3.org/Graphics/SVG/1.1/DTD/svg11.dtd">
<svg version="1.1" id="Ebene_1" xmlns="http://www.w3.org/2000/svg" xmlns:xlink="http://www.w3.org/1999/xlink" x="0px" y="0px"
	 width="64px" height="64px" viewBox="0 0 64 64" enable-background="new 0 0 64 64" xml:space="preserve">
<g>
	<g>
		<g>
			<g>
				<linearGradient id="SVGID_1_" gradientUnits="userSpaceOnUse" x1="0.499" y1="29.5244" x2="63.501" y2="29.5244">
					<stop  offset="0" style="stop-color:#FFFFFF"/>
					<stop  offset="1" style="stop-color:#F5F5F6"/>
				</linearGradient>
				<path fill="url(#SVGID_1_)" d="M17.021,44.843H0.499V0.499h63.002v44.344H37.524L17.021,58.551V44.843z"/>
				<path fill="#9D9D9C" d="M16.521,59.484V45.342H0V0h64v45.342H37.676L16.521,59.484z M0.998,44.344H17.52v13.273l19.854-13.273
					h25.628V0.998H0.998V44.344z"/>
			</g>
		</g>
	</g>
	<g>
		<g>
			<linearGradient id="SVGID_2_" gradientUnits="userSpaceOnUse" x1="30.5957" y1="22.0293" x2="36.0918" y2="22.0293">
				<stop  offset="0" style="stop-color:#E20613"/>
				<stop  offset="1" style="stop-color:#BD1622"/>
			</linearGradient>
			<path fill="url(#SVGID_2_)" d="M30.596,31.073c0-0.88,0.234-1.546,0.706-1.997c0.471-0.451,1.157-0.678,2.057-0.678
				c0.869,0,1.542,0.23,2.019,0.693c0.477,0.461,0.715,1.122,0.715,1.981c0,0.831-0.241,1.484-0.722,1.963
				c-0.482,0.478-1.151,0.715-2.012,0.715c-0.879,0-1.56-0.234-2.04-0.7C30.833,32.583,30.596,31.925,30.596,31.073z M35.291,25.689
				h-3.834l-0.801-15.382h5.436L35.291,25.689z"/>
			<path fill="#A2195B" d="M33.358,34.126c-0.975,0-1.749-0.271-2.301-0.807c-0.555-0.533-0.836-1.29-0.836-2.246
				c0-0.983,0.275-1.747,0.821-2.268c0.54-0.519,1.32-0.781,2.315-0.781c0.967,0,1.734,0.269,2.28,0.799
				c0.549,0.531,0.827,1.288,0.827,2.25c0,0.93-0.279,1.68-0.831,2.228C35.082,33.849,34.315,34.126,33.358,34.126z M33.358,28.772
				c-0.797,0-1.4,0.193-1.798,0.573c-0.397,0.381-0.591,0.946-0.591,1.728c0,0.756,0.199,1.314,0.607,1.707
				c0.409,0.396,1.008,0.597,1.781,0.597c0.765,0,1.336-0.199,1.749-0.607c0.41-0.407,0.61-0.963,0.61-1.696
				c0-0.761-0.196-1.321-0.601-1.713C34.71,28.965,34.135,28.772,33.358,28.772z M35.647,26.063h-4.546l-0.84-16.13h6.225
				L35.647,26.063z M31.813,25.315h3.122l0.763-14.634h-4.647L31.813,25.315z"/>
		</g>
	</g>
</g>
</svg>
