<?xml version="1.0" encoding="utf-8"?>
<!-- Generator: Adobe Illustrator 16.0.0, SVG Export Plug-In . SVG Version: 6.00 Build 0)  -->
<!DOCTYPE svg PUBLIC "-//W3C//DTD SVG 1.1//EN" "http://www.w3.org/Graphics/SVG/1.1/DTD/svg11.dtd">
<svg version="1.1" id="Ebene_1" xmlns="http://www.w3.org/2000/svg" xmlns:xlink="http://www.w3.org/1999/xlink" x="0px" y="0px"
	 width="64px" height="64px" viewBox="0 0 64 64" enable-background="new 0 0 64 64" xml:space="preserve">
<g>
	<g>
		
			<linearGradient id="SVGID_1_" gradientUnits="userSpaceOnUse" x1="63.291" y1="1589.6201" x2="0.5068" y2="1589.6201" gradientTransform="matrix(1 0 0 -1 0 1630.4609)">
			<stop  offset="0" style="stop-color:#469B41"/>
			<stop  offset="1" style="stop-color:#288342"/>
		</linearGradient>
		<path fill-rule="evenodd" clip-rule="evenodd" fill="url(#SVGID_1_)" d="M0.506,38.937c0,8.562,6.937,15.597,15.491,15.597h31.802
			l-7.896,8.961h11.152L63.29,51.057L51.055,38.62H39.902l8.09,9.18l-31.995-0.059c-4.859,0-8.8-3.942-8.8-8.805V33.69
			c0-4.864,4.41-8.773,9.27-8.773h22.522l-0.002-6.73H16.467c-8.555,0-15.961,6.94-15.961,15.504V38.937z"/>
		<path fill="#22612B" d="M51.268,64H38.781l7.896-8.961H15.997C7.176,55.039,0,47.815,0,38.937V33.69
			c0-8.679,7.541-16.01,16.467-16.01h23.026l0.002,7.742H16.467c-4.75,0-8.764,3.786-8.764,8.268v5.246
			c0,4.576,3.721,8.299,8.294,8.299l30.873,0.057l-8.089-9.178h12.486L64,51.057L51.268,64z M41.022,62.988h9.819l11.739-11.932
			L50.842,39.126h-9.819l8.093,9.182l-33.119-0.061c-5.131,0-9.305-4.177-9.305-9.311V33.69c0-5.03,4.477-9.279,9.775-9.279h22.017
			l-0.002-5.719H16.467c-8.378,0-15.455,6.868-15.455,14.998v5.246c0,8.32,6.723,15.091,14.985,15.091h32.922L41.022,62.988z"/>
	</g>
	<g id="Datei_9_">
		<g>
			<linearGradient id="SVGID_2_" gradientUnits="userSpaceOnUse" x1="30.5586" y1="6.2148" x2="41.6245" y2="36.6181">
				<stop  offset="0" style="stop-color:#FFFFFF"/>
				<stop  offset="1" style="stop-color:#D7D9DA"/>
			</linearGradient>
			<rect x="18.389" y="10.644" fill="url(#SVGID_2_)" width="35.406" height="21.544"/>
			<path fill="#9D9D9C" d="M53.795,32.693H18.389l-0.507-0.506V10.644l0.507-0.506h35.406l0.506,0.506v21.544L53.795,32.693z
				 M18.895,31.682h34.395V11.149H18.895V31.682z"/>
		</g>
		<g>
			<linearGradient id="SVGID_3_" gradientUnits="userSpaceOnUse" x1="30.5586" y1="6.2148" x2="41.6245" y2="36.6181">
				<stop  offset="0" style="stop-color:#FFFFFF"/>
				<stop  offset="1" style="stop-color:#F4F4F6"/>
			</linearGradient>
			<polygon fill="url(#SVGID_3_)" points="53.795,10.644 35.737,21.343 18.389,10.644 18.389,32.188 53.795,32.188 			"/>
			<path fill="#9D9D9C" d="M53.795,32.693H18.389l-0.507-0.506V10.644l0.772-0.431l17.088,10.539l17.795-10.543l0.764,0.435v21.544
				L53.795,32.693z M18.895,31.682h34.395v-20.15L35.995,21.777l-0.524-0.004L18.895,11.55V31.682z"/>
		</g>
	</g>
</g>
</svg>
