<?xml version="1.0" encoding="utf-8"?>
<!-- Generator: Adobe Illustrator 16.0.0, SVG Export Plug-In . SVG Version: 6.00 Build 0)  -->
<!DOCTYPE svg PUBLIC "-//W3C//DTD SVG 1.1//EN" "http://www.w3.org/Graphics/SVG/1.1/DTD/svg11.dtd">
<svg version="1.1" id="Ebene_1" xmlns="http://www.w3.org/2000/svg" xmlns:xlink="http://www.w3.org/1999/xlink" x="0px" y="0px"
	 width="64px" height="64px" viewBox="0 0 64 64" enable-background="new 0 0 64 64" xml:space="preserve">
<g id="Datei_1_">
	<g>
		<linearGradient id="SVGID_1_" gradientUnits="userSpaceOnUse" x1="23.5879" y1="14.4941" x2="44.0019" y2="70.5811">
			<stop  offset="0" style="stop-color:#FFFFFF"/>
			<stop  offset="1" style="stop-color:#D8D9DA"/>
		</linearGradient>
		<polygon fill="url(#SVGID_1_)" points="63.487,29.03 34.584,10.491 6.811,29.03 6.811,63.487 63.487,63.487 		"/>
		<path fill="#9D9D9C" d="M64,64H6.298V28.759l28.28-18.873L64,28.747V64z M7.323,62.975h55.651V29.308L34.59,11.104L7.323,29.302
			V62.975z"/>
	</g>
	<g>
		<g>
			<linearGradient id="SVGID_2_" gradientUnits="userSpaceOnUse" x1="26.8447" y1="1.1016" x2="44.6181" y2="49.9335">
				<stop  offset="0" style="stop-color:#FFFFFF"/>
				<stop  offset="1" style="stop-color:#D8D9DA"/>
			</linearGradient>
			<polygon fill="url(#SVGID_2_)" points="53.401,0.512 28.461,0.512 16.682,12.943 16.682,46.735 53.401,46.735 			"/>
			<path fill="#9D9D9C" d="M53.908,47.248H16.17V12.735L28.237,0h25.671V47.248z M17.195,46.219h35.693V1.025H28.68L17.195,13.144
				V46.219z"/>
		</g>
		<linearGradient id="SVGID_3_" gradientUnits="userSpaceOnUse" x1="25.8027" y1="12.6982" x2="42.6758" y2="12.6982">
			<stop  offset="0" style="stop-color:#E1001A"/>
			<stop  offset="1" style="stop-color:#BD0926"/>
		</linearGradient>
		<rect x="25.803" y="11.236" fill="url(#SVGID_3_)" width="16.873" height="2.924"/>
		<rect x="25.803" y="17.245" fill="#9D9D9C" width="21.904" height="2.925"/>
		<rect x="25.803" y="23.259" fill="#9D9D9C" width="23.249" height="2.923"/>
		<rect x="25.803" y="29.274" fill="#9D9D9C" width="19.571" height="2.922"/>
		<rect x="25.803" y="35.281" fill="#9D9D9C" width="22.126" height="2.923"/>
		<g>
			<linearGradient id="SVGID_4_" gradientUnits="userSpaceOnUse" x1="21.2627" y1="3.1328" x2="25.2581" y2="14.11">
				<stop  offset="0" style="stop-color:#FFFFFF"/>
				<stop  offset="1" style="stop-color:#EBEBEB"/>
			</linearGradient>
			<polygon fill="url(#SVGID_4_)" points="28.461,0.512 16.682,12.943 28.461,12.943 			"/>
			<path fill="#9D9D9C" d="M28.461,13.328H16.682c-0.15,0-0.288-0.095-0.35-0.234c-0.059-0.141-0.035-0.309,0.074-0.418
				L28.179,0.251c0.107-0.113,0.279-0.153,0.423-0.095c0.145,0.061,0.242,0.2,0.242,0.355v12.432
				C28.844,13.156,28.672,13.328,28.461,13.328z M17.578,12.557h10.496V1.474L17.578,12.557z"/>
		</g>
	</g>
	<g>
		<linearGradient id="SVGID_5_" gradientUnits="userSpaceOnUse" x1="26.2969" y1="21.9375" x2="44.0014" y2="70.5804">
			<stop  offset="0" style="stop-color:#FFFFFF"/>
			<stop  offset="1" style="stop-color:#F5F5F6"/>
		</linearGradient>
		<polygon fill="url(#SVGID_5_)" points="63.487,29.03 34.584,46.141 6.811,29.03 6.811,63.487 63.487,63.487 		"/>
		<path fill="#9D9D9C" d="M64,64H6.298V28.111l28.291,17.426L64,28.13V64z M7.323,62.975h55.651v-33.05L34.579,46.739l-0.267-0.161
			L7.323,29.95V62.975z"/>
	</g>
</g>
</svg>
