<?xml version="1.0" encoding="utf-8"?>
<!-- Generator: Adobe Illustrator 16.0.0, SVG Export Plug-In . SVG Version: 6.00 Build 0)  -->
<!DOCTYPE svg PUBLIC "-//W3C//DTD SVG 1.1//EN" "http://www.w3.org/Graphics/SVG/1.1/DTD/svg11.dtd">
<svg version="1.1" id="Ebene_1" xmlns="http://www.w3.org/2000/svg" xmlns:xlink="http://www.w3.org/1999/xlink" x="0px" y="0px"
	 width="64px" height="64px" viewBox="0 0 64 64" enable-background="new 0 0 64 64" xml:space="preserve">
<g>
	<g>
		<path id="path3093_2_" fill="#4E4D4C" d="M0.056,0.056v3.045V6.14v3.043v3.044v3.04v3.043v3.044H3.1h3.04h3.043h3.045h3.039h3.043
			h3.044V18.31v-3.043v-3.04V9.183V6.14V3.101V0.056H18.31h-3.043h-3.039H9.183H6.14H3.1H0.056z M24.393,0.056v3.045V6.14h3.045
			V3.101h3.043V0.056h-3.043H24.393z M30.48,3.101V6.14h3.04V3.101H30.48z M33.521,6.14v3.043h3.044h3.044V6.14V3.101V0.056h-3.044
			v3.045V6.14H33.521z M33.521,9.183h-3.04h-3.043h-3.045v3.044h3.045h3.043v3.04h-3.043v3.043h3.043v3.044h3.04V18.31h3.044v3.044
			h-3.044v3.04h-3.04v3.044h3.04h3.044v3.043h3.044v-3.043v-3.044v-3.04V18.31v-3.043h-3.044v-3.04h-3.044V9.183z M36.564,30.48
			h-3.044v3.039h-3.04v3.045v3.044h3.04v3.038v3.046h-3.04h-3.043v-3.046h3.043v-3.038h-3.043v-3.044V33.52h-3.045V30.48h3.045
			v3.039h3.043V30.48v-3.043h-3.043h-3.045v-3.044h-3.039H18.31h-3.043v3.044h-3.039v3.043H9.183v-3.043h3.045v-3.044H9.183H6.14
			v3.044H3.1v3.043v3.039v3.045h3.04V33.52h3.043h3.045h3.039V30.48h3.043v-3.043h3.044v3.043H18.31v3.039h3.044v3.045H18.31v3.044
			h3.044h3.039v3.038v3.046v3.043h3.045v3.038h3.043h3.04h3.044v3.044h-3.044h-3.04h-3.043v-3.044h-3.045v3.044v3.045h3.045v3.039
			h-3.045v3.043h3.045h3.043v-3.043h3.04v3.043h3.044h3.044h3.038h3.045v-3.043h3.044v3.043h3.038h3.045h3.044v-3.043h-3.044h-3.045
			v-3.039h-3.038v-3.045h-3.044v3.045h-3.045h-3.038v3.039h-3.044v-3.039h3.044v-3.045v-3.044v-3.038h3.038v-3.043h-3.038h-3.044
			v-3.046h3.044v-3.038v-3.044V33.52h-3.044V30.48z M45.691,54.817v-3.044h-3.045v3.044H45.691z M51.773,57.862h3.045h3.044v-3.045
			h-3.044h-3.045V57.862z M57.862,54.817h3.039v-3.044v-3.038v-3.043v-3.046h-3.039h-3.044h-3.045v-3.038h-3.038v3.038h-3.044v3.046
			v3.043h3.044v-3.043h3.038v3.043v3.038h3.045h3.044V54.817z M48.735,39.608v-3.044h-3.044h-3.045v3.044h3.045H48.735z
			 M51.773,39.608h3.045v-3.044V33.52V30.48h3.044v3.039h3.039v3.045h3.043V33.52V30.48h-3.043v-3.043h3.043v-3.044h-3.043h-3.039
			v3.044h-3.044v-3.044h-3.045v3.044h-3.038v3.043h3.038v3.039v3.045V39.608z M48.735,30.48h-3.044v3.039h3.044V30.48z
			 M60.901,36.564h-3.039v3.044h3.039V36.564z M18.31,36.564V33.52h-3.043v3.045H18.31z M15.267,36.564h-3.039H9.183H6.14v3.044
			h3.043h3.045h3.039V36.564z M3.1,36.564H0.056v3.044H3.1V36.564z M3.1,27.438v-3.044H0.056v3.044H3.1z M24.393,24.394h3.045v-3.04
			V18.31h-3.045v3.044V24.394z M42.646,0.056v3.045V6.14v3.043v3.044v3.04v3.043v3.044h3.045h3.044h3.038h3.045h3.044h3.039h3.043
			V18.31v-3.043v-3.04V9.183V6.14V3.101V0.056h-3.043h-3.039h-3.044h-3.045h-3.038h-3.044H42.646z M3.1,3.101h3.04h3.043h3.045
			h3.039h3.043V6.14v3.043v3.044v3.04v3.043h-3.043h-3.039H9.183H6.14H3.1v-3.043v-3.04V9.183V6.14V3.101z M45.691,3.101h3.044
			h3.038h3.045h3.044h3.039V6.14v3.043v3.044v3.04v3.043h-3.039h-3.044h-3.045h-3.038h-3.044v-3.043v-3.04V9.183V6.14V3.101z
			 M6.14,6.14v3.043v3.044v3.04h3.043h3.045h3.039v-3.04V9.183V6.14h-3.039H9.183H6.14z M48.735,6.14v3.043v3.044v3.04h3.038h3.045
			h3.044v-3.04V9.183V6.14h-3.044h-3.045H48.735z M42.646,24.394v3.044h3.045v-3.044H42.646z M0.056,42.646v3.046v3.043v3.038v3.044
			v3.045v3.039v3.043H3.1h3.04h3.043h3.045h3.039h3.043h3.044v-3.043v-3.039v-3.045v-3.044v-3.038v-3.043v-3.046H18.31h-3.043
			h-3.039H9.183H6.14H3.1H0.056z M3.1,45.692h3.04h3.043h3.045h3.039h3.043v3.043v3.038v3.044v3.045v3.039h-3.043h-3.039H9.183H6.14
			H3.1v-3.039v-3.045v-3.044v-3.038V45.692z M6.14,48.735v3.038v3.044v3.045h3.043h3.045h3.039v-3.045v-3.044v-3.038h-3.039H9.183
			H6.14z M60.901,57.862v3.039h3.043v-3.039H60.901z"/>
		<path fill="#1D1D1B" d="M57.918,64H48.68v-3.043h-2.934V64H33.465v-3.043h-2.929V64h-6.198v-3.149h3.044v-2.933h-3.044v-6.194
			h3.044v-2.933h-3.044v-9.128h-6.083V36.62h-2.933v3.043H6.084V36.62H3.15v3.043H0v-3.154h3.044v-9.016H0v-3.154h3.15v3.043h2.934
			v-3.043h6.193v3.043h2.934v-3.043h9.127v-6.084h3.044v-3.044h3.044v-2.935h-6.088V9.127h9.127V6.194h-3.039V3.151h-2.933v3.043
			h-3.155V0h6.198v3.045h3.039v3.039h2.934V0h3.154v9.238h-6.088v2.933h3.045v3.04h3.043v15.325H36.62v2.928h3.043v9.238H36.62
			v2.935h6.082v3.154h-3.039v9.017h5.973v-2.935h-3.045v-3.149h3.155v3.038h3.045v3.046h2.933v-3.046h6.084v-2.933h-6.084v-6.082
			h-2.933v3.044h-3.155v-6.2h3.044v-2.928h-6.089v-3.154h6.2v3.044h2.933v-9.017h-2.933v3.038h-3.155v-3.148h3.044v-3.044h3.044
			v-3.043h3.15v3.043h2.934v-3.043H64v3.154h-3.043v2.933H64v6.194h-3.043v3.043h-3.149v-3.154h3.043v-2.935h-3.043v-3.038h-2.934
			v9.127h-3.045v2.928h9.128v12.282h-3.039v3.045h-6.089v2.933h6.089V64z M48.791,63.89h9.017v-2.933h-6.084v-3.039H48.68v-3.045
			h-2.934v3.045h-6.083v3.039h-3.154v-3.149h3.044V48.68h3.038v-2.933h-6.082v-3.156h3.044v-9.017h-3.044v-3.038h-2.934v3.038
			h-3.039v5.979h3.039v6.194h-6.193v-3.156h3.044v-2.928h-3.044v-6.089h-3.044v-3.148h3.155v3.038h2.933v-5.971h-6.088v-3.044
			h-9.016v3.044h-3.045v3.043h-3.15v-3.154h3.045v-2.933H6.194v3.044H3.15v9.016h2.934v-3.045h9.127v-3.038h3.044v-3.044h3.154
			v3.154h-3.044v2.928h3.044v3.156h-3.044v2.933h6.083v9.127h3.045v3.044h9.127v3.149h-9.238v-3.044h-2.934v5.979h3.045v3.149
			h-3.045v2.933h5.978v-3.039h3.149v3.039h12.061v-3.039h3.155V63.89z M36.62,60.851h2.933v-2.933H36.62V60.851z M51.829,57.808
			h5.979v-2.935h-5.979V57.808z M57.918,54.762h2.933v-12.06h-9.127v-3.039h-2.933v3.039h-3.045v5.978h2.934v-3.043h3.149v6.087
			h6.089V54.762z M42.702,54.762h2.934v-2.933h-2.934V54.762z M27.493,54.762h9.016v-2.933h-9.016V54.762z M27.493,45.637h5.972
			v-5.974h-2.929v3.039h-3.043V45.637z M57.918,39.553h2.933V36.62h-2.933V39.553z M51.829,39.553h2.934v-9.127h3.155v3.038h3.039
			v3.045h2.933v-5.973h-3.039v-3.154h3.039v-2.933h-5.972v3.044h-3.155v-3.044h-2.934v3.044h-3.038v2.933h3.038V39.553z
			 M42.702,39.553h5.978V36.62h-5.978V39.553z M27.493,39.553h2.933v-5.979h-2.933V39.553z M6.194,39.553h9.017V36.62H6.194V39.553z
			 M0.11,39.553h2.934V36.62H0.11V39.553z M18.365,36.509h2.933v-2.935h-2.933V36.509z M15.322,36.509h2.933v-2.935h-2.933V36.509z
			 M6.194,36.509h9.017v-2.935H6.194V36.509z M45.746,33.464h2.934v-2.928h-2.934V33.464z M30.536,33.464h2.929v-3.038h3.044v-2.933
			h-5.973V33.464z M24.448,33.464h2.934v-2.928h-2.934V33.464z M15.322,33.464h2.933v-2.928h-2.933V33.464z M36.62,30.426h2.933
			V15.322h-3.044v-3.046h-3.044V9.238h-9.017v2.933h6.088v3.151h-3.043v2.933h3.043v3.043h2.929v-3.043h3.155v3.154h-3.045v3.04
			h-3.039v2.933h6.084V30.426z M18.365,30.426h2.933v-2.933h-2.933V30.426z M9.238,30.426h2.934v-2.933H9.238V30.426z
			 M24.448,27.382h5.978v-3.043h3.039v-2.93h-3.039v-3.044h-2.933v6.084h-3.045V27.382z M0.11,27.382h2.934v-2.933H0.11V27.382z
			 M24.448,24.339h2.934v-5.974h-2.934V24.339z M33.575,21.298h2.934v-2.933h-2.934V21.298z M33.575,9.127h5.978V0.11H36.62v6.084
			h-3.045V9.127z M30.536,6.084h2.929V3.151h-2.929V6.084z M24.448,6.084h2.934V3.045h3.044V0.11h-5.978V6.084z M21.409,64H0V42.591
			h21.409V64z M0.11,63.89h21.188V42.702H0.11V63.89z M64,60.957h-3.149v-3.149H64V60.957z M60.957,60.851h2.933v-2.933h-2.933
			V60.851z M18.365,60.957H3.044v-15.32h15.321V60.957z M3.15,60.851h15.104V45.747H3.15V60.851z M15.322,57.918H6.084V48.68h9.238
			V57.918z M6.194,57.808h9.017v-9.017H6.194V57.808z M45.746,27.493h-3.155v-3.154h3.155V27.493z M42.702,27.382h2.934v-2.933
			h-2.934V27.382z M64,21.409H42.591V0H64V21.409z M42.702,21.298H63.89V0.11H42.702V21.298z M21.409,21.409H0V0h21.409V21.409z
			 M0.11,21.298h21.188V0.11H0.11V21.298z M60.957,18.365H45.636V3.045h15.321V18.365z M45.746,18.255h15.104V3.151H45.746V18.255z
			 M18.365,18.365H3.044V3.045h15.321V18.365z M3.15,18.255h15.104V3.151H3.15V18.255z M57.918,15.322H48.68V6.084h9.238V15.322z
			 M48.791,15.211h9.017V6.194h-9.017V15.211z M15.322,15.322H6.084V6.084h9.238V15.322z M6.194,15.211h9.017V6.194H6.194V15.211z"
			/>
	</g>
</g>
</svg>
