<?xml version="1.0" encoding="utf-8"?>
<!-- Generator: Adobe Illustrator 16.0.0, SVG Export Plug-In . SVG Version: 6.00 Build 0)  -->
<!DOCTYPE svg PUBLIC "-//W3C//DTD SVG 1.1//EN" "http://www.w3.org/Graphics/SVG/1.1/DTD/svg11.dtd">
<svg version="1.1" id="Ebene_1" xmlns="http://www.w3.org/2000/svg" xmlns:xlink="http://www.w3.org/1999/xlink" x="0px" y="0px"
	 width="64px" height="64px" viewBox="0 0 64 64" enable-background="new 0 0 64 64" xml:space="preserve">
<g>
	<path fill="#66160E" d="M57.777,33.717c0-1.07-0.076-2.12-0.212-3.152c2.375-1.204,4.059-2.584,6.182-4.308
		c-0.923-0.867-0.66-1.445-1.905-2.665c-2.713,0.053-4.267-1.484-6.795-1.004c-1.022-1.952-2.301-3.745-3.797-5.335
		c1.159-2.284,1.565-3.927,2.284-6.506c-0.808-1.267-1.039-1.837-2.104-3.282c-2.024,1.465-5.184,3.011-6.891,4.772
		c-2.061-1.041-4.291-1.791-6.639-2.202c-0.453-2.353-2.085-7.058-2.085-7.058L33.249,0.41l0.479,2.496
		c-0.694-0.003-1.391,0.015-2.086,0.071c-0.94,2.277-1.631,4.706-2.084,7.057c-2.349,0.413-4.579,1.163-6.641,2.202
		c-1.705-1.76-3.572-3.398-5.597-4.864c-1.376,0.763-2.615,1.72-3.86,2.661c0.72,2.576,1.59,4.937,2.748,7.219
		c-1.496,1.591-2.776,3.385-3.797,5.337c-2.528-0.48-9.219,1.057-11.931,1.004c0.906,1.461,1.628,2.183,2.592,2.905
		c2.121,1.724,4.445,2.864,6.819,4.066c-0.135,1.033-0.211,2.083-0.211,3.153c0,1.069,0.076,2.12,0.211,3.151
		c-2.374,1.203-5.809,4.501-7.931,6.224c1.19,1.458,1.513,1.778,2.567,2.568c2.712-0.054,5.354-0.335,7.885-0.815
		c1.02,1.951,2.3,3.745,3.795,5.335c-1.158,2.283-4.596,2.075-5.316,4.651c0.926,1.914,5.053,4.468,6.429,5.229
		c2.024-1.465,3.892-3.102,5.597-4.863c2.062,1.039,2.278,1.217,4.626,1.629c0.454,2.353,1.685,4.657,4.099,6.67
		c0.695,0.057,1.392,0.073,2.086,0.071h0.002c0.695,0.002,1.391-0.015,2.085-0.071c0.941-2.277,1.632-3.745,2.085-6.099
		c2.348-0.41,4.578-1.161,6.639-2.2c1.707,1.76,2.616,2.44,4.64,3.904c1.375-0.76,1.657-1.72,2.9-2.659
		c-0.719-2.578-1.101-3.306-2.26-5.587c1.494-1.59,4.205-4.059,5.227-6.01c2.529,0.48,4.212,0.762,6.926,0.815
		c0.559-1.441,1.133-2.881,1.479-4.387c-2.928-3.517-3.511-3.202-5.886-4.407C57.701,35.836,57.777,34.786,57.777,33.717z
		 M33.729,47.891c-7.827,0-14.173-6.348-14.173-14.174c0-7.829,6.346-14.176,14.173-14.176c7.828,0,14.176,6.347,14.176,14.176
		C47.904,41.543,41.557,47.891,33.729,47.891z"/>
	<path fill="#1D1D1B" d="M33.833,63.806h-0.206c-0.747,0-1.402-0.022-2.005-0.071c-0.048-0.004-0.095-0.023-0.133-0.054
		c-2.222-1.854-3.615-4.088-4.148-6.647c-2.052-0.367-2.464-0.576-4.066-1.387l-0.308-0.156c-1.72,1.763-3.572,3.364-5.505,4.763
		c-0.077,0.057-0.175,0.061-0.257,0.016c-0.053-0.029-5.403-3.006-6.527-5.334c-0.026-0.053-0.031-0.112-0.016-0.168
		c0.412-1.477,1.643-2.096,2.833-2.695c0.976-0.491,1.897-0.955,2.421-1.854c-1.426-1.538-2.646-3.253-3.632-5.103
		c-2.53,0.469-5.137,0.732-7.75,0.784c-0.051-0.006-0.105-0.016-0.148-0.047c-1.07-0.801-1.41-1.142-2.609-2.607
		c-0.04-0.049-0.061-0.112-0.053-0.176c0.006-0.063,0.037-0.122,0.087-0.162c0.57-0.463,1.242-1.045,1.953-1.663
		c1.941-1.685,4.133-3.586,5.87-4.51c-0.128-1.028-0.192-2.042-0.192-3.016c0-0.974,0.064-1.987,0.192-3.015l-0.206-0.104
		c-2.3-1.163-4.471-2.261-6.505-3.915c-0.927-0.693-1.694-1.434-2.646-2.964c-0.046-0.074-0.047-0.168-0.004-0.245
		c0.043-0.077,0.121-0.124,0.213-0.121l0.137,0.001c1.126,0,2.874-0.245,4.726-0.505c2.089-0.292,4.247-0.594,5.828-0.594
		c0.432,0,0.795,0.022,1.104,0.067c0.987-1.854,2.21-3.572,3.64-5.113c-1.079-2.15-1.936-4.416-2.691-7.113
		c-0.025-0.095,0.009-0.196,0.088-0.256l0.25-0.188c1.15-0.87,2.341-1.77,3.639-2.49c0.082-0.044,0.182-0.039,0.257,0.016
		c1.929,1.397,3.782,3,5.506,4.766c2.019-1,4.165-1.71,6.387-2.116c0.479-2.425,1.191-4.822,2.065-6.941
		c0.035-0.084,0.114-0.141,0.202-0.147c0.561-0.046,1.155-0.069,1.816-0.072l-0.425-2.211c-0.021-0.103,0.03-0.208,0.123-0.257
		c0.093-0.049,0.207-0.032,0.281,0.042l2.568,2.567c0.024,0.025,0.045,0.056,0.057,0.09c0.065,0.189,1.57,4.545,2.061,6.93
		c2.223,0.405,4.371,1.117,6.388,2.117c1.117-1.104,2.745-2.106,4.324-3.076c0.903-0.556,1.758-1.081,2.474-1.599
		c0.105-0.077,0.254-0.055,0.333,0.052c0.711,0.963,1.048,1.532,1.439,2.19c0.196,0.33,0.401,0.677,0.675,1.105
		c0.036,0.058,0.047,0.128,0.029,0.193l-0.179,0.638c-0.595,2.154-1.031,3.725-2.048,5.762c1.428,1.54,2.65,3.257,3.638,5.111
		c0.283-0.044,0.562-0.066,0.848-0.066c0.978,0,1.812,0.257,2.694,0.529c0.907,0.28,1.847,0.569,2.986,0.569l0.133-0.001
		c0.062,0.005,0.126,0.022,0.172,0.068c0.69,0.677,0.939,1.171,1.158,1.607c0.185,0.364,0.343,0.678,0.743,1.055
		c0.05,0.047,0.078,0.114,0.076,0.183c-0.003,0.069-0.035,0.134-0.089,0.177l-0.111,0.091c-2.055,1.668-3.686,2.993-5.962,4.168
		c0.128,1.027,0.191,2.041,0.191,3.015s-0.063,1.986-0.191,3.012c0.419,0.208,0.781,0.369,1.111,0.516
		c1.458,0.647,2.337,1.039,4.699,3.876c0.048,0.058,0.065,0.134,0.049,0.207c-0.328,1.424-0.863,2.804-1.379,4.138l-0.109,0.281
		c-0.037,0.095-0.115,0.146-0.229,0.152c-2.696-0.053-4.394-0.331-6.794-0.784c-0.843,1.505-2.592,3.271-4.006,4.701
		c-0.384,0.387-0.744,0.751-1.058,1.081c1.115,2.194,1.492,2.937,2.201,5.479c0.026,0.095-0.008,0.196-0.087,0.255
		c-0.521,0.396-0.871,0.799-1.212,1.188c-0.465,0.536-0.904,1.041-1.717,1.491c-0.081,0.044-0.18,0.041-0.257-0.016
		c-1.996-1.444-2.9-2.119-4.549-3.805c-2.018,0.998-4.164,1.709-6.386,2.113c-0.399,1.995-0.986,3.397-1.724,5.16l-0.342,0.823
		c-0.035,0.083-0.112,0.141-0.202,0.147C35.235,63.783,34.58,63.806,33.833,63.806z M33.728,63.327h0.105
		c0.673,0,1.271-0.021,1.818-0.06l0.287-0.688c0.774-1.855,1.335-3.194,1.728-5.229c0.019-0.099,0.095-0.175,0.193-0.191
		c2.29-0.4,4.502-1.134,6.572-2.179c0.092-0.047,0.206-0.026,0.28,0.048c1.663,1.715,2.549,2.387,4.481,3.786
		c0.659-0.392,1.047-0.839,1.458-1.311c0.326-0.377,0.664-0.764,1.154-1.155c-0.67-2.375-1.048-3.12-2.126-5.242l-0.073-0.145
		c-0.046-0.091-0.03-0.2,0.037-0.273c0.342-0.364,0.747-0.772,1.182-1.211c1.442-1.457,3.236-3.27,4.008-4.744
		c0.049-0.094,0.157-0.144,0.258-0.124c2.417,0.458,4.094,0.744,6.718,0.807l0.049-0.126c0.497-1.28,1.011-2.605,1.334-3.956
		c-2.232-2.666-3.024-3.019-4.449-3.652c-0.377-0.167-0.792-0.352-1.285-0.602c-0.091-0.046-0.143-0.145-0.129-0.245
		c0.14-1.063,0.21-2.112,0.21-3.119s-0.07-2.057-0.21-3.121c-0.014-0.101,0.038-0.199,0.129-0.245
		c2.275-1.153,3.9-2.463,5.934-4.114c-0.326-0.352-0.484-0.666-0.649-0.994c-0.204-0.406-0.417-0.826-0.997-1.411l-0.039,0
		c-1.211,0-2.187-0.3-3.128-0.59c-0.848-0.261-1.648-0.508-2.553-0.508c-0.313,0-0.618,0.029-0.933,0.089
		c-0.104,0.019-0.209-0.031-0.258-0.125c-1.007-1.924-2.271-3.701-3.759-5.282c-0.068-0.074-0.085-0.183-0.039-0.273
		c1.05-2.068,1.486-3.644,2.09-5.823l0.148-0.536c-0.248-0.393-0.441-0.718-0.625-1.028c-0.359-0.602-0.67-1.128-1.273-1.959
		c-0.688,0.483-1.477,0.969-2.31,1.48c-1.612,0.991-3.279,2.016-4.354,3.126c-0.074,0.074-0.188,0.094-0.28,0.047
		c-2.069-1.045-4.281-1.778-6.572-2.179c-0.099-0.017-0.175-0.093-0.193-0.191c-0.42-2.177-1.88-6.453-2.059-6.973l-1.975-1.977
		l0.33,1.729c0.015,0.07-0.004,0.143-0.05,0.198c-0.047,0.055-0.113,0.086-0.185,0.086h-0.001l-0.138,0
		c-0.649,0-1.235,0.02-1.782,0.06c-0.856,2.104-1.552,4.478-2.014,6.875c-0.02,0.097-0.096,0.173-0.194,0.19
		c-2.291,0.403-4.502,1.136-6.574,2.18c-0.093,0.048-0.205,0.028-0.279-0.047c-1.703-1.758-3.533-3.354-5.441-4.747
		c-1.219,0.691-2.352,1.548-3.449,2.378l-0.12,0.091c0.753,2.66,1.608,4.894,2.688,7.018c0.046,0.09,0.03,0.199-0.039,0.273
		c-1.489,1.583-2.753,3.36-3.76,5.283c-0.05,0.094-0.152,0.146-0.257,0.125c-0.311-0.059-0.711-0.089-1.19-0.089
		c-1.547,0-3.689,0.3-5.761,0.59c-1.718,0.241-3.348,0.468-4.5,0.504c0.807,1.228,1.468,1.852,2.301,2.476
		c2.003,1.627,4.152,2.714,6.427,3.865l0.357,0.181c0.091,0.046,0.143,0.144,0.13,0.245c-0.14,1.065-0.21,2.115-0.21,3.122
		c0,1.006,0.07,2.056,0.21,3.121c0.013,0.101-0.039,0.199-0.13,0.245c-1.706,0.864-4.045,2.893-5.923,4.523
		c-0.639,0.555-1.245,1.08-1.779,1.521c1.032,1.256,1.364,1.584,2.308,2.293c2.62-0.057,5.23-0.329,7.763-0.809
		c0.104-0.022,0.207,0.03,0.257,0.124c1.006,1.923,2.27,3.699,3.757,5.281c0.07,0.073,0.086,0.184,0.04,0.272
		c-0.577,1.136-1.662,1.683-2.711,2.212c-1.122,0.564-2.183,1.1-2.562,2.308c0.928,1.759,4.621,4.104,6.155,4.968
		c1.913-1.396,3.743-2.991,5.441-4.746c0.072-0.074,0.187-0.095,0.279-0.048l0.466,0.236c1.631,0.827,1.971,0.999,4.094,1.372
		c0.099,0.017,0.175,0.092,0.193,0.189c0.481,2.493,1.813,4.675,3.96,6.482c0.566,0.044,1.186,0.065,1.889,0.065H33.728z
		 M33.729,48.13c-7.947,0-14.413-6.466-14.413-14.413c0-7.949,6.466-14.417,14.413-14.417c7.948,0,14.414,6.467,14.414,14.417
		C48.143,41.664,41.677,48.13,33.729,48.13z M33.729,19.78c-7.683,0-13.934,6.252-13.934,13.937c0,7.683,6.251,13.935,13.934,13.935
		c7.685,0,13.936-6.252,13.936-13.935C47.664,26.032,41.413,19.78,33.729,19.78z"/>
</g>
<g>
	<linearGradient id="SVGID_1_" gradientUnits="userSpaceOnUse" x1="0.4814" y1="31.1484" x2="61.8418" y2="31.1484">
		<stop  offset="0" style="stop-color:#E30613"/>
		<stop  offset="1" style="stop-color:#BE1622"/>
	</linearGradient>
	<path fill="url(#SVGID_1_)" d="M55.21,31.149c0-1.069-0.077-2.12-0.211-3.151c2.374-1.204,4.721-2.682,6.843-4.406
		c-0.346-1.506-0.921-2.946-1.479-4.386c-2.712,0.053-5.354,0.335-7.884,0.815c-1.021-1.952-2.3-3.745-3.796-5.335
		c1.159-2.284,2.029-4.643,2.747-7.221c-1.244-0.941-2.485-1.898-3.859-2.66c-2.024,1.465-3.892,3.104-5.598,4.865
		c-2.061-1.041-4.291-1.79-6.64-2.201c-0.453-2.353-1.144-4.781-2.084-7.058c-0.696-0.057-1.392-0.073-2.086-0.071h-0.002
		c-0.695-0.002-1.392,0.015-2.086,0.071c-0.939,2.277-1.631,4.705-2.084,7.057c-2.348,0.413-4.578,1.162-6.64,2.201
		c-1.707-1.759-3.573-3.398-5.597-4.863c-1.376,0.762-2.617,1.719-3.862,2.66c0.721,2.576,1.59,4.937,2.749,7.219
		c-1.496,1.591-2.775,3.385-3.798,5.337c-2.527-0.48-5.17-0.762-7.882-0.815c-0.56,1.44-1.134,2.88-1.48,4.386
		c2.121,1.724,4.469,3.202,6.845,4.405c-0.137,1.033-0.213,2.083-0.213,3.152S7.189,33.27,7.326,34.3
		c-2.376,1.203-4.724,2.683-6.845,4.406c0.347,1.505,0.921,2.944,1.48,4.386c2.712-0.054,5.354-0.335,7.883-0.814
		c1.022,1.951,2.301,3.745,3.797,5.335c-1.159,2.282-2.028,4.643-2.749,7.219c1.245,0.941,2.486,1.899,3.862,2.661
		c2.023-1.465,3.89-3.101,5.597-4.863c2.062,1.039,4.292,1.789,6.64,2.2c0.453,2.353,1.145,4.78,2.084,7.058
		c0.694,0.057,1.391,0.073,2.086,0.071h0.002c0.694,0.002,1.39-0.015,2.086-0.071c0.94-2.277,1.631-4.705,2.084-7.058
		c2.349-0.411,4.579-1.161,6.64-2.2c1.706,1.76,3.573,3.398,5.598,4.863c1.374-0.762,2.615-1.72,3.859-2.661
		c-0.719-2.576-1.588-4.937-2.747-7.219c1.494-1.59,2.775-3.384,3.795-5.335c2.53,0.479,5.172,0.761,7.885,0.814
		c0.559-1.441,1.134-2.881,1.479-4.386c-2.122-1.723-4.469-3.203-6.843-4.406C55.133,33.27,55.21,32.218,55.21,31.149z
		 M31.161,45.323c-7.827,0-14.175-6.347-14.175-14.174c0-7.829,6.348-14.176,14.175-14.176c7.829,0,14.175,6.347,14.175,14.176
		C45.336,38.977,38.99,45.323,31.161,45.323z"/>
	<path fill="#A42423" d="M31.265,62.198h-0.206c-0.749,0-1.405-0.024-2.003-0.074c-0.09-0.007-0.167-0.064-0.202-0.146
		c-0.876-2.12-1.588-4.517-2.066-6.941c-2.22-0.404-4.367-1.115-6.386-2.114c-1.721,1.763-3.572,3.364-5.507,4.765
		c-0.076,0.056-0.174,0.06-0.257,0.016c-1.306-0.724-2.504-1.631-3.661-2.507l-0.229-0.174c-0.078-0.059-0.112-0.16-0.086-0.255
		c0.741-2.653,1.622-4.983,2.689-7.112c-1.425-1.537-2.648-3.254-3.636-5.108c-2.527,0.471-5.134,0.734-7.75,0.787
		c-0.099-0.017-0.19-0.06-0.228-0.153l-0.104-0.271c-0.521-1.339-1.058-2.722-1.386-4.149c-0.02-0.089,0.012-0.182,0.083-0.239
		c2.01-1.634,4.275-3.099,6.735-4.357c-0.128-1.02-0.191-2.033-0.191-3.015c0-0.98,0.063-1.994,0.191-3.016
		c-2.463-1.259-4.729-2.724-6.735-4.355c-0.071-0.058-0.103-0.15-0.083-0.24c0.329-1.432,0.868-2.819,1.39-4.16l0.101-0.259
		c0.037-0.094,0.146-0.147,0.228-0.153c2.611,0.051,5.217,0.315,7.75,0.786c0.985-1.853,2.209-3.57,3.636-5.109
		c-1.066-2.13-1.948-4.458-2.689-7.114c-0.026-0.095,0.008-0.196,0.086-0.256l0.245-0.184c1.152-0.872,2.344-1.774,3.645-2.494
		c0.083-0.045,0.183-0.039,0.257,0.016c1.929,1.397,3.78,2.999,5.507,4.766c2.016-0.999,4.164-1.71,6.386-2.116
		c0.479-2.425,1.191-4.822,2.066-6.941c0.035-0.084,0.112-0.141,0.202-0.147c0.599-0.049,1.249-0.073,1.985-0.073h0.243
		c0.734,0,1.383,0.023,1.984,0.073c0.09,0.007,0.168,0.063,0.202,0.147c0.886,2.146,1.581,4.481,2.066,6.942
		c2.223,0.404,4.369,1.116,6.386,2.116C43.648,7.61,45.5,6.007,47.43,4.61c0.075-0.054,0.176-0.061,0.257-0.016
		c1.308,0.725,2.506,1.633,3.667,2.511l0.22,0.167c0.079,0.06,0.113,0.161,0.088,0.256c-0.738,2.648-1.618,4.978-2.689,7.115
		c1.429,1.539,2.65,3.256,3.637,5.108c2.534-0.471,5.14-0.735,7.749-0.786c0.081,0.005,0.191,0.059,0.229,0.153l0.1,0.258
		c0.521,1.341,1.06,2.728,1.389,4.161c0.021,0.089-0.012,0.182-0.082,0.239c-2.005,1.63-4.271,3.096-6.735,4.357
		c0.127,1.027,0.192,2.04,0.192,3.014c0,0.975-0.065,1.988-0.192,3.014c2.462,1.26,4.727,2.726,6.735,4.358
		c0.07,0.058,0.103,0.15,0.082,0.239c-0.328,1.429-0.864,2.812-1.384,4.149l-0.104,0.271c-0.037,0.094-0.124,0.136-0.229,0.153
		c-2.614-0.053-5.222-0.316-7.75-0.787c-0.985,1.849-2.206,3.566-3.636,5.108c1.082,2.154,1.938,4.419,2.689,7.112
		c0.025,0.095-0.009,0.196-0.087,0.255l-0.205,0.156c-1.165,0.884-2.369,1.796-3.683,2.524c-0.081,0.044-0.181,0.04-0.257-0.016
		c-1.926-1.394-3.779-2.996-5.507-4.765c-2.02,0.999-4.165,1.71-6.386,2.114c-0.485,2.461-1.181,4.794-2.066,6.941
		c-0.034,0.083-0.112,0.14-0.202,0.146C32.661,62.174,32.025,62.198,31.265,62.198z M31.16,61.718h0.104
		c0.685,0,1.269-0.019,1.819-0.06c0.855-2.1,1.551-4.474,2.015-6.875c0.018-0.098,0.095-0.173,0.193-0.189
		c2.29-0.4,4.502-1.134,6.573-2.179c0.092-0.046,0.207-0.028,0.279,0.048c1.705,1.759,3.537,3.354,5.442,4.745
		c1.233-0.699,2.381-1.569,3.492-2.412l0.075-0.058c-0.749-2.654-1.604-4.888-2.686-7.018c-0.046-0.091-0.03-0.199,0.039-0.273
		c1.49-1.583,2.753-3.36,3.758-5.28c0.05-0.094,0.155-0.145,0.258-0.125c2.502,0.476,5.085,0.747,7.677,0.807l0.044-0.113
		c0.496-1.274,1.007-2.594,1.329-3.938c-1.994-1.605-4.242-3.047-6.683-4.284c-0.091-0.046-0.143-0.144-0.13-0.245
		c0.14-1.063,0.21-2.112,0.21-3.12c0-1.006-0.07-2.056-0.21-3.121c-0.013-0.101,0.039-0.199,0.13-0.245
		c2.445-1.239,4.691-2.68,6.683-4.283c-0.323-1.349-0.836-2.67-1.333-3.949l-0.04-0.103c-2.588,0.06-5.169,0.331-7.676,0.808
		c-0.105,0.017-0.208-0.031-0.258-0.125c-1.006-1.924-2.271-3.701-3.758-5.282c-0.07-0.074-0.086-0.183-0.04-0.273
		c1.085-2.137,1.939-4.372,2.686-7.02l-0.092-0.07c-1.105-0.838-2.248-1.703-3.476-2.399c-1.908,1.393-3.738,2.99-5.442,4.748
		c-0.072,0.075-0.188,0.095-0.279,0.047c-2.07-1.044-4.281-1.777-6.573-2.179c-0.099-0.017-0.176-0.093-0.193-0.191
		c-0.464-2.402-1.159-4.775-2.015-6.875c-0.547-0.041-1.138-0.06-1.8-0.06h-0.243c-0.664,0-1.254,0.019-1.8,0.06
		c-0.856,2.104-1.553,4.477-2.016,6.875c-0.019,0.097-0.095,0.173-0.192,0.19c-2.293,0.403-4.505,1.136-6.574,2.179
		c-0.093,0.048-0.206,0.027-0.28-0.047c-1.704-1.758-3.535-3.354-5.441-4.747c-1.22,0.692-2.355,1.551-3.455,2.382l-0.114,0.087
		c0.751,2.655,1.606,4.889,2.688,7.018c0.045,0.091,0.029,0.2-0.039,0.273c-1.488,1.582-2.753,3.359-3.76,5.284
		c-0.049,0.094-0.154,0.144-0.258,0.125c-2.506-0.477-5.088-0.748-7.674-0.808l-0.04,0.104c-0.497,1.279-1.011,2.6-1.336,3.948
		c1.994,1.605,4.241,3.046,6.686,4.282c0.091,0.046,0.143,0.145,0.13,0.246c-0.141,1.058-0.211,2.108-0.211,3.121
		c0,1.014,0.07,2.064,0.211,3.12c0.013,0.101-0.039,0.2-0.13,0.246c-2.441,1.235-4.689,2.676-6.686,4.283
		c0.325,1.344,0.836,2.661,1.331,3.937l0.045,0.114c2.592-0.06,5.173-0.331,7.675-0.807c0.104-0.021,0.208,0.031,0.259,0.124
		c1.008,1.926,2.271,3.703,3.758,5.281c0.068,0.074,0.084,0.183,0.039,0.273c-1.082,2.131-1.938,4.364-2.688,7.018l0.098,0.075
		c1.104,0.836,2.246,1.7,3.472,2.395c1.913-1.395,3.743-2.991,5.441-4.745c0.072-0.076,0.188-0.094,0.28-0.048
		c2.071,1.045,4.284,1.778,6.574,2.179c0.098,0.017,0.174,0.092,0.192,0.19c0.463,2.396,1.159,4.771,2.016,6.874
		c0.545,0.041,1.143,0.06,1.817,0.06H31.16z M31.161,45.562c-7.948,0-14.413-6.466-14.413-14.414
		c0-7.949,6.465-14.416,14.413-14.416c7.947,0,14.415,6.467,14.415,14.416C45.576,39.097,39.108,45.562,31.161,45.562z
		 M31.161,17.213c-7.685,0-13.935,6.252-13.935,13.936c0,7.683,6.25,13.934,13.935,13.934c7.684,0,13.936-6.251,13.936-13.934
		C45.097,23.465,38.845,17.213,31.161,17.213z"/>
</g>
<g>
	<path fill="#A42423" d="M63.76,26.247l-1.796-2.611l-1.445-4.387c0,0,1.767,2.14,2.409,3.263
		C63.442,23.414,63.76,26.247,63.76,26.247z"/>
	<path fill="#801D18" d="M63.76,26.486c-0.076,0-0.151-0.037-0.197-0.104l-1.797-2.611c-0.013-0.018-0.022-0.039-0.029-0.061
		l-1.444-4.387c-0.037-0.109,0.011-0.229,0.111-0.284c0.101-0.056,0.228-0.031,0.3,0.057c0.073,0.088,1.787,2.168,2.432,3.296
		c0.533,0.934,0.851,3.708,0.863,3.826c0.013,0.109-0.051,0.213-0.153,0.252C63.816,26.481,63.789,26.486,63.76,26.486z
		 M62.182,23.528l1.205,1.752c-0.138-0.889-0.371-2.129-0.668-2.649c-0.339-0.594-1.011-1.492-1.555-2.19L62.182,23.528z"/>
</g>
<g>
	<path fill="#A42423" d="M62.093,45.674l-1.608-2.568l1.479-4.386c0,0,1.302,1.992,1.464,2.633
		C63.588,41.994,62.093,45.674,62.093,45.674z"/>
	<path fill="#801D18" d="M62.093,45.913c-0.083,0-0.159-0.042-0.203-0.112l-1.608-2.567c-0.038-0.062-0.047-0.136-0.024-0.205
		l1.479-4.386c0.029-0.087,0.105-0.149,0.197-0.161c0.081-0.01,0.181,0.029,0.23,0.107c0.136,0.207,1.329,2.045,1.495,2.706
		c0.172,0.684-1.09,3.843-1.345,4.469c-0.033,0.083-0.111,0.142-0.201,0.149C62.106,45.913,62.1,45.913,62.093,45.913z
		 M60.747,43.075l1.299,2.07c0.652-1.657,1.229-3.409,1.149-3.733c-0.101-0.397-0.734-1.459-1.164-2.143L60.747,43.075z"/>
</g>
<g>
	<path fill="#A42423" d="M49.179,59.101l-1.608-1.608l3.859-2.661c0,0,0.489,0.969,0.649,1.61
		C52.24,57.081,49.179,59.101,49.179,59.101z"/>
	<path fill="#801D18" d="M49.179,59.341c-0.062,0-0.123-0.025-0.169-0.071L47.4,57.661c-0.051-0.05-0.075-0.12-0.069-0.19
		c0.007-0.071,0.045-0.137,0.104-0.176l3.858-2.662c0.059-0.038,0.129-0.05,0.195-0.033c0.068,0.017,0.124,0.062,0.154,0.123
		c0.021,0.041,0.505,1,0.669,1.659c0.176,0.701-1.804,2.13-3.001,2.919C49.271,59.327,49.225,59.341,49.179,59.341z M47.942,57.525
		l1.268,1.268c1.45-0.976,2.643-2.011,2.637-2.301c-0.104-0.411-0.359-0.982-0.511-1.306L47.942,57.525z"/>
</g>
<g>
	<path fill="#A42423" d="M31.689,63.703l-2.614-1.816l4.005,0.208c0,0,1.978,0.752,2.735,1.4
		C36.318,63.924,31.689,63.703,31.689,63.703z"/>
	<path fill="#801D18" d="M33.991,64c-1.103,0-2.301-0.057-2.312-0.057c-0.045-0.003-0.09-0.017-0.126-0.044l-2.614-1.816
		c-0.088-0.062-0.125-0.174-0.09-0.275c0.035-0.101,0.15-0.154,0.239-0.161l4.004,0.208c0.024,0.002,0.05,0.007,0.072,0.016
		c0.083,0.031,2.027,0.775,2.809,1.442c0.162,0.14,0.121,0.297,0.104,0.342C36,63.863,35.813,64,33.991,64z M31.769,63.467
		c0.27,0.012,1.282,0.054,2.223,0.054c0.729,0,1.148-0.025,1.389-0.053c-0.774-0.514-2.119-1.046-2.351-1.135l-3.127-0.165
		L31.769,63.467z"/>
</g>
</svg>
