<?xml version="1.0" encoding="utf-8"?>
<!-- Generator: Adobe Illustrator 16.0.0, SVG Export Plug-In . SVG Version: 6.00 Build 0)  -->
<!DOCTYPE svg PUBLIC "-//W3C//DTD SVG 1.1//EN" "http://www.w3.org/Graphics/SVG/1.1/DTD/svg11.dtd">
<svg version="1.1" id="Ebene_1" xmlns="http://www.w3.org/2000/svg" xmlns:xlink="http://www.w3.org/1999/xlink" x="0px" y="0px"
	 width="64px" height="64px" viewBox="0 0 64 64" enable-background="new 0 0 64 64" xml:space="preserve">
<g>
	<g>
		<g>
			<linearGradient id="SVGID_1_" gradientUnits="userSpaceOnUse" x1="0.5059" y1="29.3057" x2="10.7612" y2="29.3057">
				<stop  offset="0" style="stop-color:#E50512"/>
				<stop  offset="1" style="stop-color:#C41726"/>
			</linearGradient>
			<path fill="url(#SVGID_1_)" d="M10.761,33.342c0,3.118-1.151,5.669-2.558,5.669s-3.714,0-5.127,0c-1.414,0-2.57-2.551-2.57-5.669
				V25.27c0-3.118,1.156-5.669,2.57-5.669c1.413,0,3.721,0,5.127,0s2.558,2.551,2.558,5.669V33.342z"/>
		</g>
		<path fill="#950E01" d="M8.203,39.517H3.076C1.351,39.517,0,36.777,0,33.28v-7.948c0-3.497,1.351-6.236,3.075-6.236h5.127
			c1.718,0,3.063,2.739,3.063,6.236v7.948C11.267,36.777,9.921,39.517,8.203,39.517z M3.076,20.106
			c-0.975,0-2.064,2.235-2.064,5.226v7.948c0,2.99,1.09,5.226,2.064,5.226h5.127c0.969,0,2.053-2.235,2.053-5.226v-7.948
			c0-2.99-1.083-5.226-2.053-5.226H3.076z"/>
	</g>
	<g>
		<linearGradient id="SVGID_2_" gradientUnits="userSpaceOnUse" x1="14.3174" y1="50.0176" x2="33.4351" y2="50.0176">
			<stop  offset="0" style="stop-color:#E50512"/>
			<stop  offset="1" style="stop-color:#C41726"/>
		</linearGradient>
		<polygon fill="url(#SVGID_2_)" points="33.435,63.494 19.45,63.494 14.317,36.541 26.637,36.541 30.631,57.508 32.567,58.934 		
			"/>
		<path fill="#950E01" d="M34.046,64H19.032l-5.325-27.965h13.349l4.035,21.184l1.936,1.426L34.046,64z M19.868,62.989h12.957
			l-0.717-3.767l-1.936-1.426l-3.953-20.75H14.928L19.868,62.989z"/>
	</g>
	<g>
		<linearGradient id="SVGID_3_" gradientUnits="userSpaceOnUse" x1="9.9443" y1="34.5615" x2="29.8931" y2="34.5615">
			<stop  offset="0" style="stop-color:#FFFFFF"/>
			<stop  offset="1" style="stop-color:#F4F4F6"/>
		</linearGradient>
		<polygon fill="url(#SVGID_3_)" points="29.893,48.038 15.077,48.038 9.944,21.085 24.76,21.085 		"/>
		<path fill="#9D9D9C" d="M29.893,48.544H15.077l-0.497-0.411L9.448,21.18l0.497-0.601H24.76l0.497,0.411l5.133,26.953
			L29.893,48.544z M15.496,47.533h13.787l-4.941-25.942H10.555L15.496,47.533z"/>
	</g>
	<g>
		<linearGradient id="SVGID_4_" gradientUnits="userSpaceOnUse" x1="31.8545" y1="-1.8193" x2="31.8545" y2="48.002">
			<stop  offset="0.5933" style="stop-color:#FFFFFF"/>
			<stop  offset="1" style="stop-color:#CDCDCD"/>
		</linearGradient>
		<path fill="url(#SVGID_4_)" d="M58.064,53.8c0,0-15.992-14.855-52.419-14.855V19.661c35.552,0,52.419-15.683,52.419-15.683V53.8z"
			/>
		<path fill="#9D9D9C" d="M58.568,54.957L57.72,54.17c-0.16-0.146-16.301-14.721-52.075-14.721H5.14V19.156h0.505
			c18.246,0,31.433-4.228,39.282-7.775c8.504-3.842,12.75-7.734,12.793-7.773l0.848-0.787V54.957z M6.151,38.439
			c18.636,0.071,31.788,4.091,39.565,7.469c6.404,2.782,10.25,5.538,11.842,6.805V5.061C53.712,8.125,36.8,20.036,6.151,20.166
			V38.439z"/>
	</g>
	<g>
		<g>
			<linearGradient id="SVGID_5_" gradientUnits="userSpaceOnUse" x1="58.064" y1="28.874" x2="63.4956" y2="28.874">
				<stop  offset="0" style="stop-color:#E50512"/>
				<stop  offset="1" style="stop-color:#C41726"/>
			</linearGradient>
			<path fill="url(#SVGID_5_)" d="M63.496,52.854c0,1.56-1.222,2.835-2.716,2.835s-2.716-1.275-2.716-2.835V4.895
				c0-1.56,1.222-2.835,2.716-2.835s2.716,1.275,2.716,2.835V52.854z"/>
		</g>
		<path fill="#950E01" d="M60.779,56.194c-1.775,0-3.221-1.513-3.221-3.372V4.926c0-1.859,1.445-3.371,3.221-3.371
			S64,3.066,64,4.926v47.896C64,54.682,62.554,56.194,60.779,56.194z M60.779,2.565c-1.219,0-2.211,1.06-2.211,2.36v47.896
			c0,1.302,0.992,2.36,2.211,2.36s2.211-1.059,2.211-2.36V4.926C62.99,3.625,61.998,2.565,60.779,2.565z"/>
	</g>
</g>
</svg>
