<?xml version="1.0" encoding="utf-8"?>
<!-- Generator: Adobe Illustrator 16.0.0, SVG Export Plug-In . SVG Version: 6.00 Build 0)  -->
<!DOCTYPE svg PUBLIC "-//W3C//DTD SVG 1.1//EN" "http://www.w3.org/Graphics/SVG/1.1/DTD/svg11.dtd">
<svg version="1.1" id="Ebene_1" xmlns="http://www.w3.org/2000/svg" xmlns:xlink="http://www.w3.org/1999/xlink" x="0px" y="0px"
	 width="64px" height="64px" viewBox="0 0 64 64" enable-background="new 0 0 64 64" xml:space="preserve">
<g>
	<linearGradient id="SVGID_1_" gradientUnits="userSpaceOnUse" x1="32" y1="13.5938" x2="32" y2="47.0635">
		<stop  offset="0" style="stop-color:#E5332A"/>
		<stop  offset="1" style="stop-color:#BD1622"/>
	</linearGradient>
	<rect x="4.108" y="13.594" fill="url(#SVGID_1_)" width="55.783" height="33.47"/>
	<linearGradient id="SVGID_2_" gradientUnits="userSpaceOnUse" x1="4.3574" y1="32.2227" x2="57.6221" y2="32.2227">
		<stop  offset="0" style="stop-color:#FFFFFF"/>
		<stop  offset="1" style="stop-color:#D7D9DA"/>
	</linearGradient>
	<polygon fill="url(#SVGID_2_)" points="48.114,12.177 48.114,28.356 44.403,25.87 39.863,33.566 39.863,12.177 39.522,12.177 
		39.522,34.151 36.973,38.47 31.271,35.294 31.271,12.177 30.929,12.177 30.929,35.103 24.773,31.678 22.674,34.235 22.674,12.177 
		22.332,12.177 22.332,34.656 18.773,39 14.084,36.69 14.084,12.177 13.739,12.177 13.739,36.523 10.012,34.685 4.357,38.817 
		4.357,42.113 10.477,37.581 13.739,39.187 13.739,52.269 14.084,52.269 14.084,39.355 19.593,42.069 22.332,38.721 22.332,52.269 
		22.674,52.269 22.674,38.302 25.508,34.846 30.929,37.864 30.929,52.269 31.271,52.269 31.271,38.056 38.059,41.833 39.522,39.406 
		39.522,52.269 39.863,52.269 39.863,38.839 45.296,29.843 48.114,32.081 48.114,52.269 48.46,52.269 48.46,31.967 57.622,18.196 
		56.369,17.806 48.46,28.238 48.46,12.177 	"/>
	<g>
		<linearGradient id="SVGID_3_" gradientUnits="userSpaceOnUse" x1="27.3867" y1="56.8545" x2="35.7441" y2="56.8545">
			<stop  offset="0" style="stop-color:#FFFFFF"/>
			<stop  offset="1" style="stop-color:#F4F4F6"/>
		</linearGradient>
		<rect x="27.387" y="53.812" fill="url(#SVGID_3_)" width="8.357" height="6.086"/>
		<path fill="#9D9D9C" d="M36.104,60.257h-9.076v-6.804h9.076V60.257z M27.745,59.537h7.64v-5.366h-7.64V59.537z"/>
	</g>
	<g>
		<linearGradient id="SVGID_4_" gradientUnits="userSpaceOnUse" x1="27.3867" y1="56.8545" x2="35.7441" y2="56.8545">
			<stop  offset="0" style="stop-color:#FFFFFF"/>
			<stop  offset="1" style="stop-color:#F4F4F6"/>
		</linearGradient>
		<rect x="27.387" y="53.812" fill="url(#SVGID_4_)" width="8.357" height="6.086"/>
		<path fill="#9D9D9C" d="M36.104,60.257h-9.076v-6.804h9.076V60.257z M27.745,59.537h7.64v-5.366h-7.64V59.537z"/>
	</g>
	<g>
		<g>
			<linearGradient id="SVGID_5_" gradientUnits="userSpaceOnUse" x1="25.6641" y1="61.1318" x2="37.4609" y2="61.1318">
				<stop  offset="0" style="stop-color:#FFFFFF"/>
				<stop  offset="1" style="stop-color:#F4F4F6"/>
			</linearGradient>
			<path fill="url(#SVGID_5_)" d="M37.461,62.553H25.664c0-1.566,0.182-2.841,0.402-2.841H37.06
				C37.281,59.712,37.461,60.986,37.461,62.553"/>
			<path fill="#9D9D9C" d="M37.819,62.912H25.305v-0.359c0-3.202,0.535-3.202,0.762-3.202H37.06c0.228,0,0.76,0,0.76,3.202V62.912z
				 M26.028,62.193h11.068c-0.02-1.118-0.13-1.85-0.214-2.123h-10.64C26.158,60.344,26.047,61.075,26.028,62.193z"/>
		</g>
		<g>
			<linearGradient id="SVGID_6_" gradientUnits="userSpaceOnUse" x1="25.6641" y1="61.1318" x2="37.4609" y2="61.1318">
				<stop  offset="0" style="stop-color:#FFFFFF"/>
				<stop  offset="1" style="stop-color:#F4F4F6"/>
			</linearGradient>
			<path fill="url(#SVGID_6_)" d="M37.461,62.553H25.664c0-1.566,0.182-2.841,0.402-2.841H37.06
				C37.281,59.712,37.461,60.986,37.461,62.553"/>
			<path fill="#9D9D9C" d="M37.819,62.912H25.305v-0.359c0-3.202,0.535-3.202,0.762-3.202H37.06c0.228,0,0.76,0,0.76,3.202V62.912z
				 M26.028,62.193h11.068c-0.02-1.118-0.13-1.85-0.214-2.123h-10.64C26.158,60.344,26.047,61.075,26.028,62.193z"/>
		</g>
	</g>
	<g>
		<linearGradient id="SVGID_7_" gradientUnits="userSpaceOnUse" x1="0.3594" y1="32.2227" x2="63.6406" y2="32.2227">
			<stop  offset="0" style="stop-color:#FFFFFF"/>
			<stop  offset="1" style="stop-color:#F4F4F6"/>
		</linearGradient>
		<path fill="url(#SVGID_7_)" d="M61.543,10.056H2.457c-1.16,0-2.098,0.936-2.098,2.091v40.152c0,1.153,0.938,2.091,2.098,2.091
			h59.086c1.156,0,2.098-0.938,2.098-2.091V12.146C63.641,10.991,62.699,10.056,61.543,10.056z M59.892,47.063H4.108v-33.47h55.783
			V47.063z"/>
		<path fill="#9D9D9C" d="M61.543,54.748H2.457C1.102,54.748,0,53.65,0,52.299V12.146c0-1.353,1.102-2.45,2.457-2.45h59.086
			c1.355,0,2.457,1.098,2.457,2.45v40.152C64,53.65,62.898,54.748,61.543,54.748z M2.457,10.415c-0.959,0-1.738,0.777-1.738,1.731
			v40.152c0,0.954,0.779,1.731,1.738,1.731h59.086c0.959,0,1.738-0.777,1.738-1.731V12.146c0-0.954-0.779-1.731-1.738-1.731H2.457z
			 M60.25,47.423H3.75V13.233h56.5V47.423z M4.469,46.704h55.062V13.953H4.469V46.704z"/>
	</g>
	<g>
		<g>
			<linearGradient id="SVGID_8_" gradientUnits="userSpaceOnUse" x1="4.1084" y1="51.9658" x2="5.1709" y2="51.9658">
				<stop  offset="0" style="stop-color:#FFFFFF"/>
				<stop  offset="1" style="stop-color:#F4F4F6"/>
			</linearGradient>
			<path fill="url(#SVGID_8_)" d="M5.171,51.967c0,0.292-0.238,0.529-0.532,0.529s-0.53-0.237-0.53-0.529
				c0-0.295,0.236-0.531,0.53-0.531S5.171,51.672,5.171,51.967"/>
			<path fill="#9D9D9C" d="M4.639,52.855c-0.489,0-0.889-0.398-0.889-0.889c0-0.492,0.399-0.89,0.889-0.89
				c0.491,0,0.893,0.397,0.893,0.89C5.531,52.457,5.13,52.855,4.639,52.855z M4.639,51.795c-0.096,0-0.17,0.075-0.17,0.172
				c0,0.189,0.344,0.186,0.343,0C4.812,51.872,4.733,51.795,4.639,51.795z"/>
		</g>
		<g>
			<linearGradient id="SVGID_9_" gradientUnits="userSpaceOnUse" x1="6.4775" y1="51.9658" x2="7.541" y2="51.9658">
				<stop  offset="0" style="stop-color:#FFFFFF"/>
				<stop  offset="1" style="stop-color:#F4F4F6"/>
			</linearGradient>
			<path fill="url(#SVGID_9_)" d="M7.541,51.967c0,0.292-0.238,0.529-0.531,0.529c-0.292,0-0.532-0.237-0.532-0.529
				c0-0.295,0.24-0.531,0.532-0.531C7.303,51.436,7.541,51.672,7.541,51.967"/>
			<path fill="#9D9D9C" d="M7.01,52.855c-0.49,0-0.891-0.398-0.891-0.889c0-0.492,0.4-0.89,0.891-0.89
				c0.491,0,0.893,0.397,0.893,0.89C7.902,52.457,7.501,52.855,7.01,52.855z M7.01,51.795c-0.096,0-0.171,0.077-0.171,0.172
				c0,0.188,0.343,0.188,0.343,0C7.182,51.872,7.104,51.795,7.01,51.795z"/>
		</g>
		<g>
			<linearGradient id="SVGID_10_" gradientUnits="userSpaceOnUse" x1="8.8486" y1="51.9658" x2="9.9111" y2="51.9658">
				<stop  offset="0" style="stop-color:#FFFFFF"/>
				<stop  offset="1" style="stop-color:#F4F4F6"/>
			</linearGradient>
			<path fill="url(#SVGID_10_)" d="M9.911,51.967c0,0.292-0.237,0.529-0.529,0.529c-0.294,0-0.533-0.237-0.533-0.529
				c0-0.295,0.239-0.531,0.533-0.531C9.674,51.436,9.911,51.672,9.911,51.967"/>
			<path fill="#9D9D9C" d="M9.382,52.855c-0.491,0-0.892-0.398-0.892-0.889c0-0.492,0.4-0.89,0.892-0.89
				c0.49,0,0.891,0.397,0.891,0.89C10.272,52.457,9.872,52.855,9.382,52.855z M9.382,51.795c-0.098,0-0.172,0.075-0.172,0.172
				c0,0.187,0.342,0.188,0.342,0C9.552,51.872,9.475,51.795,9.382,51.795z"/>
		</g>
		<g>
			<linearGradient id="SVGID_11_" gradientUnits="userSpaceOnUse" x1="15.4346" y1="63.0049" x2="48.5654" y2="63.0049">
				<stop  offset="0" style="stop-color:#FFFFFF"/>
				<stop  offset="1" style="stop-color:#F4F4F6"/>
			</linearGradient>
			<path fill="url(#SVGID_11_)" d="M48.565,63.641H15.435c0-0.701,0.502-1.271,1.12-1.271h30.891
				C48.064,62.369,48.565,62.939,48.565,63.641"/>
			<path fill="#9D9D9C" d="M48.925,64h-33.85v-0.359c0-0.899,0.663-1.63,1.479-1.63h30.891c0.816,0,1.479,0.73,1.479,1.63V64z
				 M15.855,63.281h32.289c-0.116-0.324-0.387-0.553-0.699-0.553H16.555C16.242,62.729,15.972,62.957,15.855,63.281z"/>
		</g>
		<g>
			<linearGradient id="SVGID_12_" gradientUnits="userSpaceOnUse" x1="15.4346" y1="63.0049" x2="48.5654" y2="63.0049">
				<stop  offset="0" style="stop-color:#FFFFFF"/>
				<stop  offset="1" style="stop-color:#F4F4F6"/>
			</linearGradient>
			<path fill="url(#SVGID_12_)" d="M48.565,63.641H15.435c0-0.701,0.502-1.271,1.12-1.271h30.891
				C48.064,62.369,48.565,62.939,48.565,63.641"/>
			<path fill="#9D9D9C" d="M48.925,64h-33.85v-0.359c0-0.899,0.663-1.63,1.479-1.63h30.891c0.816,0,1.479,0.73,1.479,1.63V64z
				 M15.855,63.281h32.289c-0.116-0.324-0.387-0.553-0.699-0.553H16.555C16.242,62.729,15.972,62.957,15.855,63.281z"/>
		</g>
	</g>
</g>
</svg>
