<?xml version="1.0" encoding="utf-8"?>
<!-- Generator: Adobe Illustrator 16.0.0, SVG Export Plug-In . SVG Version: 6.00 Build 0)  -->
<!DOCTYPE svg PUBLIC "-//W3C//DTD SVG 1.1//EN" "http://www.w3.org/Graphics/SVG/1.1/DTD/svg11.dtd">
<svg version="1.1" id="Ebene_1" xmlns="http://www.w3.org/2000/svg" xmlns:xlink="http://www.w3.org/1999/xlink" x="0px" y="0px"
	 width="64px" height="64px" viewBox="0 0 64 64" enable-background="new 0 0 64 64" xml:space="preserve">
<g>
	<g>
		<linearGradient id="SVGID_1_" gradientUnits="userSpaceOnUse" x1="10.4219" y1="17.2061" x2="54.1051" y2="69.2657">
			<stop  offset="0" style="stop-color:#1D1D1B"/>
			<stop  offset="1" style="stop-color:#801D18"/>
		</linearGradient>
		<polygon fill="url(#SVGID_1_)" points="60.38,64 6.021,63.656 0,25.95 63.693,28.999 		"/>
		<polygon fill="none" stroke="#66160E" stroke-width="0.5" stroke-linecap="square" stroke-linejoin="round" points="60.38,64 
			6.021,63.656 0,25.95 63.693,28.999 		"/>
	</g>
	
		<linearGradient id="SVGID_2_" gradientUnits="userSpaceOnUse" x1="28.6885" y1="1490.4023" x2="28.6885" y2="1455.6006" gradientTransform="matrix(1 0 0 -1 2 1516.293)">
		<stop  offset="0" style="stop-color:#E30613"/>
		<stop  offset="1" style="stop-color:#BE1622"/>
	</linearGradient>
	<polygon fill="url(#SVGID_2_)" stroke="#A42423" stroke-width="0.5" stroke-linejoin="round" points="57.911,60.692 3.468,60.692 
		0.266,25.891 61.113,25.891 	"/>
	<linearGradient id="SVGID_3_" gradientUnits="userSpaceOnUse" x1="30.6895" y1="25.8906" x2="30.6895" y2="18.4238">
		<stop  offset="0" style="stop-color:#66160E"/>
		<stop  offset="0.2414" style="stop-color:#801D18"/>
		<stop  offset="0.5665" style="stop-color:#A42423"/>
	</linearGradient>
	<path fill="url(#SVGID_3_)" stroke="#66160E" stroke-width="0.5" stroke-linejoin="round" d="M20.514,23.849v-3.983
		c0-0.886-0.646-1.442-1.442-1.442H4.348c-0.796,0-1.521,0.273-1.521,1.442v4.336l-2.562,1.688h60.848l-3.202-2.042H20.514z"/>
	
		<polygon fill-rule="evenodd" clip-rule="evenodd" fill="#FFFFFF" stroke="#A2195B" stroke-width="0.75" stroke-miterlimit="10" points="
		37.457,30.426 33.697,54.995 27.701,54.995 22.229,43.091 26.582,39.252 30.001,48.016 30.084,48.508 30.165,48.221 33.105,35.415 
			"/>
</g>
</svg>
