<?xml version="1.0" encoding="utf-8"?>
<!-- Generator: Adobe Illustrator 16.0.0, SVG Export Plug-In . SVG Version: 6.00 Build 0)  -->
<!DOCTYPE svg PUBLIC "-//W3C//DTD SVG 1.1//EN" "http://www.w3.org/Graphics/SVG/1.1/DTD/svg11.dtd">
<svg version="1.1" id="Ebene_1" xmlns="http://www.w3.org/2000/svg" xmlns:xlink="http://www.w3.org/1999/xlink" x="0px" y="0px"
	 width="64px" height="64px" viewBox="0 0 64 64" enable-background="new 0 0 64 64" xml:space="preserve">
<g>
	<linearGradient id="SVGID_1_" gradientUnits="userSpaceOnUse" x1="30" y1="40.0869" x2="63.6045" y2="40.0869">
		<stop  offset="0" style="stop-color:#66160E"/>
		<stop  offset="0.2414" style="stop-color:#801D18"/>
		<stop  offset="0.5665" style="stop-color:#A42423"/>
	</linearGradient>
	<path fill="url(#SVGID_1_)" d="M60.972,44.905c-1.321-2.719-2.778-3.387-3.754-3.928c-0.977-0.534-1.506-1.253-3.559-2.093
		c-1.889-0.777-3.183-1.572-3.889-2.367c-0.707-0.79-1.061-1.865-1.061-3.211c0-0.472,0.226-1.008,0.682-1.594
		c0.453-0.588,0.763-1.426,0.935-2.501c0.031-0.272,0.127-0.465,0.276-0.585c0.151-0.116,0.296-0.202,0.429-0.251
		c0.135-0.048,0.278-0.243,0.431-0.58c0.151-0.337,0.244-0.825,0.276-1.467c0-0.74-0.169-1.213-0.507-1.415l0.357-2.979
		c0.032-0.469-0.027-1-0.178-1.59c-0.15-0.588-0.423-1.212-0.809-1.872c-0.388-0.653-1.017-1.201-1.893-1.64
		c-0.878-0.436-1.92-0.657-3.134-0.657c-1.211,0-2.253,0.222-3.131,0.657c-0.876,0.439-1.506,0.987-1.894,1.64
		c-0.385,0.659-0.656,1.284-0.808,1.872c-0.151,0.59-0.211,1.122-0.177,1.59l0.355,2.979c-0.338,0.202-0.506,0.675-0.506,1.415
		c0.031,0.642,0.125,1.129,0.277,1.467c0.151,0.337,0.296,0.532,0.43,0.58c0.133,0.05,0.276,0.135,0.428,0.25
		c0.151,0.119,0.246,0.312,0.278,0.583c0.17,1.076,0.48,1.912,0.935,2.5c0.455,0.586,0.681,1.118,0.681,1.591
		c0,1.347-0.353,2.414-1.061,3.205c-0.707,0.793-2,1.576-3.889,2.354c-2.054,0.84-4.315,1.532-5.293,2.065
		C31.229,41.466,30,42.911,30,42.911V64h14.59h19.015C63.604,64,62.294,47.622,60.972,44.905z"/>
	<path fill="#66160E" d="M63.604,64.035H29.52c-0.136,0-0.247-0.11-0.247-0.246V42.911c0-0.066,0.027-0.13,0.073-0.175
		c0.062-0.061,1.504-1.476,2.499-2.028c0.554-0.303,1.543-0.641,2.688-1.032c0.912-0.314,1.946-0.669,2.871-1.047
		c2.379-0.978,2.983-1.375,3.797-2.288c0.662-0.741,0.998-1.763,0.998-3.041c0-0.418-0.211-0.903-0.629-1.44
		c-0.476-0.615-0.807-1.494-0.982-2.612c-0.025-0.208-0.087-0.35-0.188-0.43c-0.131-0.099-0.254-0.171-0.362-0.213
		c-0.201-0.072-0.383-0.297-0.567-0.71c-0.167-0.367-0.265-0.876-0.298-1.554c0-0.757,0.16-1.261,0.49-1.542l-0.339-2.836
		c-0.038-0.503,0.024-1.065,0.184-1.681c0.153-0.601,0.434-1.251,0.833-1.934c0.411-0.695,1.083-1.278,1.996-1.737
		c0.914-0.454,2.005-0.683,3.241-0.683c1.239,0,2.33,0.229,3.243,0.683c0.913,0.458,1.583,1.042,1.996,1.734
		c0.4,0.684,0.681,1.335,0.835,1.938c0.156,0.615,0.218,1.176,0.184,1.668l-0.34,2.849c0.327,0.281,0.491,0.793,0.491,1.528
		c-0.034,0.69-0.133,1.199-0.299,1.568c-0.185,0.412-0.366,0.637-0.571,0.711c-0.107,0.04-0.229,0.113-0.363,0.214
		c-0.097,0.077-0.158,0.218-0.181,0.417c-0.18,1.129-0.512,2.008-0.984,2.623c-0.418,0.537-0.631,1.021-0.631,1.44
		c0,1.277,0.336,2.3,0.997,3.04c0.678,0.761,1.956,1.531,3.799,2.289c1.388,0.568,2.084,1.063,2.698,1.5
		c0.306,0.218,0.57,0.405,0.886,0.578l0.236,0.13c1,0.54,2.37,1.278,3.621,3.854c1.326,2.728,2.602,18.41,2.656,19.077
		c0.005,0.069-0.018,0.137-0.064,0.188C63.738,64.006,63.673,64.035,63.604,64.035z M29.767,63.541h33.569
		c-0.178-2.12-1.392-16.177-2.585-18.634c-1.183-2.433-2.472-3.128-3.412-3.636l-0.24-0.132c-0.342-0.187-0.63-0.392-0.935-0.608
		c-0.592-0.422-1.264-0.898-2.6-1.445c-1.94-0.799-3.242-1.589-3.979-2.417c-0.744-0.834-1.123-1.968-1.123-3.369
		c0-0.531,0.247-1.117,0.733-1.742c0.422-0.548,0.722-1.35,0.887-2.387c0.035-0.322,0.159-0.575,0.366-0.739
		c0.175-0.133,0.341-0.23,0.496-0.289c0.003-0.001,0.111-0.051,0.291-0.45c0.14-0.308,0.226-0.772,0.256-1.378
		c0-0.431-0.067-0.998-0.388-1.19c-0.082-0.05-0.129-0.144-0.117-0.241l0.356-2.98c0.03-0.428-0.028-0.937-0.172-1.5
		c-0.142-0.557-0.405-1.166-0.782-1.808c-0.361-0.61-0.964-1.13-1.79-1.543c-0.843-0.419-1.861-0.632-3.023-0.632
		c-1.16,0-2.177,0.212-3.021,0.632c-0.825,0.415-1.428,0.935-1.79,1.545c-0.377,0.642-0.638,1.25-0.781,1.806
		c-0.146,0.563-0.202,1.072-0.171,1.511l0.355,2.969c0.012,0.097-0.035,0.191-0.118,0.241c-0.319,0.191-0.386,0.76-0.386,1.203
		c0.029,0.593,0.115,1.057,0.255,1.364c0.179,0.4,0.288,0.45,0.289,0.45c0.156,0.06,0.321,0.155,0.493,0.286
		c0.211,0.167,0.335,0.419,0.374,0.752c0.161,1.026,0.46,1.829,0.884,2.377c0.486,0.625,0.732,1.211,0.732,1.742
		c0,1.403-0.378,2.537-1.123,3.369c-0.737,0.828-2.04,1.62-3.979,2.417c-0.938,0.385-1.979,0.74-2.898,1.056
		c-1.123,0.385-2.093,0.717-2.609,1c-0.812,0.449-2.009,1.578-2.316,1.873V63.541z"/>
</g>
<g>
	<linearGradient id="SVGID_2_" gradientUnits="userSpaceOnUse" x1="46.7236" y1="34.5469" x2="0.1182" y2="34.5469">
		<stop  offset="0.3103" style="stop-color:#E30613"/>
		<stop  offset="1" style="stop-color:#BE1622"/>
	</linearGradient>
	<path fill="url(#SVGID_2_)" d="M44.233,45.79c-0.217-0.327-2.669-2.583-3.762-3.238c-1.092-0.655-3.039-1.995-5.745-3.089
		c-2.836-1.146-4.786-2.329-5.86-3.516c-1.071-1.188-1.607-2.819-1.607-4.89c0-0.725,0.347-1.533,1.033-2.416
		c0.688-0.879,1.168-2.14,1.438-3.79c0.078-0.383,0.22-0.67,0.43-0.861c0.21-0.192,0.42-0.328,0.634-0.404
		c0.206-0.075,0.42-0.364,0.63-0.86c0.21-0.499,0.353-1.243,0.43-2.243c0-1.145-0.268-1.856-0.804-2.122l0.575-4.537
		c0.077-0.731-0.01-1.533-0.261-2.413c-0.247-0.877-0.67-1.816-1.26-2.812c-0.598-0.997-1.551-1.827-2.872-2.5
		c-1.32-0.668-2.901-1.005-4.739-1.005c-0.498,0-0.971,0.031-1.434,0.079c-1.242,0.133-2.356,0.439-3.333,0.927
		c-1.339,0.673-2.307,1.503-2.901,2.5c-0.591,0.997-1.013,1.935-1.262,2.812c-0.249,0.88-0.335,1.682-0.258,2.413
		c0.106,1.201,0.297,2.584,0.565,4.142c0.023,0.133,0.042,0.26,0.068,0.396l-0.229,0.112c-0.154,0.117-0.297,0.356-0.432,0.72
		c-0.135,0.365-0.2,0.794-0.2,1.29c0.075,1,0.21,1.744,0.403,2.243c0.191,0.496,0.401,0.785,0.63,0.86
		c0.229,0.076,0.451,0.21,0.661,0.403c0.21,0.19,0.353,0.476,0.43,0.859c0.27,1.65,0.755,2.911,1.466,3.79
		c0.708,0.882,1.06,1.687,1.06,2.411c0,2.072-0.535,3.697-1.607,4.884c-1.074,1.187-2.056,2.355-4.928,3.5
		c-0.077,0.042-0.171,0.08-0.287,0.117c-0.84,0.345-1.512,0.64-2.011,0.889c-0.497,0.253-1.538,0.518-4.828,4.135
		C1.363,47.546,0.118,64,0.118,64h35.247h11.359C46.724,64,46.207,48.751,44.233,45.79z"/>
	<path fill="#66160E" d="M46.724,64.035H0.118c-0.068,0-0.134-0.029-0.181-0.079c-0.046-0.05-0.07-0.117-0.064-0.186
		c0.051-0.672,1.283-16.468,4.011-19.467c2.943-3.236,4.139-3.753,4.714-4c0.07-0.03,0.13-0.057,0.184-0.084
		c0.494-0.245,1.157-0.538,2.028-0.896c0.117-0.038,0.197-0.07,0.263-0.105c2.74-1.095,3.714-2.176,4.745-3.318l0.119-0.132
		c1.024-1.134,1.544-2.723,1.544-4.718c0-0.666-0.338-1.424-1.006-2.257c-0.741-0.916-1.237-2.193-1.518-3.904
		c-0.063-0.319-0.183-0.563-0.352-0.716c-0.184-0.169-0.377-0.287-0.572-0.352c-0.305-0.1-0.561-0.429-0.783-1.005
		c-0.205-0.53-0.341-1.287-0.418-2.314c-0.001-0.545,0.071-1.007,0.215-1.394c0.152-0.413,0.321-0.684,0.514-0.832l0.105-0.052
		l-0.037-0.215c-0.273-1.584-0.464-2.984-0.568-4.163c-0.079-0.75,0.011-1.594,0.267-2.502c0.253-0.891,0.687-1.857,1.288-2.871
		c0.613-1.029,1.623-1.901,3.002-2.594c0.993-0.496,2.141-0.815,3.417-0.952c0.519-0.054,0.997-0.08,1.46-0.08
		c1.866,0,3.498,0.348,4.851,1.033c1.354,0.69,2.354,1.562,2.972,2.593c0.605,1.022,1.037,1.989,1.286,2.873
		c0.258,0.906,0.348,1.749,0.269,2.506l-0.555,4.381c0.521,0.359,0.785,1.115,0.785,2.252c-0.08,1.053-0.228,1.812-0.449,2.339
		c-0.241,0.568-0.495,0.895-0.773,0.997c-0.181,0.063-0.366,0.181-0.552,0.353c-0.17,0.154-0.289,0.398-0.355,0.726
		c-0.272,1.671-0.773,2.983-1.485,3.893c-0.65,0.836-0.981,1.598-0.981,2.259c0,1.996,0.52,3.584,1.543,4.718
		c1.047,1.157,2.988,2.313,5.769,3.437c2.297,0.929,4.044,2.011,5.201,2.728c0.213,0.131,0.406,0.251,0.579,0.354
		c1.092,0.655,3.594,2.89,3.84,3.261c1.991,2.984,2.511,17.611,2.532,18.232c0.001,0.067-0.023,0.131-0.069,0.18
		C46.854,64.008,46.791,64.035,46.724,64.035z M0.386,63.541h46.082c-0.081-1.997-0.665-15.059-2.439-17.72
		c-0.198-0.299-2.605-2.465-3.684-3.111c-0.174-0.104-0.369-0.225-0.586-0.359c-1.142-0.706-2.867-1.774-5.126-2.688
		c-2.85-1.15-4.852-2.349-5.95-3.562c-1.109-1.229-1.671-2.929-1.671-5.05c0-0.774,0.365-1.637,1.085-2.562
		c0.662-0.844,1.128-2.082,1.389-3.678c0.088-0.442,0.259-0.777,0.508-1.003c0.238-0.217,0.473-0.366,0.718-0.453
		c0.047-0.017,0.23-0.124,0.484-0.723c0.199-0.471,0.336-1.2,0.412-2.167c-0.001-1.022-0.226-1.663-0.667-1.882
		c-0.094-0.046-0.149-0.147-0.135-0.251l0.575-4.537c0.072-0.689-0.013-1.47-0.253-2.315c-0.237-0.843-0.653-1.769-1.235-2.754
		c-0.57-0.948-1.502-1.759-2.772-2.406c-1.282-0.649-2.84-0.979-4.627-0.979c-0.446,0-0.907,0.025-1.408,0.078
		c-1.216,0.13-2.309,0.434-3.249,0.902c-1.293,0.649-2.235,1.459-2.799,2.405c-0.58,0.976-0.996,1.902-1.237,2.753
		c-0.239,0.847-0.323,1.627-0.25,2.32c0.104,1.168,0.292,2.555,0.562,4.126l0.067,0.391c0.021,0.109-0.035,0.219-0.134,0.267
		l-0.229,0.112c-0.038,0.035-0.162,0.189-0.309,0.585c-0.122,0.332-0.185,0.737-0.185,1.204c0.071,0.947,0.202,1.678,0.387,2.155
		c0.221,0.576,0.407,0.691,0.477,0.714c0.262,0.086,0.516,0.239,0.751,0.456c0.248,0.225,0.418,0.56,0.505,0.993
		c0.262,1.61,0.739,2.846,1.417,3.683c0.74,0.923,1.115,1.787,1.115,2.566c0,2.122-0.562,3.821-1.671,5.05l-0.119,0.13
		c-1.023,1.136-2.082,2.309-4.901,3.433c-0.062,0.036-0.171,0.082-0.305,0.124c-0.841,0.346-1.494,0.635-1.975,0.873
		c-0.06,0.032-0.13,0.062-0.21,0.096c-0.543,0.234-1.673,0.722-4.545,3.879C1.819,47.307,0.561,61.42,0.386,63.541z"/>
</g>
</svg>
