<?xml version="1.0" encoding="utf-8"?>
<!-- Generator: Adobe Illustrator 16.0.0, SVG Export Plug-In . SVG Version: 6.00 Build 0)  -->
<!DOCTYPE svg PUBLIC "-//W3C//DTD SVG 1.1//EN" "http://www.w3.org/Graphics/SVG/1.1/DTD/svg11.dtd">
<svg version="1.1" id="Ebene_1" xmlns="http://www.w3.org/2000/svg" xmlns:xlink="http://www.w3.org/1999/xlink" x="0px" y="0px"
	 width="64px" height="64px" viewBox="0 0 64 64" enable-background="new 0 0 64 64" xml:space="preserve">
<g>
	<g>
		<g>
			<linearGradient id="SVGID_1_" gradientUnits="userSpaceOnUse" x1="43.3867" y1="36.2793" x2="43.3867" y2="8.3203">
				<stop  offset="0" style="stop-color:#A0A09F"/>
				<stop  offset="1" style="stop-color:#3C3C3B"/>
			</linearGradient>
			<circle fill="url(#SVGID_1_)" cx="43.387" cy="22.299" r="13.98"/>
			<path fill="#1D1D1B" d="M43.386,8.32c3.577,0,7.155,1.365,9.886,4.095c5.459,5.459,5.459,14.309,0,19.77
				c-2.729,2.729-6.307,4.094-9.884,4.094c-3.578,0-7.156-1.364-9.885-4.094c-5.459-5.461-5.46-14.312-0.001-19.771
				C36.23,9.686,39.808,8.32,43.386,8.32 M43.386,7.569L43.386,7.569c-3.935,0-7.634,1.532-10.415,4.313
				c-5.742,5.742-5.742,15.088,0.001,20.833c2.781,2.782,6.481,4.314,10.416,4.314s7.633-1.532,10.415-4.314
				c5.742-5.744,5.742-15.089,0-20.832C51.02,9.102,47.32,7.569,43.386,7.569L43.386,7.569z"/>
		</g>
	</g>
	<g>
		<g>
			<linearGradient id="SVGID_2_" gradientUnits="userSpaceOnUse" x1="14.7227" y1="36.2793" x2="14.7227" y2="8.3203">
				<stop  offset="0" style="stop-color:#A0A09F"/>
				<stop  offset="1" style="stop-color:#3C3C3B"/>
			</linearGradient>
			<path fill="url(#SVGID_2_)" d="M24.607,32.185c-5.46,5.46-14.308,5.458-19.769,0c-5.459-5.461-5.46-14.312-0.002-19.771
				c5.463-5.459,14.311-5.458,19.771,0.001C30.066,17.874,30.066,26.724,24.607,32.185z"/>
			<path fill="#1D1D1B" d="M14.723,8.32c3.577,0,7.154,1.365,9.885,4.095c5.459,5.459,5.459,14.309,0,19.77
				c-2.729,2.729-6.307,4.094-9.883,4.094c-3.577,0-7.155-1.364-9.886-4.094c-5.459-5.461-5.46-14.312-0.002-19.771
				C7.568,9.686,11.146,8.32,14.723,8.32 M14.723,7.569L14.723,7.569c-3.935,0-7.634,1.532-10.417,4.313
				c-5.741,5.742-5.741,15.088,0.002,20.833c2.783,2.782,6.482,4.314,10.417,4.314c3.934,0,7.632-1.532,10.414-4.314
				c5.742-5.744,5.742-15.089,0-20.832C22.355,9.102,18.657,7.569,14.723,7.569L14.723,7.569z"/>
		</g>
	</g>
	<g>
		<path fill="#FFFFFF" d="M46.004,24.913c-1.447,1.447-3.787,1.447-5.23,0c-1.446-1.441-1.446-3.784,0-5.229
			c1.443-1.443,3.783-1.443,5.23,0C47.446,21.129,47.446,23.472,46.004,24.913z"/>
		<path fill="#1D1D1B" d="M43.387,26.374c-1.088,0-2.109-0.425-2.88-1.195c-0.769-0.768-1.193-1.789-1.193-2.877
			c-0.001-1.09,0.424-2.113,1.194-2.883c0.77-0.769,1.791-1.192,2.879-1.192s2.111,0.424,2.882,1.192
			c0.769,0.77,1.192,1.793,1.192,2.881c0,1.089-0.424,2.11-1.192,2.88C45.499,25.949,44.475,26.374,43.387,26.374z M43.387,18.978
			c-0.887,0-1.721,0.346-2.348,0.974c-0.629,0.627-0.975,1.462-0.974,2.35c0,0.887,0.345,1.721,0.973,2.347
			c1.257,1.259,3.444,1.257,4.699,0c0.627-0.626,0.973-1.46,0.973-2.348s-0.346-1.722-0.973-2.35
			C45.109,19.323,44.274,18.978,43.387,18.978z"/>
	</g>
	<g>
		<linearGradient id="SVGID_3_" gradientUnits="userSpaceOnUse" x1="49.0674" y1="47.7197" x2="9.6279" y2="47.7197">
			<stop  offset="0" style="stop-color:#A0A09F"/>
			<stop  offset="1" style="stop-color:#3C3C3B"/>
		</linearGradient>
		<rect x="9.628" y="31.816" fill="url(#SVGID_3_)" width="39.439" height="31.808"/>
		<path fill="#1D1D1B" d="M49.067,64H9.628l-0.375-0.376V31.816l0.375-0.376h39.439l0.375,0.376v31.808L49.067,64z M10.004,63.249
			h38.688V32.191H10.004V63.249z"/>
	</g>
	<g>
		<linearGradient id="SVGID_4_" gradientUnits="userSpaceOnUse" x1="63.624" y1="47.7197" x2="49.0674" y2="47.7197">
			<stop  offset="0" style="stop-color:#A0A09F"/>
			<stop  offset="1" style="stop-color:#3C3C3B"/>
		</linearGradient>
		<polygon fill="url(#SVGID_4_)" points="63.624,57.52 52.986,53.04 49.067,53.04 49.067,42.401 52.426,42.401 63.624,37.921 		"/>
		<path fill="#1D1D1B" d="M63.479,57.866L52.91,53.415h-3.843l-0.376-0.375V42.401l0.376-0.376h3.285l11.132-4.453L64,37.921V57.52
			L63.479,57.866z M49.442,52.664l3.69,0.029l10.116,4.261V38.476l-10.823,4.301h-2.983V52.664z"/>
	</g>
	<g>
		<linearGradient id="SVGID_5_" gradientUnits="userSpaceOnUse" x1="32.7686" y1="27.0576" x2="26.0449" y2="27.0576">
			<stop  offset="0" style="stop-color:#A0A09F"/>
			<stop  offset="1" style="stop-color:#3C3C3B"/>
		</linearGradient>
		<rect x="26.045" y="22.351" fill="url(#SVGID_5_)" width="6.724" height="9.413"/>
		<path fill="#1D1D1B" d="M32.769,32.139h-6.724l-0.376-0.375v-9.413l0.376-0.376h6.724l0.376,0.376v9.413L32.769,32.139z
			 M26.421,31.388h5.973v-8.661h-5.973V31.388z"/>
	</g>
	<g>
		<linearGradient id="SVGID_6_" gradientUnits="userSpaceOnUse" x1="44.8398" y1="47.7197" x2="28.7021" y2="47.7197">
			<stop  offset="0" style="stop-color:#A0A09F"/>
			<stop  offset="1" style="stop-color:#3C3C3B"/>
		</linearGradient>
		<rect x="28.702" y="39.651" fill="url(#SVGID_6_)" width="16.138" height="16.136"/>
		<path fill="#1D1D1B" d="M44.84,56.163H28.702l-0.376-0.376V39.651l0.376-0.376H44.84l0.375,0.376v16.136L44.84,56.163z
			 M29.077,55.412h15.387V40.027H29.077V55.412z"/>
	</g>
	<g>
		<linearGradient id="SVGID_7_" gradientUnits="userSpaceOnUse" x1="20.4092" y1="25.9326" x2="11.5205" y2="25.9326">
			<stop  offset="0" style="stop-color:#A0A09F"/>
			<stop  offset="1" style="stop-color:#3C3C3B"/>
		</linearGradient>
		<polyline fill="url(#SVGID_7_)" points="17.396,31.302 11.521,24.135 17.984,20.563 20.409,30.051 		"/>
		<polygon fill="#1D1D1B" points="17.105,31.539 11.229,24.372 11.338,23.806 17.802,20.234 18.348,20.471 20.772,29.958 
			20.045,30.144 17.74,21.127 12.097,24.245 17.687,31.064 		"/>
	</g>
	<g>
		<path fill="#FFFFFF" d="M17.339,24.913c-1.443,1.447-3.786,1.447-5.229,0c-1.445-1.441-1.445-3.784-0.001-5.229
			c1.444-1.443,3.787-1.443,5.23,0C18.782,21.129,18.782,23.472,17.339,24.913z"/>
		<path fill="#1D1D1B" d="M14.725,26.374c-1.089,0-2.112-0.425-2.882-1.195c-0.769-0.768-1.192-1.789-1.193-2.877
			c0-1.089,0.424-2.113,1.192-2.883c0.77-0.769,1.794-1.192,2.882-1.192c1.089,0,2.112,0.424,2.882,1.192
			c0.768,0.77,1.191,1.793,1.191,2.881c0,1.089-0.424,2.11-1.192,2.88S15.812,26.374,14.725,26.374z M14.724,18.978
			c-0.887,0-1.723,0.346-2.351,0.974c-0.627,0.627-0.973,1.462-0.973,2.351c0.001,0.886,0.347,1.72,0.974,2.346
			c1.255,1.257,3.444,1.257,4.699,0.001c0.627-0.627,0.973-1.461,0.973-2.349s-0.346-1.722-0.973-2.35
			C16.446,19.323,15.612,18.978,14.724,18.978z"/>
	</g>
	<g>
		<path fill="#FFFFFF" d="M19.893,31.302c-0.689,0.685-1.809,0.685-2.496,0c-0.688-0.689-0.688-1.809,0-2.497
			c0.688-0.688,1.807-0.688,2.496,0C20.58,29.493,20.58,30.612,19.893,31.302z"/>
		<path fill="#1D1D1B" d="M18.644,32.19c-0.571,0-1.108-0.221-1.513-0.623c-0.833-0.836-0.833-2.193-0.001-3.028
			c0.808-0.808,2.22-0.809,3.027-0.001c0.834,0.836,0.834,2.193,0.001,3.028C19.752,31.97,19.216,32.19,18.644,32.19z
			 M18.644,28.664c-0.371,0-0.721,0.144-0.981,0.405c-0.541,0.542-0.541,1.425,0,1.968c0.521,0.519,1.44,0.518,1.965-0.001
			c0.54-0.542,0.54-1.425-0.001-1.967C19.364,28.809,19.015,28.664,18.644,28.664z"/>
	</g>
	<linearGradient id="SVGID_8_" gradientUnits="userSpaceOnUse" x1="45.7393" y1="36.2754" x2="48.4287" y2="36.2754">
		<stop  offset="0" style="stop-color:#E5332A"/>
		<stop  offset="1" style="stop-color:#BD1622"/>
	</linearGradient>
	<rect x="45.739" y="35.291" fill="url(#SVGID_8_)" width="2.689" height="1.969"/>
	<rect x="31.75" y="41.974" fill="none" width="21.181" height="5.714"/>
	<text transform="matrix(1 0 0 1 31.751 44.5283)" fill="#FFFFFF" font-family="'OpenSans-Extrabold'" font-size="3.3619">Feuer</text>
</g>
</svg>
