<?xml version="1.0" encoding="utf-8"?>
<!-- Generator: Adobe Illustrator 22.0.1, SVG Export Plug-In . SVG Version: 6.00 Build 0)  -->
<svg version="1.1" id="Ebene_1" xmlns="http://www.w3.org/2000/svg" xmlns:xlink="http://www.w3.org/1999/xlink" x="0px" y="0px"
	 viewBox="0 0 32 32" style="enable-background:new 0 0 32 32;" xml:space="preserve">
<style type="text/css">
	.st0{clip-path:url(#SVGID_2_);fill:#FFFFFF;}
</style>
<g>
	<defs>
		<rect id="SVGID_1_" x="2.9" y="1.6" width="26.2" height="28.7"/>
	</defs>
	<clipPath id="SVGID_2_">
		<use xlink:href="#SVGID_1_"  style="overflow:visible;"/>
	</clipPath>
	<path class="st0" d="M6.1,18.3c-0.1,0.1-0.2,0.2-0.3,0.4C5,19.7,4.6,21,4.6,22.3c0,3.5,2.8,6.3,6.3,6.3h0c1.7,0,3.3-0.6,4.5-1.6
		c1.2-1,1.8-2.4,1.8-3.8V7.8L6.9,17.5C6.8,17.6,6.4,18,6.1,18.3 M10.9,30.4L10.9,30.4L10.9,30.4c-4.4,0-8-3.6-8-8
		c0-1.7,0.5-3.3,1.5-4.7c0.1-0.2,0.2-0.3,0.4-0.5l0,0c0.1-0.1,0.7-0.7,1-1L18.9,3.8v19.4c0,2-0.9,3.8-2.4,5.1
		C15,29.6,13,30.4,10.9,30.4"/>
	<path class="st0" d="M29.1,28.6C29.1,28.6,29.1,28.6,29.1,28.6c-1.9,0-3.6-0.7-4.8-1.9c-1-1-1.5-2.2-1.5-3.5V12.9h3.7v-1.7h-3.7
		V1.6l-1.7,1.2v20.4c0,1.8,0.7,3.4,2,4.7c1.5,1.5,3.7,2.4,6,2.4c0,0,0,0,0,0C29.1,29.4,29.1,29.9,29.1,28.6"/>
</g>
</svg>
