<svg id="Ebene_1" data-name="Ebene 1" xmlns="http://www.w3.org/2000/svg" viewBox="0 0 130 130"><title>Zeichenfläche 1</title>
    <polygon id="SVGID" points="66.14 47.5 56.02 91.14 55.76 92.11 55.49 90.44 43.7 60.61 29.27 73.28 29.27 74.69 47.58 115.78 68.16 115.78 84.35 31.22 66.14 47.5"/>
    <polygon id="SVGID-2" data-name="SVGID" points="66.14 47.5 56.02 91.14 55.76 92.11 55.49 90.44 43.7 60.61 29.27 73.28 29.27 74.69 47.58 115.78 68.16 115.78 84.35 31.22 66.14 47.5" />
    <polygon points="84.35 31.22 68.16 115.78 47.58 115.78 28.83 73.64 43.7 60.61 55.49 90.44 55.76 92.11 56.02 91.14 66.14 47.5 84.35 31.22" />
    <path id="SVGID-3" data-name="SVGID" d="M94.21,50.41v65.37h15V50.41Zm0-25.08V40.11l15-14.6V12.22Z" />
    <path id="SVGID-4" data-name="SVGID" d="M94.21,50.41v65.37h15V50.41Zm0-25.08V40.11l15-14.6V12.22Z"/>
    <path d="M109.08,115.78h-15V50.41h15Zm0-90.27-15,14.6V25.33l15-13.11Z"/></svg>