<svg id="e8HtpL7Q02o1" xmlns="http://www.w3.org/2000/svg" viewBox="0 0 1024 1024" shape-rendering="geometricPrecision" text-rendering="geometricPrecision"><style>@keyframes e8HtpL7Q02o10_c_o{0%,50%{opacity:.8}13.333333%,63.333333%{opacity:0}30%,46.666667%,80%{opacity:1}}@keyframes e8HtpL7Q02o11_c_o{0%,50%{opacity:.4}56.666667%,6.666667%{opacity:0}23.333333%,40%,73.333333%{opacity:1}}@keyframes e8HtpL7Q02o12_c_o{0%,50%{opacity:0}16.666667%,33.333333%,66.666667%{opacity:1}}@keyframes e8HtpL7Q02o13_c_o{0%,50%{opacity:.4}10%,26.666667%,60%,76.666667%{opacity:1}30%,80%{opacity:.8}43.333333%{opacity:0}}@keyframes e8HtpL7Q02o14_c_o{0%,50%{opacity:.8}20%,3.333333%,53.333333%,70%{opacity:1}30%,80%{opacity:.4}36.666667%{opacity:0}}@keyframes e8HtpL7Q02o15_c_o{0%,13.333333%,46.666667%,63.333333%{opacity:1}30%,80%{opacity:0}}@keyframes e8HtpL7Q02o16_c_o{0%,40%,56.666667%,6.666667%{opacity:1}23.333333%,73.333333%{opacity:0}30%,80%{opacity:.4}}@keyframes e8HtpL7Q02o17_c_o{0%,33.333333%,50%{opacity:1}16.666667%,66.666667%{opacity:0}30%,80%{opacity:.8}}</style><rect id="e8HtpL7Q02o2" width="252.2" height="252.2" rx="0" ry="0" transform="translate(65.65 62.5)" fill="#D00F1C" stroke="none" stroke-width="1"/><rect id="e8HtpL7Q02o3" width="252.2" height="252.2" rx="0" ry="0" transform="translate(385.95 62.5)" fill="#D00F1C" stroke="none" stroke-width="1"/><rect id="e8HtpL7Q02o4" width="252.2" height="252.2" rx="0" ry="0" transform="translate(706.15 62.5)" fill="#D00F1C" stroke="none" stroke-width="1"/><rect id="e8HtpL7Q02o5" width="252.2" height="252.2" rx="0" ry="0" transform="translate(706.15 385.9)" fill="#D00F1C" stroke="none" stroke-width="1"/><rect id="e8HtpL7Q02o6" width="252.2" height="252.2" rx="0" ry="0" transform="translate(706.15 709.3)" fill="#D00F1C" stroke="none" stroke-width="1"/><rect id="e8HtpL7Q02o7" width="252.2" height="252.2" rx="0" ry="0" transform="translate(385.95 709.3)" fill="#D00F1C" stroke="none" stroke-width="1"/><rect id="e8HtpL7Q02o8" width="252.2" height="252.2" rx="0" ry="0" transform="translate(65.65 709.3)" fill="#D00F1C" stroke="none" stroke-width="1"/><rect id="e8HtpL7Q02o9" width="252.2" height="252.2" rx="0" ry="0" transform="translate(65.65 385.9)" fill="#D00F1C" stroke="none" stroke-width="1"/><rect width="252.2" height="252.2" rx="0" ry="0" transform="translate(65.65 385.9)" opacity=".8" fill="#424242" style="animation:e8HtpL7Q02o10_c_o 3000ms linear infinite normal forwards"/><rect width="252.2" height="252.2" rx="0" ry="0" transform="translate(65.65 709.3)" opacity=".4" fill="#424242" style="animation:e8HtpL7Q02o11_c_o 3000ms linear infinite normal forwards"/><rect width="252.2" height="252.2" rx="0" ry="0" transform="translate(706.15 709.3)" opacity=".4" fill="#424242" style="animation:e8HtpL7Q02o13_c_o 3000ms linear infinite normal forwards"/><rect width="252.2" height="252.2" rx="0" ry="0" transform="translate(706.15 385.9)" opacity=".8" fill="#424242" style="animation:e8HtpL7Q02o14_c_o 3000ms linear infinite normal forwards"/><rect width="252.2" height="252.2" rx="0" ry="0" transform="translate(706.15 62.5)" fill="#424242" style="animation:e8HtpL7Q02o15_c_o 3000ms linear infinite normal forwards"/><rect width="252.2" height="252.2" rx="0" ry="0" transform="translate(385.95 62.5)" fill="#424242" style="animation:e8HtpL7Q02o16_c_o 3000ms linear infinite normal forwards"/><rect width="252.2" height="252.2" rx="0" ry="0" transform="translate(65.65 62.5)" fill="#424242" style="animation:e8HtpL7Q02o17_c_o 3000ms linear infinite normal forwards"/></svg>