<svg version="1.1" id="svg4220" xmlns="http://www.w3.org/2000/svg" x="0" y="0" viewBox="0 0 1786 879.6" xml:space="preserve"><style>.st1{fill:#d00f1c}</style><linearGradient id="SVGID_1_" gradientUnits="userSpaceOnUse" x1="1514.382" y1="381.001" x2="1514.382" y2="793.101" gradientTransform="matrix(1 0 0 -1 0 1103.3)"><stop offset="0" stop-color="#e70512"/><stop offset="1" stop-color="#c51725"/></linearGradient><path fill="url(#SVGID_1_)" d="M1722.6 486l-47.9-118.7-115-57.1-61.4.9H1417l-.6.5-110.3.3v104.9h.4l-.4.4v305.1H1417V417.9l44.6-.3 54.6.4 47 22.4 26.5 13.3 14.1 33.1-12.7 33-73.7 34.8-41.1 108h83.4l115-57.1 47.9-118.7-.2-.6z"/><path class="st1" d="M1724.3 801l-137.5-.1L1485.5 676l-9.9-11.7 41-109.8zm-418.2-489.2H1417v489.1h-110.9zm-759.8-189v110.9l110.9-109.2V25.1zm0 187.8h110.9v489.1H546.3z"/><g id="g3616_6_" transform="matrix(9.77657 0 0 -9.77657 -5642.93 4389.39)"><g id="g3618_6_"><g id="g3624_6_"><g id="g3626_6_"><linearGradient id="path3634_00000040532898853679166860000014196509690742938028_" gradientUnits="userSpaceOnUse" x1="603.007" y1="373.408" x2="482.075" y2="639.539"><stop offset="0" stop-color="#e70512"/><stop offset="1" stop-color="#c51725"/></linearGradient><path id="path3634_6_" d="M594.7 409.4l-11.3-10 14.3-32.2h15.6l-18.6 42.2z" fill="url(#path3634_00000040532898853679166860000014196509690742938028_)"/></g></g></g></g><g id="g3616_5_" transform="matrix(9.77657 0 0 -9.77657 -5642.93 4389.39)"><g id="g3618_5_"><g id="g3624_5_"><g id="g3626_5_"><path id="path3634_5_" class="st1" d="M611.7 419.4l-14.1-52.2h15.6l12.3 64.7-13.8-12.5z"/></g></g></g></g><g id="g3680_6_"><g id="g3686_6_"><g id="g3688_6_"><linearGradient id="path3696_00000144324509343107593500000002728029116130979512_" gradientUnits="userSpaceOnUse" x1="961.742" y1="746.916" x2="958.61" y2="321.728"><stop offset="0" stop-color="#e70512"/><stop offset="1" stop-color="#c51725"/></linearGradient><path id="path3696_6_" d="M919.9 698.6L874.8 678l-15.5-53.8.3-313.6H748.7v310.5l40.4 140.4 118.7 47.9h147.1l119-47.9-254-62.9z" fill="url(#path3696_00000144324509343107593500000002728029116130979512_)"/></g></g></g><g id="g3680_5_"><g id="g3686_5_"><g id="g3688_5_"><path id="path3696_5_" class="st1" d="M1104.1 310.6v313.3l-15.3 54.1-55.6 20.6-55.5 14.3L874.8 678l-126.1-56.8 40.4 140.4 118.7 47.9h147.1l119-47.9 41-139.8V310.6h-110.8z"/></g></g></g></svg>