<svg xmlns="http://www.w3.org/2000/svg" viewBox="-267 390.9 60 60" class="icon"><path d="M-224.1 399.1c-.9-3.1-3.8-5.4-7.2-5.4h-10.2c-3.4 0-6.3 2.3-7.2 5.4-4.9.2-8.9 4.3-8.9 9.3v29.8c0 5.1 4.2 9.3 9.3 9.3h23.8c5.1 0 9.3-4.2 9.3-9.3v-29.8c-.1-5-4-9.1-8.9-9.3zm-20 2.1c0-1.4 1.1-2.5 2.5-2.5h10.2c1.4 0 2.5 1.1 2.5 2.5v.7c0 1.4-1.1 2.5-2.5 2.5h-10.2c-1.4 0-2.5-1.1-2.5-2.5v-.7zm23.8 36.9c0 2.4-1.9 4.3-4.3 4.3h-23.8c-2.4 0-4.3-1.9-4.3-4.3v-29.8c0-2.2 1.7-4.1 3.9-4.3.9 3.1 3.8 5.3 7.2 5.3h10.2c3.4 0 6.3-2.2 7.2-5.3 2.2.2 3.9 2 3.9 4.3v29.8z"/><path d="M-226.9 414H-240c-1.4 0-2.5 1.1-2.5 2.5s1.1 2.5 2.5 2.5h13.1c1.4 0 2.5-1.1 2.5-2.5s-1.1-2.5-2.5-2.5zm0 18.4H-240c-1.4 0-2.5 1.1-2.5 2.5s1.1 2.5 2.5 2.5h13.1c1.4 0 2.5-1.1 2.5-2.5s-1.1-2.5-2.5-2.5zm0-9.2H-240c-1.4 0-2.5 1.1-2.5 2.5s1.1 2.5 2.5 2.5h13.1c1.4 0 2.5-1.1 2.5-2.5s-1.1-2.5-2.5-2.5zm-19.9-9.2h-.3c-1.4 0-2.5 1.1-2.5 2.5s1.1 2.5 2.5 2.5h.3c1.4 0 2.5-1.1 2.5-2.5s-1.1-2.5-2.5-2.5zm0 18.4h-.3c-1.4 0-2.5 1.1-2.5 2.5s1.1 2.5 2.5 2.5h.3c1.4 0 2.5-1.1 2.5-2.5s-1.1-2.5-2.5-2.5zm0-9.2h-.3c-1.4 0-2.5 1.1-2.5 2.5s1.1 2.5 2.5 2.5h.3c1.4 0 2.5-1.1 2.5-2.5s-1.1-2.5-2.5-2.5z"/></svg>