<svg data-name="Ebene 1" xmlns="http://www.w3.org/2000/svg" viewBox="0 0 60 60" class="icon"><path d="M14.5 36.41h3.43v.13c2.31 7.61 7.1 11.31 14.63 11.31a22.16 22.16 0 008.9-1.74l-2-4a18.05 18.05 0 01-6.94 1.29c-5.84 0-8.17-2.68-9.88-6.71l-.1-.25h11.6v-4.51H21.61v-.16c0-.52-.06-1.05-.06-1.57s0-1.24.1-2v-.16h12.49v-4.45H22.71l.11-.25c1.77-4 4.15-6.71 10-6.71a15.81 15.81 0 016.59 1.29l2-4a20.36 20.36 0 00-8.55-1.75c-7.53 0-12.36 3.71-14.77 11.32v.12H14.5v4.48h2.65v.19c-.05.66-.08 1.3-.08 1.94s0 1 .07 1.54v.19H14.5z"/></svg>