<svg version="1.1" xmlns="http://www.w3.org/2000/svg" viewBox="0 0 60 60" xml:space="preserve" class="icon"><path class="st0" d="M58 25.3l-3.9-8.1c-.4-.9-1.3-1.4-2.3-1.4h-9.2c-1.4 0-2.5 1.1-2.5 2.5s1.1 2.5 2.5 2.5h7.6l3 6.2v8h-2.4c-1.6-2-4.2-3.1-6.9-2.7-1.9.3-3.6 1.2-4.9 2.7h-.8V14.3c0-1.4-1.1-2.5-2.5-2.5H4.2c-1.4 0-2.5 1.1-2.5 2.5v25c0 1.4 1.1 2.5 2.5 2.5h4.3c.4 1.6 1.4 3.1 2.7 4.1 1.3 1 2.9 1.6 4.6 1.6.3 0 .7 0 1-.1 2-.3 3.8-1.3 5-2.9.6-.8 1.1-1.7 1.3-2.7h12.5c.7 0 1.3-.3 1.7-.7.3 1.8 1.3 3.5 2.8 4.6 1.3 1 2.9 1.6 4.6 1.6.3 0 .7 0 1-.1 2-.3 3.8-1.3 5-2.9 1-1.3 1.5-2.8 1.6-4.5h3.1c1.4 0 2.5-1.1 2.5-2.5v-11c.4-.3.3-.7.1-1zM38.3 36.1zm-30 3.6zm.1-.8c0-.1 0-.1 0 0 0-.1 0-.1 0 0zm9.6 2.6c-.4.6-1 .9-1.7 1-.7.1-1.4-.1-1.9-.5-.6-.4-.9-1-1-1.7-.2-1.4.8-2.7 2.2-2.9h.3c1.3 0 2.4 1 2.6 2.3.1.5-.1 1.2-.5 1.8zm5.5-1.9c0-.2 0-.5-.1-.7.1.2.1.5.1.7zm0 .7s0 .1 0 0c0 .1 0 0 0 0zm9.8-3.5H22.9c-1.3-3-4.5-4.9-8-4.5-2.7.4-4.9 2.1-5.9 4.5H6.7v-20h26.6v20zm-10 1.1c0-.1 0-.1-.1-.2 0 .1 0 .1.1.2zm23.8 3.4c-.4.6-1 .9-1.7 1-.7.1-1.4-.1-1.9-.5-.6-.4-.9-1-1-1.7-.1-.7.1-1.4.5-1.9.4-.6 1-.9 1.7-1h.3c1.3 0 2.4 1 2.6 2.3.1.5-.1 1.2-.5 1.8zm4.9-4.7s0 .1 0 0c0 .1 0 0 0 0zm.3.9c0 .1 0 .1.1.2 0 0-.1-.1-.1-.2zm.3 1.2c0 .2 0 .4.1.6-.1-.2-.1-.4-.1-.6z"/><path class="st0" d="M45.3 27.7c.3.6.5 1.1.5 1.2.4.9 1.3 1.4 2.2 1.4.4 0 .7-.1 1.1-.2 1.2-.6 1.8-2 1.2-3.2l-.8-1.8c0-.1-.1-.1-.1-.2-.2-1.2-1.2-2-2.5-2h-4c-1.4 0-2.5 1.1-2.5 2.5s1.1 2.5 2.5 2.5h2.4z"/></svg>