<svg data-name="Ebene 1" xmlns="http://www.w3.org/2000/svg" viewBox="0 0 60 60" class="icon"><path d="M40.22 11.28v5.53l-1 1.57v-7.1H30.5V29.2l-1-.59V11.28h-9V33l-1 1.61V11.28h-8.22V38.2L17 40.59l8.28-13.32 6.89 4.08 9.46-14.89a1.71 1.71 0 011.46-.82h.11a1.72 1.72 0 011.72 1.72v.11a1.74 1.74 0 01-.27.93L33.3 36.24 26.44 32l-8.05 13-7.11-3v6.72h8.23v-3.67l1-1.6v5.27h9V35.08l1 .61v13h8.72V28.8l1-1.57v21.49h8.5V11.28z"/><path d="M20.51 33.03V11.28h-1v23.36l1-1.61zm-1 12.02v3.67h1v-5.27l-1 1.6zM30.5 29.2V11.28h-1v17.33l1 .59zm-1 5.88v13.64h1V35.69l-1-.61zm9.72-6.28v19.92h1V27.23l-1 1.57zm1-11.99v-5.53h-1v7.1l1-1.57z" opacity=".75"/></svg>