<svg xmlns="http://www.w3.org/2000/svg" viewBox="0 0 60 60" class="icon"><path d="M30.2 47.9C16 47.9 4.9 32 4.4 31.4c-.6-.9-.6-2 0-2.8.5-.7 11.5-16.5 25.8-16.5C44.4 12.1 55.5 28 56 28.6c.6.9.6 2 0 2.8-.5.7-11.6 16.5-25.8 16.5zM9.6 30c2.9 3.6 11.2 12.9 20.6 12.9 9.4 0 17.7-9.3 20.6-12.9-2.9-3.6-11.2-12.9-20.6-12.9-9.4 0-17.7 9.3-20.6 12.9z"/><path d="M30 39.6c-5.3 0-9.6-4.3-9.6-9.6s4.3-9.6 9.6-9.6 9.6 4.3 9.6 9.6-4.3 9.6-9.6 9.6zm0-14.2c-2.5 0-4.6 2.1-4.6 4.6s2.1 4.6 4.6 4.6 4.6-2.1 4.6-4.6-2.1-4.6-4.6-4.6z"/></svg>