<svg data-name="Ebene 1" xmlns="http://www.w3.org/2000/svg" viewBox="0 0 60 60" class="icon"><path d="M45 30a14.86 14.86 0 00-.13-2 23.94 23.94 0 004.26-2.81 21.18 21.18 0 00-.92-2.79 28.07 28.07 0 00-4.91.52 15 15 0 00-2.36-3.4 25.3 25.3 0 001.71-4.61 20 20 0 00-2.4-1.69 26.39 26.39 0 00-3.48 3.1 14.71 14.71 0 00-4.13-1.4 25.06 25.06 0 00-1.3-4.5c-.43 0-.87-.05-1.3-.05-.43 0-.87 0-1.3.05a24.23 24.23 0 00-1.29 4.5 14.66 14.66 0 00-4.14 1.4 26.39 26.39 0 00-3.48-3.1 20 20 0 00-2.4 1.69 25.3 25.3 0 001.71 4.61 15 15 0 00-2.36 3.4 28.07 28.07 0 00-4.91-.52 21.18 21.18 0 00-.92 2.79A23.94 23.94 0 0015.17 28a15.6 15.6 0 000 4 23.94 23.94 0 00-4.26 2.81 21.18 21.18 0 00.92 2.79 28.07 28.07 0 004.91-.52 15 15 0 002.36 3.4 25.3 25.3 0 00-1.71 4.61 20 20 0 002.4 1.69 26.39 26.39 0 003.48-3.1 14.71 14.71 0 004.13 1.4 25.06 25.06 0 001.3 4.5h2.6a25.06 25.06 0 001.3-4.5 14.71 14.71 0 004.13-1.4 26.39 26.39 0 003.48 3.1 20 20 0 002.4-1.69 25.3 25.3 0 00-1.71-4.61 15 15 0 002.36-3.4 28.07 28.07 0 004.91.52 21.18 21.18 0 00.92-2.79A23.94 23.94 0 0044.83 32a16.68 16.68 0 00.17-2zm-15 9a9 9 0 118.82-9A8.93 8.93 0 0130 39z"/></svg>