<svg xmlns="http://www.w3.org/2000/svg" viewBox="0 0 60 60" class="icon"><path d="M46.3 57H13.7c-1.4 0-2.5-1.1-2.5-2.5V24.6c0-1.2.8-2.2 2-2.4l8.9-1.9.5-2.7c-3.8-.4-6.7-3.5-6.7-7.2 0-4 3.4-7.3 7.6-7.3h13.1c4.2 0 7.6 3.3 7.6 7.3 0 3.7-2.9 6.8-6.7 7.2l.5 2.7 8.9 1.9c1.2.2 2 1.3 2 2.4v29.8c-.1 1.4-1.2 2.6-2.6 2.6zm-30.1-5h27.6V26.6l-8.6-1.9c-1-.2-1.8-1-1.9-2L32 15.5c-.1-.7.1-1.5.6-2 .5-.6 1.2-.9 1.9-.9h2.1c1.4 0 2.6-1 2.6-2.3C39.2 9.1 38 8 36.6 8H23.4c-1.4 0-2.6 1-2.6 2.3 0 1.2 1.2 2.3 2.6 2.3h2.1c.7 0 1.4.3 1.9.9.5.6.7 1.3.6 2l-1.2 7.3c-.2 1-.9 1.8-1.9 2l-8.6 1.9V52z"/></svg>