<svg xmlns="http://www.w3.org/2000/svg" viewBox="0 0 60 60" class="icon"><path d="M30.5 17.8c-4.2-.2-8 1.2-10.7 3.8-2.4 2.4-3.8 5.6-3.8 9.1 0 4 1.7 7.8 4.8 10.5.5.5.9 1.2.9 1.9v.2c0 1.2.9 2.2 2 2.5.3.2.7.2 1.1.2h10.4c.5 0 1-.2 1.5-.5.8-.4 1.4-1.2 1.4-2.2 0-.7.3-1.4.9-1.9 3.2-2.7 5-6.7 4.9-10.9-.1-7-5.7-12.4-13.4-12.7zm5.3 19.8c-1.1.9-1.9 2.1-2.3 3.4h-7c-.4-1.4-1.2-2.6-2.3-3.5-1.9-1.7-3.1-4.1-3.1-6.7 0-2.2.8-4.1 2.3-5.5 1.7-1.6 4.3-2.5 7-2.4 5 .2 8.5 3.4 8.6 7.8 0 2.6-1.2 5.1-3.2 6.9zM51 10.5c-1-1-2.6-1-3.5 0l-3.8 3.8c-1 1-1 2.6 0 3.5.5.5 1.1.7 1.8.7s1.3-.2 1.8-.7L51 14c1-1 1-2.5 0-3.5zm-34.6 3.9l-3.8-3.9c-1-1-2.6-1-3.5 0-1 1-1 2.6 0 3.5l3.8 3.9c.5.5 1.1.7 1.8.7.6 0 1.3-.2 1.8-.7.8-.9.9-2.5-.1-3.5zM30 12.8c1.4 0 2.5-1.1 2.5-2.5v-6c0-1.4-1.1-2.5-2.5-2.5s-2.5 1.1-2.5 2.5v6c0 1.4 1.1 2.5 2.5 2.5zm24.2 16.6h-3c-1.4 0-2.5 1.1-2.5 2.5s1.1 2.5 2.5 2.5h3c1.4 0 2.5-1.1 2.5-2.5s-1.1-2.5-2.5-2.5zm-45.4 0h-3c-1.4 0-2.5 1.1-2.5 2.5s1.1 2.5 2.5 2.5h3c1.4 0 2.5-1.1 2.5-2.5s-1.1-2.5-2.5-2.5zm26.4 17.7H24.8c-1.4 0-2.5 1.1-2.5 2.5s1.1 2.5 2.5 2.5h10.4c1.4 0 2.5-1.1 2.5-2.5s-1.1-2.5-2.5-2.5zm-2 6.1h-6.4c-1.4 0-2.5 1.1-2.5 2.5s1.1 2.5 2.5 2.5h6.4c1.4 0 2.5-1.1 2.5-2.5s-1.1-2.5-2.5-2.5z"/></svg>