<svg version="1.1" xmlns="http://www.w3.org/2000/svg" viewBox="0 0 60 60" xml:space="preserve" class="icon"><path class="st0" d="M51.6 20.5c-2-4.9-8.1-8.2-13.8-7.6-.1 0-.2 0-.3.1l-5.6 1.4c-.3-5.7 2.7-8.2 2.9-8.3 1.1-.8 1.3-2.4.5-3.5s-2.4-1.3-3.5-.5c-.2.2-5.1 4-4.9 12L22.5 13c-.1 0-.2 0-.3-.1-5.8-.7-11.8 2.6-13.8 7.6-.8 1.4-4.8 9.2-1 20.5 0 .1.1.2.1.2l4.4 9.7c2.3 5.2 7 7.4 11.5 7.4 1.6 0 3.1-.3 4.6-.8.7-.3 1.4-.4 2.1-.4.7 0 1.4.1 2.1.4 1.4.5 3 .8 4.6.8 4.5 0 9.2-2.2 11.5-7.4l4.4-9.7c0-.1.1-.2.1-.2 3.6-11.4-.4-19.1-1.2-20.5zm-3.7 18.8l-4.3 9.6c-1.9 4.2-6.1 4.9-8.8 4.3-.1-.1-.3-.2-.5-.2-1.4-.5-2.9-.8-4.4-.8-1.5 0-2.9.2-4.3.8-.2.1-.3.1-.5.2-2.7.6-6.9 0-8.8-4.3L12 39.3c-3.2-9.9.5-16.1.7-16.4.1-.1.2-.3.2-.4 1.1-2.9 5-5 8.5-4.6l6.7 1.7c.5.4 1.2.5 1.8.4.7.1 1.3-.1 1.8-.4l6.7-1.7c3.5-.3 7.4 1.7 8.5 4.6.1.1.1.3.2.4.3.3 4 6.5.8 16.4z"/><path class="st0" d="M38.7 23.4c-1 .9-1 2.5-.1 3.5.1.1 2.6 2.9.8 8.2-.4 1.3.3 2.7 1.6 3.2.3.1.5.1.8.1 1 0 2-.7 2.4-1.7 2.8-8.4-1.7-13.1-1.9-13.3-1-1-2.6-1-3.6 0z"/></svg>