<svg xmlns="http://www.w3.org/2000/svg" viewBox="-267 390.9 60 60" class="icon"><path d="M-217.8 408.1s0-.1-.1-.1c-.1-.2-.2-.4-.4-.5l-12.3-12.3c-.2-.2-.3-.3-.5-.4l-.1-.1c-.2-.1-.4-.2-.6-.2H-254c-1.4 0-2.5 1.1-2.5 2.5v48.1c0 1.4 1.1 2.5 2.5 2.5h34c1.4 0 2.5-1.1 2.5-2.5v-35.8c0-.5-.1-.9-.3-1.2zm-33.7 34.3v-43.1h16.7v9.8c0 1.4 1.1 2.5 2.5 2.5h9.8v30.8h-29zm25.5-35.7h-3.8v-3.8l3.8 3.8z"/><path d="M-228.9 415.8h-16.3c-1.4 0-2.5 1.1-2.5 2.5s1.1 2.5 2.5 2.5h16.3c1.4 0 2.5-1.1 2.5-2.5s-1.1-2.5-2.5-2.5zm0 8.5h-16.3c-1.4 0-2.5 1.1-2.5 2.5s1.1 2.5 2.5 2.5h16.3c1.4 0 2.5-1.1 2.5-2.5s-1.1-2.5-2.5-2.5zm0 8.2h-16.3c-1.4 0-2.5 1.1-2.5 2.5s1.1 2.5 2.5 2.5h16.3c1.4 0 2.5-1.1 2.5-2.5s-1.1-2.5-2.5-2.5z"/></svg>