<svg xmlns="http://www.w3.org/2000/svg" viewBox="-267 390.9 60 60" class="icon"><path d="M-223.4 444.3c-.4 0-.8-.1-1.2-.3l-12.4-6.5-12.4 6.5c-.8.4-1.9.4-2.6-.2-.8-.6-1.2-1.5-1-2.4l2.4-13.8-10.1-9.8c-.7-.7-.9-1.7-.6-2.6.3-.9 1.1-1.6 2-1.7l13.9-2 6.2-12.6c.4-.9 1.3-1.4 2.2-1.4s1.8.5 2.2 1.4l6.2 12.6 13.9 2c.9.1 1.7.8 2 1.7.3.9 0 1.9-.6 2.6l-10.1 9.8 2.4 13.8c.2.9-.2 1.9-1 2.4-.4.4-.9.5-1.4.5zm-13.6-12.1c.4 0 .8.1 1.2.3l9.1 4.8-1.7-10.1c-.1-.8.1-1.6.7-2.2l7.4-7.2-10.2-1.5c-.8-.1-1.5-.6-1.9-1.4l-4.6-9.2-4.6 9.2c-.4.7-1.1 1.2-1.9 1.4l-10.2 1.5 7.4 7.2c.6.6.9 1.4.7 2.2l-1.7 10.1 9.1-4.8c.4-.2.8-.3 1.2-.3z"/></svg>