<svg data-name="Ebene 1" xmlns="http://www.w3.org/2000/svg" viewBox="0 0 60 60" class="icon"><path d="M26.49 34.09v-.86a4.54 4.54 0 01-.31.58l-.65 1h1zM23.21 26c0-.1-.06-.22-.09-.38s-.07-.26-.08-.32 0 .16-.06.3-.1.41-.21.83h.56zm5.13-.64h-.14V26h.13c.25 0 .38-.11.38-.33s-.13-.31-.37-.31z"/><path d="M47.87 48.8v-39H16.81a3.2 3.2 0 00-3.15 3S12.1 43 12.09 46.46c0 2.54 2.22 3.9 4.55 3.9h28.84c1.65 0 2.62.08 2.39-1.56zM41 24.82h2v.58h-.64v2.05h-.71V25.4H41zm-1.09 0h.71v2.63h-.71zm-2 0h1.56v.57h-.85v.42h.78v.57h-.78v.49h.85v.58h-1.56zm-2.64 8.51l-.66.55-.82-1 2-1.64h1.42v5.86h-1.6V33a3.22 3.22 0 01-.34.33zM24.16 36v-1.21l2.43-3.56h1.47v3.54h.64V36h-.64v1.14h-1.57V36zm4.22-9.45h-.18v.95h-.71v-2.68h.86c.72 0 1.07.26 1.07.78a.79.79 0 01-.44.71l.77 1.14h-.81zm1 9a4.06 4.06 0 00.79.27 3.23 3.23 0 00.75.1 1.1 1.1 0 00.68-.18.66.66 0 00.24-.55.62.62 0 00-.25-.53 1.17 1.17 0 00-.72-.19 2.76 2.76 0 00-.81.14l-.58-.29.22-3.09H33v1.32h-2l-.07.77a2.56 2.56 0 01.44-.06h.24a1.74 1.74 0 01.91.24 1.51 1.51 0 01.64.66 2.07 2.07 0 01.22 1 1.88 1.88 0 01-.59 1.5 2.62 2.62 0 01-1.79.53 3.85 3.85 0 01-1.67-.32zm2.13-9.74v.57h-.81v.49h.85v.58H30v-2.63h1.56v.57h-.86v.42zm1.14-.21v1.85H32v-2.63h.93l1 1.83v-1.83h.63v2.63h-.93zm4-.78h.72v2.63h-.72v-1.07h-.85v1.07h-.72v-2.63h.72v1h.82zM34.94 14.3l.82.07.12.81s-3.51 3.93-4 4.36a2.43 2.43 0 01-.86.63.58.58 0 00-.49.51 1.15 1.15 0 01-.32.82.67.67 0 01-1.11-.18c-.34-.67.47-1.09.77-1.13a.71.71 0 00.61-.64 2.7 2.7 0 01.53-1zm-7.76 3c.46.54.66.36.66.36a2.47 2.47 0 01-.1-3.12c0 .5.24.6.24.6A3 3 0 0130.39 13c-1.29.81-.1 2.9-.1 2.9a1.75 1.75 0 01.45-1.12 6.13 6.13 0 00.19 2 1.61 1.61 0 01-.36 1.74.93.93 0 00-.35.6c0-.1.19-.23.19-.23 0 1.4-.68 1.2-.68 1.2 0-.56-.46-.49-1-.58a.82.82 0 01-.66-.53c.2.1.3 0 .3 0-1.48-.54-1.19-1.71-1.19-1.71zm-2.51 7.55h.71v1h.83v-1h.71v2.63h-.71v-1.1h-.83v1.07h-.71zm-2.11 0h1l.87 2.64h-.83l-.13-.49h-.85l-.13.49h-.79zm-2.56 0h1.56v.57h-.86v.51h.79v.57h-.79v1H20zm26.82 24.39H16.08a3.11 3.11 0 010-6.19h30.74z"/></svg>