<svg data-name="Ebene 1" xmlns="http://www.w3.org/2000/svg" viewBox="0 0 60 60" class="icon"><path d="M51.15 17.49l-17 8.06-1.91 4.82c4.34-2.09 13.47-6.47 16.08-7.74a4.94 4.94 0 002.83-5.14z"/><path d="M33.05 36.83a7.15 7.15 0 00-4.61-1.63l1.21-3.2L39.87 6.45s-3.92.09-5.1 3L27 28.8l-3.86 1.73a7.18 7.18 0 00-14.34 0 6.52 6.52 0 001.86 5.17 7.55 7.55 0 006.12 2.3c2.61-.32 7.8-3.78 7.8-3.78s-3.22 5.17-3.26 8a7.24 7.24 0 002.62 5.7 7.18 7.18 0 109.11-11.1zM19 34.19a4.53 4.53 0 01-7.58-3.56 4.54 4.54 0 017.88-2.84 4.54 4.54 0 01-.3 6.4zm13 11.06a4.53 4.53 0 11-3.55-7.4 4.46 4.46 0 012.92 1 4.53 4.53 0 01.63 6.4z"/></svg>