<svg xmlns="http://www.w3.org/2000/svg" viewBox="0 0 60 60" class="icon"><path d="M30 38.9c-4.9 0-8.9-4-8.9-8.9s4-8.9 8.9-8.9 8.9 4 8.9 8.9-4 8.9-8.9 8.9zm0-12.8c-2.2 0-3.9 1.8-3.9 3.9s1.8 3.9 3.9 3.9 3.9-1.8 3.9-3.9-1.7-3.9-3.9-3.9z"/><path d="M34.4 54.7h-8.8c-1.4 0-2.5-1.1-2.5-2.5V48c-.3-.1-.7-.3-1-.4l-2.9 2.9c-1 1-2.6 1-3.5 0l-6.2-6.2c-1-1-1-2.6 0-3.5l2.9-2.9c-.1-.3-.3-.7-.4-1H7.8c-1.4 0-2.5-1.1-2.5-2.5v-8.8c0-1.4 1.1-2.5 2.5-2.5H12c.1-.3.3-.7.4-1l-2.9-2.9c-1-1-1-2.6 0-3.5l6.2-6.2c1-1 2.6-1 3.5 0l2.9 2.9c.3-.1.7-.3 1-.4V7.8c0-1.4 1.1-2.5 2.5-2.5h8.8c1.4 0 2.5 1.1 2.5 2.5V12c.3.1.7.3 1 .4l2.9-2.9c1-1 2.6-1 3.5 0l6.2 6.2c1 1 1 2.6 0 3.5l-2.9 2.9c.1.3.3.7.4 1h4.2c1.4 0 2.5 1.1 2.5 2.5v8.8c0 1.4-1.1 2.5-2.5 2.5H48c-.1.3-.3.7-.4 1l2.9 2.9c1 1 1 2.6 0 3.5l-6.2 6.2c-1 1-2.6 1-3.5 0l-2.9-2.9c-.3.1-.7.3-1 .4v4.2c0 1.4-1.1 2.5-2.5 2.5zm-6.3-5h3.8v-3.5c0-1.1.8-2.1 1.8-2.4 1.2-.3 2.3-.8 3.4-1.4 1-.6 2.2-.4 3 .4l2.5 2.5 2.7-2.7-2.5-2.5c-.8-.8-1-2-.4-3 .6-1.1 1.1-2.2 1.4-3.4.3-1.1 1.3-1.8 2.4-1.8h3.5v-3.8h-3.5c-1.1 0-2.1-.8-2.4-1.8-.3-1.2-.8-2.3-1.4-3.4-.6-1-.4-2.2.4-3l2.5-2.5-2.7-2.7-2.5 2.5c-.8.8-2 1-3 .4s-2.2-1.1-3.4-1.4c-1.1-.3-1.8-1.3-1.8-2.4v-3.5h-3.8v3.5c0 1.1-.8 2.1-1.8 2.4-1.2.3-2.3.8-3.4 1.4-1 .6-2.2.4-3-.4l-2.5-2.5-2.7 2.7 2.5 2.5c.8.8 1 2 .4 3-.6 1.1-1.1 2.2-1.4 3.4-.3 1.1-1.3 1.8-2.4 1.8h-3.5v3.8h3.5c1.1 0 2.1.8 2.4 1.8.3 1.2.8 2.3 1.4 3.4.6 1 .4 2.2-.4 3l-2.5 2.5 2.7 2.7 2.5-2.5c.8-.8 2-1 3-.4s2.2 1.1 3.4 1.4c1.1.3 1.8 1.3 1.8 2.4v3.5z"/></svg>