<svg xmlns="http://www.w3.org/2000/svg" viewBox="0 0 60 60" class="icon"><path d="M56.8 9.9c-.8-1.1-2.3-1.5-3.5-.7l-6.8 4.6L51 7c.8-1.1.5-2.7-.7-3.5-1.1-.8-2.7-.5-3.5.7l-9.4 14c-.5-.3-1.1-.5-1.7-.7-3.8-1.2-7.9 0-10.4 3.2l-7.6 9.5-11.4 14c-.1.1-5.5 9.1-2.7 11.9.6.6 1.4.8 2.4.8 3.8 0 9.4-3.5 9.5-3.5l14-11.4 9.5-7.7c3.1-2.5 4.3-6.6 3.2-10.4l-.3-.9 14.3-9.6c1-.8 1.3-2.3.6-3.5zM35.9 30.4l-9.5 7.7-14 11.4c-.6.4-2.3 1.1-3.9 1.7.6-1.6 1.4-3.4 1.7-3.9l4.9-6c.3.1.7.2 1 .2.6 0 1.3-.2 1.8-.7.9-.9 1-2.2.3-3.2l2.9-3.6c.5.5 1.1.7 1.8.7s1.3-.2 1.8-.7c1-1 1-2.6 0-3.5l-.4-.4 2.3-2.9.6.6c.5.5 1.1.7 1.8.7s1.3-.2 1.8-.7c1-1 1-2.6 0-3.5l-.9-.9c1.2-1.1 2.9-1.5 4.5-1 1.5.5 2.6 1.6 3.1 3.1.5 1.7-.1 3.7-1.6 4.9z"/></svg>