<svg xmlns="http://www.w3.org/2000/svg" viewBox="0 0 64 64" class="icon"><path d="M31.41 10.761L20.131 21.863V10.588L31.41.642l11.277 9.946v11.275z"/><path d="M31.41.466L42.773 10.49l.044.039v11.65L31.41 10.948 20 22.179V10.528zm0 10.11l11.144 10.972v-10.9L31.409.817l-11.145 9.83v10.9zm11.547 32.077L31.681 53.755 20.403 42.653v11.275l11.278 9.946 11.276-9.946z"/><path d="M31.68 64.05l11.365-10.023.044-.039v-11.65L31.681 53.569 20.27 42.338v11.65zm0-10.11l11.145-10.972v10.9l-11.144 9.83-11.146-9.83v-10.9zM4.593 36.564h55.356v4.498H4.593zm0-6.498h55.356v4.498H4.593zm0-6.498h55.356v4.498H4.593z"/></svg>