<svg xmlns="http://www.w3.org/2000/svg" viewBox="0 0 60 60" class="icon"><path d="M54.4 17.1l-10-10.4-.1-.1c-.5-.5-1.1-.8-1.8-.8h-30c-4.2 0-7.6 3.4-7.6 7.6v35c0 4.2 3.4 7.6 7.6 7.6h35c4.2 0 7.6-3.4 7.6-7.6V18.8c0-.6-.3-1.3-.7-1.7zm-33.5-6.3h5.7v5.7c0 1.4 1.1 2.5 2.5 2.5H34c1.4 0 2.5-1.1 2.5-2.5v-5.7h2.9v8.5c0 1.4-1.2 2.6-2.7 2.6h-13c-1.5 0-2.7-1.2-2.7-2.6v-8.5h-.1zm-1.8 40V37.3h21.8v13.5H19.1zm31-2.5c0 1.4-1.2 2.6-2.6 2.6h-1.6V34.8c0-1.4-1.1-2.5-2.5-2.5H16.6c-1.4 0-2.5 1.1-2.5 2.5v16.1h-1.6c-1.4 0-2.6-1.2-2.6-2.6v-35c0-1.4 1.2-2.6 2.6-2.6h3.4v8.5c0 4.2 3.5 7.6 7.7 7.6h13c4.3 0 7.7-3.4 7.7-7.6v-5.4l5.7 6 .1 28.5z"/></svg>