<svg xmlns="http://www.w3.org/2000/svg" viewBox="0 0 60 60" class="icon"><path d="M57.5 25.4L31.6 3.3c-.9-.8-2.3-.8-3.3 0L2.5 25.4c-1 .9-1.2 2.5-.3 3.5.5.6 1.2.9 1.9.9.6 0 1.2-.2 1.6-.6l1.2-1v26.6c0 1.4 1.1 2.5 2.5 2.5h41.1c1.4 0 2.5-1.1 2.5-2.5V44.3c0-.2.1-.4.1-.6v-12c0-.2 0-.4-.1-.6v-3l1.2 1c1 .9 2.6.8 3.5-.3s.8-2.5-.2-3.4zM26.7 52.3h-6.1v-18h6.1v18zm21.4-11.1h-7.6v-7h7.6v7zm0-11.9H37.9c-1.4 0-2.5 1.1-2.5 2.5v12c0 1.4 1.1 2.5 2.5 2.5H48v6.1H31.7V31.8c0-1.4-1.1-2.5-2.5-2.5H18.1c-1.4 0-2.5 1.1-2.5 2.5v20.6h-3.7V23.9L30 8.5 48.1 24v5.3z"/></svg>