<svg data-name="Ebene 1" xmlns="http://www.w3.org/2000/svg" viewBox="0 0 60 60" class="icon"><path d="M33.67 33.32l-2.9 3.26 4.61 4.11-4.79.18a9.57 9.57 0 01-1.07 0h-.06c-.33 0-.66-.05-1-.1h-.15c-.29 0-.58-.1-.87-.17l-.22-.06c-.25-.06-.5-.14-.75-.22l-.3-.11c-.22-.09-.43-.17-.64-.27l-.38-.18c-.17-.09-.34-.17-.5-.27l-.47-.28-.34-.21c-.19-.13-.37-.27-.55-.41l-.23-.19-.61-.55-.11-.11c-.22-.23-.44-.46-.65-.71a10.73 10.73 0 01-1.8-10.63l-3.81-3.81a16.58 16.58 0 00-1.89 7.54v.89a15.71 15.71 0 001.24 5.25c.19.45.4.88.63 1.31l.06.11q.33.59.69 1.14l.15.22c.22.32.46.63.7.93.09.12.18.23.28.34s.43.49.65.72l.45.45c.18.17.37.35.57.52l.64.53.45.33c.28.2.56.4.85.58l.31.19c.35.21.71.41 1.07.59l.16.08c.42.2.85.39 1.29.56a15.83 15.83 0 005.61 1h.46l5.25-.2-4.1 4.59 3.26 2.91 9.34-10.49zm12.14-3.19v-1.08c0-.3 0-.6-.08-.89l-.09-.6c-.06-.34-.13-.68-.2-1l-.12-.44a10.86 10.86 0 00-.38-1.12c0-.1-.07-.21-.11-.31-.15-.4-.31-.78-.48-1.16a2 2 0 01-.1-.21c-.2-.41-.41-.81-.64-1.19a.41.41 0 00-.07-.11 10.88 10.88 0 00-.8-1.2 15.76 15.76 0 00-12.3-6.44l-5.25-.1 4.35-4.35-3.1-3.13-9.93 9.94 10 10 3.08-3.09-4.37-4.37 4.34.08v.06a10.8 10.8 0 0110.59 7.11.14.14 0 000 .06 8 8 0 01.26.87l.06.21c.06.25.1.5.14.75s.05.25.06.38 0 .4.06.6 0 .4 0 .6a10.67 10.67 0 01-.51 3.5l4 3.64a16.54 16.54 0 001.57-7z"/></svg>