<svg xmlns="http://www.w3.org/2000/svg" viewBox="0 0 60 60" class="icon"><path d="M55.6 29.3c-1.4 0-2.5 1.1-2.5 2.5v.8H47V19c0-1.4-1.1-2.5-2.5-2.5H4.4c-.7 0-1.4.3-1.9.8s-.7 1.3-.6 2l2 16c.2 1.3 1.2 2.2 2.5 2.2h4.1c.6 4.5 4.4 8 9.1 8s8.5-3.5 9.1-8h26.9c1.4 0 2.5-1.1 2.5-2.5v-3.3c0-1.3-1.1-2.4-2.5-2.4zm-45.1 6.1v-.2.2zm.2-1s0-.1 0 0c0-.1 0 0 0 0zm.2-1zm8.7 7.1c-2.3 0-4.1-1.9-4.1-4.1s1.9-4.1 4.1-4.1 4.1 1.9 4.1 4.1-1.8 4.1-4.1 4.1zm9.1-5.3zM42 32.5H27.9c-1.4-3.1-4.6-5.3-8.3-5.3-3.7 0-6.8 2.2-8.3 5.3H8.6l-1.4-11H42v11zm-13.5 1.9s0-.1 0 0c0-.1 0 0 0 0zm-.3-1z"/></svg>