<svg xmlns="http://www.w3.org/2000/svg" viewBox="0 0 60 60" class="icon"><path d="M42.9 43.7c-1.4 0-2.5 1.1-2.5 2.5 0 1.7-1.4 3.2-3.2 3.2H21c-1.7 0-3.2-1.4-3.2-3.2V13.8c0-1.7 1.4-3.2 3.2-3.2h16.2c1.7 0 3.2 1.4 3.2 3.2 0 1.4 1.1 2.5 2.5 2.5s2.5-1.1 2.5-2.5c0-4.5-3.7-8.2-8.2-8.2H21c-4.5 0-8.2 3.7-8.2 8.2v32.4c0 4.5 3.7 8.2 8.2 8.2h16.2c4.5 0 8.2-3.7 8.2-8.2 0-1.4-1.1-2.5-2.5-2.5z"/><path d="M52.9 28.2L45 20.3c-1-1-2.6-1-3.5 0-1 1-1 2.6 0 3.5l3.7 3.7h-16c-1.4 0-2.5 1.1-2.5 2.5s1.1 2.5 2.5 2.5h16l-3.7 3.7c-1 1-1 2.6 0 3.5.5.5 1.1.7 1.8.7s1.3-.2 1.8-.7l7.9-7.9c.9-1 .9-2.6-.1-3.6z"/></svg>