<svg data-name="Ebene 1" xmlns="http://www.w3.org/2000/svg" viewBox="0 0 60 60" class="icon"><path d="M16.34 22.11l3.52-9.72h-5.35L9 22.79a3.72 3.72 0 007.44 0zm8.66 0l1.21-9.72h-5.29l-3.42 9.72.06.68a3.72 3.72 0 107.44 0zm8.69 0l-1.11-9.72h-5.26l-1.11 9.72v.68a3.72 3.72 0 107.44 0zm8.71 0L39 12.39h-5.31l1.2 9.72.17.68a3.72 3.72 0 007.44 0zm2.99-9.72H40l3.53 9.72.26.68a3.72 3.72 0 107.44 0z" opacity=".75"/><path d="M47.38 28.22a5.7 5.7 0 01-1.73-.22v11.3H14.41V27.9a5.82 5.82 0 01-1.9.32 5.83 5.83 0 01-.72-.06v19.45h36.32V28.16a5.83 5.83 0 01-.73.06z"/></svg>