<svg xmlns="http://www.w3.org/2000/svg" viewBox="0 0 60 60" class="icon"><g><path d="M47.5 22.4h-2.9V10.8h2.9c.6 0 1 .4 1 1v9.6c0 .6-.5 1-1 1z"/><path opacity=".75" d="M47.5 35.8h-2.9V24.2h2.9c.6 0 1 .4 1 1v9.7c0 .5-.5.9-1 .9z"/><path opacity=".5" d="M47.5 49.2h-2.9V37.6h2.9c.6 0 1 .4 1 1v9.6c0 .6-.5 1-1 1z"/><path d="M14.3 9.8v3.5h4.1v4.3h-4.1V23h4.1v4.3h-4.1V33h4.1v4.3h-4.1v5.4h4.1V47h-4.1v2.9h29V9.8h-29zM38 39.6c-.1.2-.5.5-.5.5-1.9 1.5-5.2 1.3-7.2-.3-1.8-1.4-2.9-3.3-4-5.2-2-3.3-2.4-6.8-2.2-10.5 0-.8.1-1.5.2-2.3.3-2.1 1.7-3.4 3.8-3.8.4-.1 1.4-.1 1.6-.1 0 .1 0 0 0 0 .8.2 1.2.8 1.1 1.7-.1 1.1-.2 2.2-.4 3.2-.1.4-.3.8-.6 1.1-.2.2-1 .6-1.2.7-.8.6-1.6 1.1-1.7 2.4-.1 2.7 1.7 5.8 3.1 8 .7 1.1 1.5.6 2.6.5.1 0 2.1-.9 3.2.1l1.8 1.8c.9 1 .9 1.1.4 2.2z"/><g opacity=".75"><path d="M11.4 14.5h5.8v1.9h-5.8z"/><path d="M17.2 14.5v1.9h-5.8v-1.9h5.8"/></g><g opacity=".75"><path d="M11.4 24.4h5.8v1.9h-5.8z"/><path d="M17.2 24.4v1.9h-5.8v-1.9h5.8"/></g><g opacity=".75"><path d="M11.4 34.2h5.8v1.9h-5.8z"/><path d="M17.2 34.2v1.9h-5.8v-1.9h5.8"/></g><g opacity=".75"><path d="M11.4 44.1h5.8V46h-5.8z"/><path d="M17.2 44.1V46h-5.8v-1.9h5.8"/></g></g></svg>