<svg xmlns="http://www.w3.org/2000/svg" viewBox="0 0 60 60" class="icon"><path d="M57.1 20c0-.4-.1-.8-.3-1.1l-9-15.4c-.4-.7-1.1-1.2-1.9-1.2-.8-.1-1.6.2-2.1.8l-7.7 8.7c-.8.9-.8 2.4 0 3.3l.4.4-12.1 12.2-1.9-16.2L29 6.6c1.1-.8 1.3-2.4.5-3.5-.9-1.1-2.4-1.3-3.5-.5l-7.7 5.8c-.7.5-1.1 1.4-1 2.3l2.6 21.5L2.7 49.5c-1 1-1 2.6 0 3.5.5.5 1.1.7 1.8.7.6 0 1.3-.2 1.8-.7l16.1-16.2 5.4 6c-.1.1-.2.2-.3.4-1.5 1.9-2.1 4.3-1.8 6.8.3 2.4 1.6 4.6 3.5 6.1 1.6 1.2 3.5 1.9 5.5 1.9.4 0 .8 0 1.2-.1 2.4-.3 4.6-1.6 6.1-3.5s2.1-4.3 1.8-6.8c-.7-5-5.3-8.5-10.3-7.9-.5.1-1 .2-1.6.4l-6-6.8 13.9-13.9 4.4 5 9.3 13.8c.5.7 1.3 1.1 2.1 1.1.3 0 .5 0 .8-.1 1.1-.4 1.8-1.4 1.7-2.5l-1-16.7zm-23 24.7h.6c.9 0 1.8.3 2.5.9.9.7 1.4 1.6 1.6 2.7.1 1.1-.1 2.2-.8 3.1s-1.6 1.4-2.7 1.6c-1.1.1-2.2-.1-3.1-.8-.9-.7-1.4-1.6-1.6-2.7-.1-1.1.1-2.2.8-3.1.7-1 1.6-1.6 2.7-1.7zm14.2-23.3c-.1-.1-.1-.2-.2-.3l-6.8-7.6L45.2 9l6.9 11.8.4 6.9-4.2-6.3z"/></svg>