<svg version="1.1" xmlns="http://www.w3.org/2000/svg" viewBox="0 0 60 60" xml:space="preserve" class="icon"><path class="st0" d="M14.7 25.9c-1.4 0-2.5 1.1-2.5 2.5s1.1 2.5 2.5 2.5 2.5-1.1 2.5-2.5-1.1-2.5-2.5-2.5z"/><path class="st0" d="M57.6 40c-1.1-3-2.8-8.5-2.8-10.5 0-2.4 1.4-9.7 1.9-12.3.2-1-.2-2-1.1-2.6-.9-.6-2-.5-2.8 0l-10.3 7.2c-1.7-1.3-4.7-3.3-7.9-4.7l-.3-7.5c0-.9-.6-1.8-1.4-2.2-.8-.4-1.8-.3-2.6.2l-10.7 7.8C10.4 17.3 2.3 25.7 2.3 31.5c0 6.1 8.2 12.5 17.6 13.9l9.6 6.7c.4.3.9.5 1.4.5.4 0 .8-.1 1.1-.3.8-.4 1.4-1.2 1.4-2.1l.2-6.4c3.3-1.4 6.9-3.7 8.6-4.9l12.2 4.2c.9.3 1.9.1 2.6-.6.7-.6.9-1.6.6-2.5zm-14.9-6.1c-.8-.3-1.6-.1-2.3.3-.1 0-6 4.2-10 5.5-1 .3-1.7 1.2-1.7 2.3l-.1 3.4-6.3-4.4c-.3-.2-.7-.4-1.1-.4-7.9-1.1-13.9-6.2-13.9-9.1 0-3.1 6.2-10 13.8-11 .4-.1.8-.2 1.1-.5l7.3-5.4.2 4.4c0 1 .7 2 1.7 2.3 4.5 1.5 9.4 5.5 9.5 5.6.9.7 2.1.8 3 .1l6.8-4.7c-.5 2.7-.9 5.6-.9 7.2 0 1.8.7 4.7 1.5 7.3l-8.6-2.9z"/></svg>