<svg xmlns="http://www.w3.org/2000/svg" viewBox="0 0 60 60" class="icon"><path d="M48.9 28.8c-1.4 0-2.5 1.1-2.5 2.5V49H10.7V13.4h17.8c1.4 0 2.5-1.1 2.5-2.5s-1.1-2.5-2.5-2.5H8.2c-1.4 0-2.5 1.1-2.5 2.5v40.7c0 1.4 1.1 2.5 2.5 2.5h40.7c1.4 0 2.5-1.1 2.5-2.5V31.3c0-1.4-1.1-2.5-2.5-2.5z"/><path d="M55.1 13.3L47 5.1c-.9-.9-2.6-.9-3.5 0L37 11.6 19.7 28.9l-.1.1-.2.2c0 .1-.1.1-.1.2s-.1.1-.1.2-.1.2-.1.2v.1l-3.9 12.2c-.3.9 0 1.9.6 2.5.5.5 1.1.7 1.8.7.3 0 .5 0 .8-.1l12-4.1h.1c.1 0 .2-.1.2-.1.1 0 .1-.1.2-.1s.1-.1.2-.1l.2-.2 23.8-23.8c1-1 1-2.6 0-3.5zm-16.3 3.6l4.6 4.6-13.8 13.8-4.6-4.6 13.8-13.8zM22.6 35.4l2.4 2.4-3.6 1.2 1.2-3.6zm24.3-17.5l-4.6-4.6 2.9-2.9 4.6 4.6-2.9 2.9z"/></svg>