<svg version="1.1" xmlns="http://www.w3.org/2000/svg" viewBox="0 0 60 60" xml:space="preserve" class="icon"><path class="st0" d="M30 2.4C14.8 2.4 2.4 14.8 2.4 30c0 15.2 12.4 27.6 27.6 27.6 15.2 0 27.6-12.4 27.6-27.6C57.6 14.8 45.2 2.4 30 2.4zm0 50.2C17.5 52.6 7.4 42.5 7.4 30S17.5 7.4 30 7.4 52.6 17.5 52.6 30 42.5 52.6 30 52.6z"/><path class="st0" d="M47.7 28.4c-1.2-.8-2.7-.4-3.5.7l-.1.1c-.5.8-1.5 1.2-2.4 1l-3.3-.8v-.5c-.1-.6-.2-1.2-.4-1.8l2.6-2.1c2.4-1.9 3.3-5.1 2.3-8-.4-1.3-1.9-2-3.2-1.5-1.3.4-2 1.9-1.6 3.2.3.9 0 1.9-.7 2.5l-2.5 2c-.7-.5-1.4-.9-2.2-1.2v-3.2c0-3-1.8-5.6-4.6-6.7V12c-1.3-.5-2.7.1-3.2 1.4-.5 1.3.1 2.7 1.4 3.2l.1.1c.9.3 1.4 1.2 1.4 2.1v3c-.9.2-1.8.6-2.5 1.1L22.9 21c-2.2-1.8-5.3-2.1-7.8-.8l-.3.2c-1.2.6-1.7 2.1-1.1 3.4.6 1.2 2.1 1.7 3.4 1.1l.3-.2c.8-.4 1.7-.3 2.4.2l2.3 1.9c-.3.7-.5 1.5-.6 2.3l-2.8.5c-3 .6-5.4 3-5.8 6-.2 1.4.7 2.6 2.1 2.8h.4c1.2 0 2.3-.9 2.5-2.1.1-.9.9-1.7 1.8-1.9l2.8-.5c.4.8.9 1.5 1.6 2.2l-1.4 2.5c-1.5 2.7-1 6.1 1.1 8.3.5.5 1.2.8 1.8.8.6 0 1.2-.2 1.7-.7 1-.9 1.1-2.5.1-3.5-.7-.7-.8-1.7-.3-2.6l1.4-2.6c.5.1 1 .1 1.5.1.4 0 .7 0 1.1-.1l1.2 2.8c1.1 2.7 3.8 4.4 6.7 4.4h.5c1.4-.1 2.4-1.3 2.4-2.6-.1-1.4-1.2-2.4-2.6-2.4h-.1c-1 0-1.8-.5-2.2-1.4l-1.3-2.9c.4-.4.8-.8 1.1-1.2l.6-.9 3.3.8c.5.1 1.1.2 1.6.2 2.4 0 4.7-1.2 6.1-3.3l.1-.1c.7-1 .4-2.6-.8-3.3zm-14.9 3.7c-.6.8-1.4 1.2-2.3 1.4-.9.1-1.9-.1-2.6-.7-.8-.6-1.2-1.4-1.4-2.3s.1-1.9.7-2.6c.6-.8 1.4-1.2 2.3-1.4h.5c.8 0 1.5.3 2.1.7.8.6 1.2 1.4 1.4 2.3.1 1-.1 1.9-.7 2.6z"/></svg>