<svg xmlns="http://www.w3.org/2000/svg" viewBox="0 0 60 60" class="icon"><path d="M30 57c-.9 0-1.7-.4-2.1-1.2-1.6-2.6-15.8-25.4-15.8-34.4 0-9.9 8-17.9 17.9-17.9s17.9 8 17.9 17.9c0 9-14.2 31.8-15.8 34.4-.4.7-1.2 1.2-2.1 1.2zm0-48.5c-7.1 0-12.9 5.8-12.9 12.9 0 5.5 8 20.1 12.9 28.3 4.9-8.2 12.9-22.8 12.9-28.3 0-7.1-5.8-12.9-12.9-12.9z"/><path d="M30 29.9c-4.7 0-8.5-3.8-8.5-8.5s3.8-8.5 8.5-8.5 8.5 3.8 8.5 8.5-3.8 8.5-8.5 8.5zm0-12c-1.9 0-3.5 1.6-3.5 3.5s1.6 3.5 3.5 3.5 3.5-1.6 3.5-3.5-1.6-3.5-3.5-3.5z"/></svg>