<svg xmlns="http://www.w3.org/2000/svg" viewBox="-267 390.9 60 60" class="icon"><path d="M-247.1 447.6c-.9 0-1.7-.5-2.2-1.2-.5-.8-.4-1.8.1-2.6 1.1-1.7 1.7-2.9 2.6-4.5h-7.7c-4.3 0-7.8-3.5-7.8-7.8v-27c0-4.3 3.5-7.8 7.8-7.8h34.7c4.3 0 7.8 3.5 7.8 7.8v27c0 4.3-3.5 7.8-7.8 7.8h-6.3c-6.9 7.6-20.4 8.4-21 8.4-.1-.1-.2-.1-.2-.1zm-7.2-46c-1.5 0-2.8 1.2-2.8 2.8v27c0 1.5 1.2 2.8 2.8 2.8h11.8c.9 0 1.7.5 2.1 1.2.5.7.5 1.7.1 2.5-.5 1-1 1.9-1.3 2.6-.3.5-.5 1-.8 1.5 4.2-.8 10.2-2.7 13.3-6.8.5-.6 1.2-1 2-1h7.5c1.5 0 2.8-1.2 2.8-2.8v-27c0-1.5-1.2-2.8-2.8-2.8h-34.7z"/><path d="M-223.5 411.6h-27.4c-1.4 0-2.5-1.1-2.5-2.5s1.1-2.5 2.5-2.5h27.4c1.4 0 2.5 1.1 2.5 2.5s-1.1 2.5-2.5 2.5zm-10.5 8.6h-16.9c-1.4 0-2.5-1.1-2.5-2.5s1.1-2.5 2.5-2.5h16.9c1.4 0 2.5 1.1 2.5 2.5s-1.1 2.5-2.5 2.5zm8.4 8.4h-25.3c-1.4 0-2.5-1.1-2.5-2.5s1.1-2.5 2.5-2.5h25.3c1.4 0 2.5 1.1 2.5 2.5s-1.1 2.5-2.5 2.5z"/></svg>