<svg data-name="Ebene 1" xmlns="http://www.w3.org/2000/svg" viewBox="0 0 60 60" class="icon"><path opacity=".5" d="M24.29 8.17L14.07 19.91h10.22V8.17z"/><path d="M24.29 8.17v11.74H14.07v31.92h31.86V8.17zm5.37 32.59c-5.58 0-9.45-3.76-10.78-8.76h1.5c.55 2 1.49 2.47 2.7 3.7a11 11 0 01-.23-2.24 5.65 5.65 0 015.65-5.65 5.74 5.74 0 015.66 5.75 7.22 7.22 0 01-.43 2.44 7.28 7.28 0 002.17-6h5.22c-.53 5-6.55 10.76-11.46 10.76z"/><path d="M28.5 29.66a3.64 3.64 0 103.64 3.63 3.64 3.64 0 00-3.64-3.63z"/></svg>