<svg xmlns="http://www.w3.org/2000/svg" viewBox="0 0 60 60" class="icon"><path d="M17.3 9.2c-1.7 0-3.6 1.3-3.7 3v34.7c0 2.5 2.2 3.9 4.5 3.9h28.2V9.2h-29zM22 28.4h1.6v-2.2H22v-2.7h2.1v-.1c1.4-4.5 4.3-6.7 8.8-6.7 1.9 0 3.7.4 5.1 1l-1.2 2.4c-.7-.3-2-.8-3.9-.8-3.5 0-4.9 1.6-5.9 4l-.1.1h6.8v2.7h-7.4v.1c0 .4-.1.8-.1 1.2v1h7.4V31h-6.8l.1.1c1.1 2.6 2.4 4 5.9 4 1.5 0 3.1-.3 4.1-.8l1.2 2.4c-1.4.6-3.3 1-5.3 1-4.5 0-7.3-2.2-8.7-6.7v-.1h-2v-2.5zm23.3 21.3H17.6c-1.5-.1-2.8-1.1-2.8-2.2s1.2-2.1 2.8-2.2h27.7v4.4z"/></svg>