<svg xmlns="http://www.w3.org/2000/svg" viewBox="-267 390.9 60 60" class="icon"><path d="M-247.3 418.9h-6.2c-4.3 0-7.8-3.5-7.8-7.8v-6.2c0-4.3 3.5-7.8 7.8-7.8h6.2c4.3 0 7.8 3.5 7.8 7.8v6.2c0 4.3-3.5 7.8-7.8 7.8zm-6.2-16.8c-1.5 0-2.8 1.2-2.8 2.8v6.2c0 1.5 1.2 2.8 2.8 2.8h6.2c1.5 0 2.8-1.2 2.8-2.8v-6.2c0-1.5-1.2-2.8-2.8-2.8h-6.2zm6.2 42.9h-6.2c-4.3 0-7.8-3.5-7.8-7.8V431c0-4.3 3.5-7.8 7.8-7.8h6.2c4.3 0 7.8 3.5 7.8 7.8v6.2c0 4.3-3.5 7.8-7.8 7.8zm-6.2-16.7c-1.5 0-2.8 1.2-2.8 2.8v6.2c0 1.5 1.2 2.8 2.8 2.8h6.2c1.5 0 2.8-1.2 2.8-2.8v-6.2c0-1.5-1.2-2.8-2.8-2.8h-6.2zm29.3-8.2c-2 0-4-.8-5.5-2.3l-4.4-4.4c-1.5-1.5-2.3-3.4-2.3-5.5s.8-4 2.3-5.5l4.4-4.4c3-3 8-3 11 0l4.4 4.4c1.5 1.5 2.3 3.4 2.3 5.5s-.8 4-2.3 5.5l-4.4 4.4c-1.5 1.6-3.5 2.3-5.5 2.3zm0-19.3c-.7 0-1.4.3-2 .8l-4.4 4.4c-.5.5-.8 1.2-.8 2s.3 1.4.8 2l4.4 4.4c1 1 2.9 1 3.9 0l4.4-4.4c.5-.5.8-1.2.8-2s-.3-1.4-.8-2l-4.4-4.4c-.4-.5-1.1-.8-1.9-.8zm3.1 44.2h-6.2c-4.3 0-7.8-3.5-7.8-7.8V431c0-4.3 3.5-7.8 7.8-7.8h6.2c4.3 0 7.8 3.5 7.8 7.8v6.2c0 4.3-3.5 7.8-7.8 7.8zm-6.2-16.7c-1.5 0-2.8 1.2-2.8 2.8v6.2c0 1.5 1.2 2.8 2.8 2.8h6.2c1.5 0 2.8-1.2 2.8-2.8v-6.2c0-1.5-1.2-2.8-2.8-2.8h-6.2z"/></svg>