<svg version="1.1" xmlns="http://www.w3.org/2000/svg" viewBox="0 0 60 60" xml:space="preserve" class="icon"><path class="st0" d="M30.3 38.5c-3.8 0-7.1-2.8-7.6-6.7-.3-2 .3-4.1 1.5-5.7 1.3-1.6 3.1-2.7 5.1-3 4.2-.6 8.1 2.4 8.7 6.6.3 2-.3 4.1-1.5 5.7s-3.1 2.7-5.1 3c-.5.1-.8.1-1.1.1zm0-10.4h-.4c-.7.1-1.4.5-1.8 1-.4.6-.6 1.3-.5 2 .2 1.5 1.6 2.5 3.1 2.3.7-.1 1.4-.5 1.8-1s.6-1.3.5-2c-.2-1.3-1.4-2.3-2.7-2.3zM18 42.5c-.8 0-1.6-.4-2.1-1.1-.7-1-1.3-2.1-1.7-3.2-.5-1.1-.9-2.3-1.1-3.6-.3-1.2-.4-2.5-.4-3.8 0-1.3.1-2.6.4-3.8.2-1.2.6-2.4 1.1-3.6.5-1.1 1.1-2.2 1.7-3.2.8-1.1 2.3-1.4 3.5-.7 1.1.8 1.4 2.3.7 3.5-.5.7-.9 1.5-1.3 2.4-.4.8-.6 1.7-.8 2.6-.2.9-.3 1.9-.3 2.8 0 .9.1 1.9.3 2.8.2.9.5 1.8.8 2.6.3.8.8 1.6 1.3 2.4.8 1.1.5 2.7-.7 3.5-.5.2-.9.4-1.4.4z"/><path class="st0" d="M10.2 47.7c-.8 0-1.6-.4-2.1-1.1-1-1.5-1.9-3.1-2.6-4.8-.7-1.7-1.3-3.5-1.7-5.3-.4-1.9-.6-3.8-.6-5.7 0-1.9.2-3.8.6-5.7.4-1.8.9-3.6 1.7-5.3.7-1.7 1.6-3.3 2.6-4.8.8-1.1 2.3-1.4 3.5-.7 1.1.8 1.4 2.3.7 3.5-.8 1.2-1.6 2.6-2.1 4-.6 1.4-1.1 2.9-1.4 4.4-.3 1.5-.5 3.1-.5 4.7s.2 3.2.5 4.7.8 3 1.4 4.4c.6 1.4 1.3 2.7 2.1 4 .8 1.1.5 2.7-.7 3.5-.4.1-.9.2-1.4.2zm32.4-5.2c-.5 0-1-.1-1.4-.4-1.1-.8-1.4-2.3-.7-3.5.5-.7.9-1.5 1.3-2.4.4-.8.6-1.7.8-2.6.2-.9.3-1.9.3-2.8 0-.9-.1-1.9-.3-2.8-.2-.9-.5-1.8-.8-2.6-.3-.8-.8-1.6-1.3-2.4-.8-1.1-.5-2.7.7-3.5 1.1-.8 2.7-.5 3.5.7.7 1 1.3 2.1 1.7 3.2.5 1.1.9 2.3 1.1 3.6.3 1.2.4 2.5.4 3.8 0 1.3-.1 2.6-.4 3.8-.2 1.2-.6 2.4-1.1 3.6-.5 1.1-1.1 2.2-1.7 3.2-.6.7-1.3 1.1-2.1 1.1z"/><path class="st0" d="M50.3 47.7c-.5 0-1-.1-1.4-.4-1.1-.8-1.4-2.3-.7-3.5.8-1.2 1.6-2.6 2.1-4 .6-1.4 1.1-2.9 1.4-4.4.3-1.5.5-3.1.5-4.7s-.2-3.2-.5-4.7-.8-3-1.4-4.4c-.6-1.4-1.3-2.7-2.1-4-.8-1.1-.5-2.7.7-3.5 1.1-.8 2.7-.5 3.5.7 1 1.5 1.9 3.1 2.6 4.8.7 1.7 1.3 3.5 1.7 5.3.4 1.9.6 3.8.6 5.7 0 1.9-.2 3.8-.6 5.7-.4 1.8-.9 3.6-1.7 5.3-.7 1.7-1.6 3.3-2.6 4.8-.5.9-1.3 1.3-2.1 1.3z"/></svg>