<svg xmlns="http://www.w3.org/2000/svg" viewBox="0 0 60 60" class="icon"><path d="M53 30.4l-5.9-5.9c-.9-.9-2.6-.9-3.5 0l-5.9 5.9c-1 1-1 2.6 0 3.5.5.5 1.1.7 1.8.7s1.3-.2 1.8-.7l1.6-1.6c-.9 6.2-6.3 11-12.8 11-3.5 0-6.8-1.4-9.2-3.9-1-1-2.6-1-3.5 0-1 1-1 2.6 0 3.5 3.4 3.5 7.9 5.4 12.8 5.4 9.3 0 16.9-7.1 17.8-16.1l1.6 1.6c1 1 2.6 1 3.5 0s.9-2.4-.1-3.4zM22.3 26c-1-1-2.6-1-3.5 0l-1.6 1.6c.9-6.2 6.3-11 12.8-11 3.5 0 6.8 1.4 9.2 3.9 1 1 2.6 1 3.5 0 1-1 1-2.6 0-3.5-3.4-3.5-7.9-5.4-12.8-5.4-9.3 0-16.9 7.1-17.8 16.1L10.5 26c-1-1-2.6-1-3.5 0-1 1-1 2.6 0 3.5l5.9 5.9c.5.5 1.1.7 1.8.7s1.3-.3 1.8-.7l5.9-5.9c.9-.9.9-2.5-.1-3.5z"/></svg>