<svg xmlns="http://www.w3.org/2000/svg" viewBox="-267 390.9 60 60" class="icon"><path d="M-237 395.3c-14.1 0-25.6 11.5-25.6 25.6V444c0 1.4 1.1 2.5 2.5 2.5h23.1c14.1 0 25.6-11.5 25.6-25.6 0-14.1-11.5-25.6-25.6-25.6zm0 46.2h-20.6v-20.6c0-11.4 9.2-20.6 20.6-20.6s20.6 9.2 20.6 20.6c0 11.4-9.2 20.6-20.6 20.6z"/><path d="M-233.9 429.5h-1.1v-6.8c1.4 0 2.5-1.1 2.5-2.5s-1.1-2.5-2.5-2.5h-5.1c-1.4 0-2.5 1.1-2.5 2.5s1.1 2.5 2.5 2.5v6.8h-1.1c-1.4 0-2.5 1.1-2.5 2.5s1.1 2.5 2.5 2.5h7.3c1.4 0 2.5-1.1 2.5-2.5s-1.1-2.5-2.5-2.5zm-3.6-14.7c2.2 0 4-1.8 4-4s-1.8-4-4-4-4 1.8-4 4 1.8 4 4 4z"/></svg>