<svg xmlns="http://www.w3.org/2000/svg" viewBox="0 0 60 60" class="icon"><path d="M23.6 13.6c0 .4-.2.8-.5 1.1-.7.7-1.8.7-2.5 0-.5-.5-.6-1.2-.4-1.8-1.1.1-2.1.6-3 1.5l-2.5 2.5c-.8.8-1.3 1.9-1.5 3 .6-.2 1.3 0 1.8.4.7.7.7 1.8 0 2.5-.3.3-.7.5-1.1.5.2.4.5.7.8 1 .1.1.4.1.5 0l9.4-9.4c.1-.1.1-.4 0-.5-.3-.4-.6-.6-1-.8z"/><path opacity=".25" d="M20.6 14.6c.7.7 1.8.7 2.5 0 .3-.3.5-.7.5-1.1-1-.6-2.3-.9-3.4-.7-.2.7 0 1.3.4 1.8zM15 20.2c-.5-.5-1.2-.6-1.8-.4-.2 1.2.1 2.4.7 3.4.4 0 .8-.2 1.1-.5.7-.7.7-1.8 0-2.5z"/><path d="M21.2 38.9c-.6-.6-1.2-1.3-1.8-1.9l-2.1 3.5-.3 5.7c-.1 1 .7 1.8 1.7 1.9 1 .1 1.8-.7 1.9-1.7l.3-4.9 1.1-2c-.2-.1-.5-.3-.8-.6zm5.6 3.4l-1 2.8L28 52c.3.9 1.3 1.5 2.2 1.2.9-.3 1.5-1.3 1.2-2.2l-1.8-5.8.6-1.8c-1.1-.3-2.3-.6-3.4-1.1zm25.5-14.6l-6.9-2.2-2.7.9c.4 1.1.8 2.2 1 3.4l1.7-.6 5.8 1.8c.9.3 1.9-.2 2.2-1.2.4-.8-.1-1.8-1.1-2.1zm-6.5-11.5l-5.1.9-3.4 2c.7.6 1.3 1.1 1.9 1.8.3.3.5.6.7.8l2-1.2 4.4-.8c1-.2 1.6-1.1 1.4-2.1 0-1-.9-1.6-1.9-1.4z"/><path d="M44.1 32.6l-.7.7c-2.4 2.4-6.4 2.4-8.8 0l-7.2-7.2c4.6-4.6 6.4-7.4 7-9-.4-.2-.9-.5-1.3-.7l1.1-2 4.8-2c.9-.4 1.3-1.4.9-2.3-.4-.9-1.4-1.3-2.3-.9l-6 2.5-1.9 3.5c-.1 0-.2-.1-.3-.1-1.7-.5-3.7.1-5 1.4L16.8 24c-1.3 1.3-1.9 3.3-1.4 5 0 .1.1.2.1.3L12 31.2l-2.5 6c-.4.9 0 2 .9 2.3.9.4 2 0 2.3-.9l2-4.8 2-1.1c.2.4.4.9.7 1.3 1.6-.6 4.4-2.3 9-7l7.2 7.2c2.4 2.4 2.4 6.4 0 8.8l-.6.7c1.4.1 2.8.1 4.3-.1 3.5-.4 6.4-3.3 6.8-6.8.1-1.4.1-2.8 0-4.2z"/><path opacity=".75" d="M33.7 34.2L26.5 27c-4.6 4.6-7.4 6.4-9 7 1 1.8 2.3 3.5 3.8 4.9.3.3.6.5.9.7 3 2.4 6.8 3.8 10.8 4.1l.7-.7c2.4-2.4 2.4-6.3 0-8.8zm5.6-13.4c-1.4-1.5-3.1-2.8-4.9-3.8-.6 1.6-2.3 4.4-7 9l7.2 7.2c2.4 2.4 6.4 2.4 8.8 0l.7-.7c-.3-4-1.7-7.8-4.1-10.9-.2-.2-.4-.5-.7-.8z"/></svg>