<svg xmlns="http://www.w3.org/2000/svg" viewBox="0 0 60 60" class="icon"><path d="M39.4 50.3h-.9c-3.5 0-6.3-2.8-6.3-6.3V32.6h-3.9v11.3c0 3.5-2.8 6.3-6.3 6.3h-1c-3.5 0-6.3-2.8-6.3-6.3V31.2c-7.1-2.9-12.3-10.8-12.3-19 0-1.4 1.1-2.5 2.5-2.5s2.5 1.1 2.5 2.5c0 6.7 4.6 13.2 10.5 14.8 1.1.3 1.8 1.3 1.8 2.4v14.5c0 .7.6 1.3 1.3 1.3h.9c.7 0 1.3-.6 1.3-1.3V30.1c0-1.4 1.1-2.5 2.5-2.5h8.9c1.4 0 2.5 1.1 2.5 2.5v13.8c0 .7.6 1.3 1.3 1.3h.9c.7 0 1.3-.6 1.3-1.3V29.4c0-1.1.7-2.1 1.8-2.4 5.8-1.8 10.2-8.1 10.2-14.8 0-1.4 1.1-2.5 2.5-2.5s2.5 1.1 2.5 2.5c0 8.1-5 15.9-11.9 18.9v12.8c0 3.5-2.8 6.4-6.3 6.4z"/></svg>