<svg xmlns="http://www.w3.org/2000/svg" xmlns:xlink="http://www.w3.org/1999/xlink" viewBox="0 0 102.06 94.59" class="logo"><defs><path id="a" d="M66.92 10.82L10.89 44.97a5.436 5.436 0 00-2.57 4.04v1.27c.09.76.34 1.5.76 2.19 1.56 2.56 4.94 3.38 7.5 1.82L72.6 20.14c2.56-1.56 3.38-4.94 1.82-7.5-1.02-1.68-2.83-2.61-4.68-2.61-.96 0-1.94.26-2.82.79"/></defs><use xlink:href="#a" overflow="visible" fill="#FFF"/><clipPath id="b"><use xlink:href="#a" overflow="visible"/></clipPath><path clip-path="url(#b)" fill="#FFF" d="M8.32 10.03h67.67v45.82H8.32z"/><defs><path id="c" d="M83.06 19.95L27.03 54.1c-2.56 1.56-3.38 4.94-1.82 7.5 1.56 2.56 4.94 3.38 7.5 1.82l56.03-34.15c2.56-1.56 3.38-4.94 1.82-7.5-1.02-1.68-2.83-2.61-4.68-2.61-.96 0-1.94.26-2.82.79"/></defs><clipPath id="d"><use xlink:href="#c" overflow="visible"/></clipPath><path clip-path="url(#d)" fill="#FFF" d="M23.65 19.16h68.48v45.82H23.65z"/><defs><path id="e" d="M84.58 38.18L28.55 72.32c-2.56 1.56-3.38 4.94-1.82 7.5 1.56 2.56 4.94 3.38 7.5 1.82L90.26 47.5a5.458 5.458 0 002.46-3.38v-2.59c-.13-.53-.34-1.05-.64-1.53-1.02-1.68-2.83-2.61-4.68-2.61-.96-.01-1.94.25-2.82.79"/></defs><clipPath id="f"><use xlink:href="#e" overflow="visible"/></clipPath><path clip-path="url(#f)" fill="#FFF" d="M25.17 37.38h67.55V83.2H25.17z"/></svg>