<svg xmlns="http://www.w3.org/2000/svg" viewBox="0 0 60 60" class="icon"><path d="M52.8 43.3c1.4 0 2.5-1.1 2.5-2.5V7.7c0-1.4-1.1-2.5-2.5-2.5H7.2c-1.4 0-2.5 1.1-2.5 2.5v33.1c0 1.4 1.1 2.5 2.5 2.5h20.4v6.9H7.2c-1.4 0-2.5 1.1-2.5 2.5s1.1 2.5 2.5 2.5h45.7c1.4 0 2.5-1.1 2.5-2.5s-1.1-2.5-2.5-2.5H32.6v-6.9h20.2zM35.2 18.7v3H24.9v-3h10.3zm-10.3-5v-3.5h10.2v3.5H24.9zm15.3 8v-3h10.2v3H40.2zm10.1 5V30H40.2v-3.3h10.1zm-30.4-5H9.7v-3H20v3zm0 5V30H9.7v-3.3h10.2zm5 0h10.2V30H24.9v-3.3zM35.2 35v3.3H24.9V35h10.3zm5 3.3V35h10.2v3.3H40.2zm10.1-24.6H40.2v-3.5h10.2v3.5zm-30.4-3.5v3.5H9.7v-3.5h10.2zM9.7 35H20v3.3H9.7V35z"/></svg>