<svg xmlns="http://www.w3.org/2000/svg" viewBox="0 0 60 60" class="icon"><path opacity=".5" d="M45.5 10.2H39v1.5h6.5v38.6h-31V11.7h6.8v-1.5H13v41.6h34V10.2z"/><path d="M29.1 36.7h1.8v1.8h-1.8zm0-7.6h1.8v6.2h-1.8z"/><path d="M29.1 21.4l-11 19.1 1.1 1.9h22l1.1-1.9-11-19.1h-2.2zm-7.7 18.5l8.8-15.3L39 39.9H21.4z"/><path d="M21.4 39.9H39l-8.8-15.3-8.8 15.3zm9.5-1.4h-1.8v-1.8h1.8v1.8zm0-3.1h-1.8v-6.2h1.8v6.2z"/><path d="M39 11.7v3.9H21.3v-3.9h-6.8v38.6h31V11.7H39zm2.2 30.7h-22l-1.1-1.9 11-19.1h2.2l11 19.1-1.1 1.9z"/><path opacity=".5" d="M22.8 11.7v2.4h14.7V8.2H22.8z"/></svg>