<svg xmlns="http://www.w3.org/2000/svg" viewBox="0 0 60 60" class="icon"><path d="M51.9 26.6l.8-5.2h1.8c1.4 0 2.5-1.1 2.5-2.5s-1.1-2.5-2.5-2.5h-3.9c-1.2 0-2.3.9-2.5 2.1L47 25.7H5.3c-1.4 0-2.5 1.1-2.5 2.5s1.1 2.5 2.5 2.5h1.3l3 8.5c.4 1 1.3 1.7 2.4 1.7.3 0 .6 0 .8-.1 1.3-.5 2-1.9 1.5-3.2L12 30.7h4.3l3 8.5c.4 1 1.3 1.7 2.4 1.7.3 0 .6 0 .8-.1 1.3-.5 2-1.9 1.5-3.2l-2.4-6.8h4.5l3 8.5c.4 1 1.3 1.7 2.4 1.7.3 0 .6 0 .8-.1 1.3-.5 2-1.9 1.5-3.2l-2.4-6.8H40c-.6 1.2-.9 2.5-.9 3.9 0 4.9 4 8.9 8.9 8.9s8.9-4 8.9-8.9c.1-3.7-2-6.7-5-8.2zm-3.9 12c-2.2 0-3.9-1.8-3.9-3.9s1.8-3.9 3.9-3.9 3.9 1.8 3.9 3.9-1.7 3.9-3.9 3.9z"/></svg>