<svg version="1.1" xmlns="http://www.w3.org/2000/svg" viewBox="0 0 60 60" xml:space="preserve" class="icon"><path class="st0" d="M54.4 15.6c-.8-.4-1.8-.4-2.6.1L44.1 21l-7.7-5.2-.6-.3h-.1c-.2-.1-.4-.1-.6-.1-.2 0-.4 0-.6.1h-.1c-.1 2.1-.8 4.6-1.8 7.2v.2c0 1.4 1.1 2.5 2.5 2.5s2.5-1.1 2.5-2.5v-.3l5.2 3.5c.8.6 2 .6 2.8 0l5.2-3.5v25L44.1 52l-6.6-4.5v-2.7c0-1.4-1.1-2.5-2.5-2.5s-2.5 1.1-2.5 2.5v2.7L26 52l-7.1-4.8v-2.6c0-1.4-1.1-2.5-2.5-2.5s-2.5 1.1-2.5 2.5v3.2l-3.6 2.5V39c-1.5-2.2-3.3-5-5-8v24c0 .9.5 1.8 1.3 2.2.4.2.8.3 1.2.3.5 0 1-.1 1.4-.4l7.7-5.2 7.7 5.2c.8.6 2 .6 2.8 0l7.6-5.2h.2l7.6 5.2c.8.6 2 .6 2.8 0l9.1-6.2c.7-.5 1.1-1.2 1.1-2.1v-31c-.1-.9-.6-1.8-1.4-2.2z"/><path class="st0" d="M35.1 39.3c1.4 0 2.5-1.1 2.5-2.5v-5c0-1.4-1.1-2.5-2.5-2.5s-2.5 1.1-2.5 2.5v5c0 1.4 1.1 2.5 2.5 2.5zm-18.3-1.5c.8 0 1.6-.4 2.1-1.1C20.7 34.1 29.4 21 29.4 15c0-6.9-5.6-12.6-12.6-12.6-6.9.1-12.5 5.7-12.5 12.7 0 6 8.7 19.1 10.5 21.7.4.6 1.2 1 2 1zm0-30.3c4.2 0 7.6 3.4 7.6 7.6 0 2.8-3.9 10-7.6 15.7-3.6-5.7-7.6-13-7.6-15.7.1-4.2 3.4-7.6 7.6-7.6z"/><path class="st0" d="M18.2 18.1c1.1-.5 1.9-1.6 1.9-2.9 0-1.8-1.5-3.3-3.3-3.3s-3.3 1.5-3.3 3.3c0 1.3.8 2.4 1.9 2.9.4.2.9.3 1.4.3.5 0 1-.1 1.4-.3z"/></svg>