<svg data-name="Ebene 1" xmlns="http://www.w3.org/2000/svg" viewBox="0 0 60 60" class="icon"><path d="M33.12 15.2h1.44V9.9h-1.44v5.3zm7.74 3.87h5.31v-5.3h-5.31v5.3zm-9.68 30.97h14.99V48.6H42.3v-1.93h-1.94v-1.94h-1.43v1.94h-2.87v1.93h-3.44v-2.43h1.94v-5.81h1.93v-1.43h-3.87v-2.44h1.94v-3.93h4v-1.38h-5.94v-1.93h-1.44v1.93h-1.93v3.38h1.93v4.37h-4.36v-2.44h1.93v-1.43h-1.93v-3.88h-1.94v-2.43h2.87v-1.43h-2.87v-1.94h-4.34v1.44h2.91v2.43h-.94v1.43h.94v2.44h-1.94v1.44h3.87v5.8h1.94v1.94h5.8v2.43h-6.3V42.8h-1.44v3.37h1.94v2.43h-1.94v1.44h3.37V48.1h2.43v1.94z"/><path d="M48.1 44.23v-2.9h2v-2.4h-2v-1.94h-5.8v-1.93h-1.44v1.93h-1.93v3.37h1.43v-1.93h2.44v3.87h3.87v1.93h1.43zM37 23h13V9.9H37V23zm1.44-11.62H48.6v10.13H38.43V11.33zm11.6 35.29H48.6v3.43h1.44v-3.43zm-30.97-5.81h-5.3v5.31h5.3v-5.31zm27.6-6.3h1.43v-1.44h-1.43v1.44z"/><path d="M23 37H9.9v13H23V37zm-1.49 11.6H11.33V38.43h10.18V48.6zm-7.74-29.53h5.3v-5.3h-5.3v5.3z"/><path d="M9.9 23H23V9.9H9.9V23zm1.43-11.62h10.18v10.13H11.33V11.33zm19.35.45h-1.43v1.44h1.43v-1.44zM15.7 33.12v1.44h3.41v-2.44h-1.44v1H15.7zm9.68-19.85h1.44v-1.94h1.93V9.9h-3.37v3.37zm24.66 12.11h-3.37v1.94h-2.44v-1.94H42.8v1.94h-1.94v1.43h1.94v3.87h1.43v-3.87h2.44v1.93h3.37v-1.43H48.1v-2.43h1.94v-1.44zM9.9 34.56h3.43v-1.44H9.9v1.44zm27.09-7.74h1.44v-1.44h-1.44v1.44zm-27.09 0h1.43v-1.44H9.9v1.44zm3.87 1.5h-1.94v2.36h7.24v-3.36h-1.43v1.93H15.2v-2.43h1.94v-1.44h-3.37v2.94zm23.22 15.91h1.44V42.8h-1.44v1.43zm-9.67-24.66v1.44h1.93v1.94h1.43v-1.94h2.44v3.44h-1.94v2.37h3.38v-7.25h-1.94v-1.93h-1.94V15.7h-5.3v1.44h3.87v2.43h-1.93zm-1.94 5.31h1.44v-3.37h-1.44v3.37zm20.79 19.85H42.8v1.44h3.37v-1.44z"/></svg>