<svg version="1.1" xmlns="http://www.w3.org/2000/svg" viewBox="0 0 60 60" xml:space="preserve" class="icon"><path class="st0" d="M30 22.9c-5 0-9.1 4.1-9.1 9.1s4.1 9.1 9.1 9.1 9.1-4.1 9.1-9.1-4.1-9.1-9.1-9.1zm0 13.2c-2.3 0-4.1-1.9-4.1-4.1s1.9-4.1 4.1-4.1 4.1 1.9 4.1 4.1-1.8 4.1-4.1 4.1z"/><path class="st0" d="M57 22.8c-1.5-4.5-5.9-8.8-12.5-7.9l-2.7.4-.5-2.7C40.1 6.1 34.8 3.2 30 3.2c-4.8 0-10.1 2.9-11.3 9.4l-.5 2.7-2.7-.4C8.9 14 4.5 18.2 3 22.8c-1.5 4.5-.4 10.6 5.5 13.7l2.4 1.3-1.2 2.4c-2.9 6-.2 11.5 3.6 14.3 3.9 2.8 9.9 3.6 14.7-1l2-1.9 2 1.9c2.4 2.3 5.2 3.3 7.8 3.3 2.6 0 5-.9 6.9-2.3 3.9-2.8 6.5-8.3 3.6-14.3l-1.2-2.5 2.4-1.3c5.9-3.1 7-9.1 5.5-13.6zm-7.8 9.3l-4.5 2.4c-1.2.6-1.6 2.1-1.1 3.3l2.2 4.6c1.7 3.6 0 6.6-2.1 8.1-2 1.5-5.4 2.2-8.4-.6l-3.7-3.5c-1-.9-2.5-.9-3.4 0L24.6 50c-2.9 2.8-6.3 2-8.4.6-2-1.5-3.8-4.5-2.1-8.1l2.2-4.6c.6-1.2.1-2.6-1.1-3.3l-4.5-2.4c-3.5-1.9-3.9-5.4-3.1-7.8.7-2.2 2.7-4.5 6.1-4.5.3 0 .7 0 1 .1l5 .7c1.3.2 2.5-.7 2.8-2l.9-5c.7-4 3.9-5.4 6.4-5.4 2.5 0 5.7 1.4 6.4 5.4l.9 5c.2 1.3 1.5 2.2 2.8 2l5-.7c4-.5 6.3 2.1 7.1 4.5 1 2.2.7 5.7-2.8 7.6z"/></svg>