<svg xmlns="http://www.w3.org/2000/svg" viewBox="0 0 60 60" class="icon"><g><path d="M51.7 24.7c.1.2.1.3.2.5-.1-.2-.1-.4-.2-.5zm.2.7c0 .2.1.5.1.7 0-.2 0-.4-.1-.7zm-.1 9.6zm.2-.6v.1c-.1 0-.1-.1 0-.1z"/><path opacity=".25" d="M25.6 27.2h18.6v5.9H25.6z"/><path d="M48.8 30.2c0-2.8 1.2-5.1 2.8-5.7-1.2-2.8-4.8-4.8-8-4.8l-12.6.9-13.8-.9c-3.8 0-9.2 2.9-9.2 6.6v7.5c0 3.6 5.3 6.6 9.1 6.6l13.1-.9 13.5.9c3 0 6.5-1.9 7.8-4.5-1.5-.8-2.7-3-2.7-5.7zM16 23.5h1v7.8h-1v-7.8zm.5 12.4c-3 0-5.4-2.4-5.4-5.4 0-2.5 1.7-4.6 3.9-5.2v1c-1.7.6-2.9 2.2-2.9 4.2 0 2.5 2 4.4 4.5 4.4s4.4-2 4.4-4.4c0-2-1.3-3.6-3-4.2v-1c2.3.6 4 2.7 4 5.2 0 3-2.5 5.4-5.5 5.4zm27.7-2.8H25.6v-5.9h18.6v5.9z"/><path opacity=".75" d="M52 33.8v-7.5c0-.6-.1-1.2-.4-1.7-1.6.6-2.8 2.9-2.8 5.7 0 2.7 1.2 5 2.7 5.6.3-.8.5-1.4.5-2.1z"/></g></svg>