<svg data-name="Ebene 1" xmlns="http://www.w3.org/2000/svg" viewBox="0 0 60 60" class="icon"><path d="M30.71 8.52A21.48 21.48 0 1052.18 30 21.48 21.48 0 0030.71 8.52zm1.71 34c-5.29 0-8.64-2.59-10.26-7.93v-.09h-2.44v-3.14h1.85v-.14c0-.36-.05-.71-.05-1.08s0-.9.05-1.36v-.14h-1.85v-3.13h2.47v-.09c1.69-5.34 5.07-7.93 10.35-7.93a14.34 14.34 0 016 1.22l-1.34 2.82a11.11 11.11 0 00-4.63-.9c-4.11 0-5.77 1.88-7 4.7l-.08.18h8v3.13h-8.75v.12c-.05.51-.07.95-.07 1.38v1.22h8.78v3.13h-8.04l.08.18c1.19 2.82 2.83 4.7 6.93 4.7a12.77 12.77 0 004.86-.9l1.37 2.82a15.58 15.58 0 01-6.23 1.22z"/></svg>