<svg xmlns="http://www.w3.org/2000/svg" viewBox="0 0 60 60" class="icon"><path d="M36.2 15.4h11.9c1.4 0 2.5-1.1 2.5-2.5s-1.1-2.5-2.5-2.5H36.2c-1.4 0-2.5 1.1-2.5 2.5s1.1 2.5 2.5 2.5zm16.4 2.9H36.2c-1.4 0-2.5 1.1-2.5 2.5s1.1 2.5 2.5 2.5h16.3c1.4 0 2.5-1.1 2.5-2.5s-1.1-2.5-2.4-2.5zm-6.4 7.9h-10c-1.4 0-2.5 1.1-2.5 2.5s1.1 2.5 2.5 2.5h10c1.4 0 2.5-1.1 2.5-2.5s-1.1-2.5-2.5-2.5zm-18.4 6.3V12.3c0-4-3.2-7.2-7.2-7.2s-7.2 3.2-7.2 7.2v20.2C10 34.8 8 38.6 8 42.7c0 6.9 5.6 12.5 12.5 12.5S33 49.6 33 42.7c.1-4.1-1.9-7.9-5.2-10.2zm-7.3 17.7c-4.1 0-7.5-3.4-7.5-7.5 0-2.8 1.5-5.3 4-6.6l1.3-.7V12.3c0-1.2 1-2.2 2.2-2.2s2.2 1 2.2 2.2v23.1l1.3.7c2.5 1.3 4 3.9 4 6.6.1 4.2-3.3 7.5-7.5 7.5z"/></svg>