<svg xmlns="http://www.w3.org/2000/svg" viewBox="0 0 60 60" class="icon"><path d="M54.2 48.3c-.3 0-.6-.1-.9-.2l-21.7-8.6-5.9 4.9c-.3.3-.7.5-1.1.5L8.1 48.2c-1.1.2-2.3-.4-2.7-1.4-.5-1-.2-2.3.7-3l18.1-14.5-1.4-7.6c-.1-.4 0-.9.1-1.3l5.7-15.8c.4-1.1 1.5-1.8 2.6-1.6 1.1.1 2.1 1 2.2 2.1L36.8 28l7.3 2.7c.4.1.8.4 1 .7L56 44.2c.7.9.8 2.1.1 3.1-.3.6-1.1 1-1.9 1zM28.1 32.5L17 41.4l6-1.1 6.5-5.5c.7-.6 1.7-.8 2.5-.4l.5.2 13.3 5.2-4-4.7-8.1-3c-.8-.3-1.4-1-1.6-1.9l-.1-.4v-.1l-2.1-14.1-2.1 5.9 1.6 8.4c.2 1-.2 2-1.1 2.5l-.2.1zm-18.8.1h-.4c-1.4-.2-2.3-1.5-2.1-2.8v-.2c.2-.8.3-1.6.5-2.4l.6-2.1c.2-.7.5-1.3.7-1.9l.2-.4s0-.1.1-.1l.2-.4c.2-.5.5-1.1.9-1.6.4-.7.8-1.3 1.2-1.9.8-1.1 2.3-1.5 3.5-.7 1.1.8 1.5 2.3.7 3.5-.4.5-.7 1.1-.9 1.5 0 .1-.1.2-.2.3-.2.3-.4.7-.6 1.1l-.4.9c-.2.5-.4.8-.5 1.2l-.6 2.1c-.1.5-.2 1.1-.3 1.6v.2c-.3 1.2-1.4 2.1-2.6 2.1zm21.2 24.5c-1 0-1.8-.1-2.6-.2-1.4-.2-2.3-1.5-2.1-2.8.2-1.4 1.5-2.3 2.8-2.1.7.1 1.2.2 1.8.2.6 0 1.3 0 1.8-.1.8-.1 1.4-.2 2.1-.3h.1c.5-.1 1.2-.3 1.8-.4.7-.2 1.2-.4 1.7-.6 1.3-.5 2.7 0 3.3 1.3.5 1.3 0 2.7-1.3 3.3-.7.3-1.4.6-2.3.8-.7.2-1.6.4-2.4.6h-.1c-.7.1-1.3.2-2.1.3h-2.5zM51.2 27c-.9 0-1.8-.5-2.2-1.4-.2-.3-.3-.7-.5-1-.1-.3-.2-.5-.4-.8-.2-.3-.4-.6-.5-.9-.2-.3-.3-.5-.5-.8-.4-.6-.7-1.1-1.1-1.5l-.2-.2c-.4-.5-.7-.8-1-1.2-.2-.2-.4-.4-.7-.6-.3-.3-.6-.5-.8-.8-1-1-1-2.6 0-3.5 1-1 2.6-1 3.5 0 .2.2.4.4.7.6.3.3.6.5.8.8.5.5.9 1 1.3 1.5l.2.2c.5.6.9 1.3 1.3 1.9.3.4.5.7.7 1.1.2.3.3.5.5.8.1.1.1.2.2.3.2.3.3.7.5 1 .1.3.3.6.4.9.6 1.2.1 2.7-1.1 3.4-.3.1-.7.2-1.1.2z"/></svg>