<svg version="1.1" xmlns="http://www.w3.org/2000/svg" viewBox="0 0 60 60" xml:space="preserve" class="icon"><path class="st0" d="M27.7 41.6h4.7c1.4 0 2.5-1.1 2.5-2.5s-1.1-2.5-2.5-2.5h-4.7c-1.4 0-2.5 1.1-2.5 2.5s1.1 2.5 2.5 2.5z"/><path class="st0" d="M58.2 13.7c0-1.4-1.1-2.5-2.5-2.5H4.3c-1.4 0-2.5 1.1-2.5 2.5 0 1.3 1 2.3 2.2 2.5v30.1c0 1.4 1.1 2.5 2.5 2.5h47.1c1.4 0 2.5-1.1 2.5-2.5V16.2c1.1-.2 2.1-1.2 2.1-2.5zm-17 30.1H18.8V27.3h22.5v16.5zm5 0v-19c0-1.4-1.1-2.5-2.5-2.5H16.3c-1.4 0-2.5 1.1-2.5 2.5v19H9V16.2h42v27.5h-4.8z"/></svg>