<svg xmlns="http://www.w3.org/2000/svg" viewBox="0 0 60 60" class="icon"><path d="M30 6.6c-5 0-9.6 1.6-13.4 4.2-.9.6-1.7 1.3-2.5 2-.9.8-1.7 1.7-2.5 2.7v-5c0-1.4-1.1-2.5-2.5-2.5s-2.5 1.1-2.5 2.5v11c0 .8.4 1.5.9 1.9.4.4 1 .6 1.6.6h11.1c1.4 0 2.5-1.1 2.5-2.5S21.6 19 20.2 19h-4.9c.7-.9 1.4-1.7 2.2-2.5 1-.9 2.1-1.8 3.3-2.5 2.7-1.6 5.9-2.5 9.3-2.5 10.1 0 18.4 8.2 18.4 18.4 0 10.1-8.3 18.4-18.4 18.4-10.1 0-18.4-8.3-18.4-18.4V29H9.1c-.9 0-1.7-.2-2.5-.4v1.3c0 12.9 10.5 23.4 23.4 23.4 12.9 0 23.4-10.5 23.4-23.4C53.4 17.1 42.9 6.6 30 6.6z"/><path d="M30 16.1c-1.4 0-2.5 1.1-2.5 2.5V30c0 .7.3 1.3.8 1.8l6.3 6c.5.5 1.1.7 1.7.7.7 0 1.3-.3 1.8-.8 1-1 .9-2.6-.1-3.5l-5.6-5.3V18.6c.1-1.4-1-2.5-2.4-2.5z"/></svg>