<svg xmlns="http://www.w3.org/2000/svg" viewBox="-267 390.9 60 60" class="icon"><path d="M-216.7 433.1V431c0-4-3.3-7.3-7.3-7.3h-10.4v-1.1c6-.4 9.5-2.5 9.5-5.8 0-4.9-3.7-9-8.7-10.3 2.3-1.2 3.8-3.7 3.8-6.5 0-4-3.3-7.3-7.3-7.3s-7.3 3.3-7.3 7.3c0 2.8 1.6 5.3 3.9 6.5-4.9 1.3-8.5 5.4-8.5 10.2 0 1.3.6 3.6 4.7 4.9 1.4.4 3 .7 4.8.9v1.1h-10.4c-4 0-7.3 3.3-7.3 7.3v2.1c-2.8 1-4.8 3.7-4.8 6.9 0 4 3.3 7.3 7.3 7.3s7.3-3.3 7.3-7.3c0-3.2-2-5.9-4.8-6.9v-2c0-1.3 1-2.3 2.3-2.3h10.4v4.5c-2.8 1-4.8 3.7-4.8 6.9 0 4 3.3 7.3 7.3 7.3s7.3-3.3 7.3-7.3c0-3.2-2-5.9-4.8-6.9v-4.5h10.4c1.3 0 2.3 1 2.3 2.3v2.1c-2.8 1-4.8 3.7-4.8 6.9 0 4 3.3 7.3 7.3 7.3s7.3-3.3 7.3-7.3c.2-3.1-1.8-5.8-4.7-6.9zm-20.3-35.4c1.3 0 2.3 1 2.3 2.3s-1 2.3-2.3 2.3c-1.3 0-2.3-1-2.3-2.3s1-2.3 2.3-2.3zm.1 13.3c3.7 0 6.8 2.4 7 5.4-.7.5-3.2 1.3-7 1.3s-6.3-.8-7-1.3c.2-3 3.3-5.4 7-5.4zm-17.7 31.4c-1.3 0-2.3-1-2.3-2.3 0-1.3 1-2.3 2.3-2.3s2.3 1 2.3 2.3c0 1.2-1 2.3-2.3 2.3zm17.7 0c-1.3 0-2.3-1-2.3-2.3 0-1.3 1-2.3 2.3-2.3 1.3 0 2.3 1 2.3 2.3.1 1.2-1 2.3-2.3 2.3zm17.7 0c-1.3 0-2.3-1-2.3-2.3 0-1.3 1-2.3 2.3-2.3 1.3 0 2.3 1 2.3 2.3.1 1.2-1 2.3-2.3 2.3z"/></svg>