<svg xmlns="http://www.w3.org/2000/svg" viewBox="-267 390.9 60 60" class="icon"><path d="M-237 406.5c-5.2 0-9.5 4.3-9.5 9.5s4.3 9.5 9.5 9.5 9.5-4.3 9.5-9.5-4.3-9.5-9.5-9.5zm0 14c-2.5 0-4.5-2-4.5-4.5s2-4.5 4.5-4.5 4.5 2 4.5 4.5-2 4.5-4.5 4.5z"/><path d="M-236.6 395c-14.3 0-25.9 11.6-25.9 25.9s11.6 25.9 25.9 25.9c14-.2 25.3-11.8 25.1-25.9.2-14-11.1-25.6-25.1-25.9zm0 46.7c-3.7 0-7.2-1-10.2-2.7 1.6-4.9 6.5-8 11.7-7 3.9.7 7 3.5 8.1 7.2-2.9 1.5-6.2 2.5-9.6 2.5zm13.7-5.6c-2-4.6-6.3-8.1-11.4-9-7.1-1.3-13.9 2.6-16.7 8.9-4-3.8-6.5-9.1-6.5-15 0-11.5 9.4-20.9 20.8-20.9 11.3.2 20.3 9.5 20.2 20.8v.1c.1 5.9-2.4 11.2-6.4 15.1z"/></svg>