<svg xmlns="http://www.w3.org/2000/svg" viewBox="0 0 60 60" class="icon"><path d="M55.7 15.4c-1.4 0-2.5 1.1-2.5 2.5V19H49v-1c0-.7-.1-1.4-.3-2.1-.9-2.9-3.5-4.9-6.6-4.9-1.7 0-3.2.6-4.4 1.6-1.2-1-2.8-1.6-4.4-1.6-1.7 0-3.2.6-4.4 1.6-1.2-1-2.8-1.6-4.4-1.6-1.7 0-3.2.6-4.4 1.6-1.2-1-2.8-1.6-4.4-1.6-3.8 0-6.9 3.1-6.9 6.9v1H4.3c-1.4 0-2.5 1.1-2.5 2.5S2.9 24 4.3 24h4.1v20.1c0 3.8 3.1 6.9 6.9 6.9 1.7 0 3.2-.6 4.4-1.6 1.2 1 2.8 1.6 4.4 1.6 1.7 0 3.2-.6 4.4-1.6 1.2 1 2.8 1.6 4.4 1.6 1.7 0 3.2-.6 4.4-1.6 1.2 1 2.8 1.6 4.4 1.6 3.1 0 5.8-2.1 6.6-4.9.2-.7.3-1.3.3-2.1V24h6.7c1.4 0 2.5-1.1 2.5-2.5v-3.6c.4-1.4-.7-2.5-2.1-2.5zM42.1 46c-.5 0-1-.2-1.4-.6-.4-.4-.6-.8-.6-1.4V17.9c0-.5.2-1 .6-1.4.4-.4.8-.6 1.4-.6.5 0 1 .2 1.4.6.4.4.6.8.6 1.4V44c0 .5-.2 1-.6 1.4-.4.4-.9.6-1.4.6zm-26.7 0c-1.1 0-1.9-.9-1.9-1.9V17.9c0-1.1.9-1.9 1.9-1.9 1.1 0 1.9.9 1.9 1.9V44c0 1.1-.8 2-1.9 2zm8.9 0c-1.1 0-1.9-.9-1.9-1.9V17.9c0-1.1.9-1.9 1.9-1.9s1.9.9 1.9 1.9V44c0 1.1-.9 2-1.9 2zm8.9 0c-1.1 0-1.9-.9-1.9-1.9V17.9c0-1.1.9-1.9 1.9-1.9 1.1 0 1.9.9 1.9 1.9V44c0 1.1-.9 2-1.9 2z"/></svg>