<svg xmlns="http://www.w3.org/2000/svg" viewBox="-267 390.9 60 60" class="icon"><path d="M-256.6 432.3h-2.5v-2.5c0-1.4-1.1-2.5-2.5-2.5s-2.5 1.1-2.5 2.5v5c0 1.4 1.1 2.5 2.5 2.5h5c1.4 0 2.5-1.1 2.5-2.5s-1.1-2.5-2.5-2.5zm-5-10.3c1.4 0 2.5-1.1 2.5-2.5v-7.3c0-1.4-1.1-2.5-2.5-2.5s-2.5 1.1-2.5 2.5v7.3c0 1.4 1.1 2.5 2.5 2.5zm5-27.5h-5c-1.4 0-2.5 1.1-2.5 2.5v5c0 1.4 1.1 2.5 2.5 2.5s2.5-1.1 2.5-2.5v-2.5h2.5c1.4 0 2.5-1.1 2.5-2.5s-1.1-2.5-2.5-2.5zm10.6 5h7.6c1.4 0 2.5-1.1 2.5-2.5s-1.1-2.5-2.5-2.5h-7.6c-1.4 0-2.5 1.1-2.5 2.5s1.1 2.5 2.5 2.5zm18.3 0h2.5v2.5c0 1.4 1.1 2.5 2.5 2.5s2.5-1.1 2.5-2.5v-5c0-1.4-1.1-2.5-2.5-2.5h-5c-1.4 0-2.5 1.1-2.5 2.5s1.1 2.5 2.5 2.5zm-2.4 23.3c-5.1 0-9.2 4.1-9.2 9.2s4.1 9.2 9.2 9.2 9.2-4.1 9.2-9.2-4.1-9.2-9.2-9.2zm0 13.4c-2.3 0-4.2-1.9-4.2-4.2s1.9-4.2 4.2-4.2 4.2 1.9 4.2 4.2-1.9 4.2-4.2 4.2z"/><path d="M-219.8 416.4h-.4v-4.1c0-1.4-1.1-2.5-2.5-2.5-1.2 0-2.1.8-2.4 1.9-.8-.3-1.6-.4-2.4-.4h-5.4c-3.3 0-6.2 2.2-7.3 5.2-5.5 0-9.9 4.5-9.9 9.9v11.2c0 5.5 4.5 9.9 9.9 9.9h20.5c5.5 0 9.9-4.5 9.9-9.9v-11.2c-.1-5.5-4.6-10-10-10zm4.9 21.2c0 2.7-2.2 4.9-4.9 4.9h-20.5c-2.7 0-4.9-2.2-4.9-4.9v-11.2c0-2.7 2.2-4.9 4.9-4.9h4.4l.1-2.4c0-1.5 1.3-2.7 2.8-2.7h5.4c1.5 0 2.8 1.2 2.8 2.7l.1 2.4h4.8c2.7 0 4.9 2.2 4.9 4.9v11.2z"/></svg>