<svg data-name="Ebene 1" xmlns="http://www.w3.org/2000/svg" viewBox="0 0 60 60" class="icon"><path d="M45.48 42V15.84H9.31V42a2.56 2.56 0 002.56 2.56H48A2.56 2.56 0 0145.48 42zM12.09 18.6h30.22v4.27H12.09zm20.42 18.22V35.4h9.8v1.42zm9.8 1.1v1.42h-9.8v-1.42zm-9.8-3.62v-1.42h9.8v1.42zm0-2.52v-1.42h9.8v1.42zm0-2.52v-1.42h9.8v1.42zm0-4h9.8v1.41h-9.8zM13.16 44a2.56 2.56 0 01-1.07-1.95v-7.96L12 25.31h18.55l.05 15.3V42a2.71 2.71 0 00.75 1.81l.13.11.15.13zm19.35-3.6h9.8v1.42h-9.8zm1 3.6l-.16-.13-.13-.11a2.72 2.72 0 01-.53-.84h9.81a2.52 2.52 0 00.94 1.08z"/><path d="M45.37 20.54v21.32a2.89 2.89 0 00.79 1.88l.13.11a2.39 2.39 0 00.26.21l.21.12.24.13.25.08.25.08h.53a2.67 2.67 0 002.66-2.66V20.54zM13.16 44a2.56 2.56 0 01-1.07-1.95v-7.96L12 25.31h18.55l.05 15.3V42a2.71 2.71 0 00.75 1.81l.13.11.15.13z" opacity=".5"/></svg>