<svg xmlns="http://www.w3.org/2000/svg" viewBox="0 0 60 60" class="icon"><path d="M53.3 26.6l.8-5.5H56c1.4 0 2.5-1.1 2.5-2.5S57.4 16 56 16h-4c-1.2 0-2.3.9-2.5 2.1l-1.1 7.5H4c-1.4 0-2.5 1.1-2.5 2.5s1.1 2.5 2.5 2.5h1.4l3.2 8.8c.4 1 1.3 1.7 2.4 1.7.3 0 .6 0 .8-.1 1.3-.5 2-1.9 1.5-3.2l-2.5-7.1h4.6l3.2 8.8c.4 1 1.3 1.7 2.4 1.7.3 0 .6 0 .8-.1 1.3-.5 2-1.9 1.5-3.2l-2.5-7.1h4.8l3.2 8.8c.4 1 1.3 1.7 2.4 1.7.3 0 .6 0 .8-.1 1.3-.5 2-1.9 1.5-3.2L31 30.9h10.5c-.6 1.2-1 2.7-1 4.1 0 5 4.1 9.1 9.1 9.1s9.1-4.1 9.1-9.1c-.2-3.8-2.3-7-5.4-8.4zM49.4 39c-2.3 0-4.1-1.9-4.1-4.1s1.9-4.1 4.1-4.1 4.1 1.9 4.1 4.1-1.8 4.1-4.1 4.1z"/></svg>