<svg version="1.1" xmlns="http://www.w3.org/2000/svg" viewBox="0 0 60 60" xml:space="preserve" class="icon"><path class="st0" d="M43.2 3.7c-7.4 0-13.3 6-13.3 13.3v7.7c-.2 0-.4-.1-.5-.1h-15c-.7 0-1.3.3-1.8.7l-9.4 9.4c-1 1-1 2.6 0 3.5.5.5 1.1.7 1.8.7.4 0 .9-.1 1.3-.4v15c0 1.4 1.1 2.5 2.5 2.5s2.5-1.1 2.5-2.5V33.8l4.2-4.2h13l3.8 3.8v20.3c0 1.4 1.1 2.5 2.5 2.5s2.5-1.1 2.5-2.5v-2.8h14.4v2.8c0 1.4 1.1 2.5 2.5 2.5s2.5-1.1 2.5-2.5V17c-.2-7.4-6.1-13.3-13.5-13.3zm-6.1 42.2v-7.5c1 .6 2.3.5 3.1-.3 1-1 1-2.6 0-3.5l-5.4-5.4V17c0-4.1 3-7.5 6.9-8.2.6.8 2 3.1 2 6.3v25.3c0 1.4 1.1 2.5 2.5 2.5s2.5-1.1 2.5-2.5V15.1c0-1.9-.3-3.6-.8-5 2.2 1.5 3.6 4 3.6 6.9v28.9H37.1z"/><path class="st0" d="M25.7 39.1h-8c-1.4 0-2.5 1.1-2.5 2.5v12.3c0 1.4 1.1 2.5 2.5 2.5s2.5-1.1 2.5-2.5v-9.8h3v9.8c0 1.4 1.1 2.5 2.5 2.5s2.5-1.1 2.5-2.5V41.6c0-1.4-1.1-2.5-2.5-2.5z"/></svg>