<svg xmlns="http://www.w3.org/2000/svg" viewBox="0 0 60 60" class="icon"><path d="M45 21.9c-.7 0-1.5-.3-2-.9-.9-1.1-.7-2.7.4-3.5l5.7-4.6c1.1-.9 2.7-.7 3.5.4.9 1.1.7 2.7-.4 3.5l-5.7 4.6c-.4.3-1 .5-1.5.5zm-15-7.2c-1.4 0-2.5-1.1-2.5-2.5V4.8c0-1.4 1.1-2.5 2.5-2.5s2.5 1.1 2.5 2.5v7.4c0 1.4-1.1 2.5-2.5 2.5zm-15 7.2c-.5 0-1.1-.2-1.6-.5l-5.7-4.6c-1.1-.9-1.3-2.4-.4-3.5s2.4-1.3 3.5-.4l5.7 4.6c1.1.9 1.3 2.4.4 3.5-.4.6-1.1.9-1.9.9zM4.2 39.7c-1.1 0-2.2-.8-2.4-1.9-.3-1.3.5-2.7 1.9-3l7.1-1.6c1.3-.3 2.7.5 3 1.9.3 1.3-.5 2.7-1.9 3l-7.1 1.6h-.6zm14.3 18c-.4 0-.7-.1-1.1-.2-1.2-.6-1.8-2.1-1.2-3.3l3.2-6.6c.6-1.2 2.1-1.8 3.3-1.2 1.2.6 1.8 2.1 1.2 3.3l-3.2 6.6c-.4.8-1.3 1.4-2.2 1.4zm23 0c-.9 0-1.8-.5-2.3-1.4L36 49.7c-.6-1.2-.1-2.7 1.2-3.3 1.2-.6 2.7-.1 3.3 1.2l3.2 6.6c.6 1.2.1 2.7-1.2 3.3-.3.1-.7.2-1 .2zm14.3-18c-.2 0-.4 0-.6-.1L48.1 38c-1.3-.3-2.2-1.6-1.9-3 .3-1.3 1.6-2.2 3-1.9l7.1 1.6c1.3.3 2.2 1.6 1.9 3-.2 1.2-1.3 2-2.4 2zM30 44.5c-7.3 0-13.2-5.9-13.2-13.2 0-7.3 5.9-13.2 13.2-13.2 7.3 0 13.2 5.9 13.2 13.2 0 7.3-5.9 13.2-13.2 13.2zm0-21.3c-4.5 0-8.2 3.7-8.2 8.2 0 4.5 3.7 8.2 8.2 8.2 4.5 0 8.2-3.7 8.2-8.2 0-4.6-3.7-8.2-8.2-8.2z"/></svg>