<svg data-name="Ebene 1" xmlns="http://www.w3.org/2000/svg" viewBox="0 0 60 60" class="icon"><path opacity=".5" d="M24.29 8.17L14.07 19.91h10.22V8.17z"/><path d="M24.29 8.17v11.74H14.07v31.92h31.86V8.17zm7.44 34.61c-4.47 0-7.3-2.19-8.67-6.7L23 36h-2v-2.65h1.56v-1.03c0-.31 0-.76.05-1.15v-.11H21v-2.65h2.09v-.08c1.43-4.51 4.29-6.7 8.75-6.7a12.07 12.07 0 015.07 1L35.77 25a9.43 9.43 0 00-3.91-.76c-3.47 0-4.88 1.59-5.93 4l-.06.15h6.77v2.65h-7.4v.09c0 .44-.06.81-.06 1.17v1.03h7.42V36h-6.79l.06.15c1.12 2.62 2.4 4 5.86 4a10.64 10.64 0 004.11-.77L37 41.75a13.2 13.2 0 01-5.27 1.03z"/></svg>