<svg xmlns="http://www.w3.org/2000/svg" viewBox="0 0 60 60" class="icon"><path d="M42.1 45.1c0-1.4-1.1-2.5-2.5-2.5H15.3V9.3h21.8v1.3c0 1.4 1.1 2.5 2.5 2.5s2.5-1.1 2.5-2.5V6.8c0-1.4-1.1-2.5-2.5-2.5H12.8c-1.4 0-2.5 1.1-2.5 2.5v38.3c0 1.4 1.1 2.5 2.5 2.5h26.8c1.4 0 2.5-1.1 2.5-2.5zm7.1 3.8c-1.4 0-2.5 1.1-2.5 2.5v.6H22.4c-1.4 0-2.5 1.1-2.5 2.5S21 57 22.4 57h26.8c1.4 0 2.5-1.1 2.5-2.5v-3.1c0-1.4-1.1-2.5-2.5-2.5zm0-35.3c-1.4 0-2.5 1.1-2.5 2.5v14.8c0 1.4 1.1 2.5 2.5 2.5s2.5-1.1 2.5-2.5V16.1c0-1.4-1.1-2.5-2.5-2.5z"/><path d="M30.7 13.6c-6.3 0-11.4 5.1-11.4 11.3s5.1 11.3 11.4 11.3c2.1 0 4-.6 5.7-1.5l11 10.3c.5.5 1.1.7 1.7.7.7 0 1.3-.3 1.8-.8.9-1 .9-2.6-.1-3.5l-10.7-10c1.3-1.8 2-4 2-6.4 0-6.3-5.1-11.4-11.4-11.4zM24.4 25c0-3.5 2.9-6.3 6.4-6.3s6.4 2.8 6.4 6.3-2.9 6.3-6.4 6.3-6.4-2.8-6.4-6.3z"/></svg>