<svg xmlns="http://www.w3.org/2000/svg" viewBox="0 0 60 60" class="icon"><path d="M34.6 4.9c-.7 0-1.3.3-1.7.9-1.2 1.8-5.2 8.1-5.2 11.1 0 3.1 2 5.7 4.9 6.6v1.7c1.4.7 2.7 1.4 4 2.2v-3.9c2.8-.9 4.9-3.5 4.9-6.6 0-3-4-9.3-5.2-11.1-.4-.5-1-.9-1.7-.9zm0 14.9c-1.6 0-2.9-1.3-2.9-2.9 0-.9 1.3-3.6 2.9-6.2 1.6 2.7 2.9 5.3 2.9 6.2 0 1.7-1.3 2.9-2.9 2.9zM51.5 8.6c-.4-.6-1-.9-1.7-.9s-1.2.3-1.6.9C47 10.4 43 16.7 43 19.7c0 3.1 2 5.7 4.9 6.6v3.5c1.3.1 2.7.3 4 .6v-4.1c2.8-.9 4.9-3.5 4.9-6.6-.1-3-4-9.3-5.3-11.1zm-1.6 13.9c-1.6 0-2.9-1.3-2.9-2.9 0-.9 1.3-3.6 2.9-6.2 1.6 2.7 2.9 5.3 2.9 6.2-.1 1.7-1.4 2.9-2.9 2.9zM28.6 33.2c1.9-1 4-1.7 6.1-2.3-5.1-3.3-11.1-5.2-17.3-5.2-4.4 0-8.8.9-13.1 2.9-1.3.5-1.8 2-1.3 3.3.4.9 1.3 1.5 2.3 1.5.3 0 .7-.1 1-.2 3.6-1.6 7.3-2.4 11-2.4 4-.1 7.8.8 11.3 2.4zM19 40.1c1.5-1.5 3.1-2.9 4.8-4.1-2.1-.6-4.3-1-6.5-1-3.1 0-6.3.7-9.2 2-1.3.6-1.8 2.1-1.2 3.3.4.9 1.3 1.5 2.3 1.5.3 0 .7-.1 1-.2 2.3-1 4.7-1.6 7.1-1.6.6 0 1.2.1 1.7.1zM12.9 5.4c-4.1 0-7.5 3.4-7.5 7.5s3.4 7.5 7.5 7.5 7.5-3.4 7.5-7.5-3.3-7.5-7.5-7.5zm0 11c-1.9 0-3.5-1.6-3.5-3.5s1.6-3.5 3.5-3.5 3.5 1.6 3.5 3.5-1.6 3.5-3.5 3.5zm42.4 19.1c-3.6-1.3-7.3-2-11-2-9.6 0-18.7 4.4-24.7 12-.2.2-.4.5-.6.7-.1.1-.1.2-.2.3-.7 1.1-.4 2.6.6 3.4.2.2.5.3.8.4 1 .3 2.1-.1 2.7-.9.3-.4.6-.8 1-1.2.6-.7 1.1-1.3 1.7-1.9 4.9-4.9 11.7-7.6 18.6-7.6 3.1 0 6.2.5 9.2 1.7.3.1.6.2.9.2 1 0 2-.6 2.3-1.6.6-1.6 0-3-1.3-3.5z"/><path d="M23.9 48.1c.6-.7 1.2-1.3 1.8-1.9-.7.6-1.2 1.2-1.8 1.9zm-4.3-2.6c-.2.2-.4.5-.6.7.2-.2.4-.5.6-.7zM52 44.2c-2.5-.9-5.1-1.4-7.8-1.4-3.1 0-6.3.7-9.2 2-3.3 1.5-6 3.7-8.2 6.4-.2.3-.5.6-.7.9-.3.5-.6.9-.9 1.4-.4 1.1-.1 2.3.9 3 .3.2.5.3.8.4 1 .2 2.1-.1 2.7-1 .2-.3.4-.5.6-.8l.6-.9.1-.1c.3-.4.6-.7 1-1.1.1-.1.2-.3.4-.4 1.4-1.3 3-2.5 4.8-3.3 2.3-1 4.7-1.6 7.1-1.6 2 0 4.1.4 6 1.1.3.1.6.2.9.2 1 0 2-.6 2.3-1.6.6-1.2-.1-2.7-1.4-3.2z"/><path d="M26.9 51.3c-.2.3-.5.6-.7.9.2-.3.4-.6.7-.9zm4 3c0-.1 0-.1 0 0 0-.1 0-.1 0 0zm1-1.2l.4-.4c-.1.1-.2.3-.4.4z"/></svg>