<svg version="1.1" xmlns="http://www.w3.org/2000/svg" viewBox="0 0 60 60" xml:space="preserve" class="icon"><path class="st0" d="M29.2 24.2l-7.8-3 .4-4.4h2.7c1.4 0 2.5-1.1 2.5-2.5s-1.1-2.5-2.5-2.5h-5c-1.3 0-2.4 1-2.5 2.3l-.7 8.6c-.1 1.1.6 2.1 1.6 2.5l9.6 3.6c.2.2.5.2.8.2 1 0 2-.6 2.3-1.6.5-1.3-.1-2.7-1.4-3.2z"/><path class="st0" d="M55 39.9l2.1-15c.1-.7-.1-1.4-.5-1.9s-1.1-.9-1.8-.9l-6.3-.3v-7.1c0-1.4-1.1-2.5-2.5-2.5s-2.5 1.1-2.5 2.5v6.9l-5.8-.3-3-11.7c1.3-.1 2.4-1.1 2.4-2.5S36 4.6 34.6 4.6H9.9c-1.4 0-2.5 1.1-2.5 2.5 0 1.3 1 2.4 2.3 2.5l-3.9 23c-2.4 2.4-3.9 5.8-3.9 9.5 0 7.4 6.1 13.5 13.5 13.5 6.2 0 11.5-4.2 13-10h12c0 .3-.1.7-.1 1.1 0 4.9 4 8.9 8.9 8.9s8.9-4 8.9-8.9c.1-2.7-1.2-5.2-3.1-6.8zM15.3 50.6c-4.7 0-8.5-3.8-8.5-8.5s3.8-8.5 8.5-8.5 8.5 3.8 8.5 8.5c.1 4.7-3.8 8.5-8.5 8.5zm13.5-10c-.7-6.8-6.5-12-13.4-12-1.4 0-2.7.2-3.9.6l3.3-19.8h14.9l3.7 14.8c.3 1.1 1.2 1.8 2.3 1.9l16.2.8-1.6 10.9c-.3 0-.7-.1-1-.1-2.6 0-4.9 1.1-6.5 2.9h-14zm20.4 10c-2.2 0-3.9-1.8-3.9-3.9s1.8-3.9 3.9-3.9 3.9 1.8 3.9 3.9-1.7 3.9-3.9 3.9z"/><path class="st0" d="M45.7 33c0-1.4-1.1-2.5-2.5-2.5h-6.4c-1.4 0-2.5 1.1-2.5 2.5s1.1 2.5 2.5 2.5h6.4c1.4 0 2.5-1.2 2.5-2.5z"/></svg>