<svg xmlns="http://www.w3.org/2000/svg" viewBox="0 0 60 60" class="icon"><path d="M49.9 26.7c-2.5 0-4 2.2-5 2.2s-2-3.1-2-5.7V12.4h-5.5c-2.1.3-4 1.1-4 1.9 0 1 2.2 2.5 2.2 5s-1.8 4.9-4.4 4.9H30c-2.7 0-4.4-2.3-4.4-4.9 0-2.5 2.2-4 2.2-5 0-.8-1.9-1.6-4-1.9H9.3v9.1c.3 2.1 1.1 4 1.9 4 1 0 2.5-2.2 5-2.2S21 25 21 27.6v1.2c0 2.7-2.3 4.4-4.9 4.4s-4-2.2-5-2.2c-.8 0-1.6 1.9-1.9 4v12.6h9.7c2.5-.1 5.2-1.1 5.2-2 0-1-2.2-2.5-2.2-5s1.8-4.9 4.4-4.9h1.2c2.7 0 4.4 2.3 4.4 4.9 0 2.5-2.2 4-2.2 5 0 .9 2.7 1.9 5.2 2h7.9v-7.3c0-2.7 1.1-5.7 2-5.7 1 0 2.5 2.2 5 2.2s4.9-1.8 4.9-4.4v-1.2c0-2.7-2.3-4.5-4.8-4.5z"/></svg>