<svg data-name="Ebene 1" xmlns="http://www.w3.org/2000/svg" viewBox="0 0 60 60" class="icon"><path d="M47.22 24.86a7.4 7.4 0 00-1 14.73v-2a5.4 5.4 0 112 0v2a7.4 7.4 0 00-1-14.73zM13.21 9.8h5v5h-5zm11.48 0h5v5h-5z" opacity=".75"/><path d="M50.22 32.26a3 3 0 10-4 2.82v12.86H25.89a3.44 3.44 0 01-3.43-3.43v-5.28A12.94 12.94 0 0035.43 26.3V16.1a4.81 4.81 0 00-4.8-4.8h-.88v2h.88a2.81 2.81 0 012.8 2.8v10.2A11 11 0 0122.5 37.23h-2.07A10.94 10.94 0 019.5 26.3V16.1a2.8 2.8 0 012.8-2.8h.88v-2h-.88a4.8 4.8 0 00-4.8 4.8v10.2a12.94 12.94 0 0012.93 12.93v5.28a5.44 5.44 0 005.43 5.43h22.36V35.08a3 3 0 002-2.82z"/></svg>