<svg version="1.1" xmlns="http://www.w3.org/2000/svg" viewBox="0 0 60 60" xml:space="preserve" class="icon"><path class="st0" d="M30 37.5c6.7 0 12.1-5.3 12.1-11.7 0-5.6-8.4-17.9-10.1-20.3l-2-2.9-2 2.9c-1.7 2.4-10.1 14.7-10.1 20.3 0 6.4 5.4 11.7 12.1 11.7zm0-26.2c3.4 5.3 7.1 12 7.1 14.4 0 3.7-3.2 6.7-7.1 6.7-3.9 0-7.1-3-7.1-6.7 0-2.4 3.7-9.1 7.1-14.4z"/><path class="st0" d="M6.6 41.7h3.2c3.1 0 6.2.9 8.8 2.6C22 46.5 26 47.7 30 47.7s8-1.1 11.5-3.4c2.6-1.7 5.6-2.6 8.8-2.6h3.2c1.4 0 2.5-1.1 2.5-2.5s-1.1-2.5-2.5-2.5h-3.2c-4.1 0-8.1 1.2-11.5 3.4-5.3 3.5-12.2 3.5-17.5 0a21.2 21.2 0 00-11.5-3.4H6.6c-1.4 0-2.5 1.1-2.5 2.5s1.1 2.5 2.5 2.5z"/><path class="st0" d="M53.4 46.6h-3.2c-4.1 0-8.1 1.2-11.5 3.4-5.3 3.5-12.2 3.5-17.5 0a21.2 21.2 0 00-11.5-3.4H6.6c-1.4 0-2.5 1.1-2.5 2.5s1.1 2.5 2.5 2.5h3.2c3.1 0 6.2.9 8.8 2.6C22 56.4 26 57.5 30 57.5s8-1.1 11.5-3.4c2.6-1.7 5.6-2.6 8.8-2.6h3.2c1.4 0 2.5-1.1 2.5-2.5s-1.2-2.4-2.6-2.4z"/></svg>