<svg version="1.1" xmlns="http://www.w3.org/2000/svg" viewBox="0 0 60 60" xml:space="preserve" class="icon"><path class="st0" d="M48.5 13.1h-7.8V6.9c0-1.4-1.1-2.5-2.5-2.5H21.8c-1.4 0-2.5 1.1-2.5 2.5v6.3h-7.8c-1.4 0-2.5 1.1-2.5 2.5v8.6c0 1.4 1.1 2.5 2.5 2.5h.9l1.9 26.4c.1 1.3 1.2 2.3 2.5 2.3h26.5c1.3 0 2.4-1 2.5-2.3l1.9-26.4h.9c1.4 0 2.5-1.1 2.5-2.5v-8.6c-.1-1.5-1.2-2.6-2.6-2.6zM24.3 9.4h11.4V13H24.3V9.4zM14 18.1h32v3.6H14v-3.6zm26.9 32.3H19.1l-1.7-23.7h25.1l-1.6 23.7z"/><path class="st0" d="M25.4 46.6c1.4 0 2.5-1.1 2.5-2.5V32.7c0-1.4-1.1-2.5-2.5-2.5s-2.5 1.1-2.5 2.5v11.4c0 1.4 1.1 2.5 2.5 2.5zm9.5 0c1.4 0 2.5-1.1 2.5-2.5V32.7c0-1.4-1.1-2.5-2.5-2.5s-2.5 1.1-2.5 2.5v11.4c0 1.4 1.1 2.5 2.5 2.5z"/></svg>