<svg xmlns="http://www.w3.org/2000/svg" viewBox="0 0 60 60" class="icon"><path d="M19.4 51.1h-.6V45c-1.2-.5-2.2-1.5-2.7-2.7l-2.3-4.8V51h-.6c-1.4 0-2.5 1.1-2.5 2.5s1.1 2.5 2.5 2.5h6.2c1.4 0 2.5-1.1 2.5-2.5s-1.2-2.4-2.5-2.4zm5.2-29.6c.8-1.1.5-2.7-.6-3.5-1.1-.8-2.7-.5-3.5.6l-4.8 6.9-1.6.7-8.4-.7c-1.4-.1-2.6.9-2.7 2.3-.1 1.4.9 2.6 2.3 2.7l8.4.7 1.4 1 3.6 7.6c.5 1 1.6 1.6 2.6 1.4.2 0 .5-.1.7-.2 1.2-.6 1.8-2.1 1.2-3.3l-3.6-7.6.1-1.7 4.9-6.9zm21.1 29.6h-1.6V28.8l-1.3-.5-1.1.2-2.6 2.2V51h-1.6c-1.4 0-2.5 1.1-2.5 2.5s1.1 2.5 2.5 2.5h8.2c1.4 0 2.5-1.1 2.5-2.5s-1.1-2.4-2.5-2.4z"/><path d="M55.4 23.1l-10.6-3.9-1.8-2.1L41.1 6c-.2-1.4-1.5-2.3-2.9-2-1.3.2-2.3 1.5-2 2.9l2 11.1-.9 2.5-8.7 7.3c-1.1.9-1.2 2.5-.3 3.5.7.9 2 1.1 3 .7.2-.1.4-.2.6-.4l8.7-7.3 2.7-.5 10.6 3.9c.6.2 1.3.2 1.9-.1s1.1-.8 1.3-1.4c.3-1.2-.4-2.6-1.7-3.1z"/><path d="M38.6 3.9c1.2 0 2.2.9 2.5 2.1l2 11.1 1.7 2.1 10.6 3.9c1.3.5 2 1.9 1.5 3.2-.2.6-.7 1.1-1.3 1.4-.3.2-.7.2-1.1.2-.3 0-.6 0-.9-.2L43 23.8l-2.7.5-8.7 7.3c-.2.1-.4.3-.6.4-.3.2-.7.2-1.1.2-.7 0-1.4-.3-1.9-.9-.9-1.1-.8-2.6.3-3.5l8.7-7.3.9-2.5-2-11.1c-.2-1.4.7-2.7 2-2.9.4 0 .6-.1.7-.1"/></svg>