<svg data-name="Ebene 1" xmlns="http://www.w3.org/2000/svg" viewBox="0 0 60 60" class="icon"><path d="M30 21.73a7.58 7.58 0 107.57 7.58v-.66a4.56 4.56 0 01-2.08.5 4.46 4.46 0 01-1-.12 2.66 2.66 0 010 .28A4.46 4.46 0 1130 24.85a4.77 4.77 0 01.76.07 4.36 4.36 0 01-.05-.52 4.71 4.71 0 01.73-2.53 7.56 7.56 0 00-1.44-.14z" opacity=".5"/><path d="M30 16.55c-12.52 0-22.68 12.76-22.68 12.76S17.48 42.06 30 42.06s22.68-12.75 22.68-12.75S42.52 16.55 30 16.55zM30 40a10.71 10.71 0 114.74-20.31 4.75 4.75 0 105.3 5.9 10.56 10.56 0 01.67 3.7A10.71 10.71 0 0130 40z"/></svg>