<svg version="1.1" xmlns="http://www.w3.org/2000/svg" viewBox="0 0 60 60" xml:space="preserve" class="icon"><path class="st0" d="M53.8 23.5l-7.9-1.9-10.1-9.3c-.5-.4-1.1-.7-1.7-.7h-21c-2.3 0-4.5 1.3-5.6 3.3L1.9 25.4c-.2.4-.3.8-.3 1.2V39c0 1.4 1.1 2.5 2.5 2.5h3.7c1 3.9 4.6 6.8 8.8 6.8s7.8-2.9 8.8-6.8h5.7c1 3.9 4.6 6.8 8.8 6.8s7.8-2.9 8.8-6.8h3.6c3.3 0 6-2.7 6-6v-6.1c.1-2.8-1.8-5.3-4.5-5.9zM7.5 40.4v.1c.1-.1 0-.1 0-.1zm.1-2.4v-.3.3zm9 5.4c-2.3 0-4.1-1.9-4.1-4.1s1.9-4.1 4.1-4.1 4.1 1.9 4.1 4.1-1.8 4.1-4.1 4.1zm9.1-2.9v-.1.1zm-.1-2.8zm5.3 2.7zm0-2.4v-.3c.1.1 0 .2 0 .3zm9.1 5.4c-2.3 0-4.1-1.9-4.1-4.1s1.9-4.1 4.1-4.1c2.3 0 4.1 1.9 4.1 4.1s-1.8 4.1-4.1 4.1zm9-2.9v-.1.1zm0-2.8zm4.4-2.2c0 .6-.5 1-1 1h-3.7c-1.2-3.7-4.6-6.4-8.7-6.4s-7.6 2.7-8.7 6.4h-5.9c-1.2-3.7-4.6-6.4-8.7-6.4S9 32.8 7.9 36.5H6.6v-9.3l5.3-9.9c.2-.4.7-.7 1.2-.7H33l9.9 9.1c.3.3.7.5 1.1.6l8.6 2c.5.1.8.5.8 1v6.2z"/><path class="st0" d="M32.7 19.5c-1-1-2.6-.9-3.5.1-.7.7-.9 1.8-.5 2.7h-4.1c-1.4 0-2.5 1.1-2.5 2.5s1.1 2.5 2.5 2.5h9.9c1 0 1.9-.6 2.3-1.6.4-.9.2-2-.6-2.7l-3.5-3.5z"/></svg>