<svg xmlns="http://www.w3.org/2000/svg" viewBox="0 0 60 60" class="icon"><path d="M29.999 1.5C14.285 1.5 1.5 14.285 1.5 29.999 1.5 45.715 14.285 58.5 29.999 58.5 45.715 58.5 58.5 45.715 58.5 29.999 58.5 14.285 45.715 1.5 29.999 1.5zM7.962 29.999c0-12.15 9.887-22.037 22.037-22.037 5.004 0 9.606 1.695 13.309 4.513L12.475 43.307c-2.819-3.703-4.513-8.304-4.513-13.308zm22.037 22.039a21.913 21.913 0 01-12.267-3.742l30.564-30.563a21.914 21.914 0 013.74 12.266c.001 12.151-9.885 22.039-22.037 22.039z"/></svg>