<svg data-name="Ebene 1" xmlns="http://www.w3.org/2000/svg" viewBox="0 0 60 60" class="icon"><path opacity=".5" d="M42.49 13.15V9.89h-4v3.26H21.51V9.89h-4v3.26h-6.58v8.64h38.14v-8.64h-6.58z"/><path d="M10.93 21.79v26h38.14v-26zm13.81 18.83a7.23 7.23 0 01-3.66-.88l.59-2.16a6.87 6.87 0 002.86.76c1.5 0 2.27-.73 2.27-1.66 0-1.21-1.22-1.76-2.49-1.76h-1.18v-2.07h1.12c1 0 2.2-.38 2.2-1.43 0-.74-.6-1.29-1.82-1.29a5.65 5.65 0 00-2.58.74l-.59-2.09a7.77 7.77 0 013.81-.93c2.65 0 4.11 1.39 4.11 3.08a3 3 0 01-2.26 2.87 3.08 3.08 0 012.68 3c0 2.2-1.92 3.82-5.06 3.82zm13.44-.21h-2.8v-9.79L33 31.74l-.48-2.16 3.27-1.52h2.4z"/></svg>