<svg xmlns="http://www.w3.org/2000/svg" viewBox="0 0 60 60" class="icon"><path d="M41.3 40.6l-3.9-3.9c.1-.1.1-.2.1-.2 1.5-2.3 2.4-5.2 2.4-8.2 0-3.5-1.3-6.7-3.3-9.3-.9 1.1-1.9 2.5-2.7 3.6 1.1 1.6 1.7 3.6 1.7 5.7 0 3.2-1.5 6.1-3.7 8-.2.1-.4.3-.5.4l-.2.2c-.2.1-.3.2-.5.3-.1.1-.2.1-.3.2-.2.1-.3.2-.5.3-.1.1-.2.1-.4.2s-.3.1-.5.2c-.1.1-.3.1-.4.2-.2.1-.3.1-.5.1-.2.1-.3.1-.5.1-.1 0-.3.1-.4.1-.2 0-.4.1-.6.1h-.4c-.3 0-.7.1-1 .1-.5 0-.9 0-1.3-.1-.1 0-.2 0-.4-.1-.4-.1-.7-.1-1-.2-.1 0-.2 0-.3-.1-.4-.1-.8-.3-1.2-.4-.1 0-.2-.1-.3-.1-.3-.1-.6-.3-.9-.5-.1-.1-.2-.1-.3-.2-.4-.2-.7-.5-1-.7l-.1-.1c-.3-.2-.6-.5-.8-.8l-.3-.3c-.2-.2-.4-.5-.6-.8l-.2-.2c-.2-.3-.4-.7-.6-1-.6-1.1-1-2.3-1.2-3.5v-.3c0-.3-.1-.6-.1-.9v-.3c0-5.8 4.7-10.5 10.5-10.5 1.1 0 2.2.2 3.2.5.9-1.3 1.8-2.5 2.7-3.6-1.8-.8-3.8-1.3-5.9-1.3-7.8 0-14.2 6-14.8 13.6 0 .4-.1.8-.1 1.3 0 8.2 6.7 14.9 14.9 14.9 2.9 0 5.6-.8 7.9-2.3l.4-.2 11.9 11.9 4-4-8-7.9z"/><path opacity=".75" d="M21 30.1h-4.3c.2.8.5 1.6.9 2.3.2.3.3.5.5.8h3c3.2 0 6.3-4.5 10-9.8 2.3-3.4 5.8-8.4 7.4-8.4h4.9l-2.6 2.7 2.2 2.2 6.5-6.5L43 6.9 40.6 9l2.9 3h-5.2c-3.2 0-6.3 4.5-10 9.8-2.2 3.2-5.7 8.3-7.3 8.3z"/></svg>