<svg xmlns="http://www.w3.org/2000/svg" viewBox="-267 390.9 60 60" class="icon"><path d="M-226.9 394.9c-9.5 0-17.2 7.7-17.2 17.2 0 3.9 1.3 7.4 3.4 10.3l-4 4-.2-.2c-.8-.8-1.8-1.2-2.9-1.2-1.1 0-2.1.4-2.9 1.2l-11 11c-.8.8-1.2 1.8-1.2 2.9 0 1.1.4 2.1 1.2 2.9l4 4c.8.8 1.8 1.2 2.9 1.2 1.1 0 2.1-.4 2.9-1.2l11-11c.8-.8 1.2-1.8 1.2-2.9 0-1.1-.4-2.1-1.2-2.9l-.2-.2 4-4c2.9 2.1 6.4 3.4 10.3 3.4 9.5 0 17.2-7.7 17.2-17.2s-7.8-17.3-17.3-17.3zm-28 48l-2.7-2.7 9.7-9.7 2.7 2.7-9.7 9.7zm28-18.5c-6.8 0-12.2-5.5-12.2-12.2s5.5-12.2 12.2-12.2 12.2 5.5 12.2 12.2-5.5 12.2-12.2 12.2z"/><path d="M-224.8 404.8c-1 1-1 2.6 0 3.5.9.9 1.3 2 1.3 3.2s-.5 2.4-1.3 3.2c-1 1-1 2.6 0 3.5.5.5 1.1.7 1.8.7s1.3-.2 1.8-.7c1.8-1.8 2.8-4.2 2.8-6.8s-1-5-2.8-6.8c-1.1-.7-2.7-.8-3.6.2z"/></svg>