<svg id="e8HtpL7Q02o1" xmlns="http://www.w3.org/2000/svg" xmlns:xlink="http://www.w3.org/1999/xlink" viewBox="0 0 1024 1024" shape-rendering="geometricPrecision" text-rendering="geometricPrecision"><style><![CDATA[#e8HtpL7Q02o10 {animation: e8HtpL7Q02o10_c_o 3000ms linear infinite normal forwards}@keyframes e8HtpL7Q02o10_c_o { 0% {opacity: 0.8} 13.333333% {opacity: 0} 30% {opacity: 1} 46.666667% {opacity: 1} 50% {opacity: 0.8} 63.333333% {opacity: 0} 80% {opacity: 1} 100% {opacity: 1}} #e8HtpL7Q02o11 {animation: e8HtpL7Q02o11_c_o 3000ms linear infinite normal forwards}@keyframes e8HtpL7Q02o11_c_o { 0% {opacity: 0.4} 6.666667% {opacity: 0} 23.333333% {opacity: 1} 40% {opacity: 1} 50% {opacity: 0.4} 56.666667% {opacity: 0} 73.333333% {opacity: 1} 100% {opacity: 1}} #e8HtpL7Q02o12 {animation: e8HtpL7Q02o12_c_o 3000ms linear infinite normal forwards}@keyframes e8HtpL7Q02o12_c_o { 0% {opacity: 0} 16.666667% {opacity: 1} 33.333333% {opacity: 1} 50% {opacity: 0} 66.666667% {opacity: 1} 100% {opacity: 1}} #e8HtpL7Q02o13 {animation: e8HtpL7Q02o13_c_o 3000ms linear infinite normal forwards}@keyframes e8HtpL7Q02o13_c_o { 0% {opacity: 0.4} 10% {opacity: 1} 26.666667% {opacity: 1} 30% {opacity: 0.8} 43.333333% {opacity: 0} 50% {opacity: 0.4} 60% {opacity: 1} 76.666667% {opacity: 1} 80% {opacity: 0.8} 100% {opacity: 0.8}} #e8HtpL7Q02o14 {animation: e8HtpL7Q02o14_c_o 3000ms linear infinite normal forwards}@keyframes e8HtpL7Q02o14_c_o { 0% {opacity: 0.8} 3.333333% {opacity: 1} 20% {opacity: 1} 30% {opacity: 0.4} 36.666667% {opacity: 0} 50% {opacity: 0.8} 53.333333% {opacity: 1} 70% {opacity: 1} 80% {opacity: 0.4} 100% {opacity: 0.4}} #e8HtpL7Q02o15 {animation: e8HtpL7Q02o15_c_o 3000ms linear infinite normal forwards}@keyframes e8HtpL7Q02o15_c_o { 0% {opacity: 1} 13.333333% {opacity: 1} 30% {opacity: 0} 46.666667% {opacity: 1} 63.333333% {opacity: 1} 80% {opacity: 0} 100% {opacity: 0}} #e8HtpL7Q02o16 {animation: e8HtpL7Q02o16_c_o 3000ms linear infinite normal forwards}@keyframes e8HtpL7Q02o16_c_o { 0% {opacity: 1} 6.666667% {opacity: 1} 23.333333% {opacity: 0} 30% {opacity: 0.4} 40% {opacity: 1} 56.666667% {opacity: 1} 73.333333% {opacity: 0} 80% {opacity: 0.4} 100% {opacity: 0.4}} #e8HtpL7Q02o17 {animation: e8HtpL7Q02o17_c_o 3000ms linear infinite normal forwards}@keyframes e8HtpL7Q02o17_c_o { 0% {opacity: 1} 16.666667% {opacity: 0} 30% {opacity: 0.8} 33.333333% {opacity: 1} 50% {opacity: 1} 66.666667% {opacity: 0} 80% {opacity: 0.8} 100% {opacity: 0.8}}]]></style><rect id="e8HtpL7Q02o2" width="252.199997" height="252.199997" rx="0" ry="0" transform="matrix(1 0 0 1 65.650012 62.5)" fill="rgb(208,15,28)" stroke="none" stroke-width="1"/><rect id="e8HtpL7Q02o3" width="252.199997" height="252.199997" rx="0" ry="0" transform="matrix(1 0 0 1 385.950009 62.5)" fill="rgb(208,15,28)" stroke="none" stroke-width="1"/><rect id="e8HtpL7Q02o4" width="252.199997" height="252.199997" rx="0" ry="0" transform="matrix(1 0 0 1 706.149991 62.5)" fill="rgb(208,15,28)" stroke="none" stroke-width="1"/><rect id="e8HtpL7Q02o5" width="252.199997" height="252.199997" rx="0" ry="0" transform="matrix(1 0 0 1 706.149991 385.899994)" fill="rgb(208,15,28)" stroke="none" stroke-width="1"/><rect id="e8HtpL7Q02o6" width="252.199997" height="252.199997" rx="0" ry="0" transform="matrix(1 0 0 1 706.149991 709.299988)" fill="rgb(208,15,28)" stroke="none" stroke-width="1"/><rect id="e8HtpL7Q02o7" width="252.199997" height="252.199997" rx="0" ry="0" transform="matrix(1 0 0 1 385.950009 709.299988)" fill="rgb(208,15,28)" stroke="none" stroke-width="1"/><rect id="e8HtpL7Q02o8" width="252.199997" height="252.199997" rx="0" ry="0" transform="matrix(1 0 0 1 65.650012 709.299988)" fill="rgb(208,15,28)" stroke="none" stroke-width="1"/><rect id="e8HtpL7Q02o9" width="252.199997" height="252.199997" rx="0" ry="0" transform="matrix(1 0 0 1 65.650012 385.899994)" fill="rgb(208,15,28)" stroke="none" stroke-width="1"/><rect id="e8HtpL7Q02o10" width="252.199997" height="252.199997" rx="0" ry="0" transform="matrix(1 0 0 1 65.650012 385.899994)" opacity="0.8" fill="rgb(66,66,66)" stroke="none" stroke-width="1"/><rect id="e8HtpL7Q02o11" width="252.199997" height="252.199997" rx="0" ry="0" transform="matrix(1 0 0 1 65.650012 709.299988)" opacity="0.4" fill="rgb(66,66,66)" stroke="none" stroke-width="1"/><rect id="e8HtpL7Q02o12" width="252.199997" height="252.199997" rx="0" ry="0" transform="matrix(1 0 0 1 385.950009 709.299988)" opacity="0" fill="rgb(66,66,66)" stroke="none" stroke-width="1"/><rect id="e8HtpL7Q02o13" width="252.199997" height="252.199997" rx="0" ry="0" transform="matrix(1 0 0 1 706.149991 709.299988)" opacity="0.4" fill="rgb(66,66,66)" stroke="none" stroke-width="1"/><rect id="e8HtpL7Q02o14" width="252.199997" height="252.199997" rx="0" ry="0" transform="matrix(1 0 0 1 706.149991 385.899994)" opacity="0.8" fill="rgb(66,66,66)" stroke="none" stroke-width="1"/><rect id="e8HtpL7Q02o15" width="252.199997" height="252.199997" rx="0" ry="0" transform="matrix(1 0 0 1 706.149991 62.5)" fill="rgb(66,66,66)" stroke="none" stroke-width="1"/><rect id="e8HtpL7Q02o16" width="252.199997" height="252.199997" rx="0" ry="0" transform="matrix(1 0 0 1 385.950009 62.5)" fill="rgb(66,66,66)" stroke="none" stroke-width="1"/><rect id="e8HtpL7Q02o17" width="252.199997" height="252.199997" rx="0" ry="0" transform="matrix(1 0 0 1 65.650012 62.5)" fill="rgb(66,66,66)" stroke="none" stroke-width="1"/></svg>
