<?xml version="1.0" encoding="utf-8"?>
<!-- Generator: Adobe Illustrator 25.4.1, SVG Export Plug-In . SVG Version: 6.00 Build 0)  -->
<svg version="1.1"
	 id="svg4220" inkscape:export-filename="C:\Users\Roland\Google Drive\Mausbrand Allgemein\ViUR\Logo_Gross.png" inkscape:export-xdpi="90" inkscape:export-ydpi="90" inkscape:version="0.91 r13725" sodipodi:docname="Logo_Gross.svg" xmlns:cc="http://creativecommons.org/ns#" xmlns:dc="http://purl.org/dc/elements/1.1/" xmlns:inkscape="http://www.inkscape.org/namespaces/inkscape" xmlns:rdf="http://www.w3.org/1999/02/22-rdf-syntax-ns#" xmlns:sodipodi="http://sodipodi.sourceforge.net/DTD/sodipodi-0.dtd" xmlns:svg="http://www.w3.org/2000/svg"
	 xmlns="http://www.w3.org/2000/svg" xmlns:xlink="http://www.w3.org/1999/xlink" x="0px" y="0px" viewBox="0 0 1786 879.6"
	 style="enable-background:new 0 0 1786 879.6;" xml:space="preserve">
<style type="text/css">
	.st0{fill:url(#SVGID_1_);}
	.st1{fill:#D00F1C;}
	.st2{fill:url(#path3634_00000002359870493498299030000001354445897416344229_);}
	.st3{fill:url(#path3696_00000018219022634358335810000004613910006964330680_);}
</style>
<g>
	
		<linearGradient id="SVGID_1_" gradientUnits="userSpaceOnUse" x1="1514.3822" y1="381.0014" x2="1514.3822" y2="793.1014" gradientTransform="matrix(1 0 0 -1 0 1103.3005)">
		<stop  offset="0" style="stop-color:#E70512"/>
		<stop  offset="1" style="stop-color:#C51725"/>
	</linearGradient>
	<polygon class="st0" points="1722.6,486 1674.7,367.3 1559.7,310.2 1498.3,311.1 1498.3,311.1 1417,311.1 1416.4,311.6 
		1306.1,311.9 1306.1,416.8 1306.5,416.8 1306.1,417.2 1306.1,722.3 1417,722.3 1417,417.9 1461.6,417.6 1516.2,418 1563.2,440.4 
		1589.7,453.7 1603.8,486.8 1591.1,519.8 1517.4,554.6 1476.3,662.6 1559.7,662.6 1674.7,605.5 1722.6,486.8 1722.4,486.2 	"/>
	<polygon class="st1" points="1724.3,801 1586.8,800.9 1485.5,676 1475.6,664.3 1516.6,554.5 	"/>
	<rect x="1306.1" y="311.8" class="st1" width="110.9" height="489.1"/>
</g>
<sodipodi:namedview  bordercolor="#666666" borderopacity="1.0" id="base" inkscape:current-layer="layer1" inkscape:cx="-249.28571" inkscape:cy="520" inkscape:document-units="px" inkscape:pageopacity="0.0" inkscape:pageshadow="2" inkscape:window-height="1017" inkscape:window-maximized="1" inkscape:window-width="1920" inkscape:window-x="1912" inkscape:window-y="-8" inkscape:zoom="0.35" pagecolor="#ffffff" showgrid="false" units="px">
	</sodipodi:namedview>
<polygon class="st1" points="546.3,122.8 546.3,233.7 657.2,124.5 657.2,25.1 "/>
<rect x="546.3" y="310.6" class="st1" width="110.9" height="489.1"/>
<g id="g3616_6_" transform="matrix(9.7765667,0,0,-9.7765667,-5642.9301,4389.3906)">
	<g id="g3618_6_">
		<g id="g3624_6_">
			<g id="g3626_6_">
				
					<linearGradient id="path3634_00000040532898853679166860000014196509690742938028_" gradientUnits="userSpaceOnUse" x1="603.0067" y1="373.4075" x2="482.0748" y2="639.5388">
					<stop  offset="0" style="stop-color:#E70512"/>
					<stop  offset="1" style="stop-color:#C51725"/>
				</linearGradient>
				
					<path id="path3634_6_" inkscape:connector-curvature="0" style="fill:url(#path3634_00000040532898853679166860000014196509690742938028_);" d="
					M594.7,409.4l-11.3-10l14.3-32.2h15.6L594.7,409.4z"/>
			</g>
		</g>
	</g>
</g>
<g id="g3616_5_" transform="matrix(9.7765667,0,0,-9.7765667,-5642.9301,4389.3906)">
	<g id="g3618_5_">
		<g id="g3624_5_">
			<g id="g3626_5_">
				<path id="path3634_5_" inkscape:connector-curvature="0" class="st1" d="M611.7,419.4l-14.1-52.2h15.6l12.3,64.7L611.7,419.4
					L611.7,419.4z"/>
			</g>
		</g>
	</g>
</g>
<g id="g3680_6_">
	<g id="g3686_6_">
		<g id="g3688_6_">
			
				<linearGradient id="path3696_00000144324509343107593500000002728029116130979512_" gradientUnits="userSpaceOnUse" x1="961.7419" y1="746.9164" x2="958.6102" y2="321.7279">
				<stop  offset="0" style="stop-color:#E70512"/>
				<stop  offset="1" style="stop-color:#C51725"/>
			</linearGradient>
			
				<path id="path3696_6_" inkscape:connector-curvature="0" style="fill:url(#path3696_00000144324509343107593500000002728029116130979512_);" d="
				M919.9,698.6L874.8,678l0,0l-15.5-53.8l0,0l0.3-313.6H748.7v310.5l40.4,140.4l0,0l118.7,47.9l0,0h147.1l119-47.9l0,0L919.9,698.6
				z"/>
		</g>
	</g>
</g>
<g id="g3680_5_">
	<g id="g3686_5_">
		<g id="g3688_5_">
			<path id="path3696_5_" inkscape:connector-curvature="0" class="st1" d="M1104.1,310.6v313.3l-15.3,54.1l0,0l-55.6,20.6l0,0
				l-55.5,14.3L874.8,678l-126.1-56.8l40.4,140.4l118.7,47.9l0,0h147.1l119-47.9l0,0l41-139.8l0,0V310.6H1104.1L1104.1,310.6
				L1104.1,310.6z"/>
		</g>
	</g>
</g>
</svg>
