<?xml version="1.0" encoding="utf-8"?>
<!-- Generator: Adobe Illustrator 21.1.0, SVG Export Plug-In . SVG Version: 6.00 Build 0)  -->
<svg version="1.1" id="Ebene_1" xmlns="http://www.w3.org/2000/svg" xmlns:xlink="http://www.w3.org/1999/xlink" x="0px" y="0px"
	 viewBox="0 0 268 120" style="enable-background:new 0 0 268 120;" xml:space="preserve">
<style type="text/css">
	.st0{fill:url(#SVGID_4_);stroke:#AE2926;stroke-width:0.5;stroke-linejoin:round;}
	.st1{fill:url(#SVGID_8_);stroke:#AE2926;stroke-width:0.5;stroke-linejoin:round;}
	.st2{fill:url(#SVGID_12_);stroke:#AE2926;stroke-width:0.5;stroke-linejoin:round;}
	.st3{fill:url(#SVGID_16_);stroke:#AE2926;stroke-width:0.5;stroke-linejoin:round;}
</style>
<g>
	<g>
		<g>
			<defs>
				<polygon id="SVGID_1_" points="42.9,40.5 31.4,90.1 31.1,91.2 30.8,89.3 17.4,55.4 1,69.8 1,71.4 21.8,118.1 45.2,118.1 
					63.6,22 				"/>
			</defs>
			<linearGradient id="SVGID_2_" gradientUnits="userSpaceOnUse" x1="32.306" y1="120" x2="32.306" y2="-3.065">
				<stop  offset="0" style="stop-color:#E70512"/>
				<stop  offset="1" style="stop-color:#C51725"/>
			</linearGradient>
			<use xlink:href="#SVGID_1_"  style="overflow:visible;fill:url(#SVGID_2_);"/>
			<clipPath id="SVGID_3_">
				<use xlink:href="#SVGID_1_"  style="overflow:visible;"/>
			</clipPath>
			<use xlink:href="#SVGID_1_"  style="overflow:visible;fill:none;stroke:#AE2926;stroke-width:0.5;stroke-linejoin:round;"/>
		</g>
		<g>
			<linearGradient id="SVGID_4_" gradientUnits="userSpaceOnUse" x1="32.0391" y1="120" x2="32.0391" y2="-3.065">
				<stop  offset="0" style="stop-color:#E70512"/>
				<stop  offset="1" style="stop-color:#C51725"/>
			</linearGradient>
			<polygon class="st0" points="63.6,22 45.2,118.1 21.8,118.1 0.5,70.2 17.4,55.4 30.8,89.3 31.1,91.2 31.4,90.1 42.9,40.5 			"/>
		</g>
		<g>
			<defs>
				<path id="SVGID_5_" d="M74.8,43.8v74.3h17l0-74.3H74.8z M74.8,15.3v16.8l17-16.6V0.4L74.8,15.3z"/>
			</defs>
			<linearGradient id="SVGID_6_" gradientUnits="userSpaceOnUse" x1="83.234" y1="120" x2="83.234" y2="-3.065">
				<stop  offset="0" style="stop-color:#E70512"/>
				<stop  offset="1" style="stop-color:#C51725"/>
			</linearGradient>
			<use xlink:href="#SVGID_5_"  style="overflow:visible;fill:url(#SVGID_6_);"/>
			<clipPath id="SVGID_7_">
				<use xlink:href="#SVGID_5_"  style="overflow:visible;"/>
			</clipPath>
			<use xlink:href="#SVGID_5_"  style="overflow:visible;fill:none;stroke:#AE2926;stroke-width:0.5;stroke-linejoin:round;"/>
		</g>
		<g>
			<linearGradient id="SVGID_8_" gradientUnits="userSpaceOnUse" x1="83.2335" y1="120" x2="83.2335" y2="-3.065">
				<stop  offset="0" style="stop-color:#E70512"/>
				<stop  offset="1" style="stop-color:#C51725"/>
			</linearGradient>
			<path class="st1" d="M91.7,118.1h-17V43.8h17L91.7,118.1z M91.7,15.5l-17,16.6V15.3l17-14.9V15.5z"/>
		</g>
		<g>
			<defs>
				<path id="SVGID_9_" d="M160.1,43.8v47.6c0,3.6-0.8,6.4-2.3,8.2c-1.6,1.8-5.3,3.1-8.5,3.1h-17.3c-3.2,0-5.3-1.3-6.9-3.1
					c-1.6-1.8-2.4-4.5-2.4-8.2l0-47.7h-17V91c0,9.5,2.1,16.6,6.2,21.3c3.3,3.8,7.8,6.2,13.7,7H157c5.9-0.8,10.5-3.2,13.8-7
					c3.7-4.4,5.9-10.7,6.2-19V43.8H160.1z"/>
			</defs>
			<linearGradient id="SVGID_10_" gradientUnits="userSpaceOnUse" x1="141.3615" y1="120" x2="141.3615" y2="-3.065">
				<stop  offset="0" style="stop-color:#E70512"/>
				<stop  offset="1" style="stop-color:#C51725"/>
			</linearGradient>
			<use xlink:href="#SVGID_9_"  style="overflow:visible;fill:url(#SVGID_10_);"/>
			<clipPath id="SVGID_11_">
				<use xlink:href="#SVGID_9_"  style="overflow:visible;"/>
			</clipPath>
			<use xlink:href="#SVGID_9_"  style="overflow:visible;fill:none;stroke:#AE2926;stroke-width:0.5;stroke-linejoin:round;"/>
		</g>
		<g>
			<linearGradient id="SVGID_12_" gradientUnits="userSpaceOnUse" x1="141.3831" y1="120" x2="141.3831" y2="-3.065">
				<stop  offset="0" style="stop-color:#E70512"/>
				<stop  offset="1" style="stop-color:#C51725"/>
			</linearGradient>
			<path class="st2" d="M130.1,119.6c-8.1,0-14.1-2.5-18.2-7.3c-4-4.7-6.2-11.8-6.2-21.3V43.8h17l0,47.6c0,3.6,0.8,6.4,2.4,8.2
				c1.6,1.8,3.7,3.1,6.9,3.1h17.3c3.2,0,6.9-1.3,8.5-3.1c1.6-1.8,2.3-4.6,2.3-8.2V43.8h17v47.3c0,9.5-2.2,16.5-6.3,21.2
				c-4,4.7-10.1,7.3-18.2,7.3H130.1z"/>
		</g>
		<g>
			<defs>
				<path id="SVGID_13_" d="M233.3,43.8h-42.4v74.3h17v-57h31c3.7,0,6.4,0.8,8.3,2.3c1.8,1.6,3.2,5.3,3.2,8.4v5.3
					c0,3.1-1.3,5.3-3.2,6.9c-1.8,1.6-4.6,2.4-8.2,2.4l-19.1,0l0.5,9.3l25.3,22.4H267v-0.5l-16.7-15.8c3.9-1,7.1-2.6,9.6-4.7
					c4-3.4,6.5-8.2,7.2-14.5V65c-0.7-6.3-3.1-11.1-7.2-14.5c-4.8-4-11.8-6.7-21.4-6.7H233.3z"/>
			</defs>
			<linearGradient id="SVGID_14_" gradientUnits="userSpaceOnUse" x1="228.93" y1="120" x2="228.93" y2="-3.065">
				<stop  offset="0" style="stop-color:#E70512"/>
				<stop  offset="1" style="stop-color:#C51725"/>
			</linearGradient>
			<use xlink:href="#SVGID_13_"  style="overflow:visible;fill:url(#SVGID_14_);"/>
			<clipPath id="SVGID_15_">
				<use xlink:href="#SVGID_13_"  style="overflow:visible;"/>
			</clipPath>
			<use xlink:href="#SVGID_13_"  style="overflow:visible;fill:none;stroke:#AE2926;stroke-width:0.5;stroke-linejoin:round;"/>
		</g>
		<g>
			<linearGradient id="SVGID_16_" gradientUnits="userSpaceOnUse" x1="229.1962" y1="120" x2="229.1962" y2="-3.065">
				<stop  offset="0" style="stop-color:#E70512"/>
				<stop  offset="1" style="stop-color:#C51725"/>
			</linearGradient>
			<path class="st3" d="M250.3,101.8c3.9-1,7.1-2.6,9.6-4.7c4.8-4,7.3-10,7.3-18V68.6c0-8-2.6-14.1-7.3-18.1
				c-4.8-4-11.8-6.7-21.4-6.7h-5.2h-42.4v74.3h17v-57h31c3.7,0,6.4,0.8,8.3,2.3c1.8,1.6,3.2,5.3,3.2,8.4v5.3c0,3.1-1.3,5.3-3.2,6.9
				c-1.8,1.6-4.6,2.4-8.2,2.4l-19.1,0l0.5,9.3l25.3,22.4h21.9L250.3,101.8z"/>
		</g>
	</g>
</g>
</svg>
