<svg data-name="Ebene 1" xmlns="http://www.w3.org/2000/svg" viewBox="0 0 60 60" class="icon"><path d="M10.55 10.06v39.21h38.24V10.06zm34 31.82H14.8V14.63h29.74z" fill="#fff"/><path d="M44.54 41.88H14.8v-9.24a45.43 45.43 0 0 1 13.28 2.18c6.05 2.19 16.46 0 16.46 0z" fill="#fff" opacity=".7"/><path d="M37 27.06a3.42 3.42 0 0 1 1-2.45 3.47 3.47 0 1 0 0 6.94 3.61 3.61 0 0 0 2.55-1A3.53 3.53 0 0 1 37 27.06z" fill="#fff"/><path d="M14.8 14.63v18a45.43 45.43 0 0 1 13.28 2.18c6.05 2.19 16.46 0 16.46 0V14.63zm23.28 16.92a3.47 3.47 0 1 1 0-6.94 3.42 3.42 0 0 0-1 2.45 3.53 3.53 0 0 0 3.59 3.46 3.61 3.61 0 0 1-2.59 1.03z" fill="#fff" opacity=".2"/></svg>