<svg data-name="Ebene 1" xmlns="http://www.w3.org/2000/svg" viewBox="0 0 60 60" class="icon"><path d="M45 30a14.86 14.86 0 0 0-.13-2 23.94 23.94 0 0 0 4.26-2.81 21.18 21.18 0 0 0-.92-2.79 28.07 28.07 0 0 0-4.91.52 15 15 0 0 0-2.36-3.4 25.3 25.3 0 0 0 1.71-4.61 20 20 0 0 0-2.4-1.69 26.39 26.39 0 0 0-3.48 3.1 14.71 14.71 0 0 0-4.13-1.4 25.06 25.06 0 0 0-1.3-4.5c-.43 0-.87-.05-1.3-.05-.43 0-.87 0-1.3.05a24.23 24.23 0 0 0-1.29 4.5 14.66 14.66 0 0 0-4.14 1.4 26.39 26.39 0 0 0-3.48-3.1 20 20 0 0 0-2.4 1.69 25.3 25.3 0 0 0 1.71 4.61 15 15 0 0 0-2.36 3.4 28.07 28.07 0 0 0-4.91-.52 21.18 21.18 0 0 0-.92 2.79A23.94 23.94 0 0 0 15.17 28a15.6 15.6 0 0 0 0 4 23.94 23.94 0 0 0-4.26 2.81 21.18 21.18 0 0 0 .92 2.79 28.07 28.07 0 0 0 4.91-.52 15 15 0 0 0 2.36 3.4 25.3 25.3 0 0 0-1.71 4.61 20 20 0 0 0 2.4 1.69 26.39 26.39 0 0 0 3.48-3.1 14.71 14.71 0 0 0 4.13 1.4 25.06 25.06 0 0 0 1.3 4.5h2.6a25.06 25.06 0 0 0 1.3-4.5 14.71 14.71 0 0 0 4.13-1.4 26.39 26.39 0 0 0 3.48 3.1 20 20 0 0 0 2.4-1.69 25.3 25.3 0 0 0-1.71-4.61 15 15 0 0 0 2.36-3.4 28.07 28.07 0 0 0 4.91.52 21.18 21.18 0 0 0 .92-2.79A23.94 23.94 0 0 0 44.83 32a16.68 16.68 0 0 0 .17-2zm-15 9a9 9 0 1 1 8.82-9A8.93 8.93 0 0 1 30 39z"/></svg>