<svg xmlns="http://www.w3.org/2000/svg" viewBox="0 0 64 64" class="icon"><path fill-rule="evenodd" clip-rule="evenodd" fill="#008089" d="M0 0h64v64H0z"/><path fill="#FFF" stroke="#909094" d="M55.5 36c0 3.866-4.768 7-8.806 7l-14.458-1-14.046 1c-4.038 0-9.69-3.134-9.69-7v-8c0-3.866 5.779-7 9.816-7l14.703 1 13.549-1c4.037 0 8.932 3.134 8.932 7v8z"/><circle fill="none" stroke="#BC218C" cx="17.551" cy="33.2" r="5.051"/><path fill="#BC218C" stroke="#FFF" d="M16.5 25.5h2v9h-2z"/><linearGradient gradientUnits="userSpaceOnUse" x1="29.576" y1="27.637" x2="46.423" y2="37.363"><stop offset="0" stop-color="#a7cfd3"/><stop offset=".076" stop-color="#c0dde0"/><stop offset=".194" stop-color="#e2eff1"/><stop offset=".292" stop-color="#f7fbfb"/><stop offset=".356" stop-color="#fff"/><stop offset=".427" stop-color="#e3f0f1"/><stop offset=".51" stop-color="#c9e1e4"/><stop offset=".596" stop-color="#b6d7da"/><stop offset=".685" stop-color="#abd1d5"/><stop offset=".781" stop-color="#a7cfd3"/><stop offset=".788" stop-color="#afd3d7"/><stop offset=".816" stop-color="#c9dfe2"/><stop offset=".847" stop-color="#dce9eb"/><stop offset=".881" stop-color="#eaf0f1"/><stop offset=".925" stop-color="#f3f4f5"/><stop offset="1" stop-color="#f5f5f6"/></linearGradient><path fill="url(#a)" stroke="#89898C" d="M28.5 29.5h19v6h-19z"/><path fill="none" stroke="#909094" d="M55.5 37.125c-1.726 0-3.125-2.238-3.125-5 0-2.761 1.399-5 3.125-5"/><path fill="#909094" d="M28 27h6v1h-6zm7 0h5v1h-5z"/></svg>