<svg xmlns="http://www.w3.org/2000/svg" viewBox="0 0 60 60" class="icon"><path class="st0" d="M24.5 27.6s1.6-2.3 2.3-3.3c-3.1-4.3-6.1-7.4-9-7.4H9.4v3.8h8.4c1.4 0 4.2 3.5 6.7 6.9zM42 35.8l3.4 3.5h-6.2c-1.4 0-4.1-3.3-6.6-6.7-.1.1-.2.2-.2.3l-2.1 3c3.1 4.2 6 7.2 8.9 7.2h6.2L42 46.6l2.7 2.7 7.9-8.1-8-8-2.6 2.6z"/><path class="st0" d="M44.7 10.8L42 13.5l3.6 3.6h-6.4c-4 0-7.8 5.6-12.3 12-2.9 4.1-7.2 10.4-9.1 10.4H9.4v3.8h8.4c4 0 7.8-5.6 12.3-12 2.9-4.1 7.2-10.4 9.1-10.4h6L42 24.2l2.7 2.7 7.9-8.1-7.9-8z"/><path class="st0" d="M24.5 27.6s1.6-2.3 2.3-3.3c-3.1-4.3-6.1-7.4-9-7.4H9.4v3.8h8.4c1.4 0 4.2 3.5 6.7 6.9zM42 35.8l3.4 3.5h-6.2c-1.4 0-4.1-3.3-6.6-6.7-.1.1-.2.2-.2.3l-2.1 3c3.1 4.2 6 7.2 8.9 7.2h6.2L42 46.6l2.7 2.7 7.9-8.1-8-8-2.6 2.6z"/><path class="st0" d="M44.7 10.8L42 13.5l3.6 3.6h-6.4c-4 0-7.8 5.6-12.3 12-2.9 4.1-7.2 10.4-9.1 10.4H9.4v3.8h8.4c4 0 7.8-5.6 12.3-12 2.9-4.1 7.2-10.4 9.1-10.4h6L42 24.2l2.7 2.7 7.9-8.1-7.9-8z"/></svg>