<svg data-name="Ebene 1" xmlns="http://www.w3.org/2000/svg" viewBox="0 0 60 60" class="icon"><defs/><path opacity=".5" d="M24.29 7.56L14.07 19.3h10.22V7.56z"/><path class="cls-2" d="M36.61 40.29A1.33 1.33 0 0 0 37.94 39v-3.68a1.34 1.34 0 0 0-2.67 0V39a1.33 1.33 0 0 0 1.34 1.29z"/><path class="cls-2" d="M36.61 7.56v3h3v3.05h-3v3h3v3.05h-3v3.14h3v3.05h-3v3h3V32h-3a3 3 0 0 1 3 3v8.3a3 3 0 0 1-6.09 0v-8.31a3 3 0 0 1 3.05-3V28.9h-3v-3h3v-3.1h-3v-3.05h3V16.7h-3v-3h3v-3.1h-3v-3h-9.28v11.7H14.07v31.93h31.86V7.56z"/></svg>