<svg data-name="Ebene 1" xmlns="http://www.w3.org/2000/svg" viewBox="0 0 60 60" class="icon"><defs/><path opacity=".5" d="M23.96 7.33L13.74 19.07h10.22V7.33z"/><path class="cls-2" d="M24 7.33v11.74H13.74V51H45.6V7.33zm16.79 38h-22.2V25h22.16z"/><path d="M40.75 45.31H18.59v-6.89a33.68 33.68 0 0 1 9.89 1.63c4.51 1.63 12.27 0 12.27 0z" opacity=".7"/><path class="cls-2" d="M35.16 34.26a2.54 2.54 0 0 1 .78-1.82 2.59 2.59 0 1 0 0 5.17 2.74 2.74 0 0 0 1.9-.76 2.64 2.64 0 0 1-2.68-2.59z"/><path d="M18.59 25v13.42a33.68 33.68 0 0 1 9.89 1.63c4.51 1.63 12.27 0 12.27 0V25zm17.35 12.61a2.59 2.59 0 1 1 0-5.17 2.54 2.54 0 0 0-.78 1.82 2.64 2.64 0 0 0 2.68 2.59 2.74 2.74 0 0 1-1.9.76z" opacity=".2"/></svg>