<svg data-name="Ebene 1" xmlns="http://www.w3.org/2000/svg" viewBox="0 0 130 130" class="logo"><path d="M66.14 47.5L56.02 91.14l-.26.97-.27-1.67L43.7 60.61 29.27 73.28v1.41l18.31 41.09h20.58l16.19-84.56L66.14 47.5z"/><path data-name="SVGID" d="M66.14 47.5L56.02 91.14l-.26.97-.27-1.67L43.7 60.61 29.27 73.28v1.41l18.31 41.09h20.58l16.19-84.56L66.14 47.5z"/><path d="M84.35 31.22l-16.19 84.56H47.58L28.83 73.64 43.7 60.61l11.79 29.83.27 1.67.26-.97L66.14 47.5l18.21-16.28z"/><path data-name="SVGID" d="M94.21 50.41v65.37h15V50.41zm0-25.08v14.78l15-14.6V12.22z"/><path data-name="SVGID" d="M94.21 50.41v65.37h15V50.41zm0-25.08v14.78l15-14.6V12.22z"/><path d="M109.08 115.78h-15V50.41h15zm0-90.27l-15 14.6V25.33l15-13.11z"/></svg>